<svg id="Layer_1" data-name="Layer 1" xmlns="http://www.w3.org/2000/svg" viewBox="0 0 139.97 62.29"><defs><style>.cls-1{fill:#3bbf9e;}</style></defs><rect class="cls-1" x="6.55" y="30.4" width="1.99" height="1.99"/><path class="cls-1" d="M140,17.48h-8.9l-5.33,13.33,5.15,12.88h8.9l-5.16-12.88Z"/><path class="cls-1" d="M89.6,43.69l5.14-12.87L89.41,17.48h-8.9l5.34,13.34L80.7,43.69Z"/><path class="cls-1" d="M131.41,8.69h-8.9l-7.87,19.69V0h-8.9V28.1L98,8.69h-8.9L98,30.93l-8.9,22.25H98l7.77-19.41V62.29h8.9V33.49l7.87,19.68h8.9l-8.9-22.24Z"/><path class="cls-1" d="M140,17.48h-8.9l-5.33,13.33,5.15,12.88h8.9l-5.16-12.88Z"/><path class="cls-1" d="M89.6,43.69l5.14-12.87L89.41,17.48h-8.9l5.34,13.34L80.7,43.69Z"/><path class="cls-1" d="M131.41,8.69h-8.9l-7.87,19.69V0h-8.9V28.1L98,8.69h-8.9L98,30.93l-8.9,22.25H98l7.77-19.41V62.29h8.9V33.49l7.87,19.68h8.9l-8.9-22.24Z"/><rect class="cls-1" x="57.08" y="14.09" width="1.99" height="1.99"/><rect class="cls-1" x="54.45" y="14.09" width="1.99" height="1.99"/><rect class="cls-1" x="28.07" y="26.76" width="1.99" height="1.99"/><rect class="cls-1" x="66.13" y="34.4" width="2.56" height="2.56"/><rect class="cls-1" x="51.83" y="34.4" width="2.56" height="2.56"/><rect class="cls-1" x="25.43" y="26.76" width="1.99" height="1.99"/><rect class="cls-1" x="9.18" y="30.4" width="1.99" height="1.99"/><rect class="cls-1" x="19.69" y="26.76" width="1.99" height="1.99"/><path class="cls-1" d="M35,22.89c-.6,0-3.52-.08-4-.16H31l.47-3.46H29.27L28.93,22c-.09.71-.21.94-2,.94,0,0-3,0-3.49-.14h0l.49-3.48H21.73L21.4,22c-.09.69-2,.94-3,.94a17.55,17.55,0,0,1-4.14-.55v2.33a6.71,6.71,0,0,0,1.45.43s0,.4,0,.5c0,1.49-4.74,1.31-7.39,1.17-1.94-.1-3.86-.86-3.86-2.4a14.06,14.06,0,0,1,.23-2.24h-2a13.13,13.13,0,0,0-.26,2.58c0,3.11,2.48,4.25,6,4.34s9.46,0,9.5-2.87c0-.17,0-.61,0-.78v0h.55c1.63,0,4.19-.46,4.7-1.36l0-.08.74,1.25a15.07,15.07,0,0,0,2.76.19,10.86,10.86,0,0,0,1.28-.07c1.48-.15,2.35-.56,2.73-1.31l0-.08.76,1.27c.45.12,3.24.17,3.83.18a3.68,3.68,0,0,0,2.63-.92l0,0h0a21.14,21.14,0,0,0,6,.94,8.13,8.13,0,0,0,3.82-.79l0,0,0,0a3.42,3.42,0,0,0,2,.78h2.73a9.86,9.86,0,0,0,3.9-.8h0a10.84,10.84,0,0,0,4.4.8H61c2.35,0,3.54-1.31,3.54-3.89V14.18H62.23v7.28c0,1-.4,1.41-1.41,1.43h-.06c-.45,0-1,0-1.58,0h-.1l.06-.08a3.44,3.44,0,0,0,.7-1.93c0-1.74-1.18-3.62-3.08-3.62h0c-1.81,0-3.37,2.05-3.37,3.7A3,3,0,0,0,54,22.79l.06.08H54c-.61,0-1.25,0-1.5,0H50.11c-.58,0-.71-.14-.71-.14l0-.06a4.16,4.16,0,0,0,.25-1.44,3.56,3.56,0,0,0-3.3-3.8h-.24c-1.58,0-3,.74-6.79,4.95l0,0h0l-.36-.09-.25-.06h0l.21-1.53h-2.2L36.53,22a.94.94,0,0,1-.91.9Zm9.06,0a23.42,23.42,0,0,1-2.78-.14H41.2l.08-.08c2.67-2.44,3.69-2.9,4.64-2.9a1.54,1.54,0,0,1,1.66,1.41s0,.07,0,.1c0,1.16-1,1.62-3.5,1.62m12.62-.19h0c-1-.26-1.65-.93-1.65-1.66a1.6,1.6,0,0,1,1.5-1.56,1.51,1.51,0,0,1,1.42,1.58v0a1.88,1.88,0,0,1-1.23,1.62"/><rect class="cls-1" x="66.53" y="14.18" width="2.26" height="11.15"/><path class="cls-1" d="M7.14,43.11H3.2l-.73,2.33H0l3.65-11H7l3.65,11H7.87Zm-.59-1.89L5.17,36.84,3.79,41.22Z"/><rect class="cls-1" x="11.95" y="34.4" width="2.56" height="11.04"/><path class="cls-1" d="M24.52,46.67c0,2-1.78,3.12-4.88,3.12-2.46,0-3.86-.73-3.86-2,0-.81.67-1.28,1.79-1.52a1.46,1.46,0,0,1-.9-1.38A2.38,2.38,0,0,1,17.83,43a2.41,2.41,0,0,1-1.5-2.29c0-1.78,1.48-3,3.63-3a4.9,4.9,0,0,1,1.78.3l2.66-.3v1.78l-1.18.12a1.84,1.84,0,0,1,.25.94c0,1.66-1.32,2.9-3.51,2.9a6.64,6.64,0,0,1-1.26-.12,1.07,1.07,0,0,0-.1.4c0,.49.29.63,1,.63h2c2.05,0,3,.85,3,2.31m-2.48.51c0-.47-.47-.67-1.28-.67H18.9a.84.84,0,0,0-.44.69c0,.49.49.89,1.66.89s1.93-.3,1.93-.91M18.8,40.58a1.14,1.14,0,0,0,2.28,0,1,1,0,0,0-1-1.08H20a1.07,1.07,0,0,0-1.15,1,.49.49,0,0,0,0,.12"/><path class="cls-1" d="M25.11,42A4.06,4.06,0,0,1,28.9,37.7a4.34,4.34,0,0,1,.51,0c2.64,0,4.28,1.52,4.28,4A4.06,4.06,0,0,1,29.91,46a4.17,4.17,0,0,1-.5,0c-2.68,0-4.3-1.52-4.3-4m5.94-.18c0-1.3-.58-2.17-1.64-2.17s-1.66.87-1.66,2.17S28.34,44,29.41,44s1.64-.87,1.64-2.17"/><path class="cls-1" d="M35,44.72l.45-1.92a4.89,4.89,0,0,0,2.57.82c.71,0,1-.18,1-.53s-.25-.52-1.25-.81l-.35-.12c-1.69-.44-2.26-1.13-2.26-2.22,0-1.33,1.08-2.43,3.51-2.43a6.94,6.94,0,0,1,2,.25v1.91a7.35,7.35,0,0,0-2.18-.39c-.68,0-1.1.16-1.1.47s.25.48,1.14.73l.37.1c1.66.47,2.37,1.22,2.37,2.36,0,1.49-1.21,2.44-3.4,2.44A6.19,6.19,0,0,1,35,44.72"/><path class="cls-1" d="M50.36,43.58l-.27,1.58a3.75,3.75,0,0,1-1.14.2c-1.19,0-1.67-.68-1.67-1.47l-.73,1.17a4.17,4.17,0,0,1-1.63.33c-1.52,0-2.47-.79-2.47-2.22s.89-2.38,3.19-2.38h1.43v-.25c0-.77-.41-1.12-1.49-1.12a7.27,7.27,0,0,0-2.49.46L43.41,38a9.27,9.27,0,0,1,2.81-.44c2.26,0,3.28.92,3.28,2.76v2.84c0,.35.16.52.49.52a1.19,1.19,0,0,0,.37-.06m-3.29-.34v-1.1h-1.3c-.7,0-1,.27-1,.7s.31.75,1,.75a2.18,2.18,0,0,0,1.24-.35"/><path class="cls-1" d="M64.31,41.22c0,2.44-1.41,4.18-4.35,4.18a7.13,7.13,0,0,1-3.33-.76V34.4h2.44v3.22L59,39.15l.8-1.39a4,4,0,0,1,1.33-.26c2,0,3.19,1.48,3.19,3.72m-2.51.13c0-1.2-.57-2-1.53-2a2,2,0,0,0-1.2.41v3.42a1.74,1.74,0,0,0,1,.27c1.08,0,1.7-.75,1.7-2.15"/><rect class="cls-1" x="66.07" y="38.47" width="2.68" height="6.97"/><rect class="cls-1" x="51.77" y="38.47" width="2.68" height="6.97"/></svg>