<svg id="Layer_1" data-name="Layer 1" xmlns="http://www.w3.org/2000/svg" viewBox="0 0 25 25"><defs><style>.cls-1{fill:#93c01d;}</style></defs><path class="cls-1" d="M4,9.37l-.22,0-.2.06-.19.1-.16.13a1,1,0,0,0-.13.16A1.62,1.62,0,0,0,3,10a.83.83,0,0,0-.06.21.75.75,0,0,0,0,.21v5.22a.82.82,0,0,0,0,.22.76.76,0,0,0,.06.2,1,1,0,0,0,.1.18,1,1,0,0,0,.13.16,1.07,1.07,0,0,0,.16.14l.19.1.2.06.22,0,.21,0,.21-.06.18-.1a1.07,1.07,0,0,0,.16-.14,1,1,0,0,0,.13-.16,1,1,0,0,0,.1-.18.76.76,0,0,0,.06-.2.82.82,0,0,0,0-.22V10.44a.75.75,0,0,0,0-.21A.83.83,0,0,0,5,10a1.62,1.62,0,0,0-.1-.18,1,1,0,0,0-.13-.16l-.16-.13-.18-.1-.21-.06Z"/><path class="cls-1" d="M4,16.77l-.23,0-.21-.07-.18-.1-.17-.14a1,1,0,0,1-.13-.16.69.69,0,0,1-.1-.19A1.72,1.72,0,0,1,3,15.88a1.5,1.5,0,0,1,0-.22V10.44a1.64,1.64,0,0,1,0-.22A1.72,1.72,0,0,1,3,10a.64.64,0,0,1,.1-.18,1.09,1.09,0,0,1,.13-.17,1.09,1.09,0,0,1,.17-.13l.18-.1.21-.07a1.14,1.14,0,0,1,.45,0l.21.07a1,1,0,0,1,.18.1,1.09,1.09,0,0,1,.17.13A1.09,1.09,0,0,1,5,9.83a.64.64,0,0,1,.1.18,1.72,1.72,0,0,1,.07.21,1.64,1.64,0,0,1,0,.22v5.22a1.5,1.5,0,0,1,0,.22,1.72,1.72,0,0,1-.07.21.69.69,0,0,1-.1.19,1,1,0,0,1-.13.16l-.17.14a1,1,0,0,1-.18.1l-.21.07ZM4,9.4a.78.78,0,0,0-.22,0,.7.7,0,0,0-.19.06.77.77,0,0,0-.18.1,1,1,0,0,0-.16.12,1,1,0,0,0-.13.16.76.76,0,0,0-.09.18.6.6,0,0,0-.06.19.76.76,0,0,0,0,.21v5.22a1.41,1.41,0,0,0,.09.41,1.51,1.51,0,0,0,.09.18.93.93,0,0,0,.13.15l.16.13a.77.77,0,0,0,.18.1.7.7,0,0,0,.19.06,1,1,0,0,0,.43,0,.76.76,0,0,0,.2-.06,1,1,0,0,0,.17-.1l.16-.13a.93.93,0,0,0,.13-.15A1.51,1.51,0,0,0,5,16.07a.66.66,0,0,0,.06-.2.76.76,0,0,0,0-.21V10.44a.76.76,0,0,0,0-.21A.6.6,0,0,0,5,10a.76.76,0,0,0-.09-.18,1,1,0,0,0-.13-.16,1,1,0,0,0-.16-.12,1,1,0,0,0-.17-.1.76.76,0,0,0-.2-.06A.75.75,0,0,0,4,9.4Z"/><path class="cls-1" d="M21,9.37l-.22,0-.2.06-.18.1-.16.13a1,1,0,0,0-.13.16A1.62,1.62,0,0,0,20,10a.83.83,0,0,0-.06.21.76.76,0,0,0,0,.21v5.22a.83.83,0,0,0,0,.22.76.76,0,0,0,.06.2,1,1,0,0,0,.1.18,1,1,0,0,0,.13.16,1.07,1.07,0,0,0,.16.14l.18.1.2.06.22,0,.22,0,.2-.06.19-.1.16-.14a1,1,0,0,0,.13-.16,1,1,0,0,0,.1-.18.76.76,0,0,0,.06-.2.82.82,0,0,0,0-.22V10.44a.75.75,0,0,0,0-.21A.83.83,0,0,0,22,10a1.62,1.62,0,0,0-.1-.18,1,1,0,0,0-.13-.16l-.16-.13-.19-.1-.2-.06Z"/><path class="cls-1" d="M21,16.77l-.22,0-.21-.07-.19-.1a1.6,1.6,0,0,1-.3-.3c0-.06-.07-.12-.1-.19a.83.83,0,0,1-.06-.21.78.78,0,0,1,0-.22V10.44a.82.82,0,0,1,0-.22.83.83,0,0,1,.06-.21l.1-.18a1.15,1.15,0,0,1,.14-.17l.16-.13.19-.1.21-.07a1.09,1.09,0,0,1,.44,0l.21.07a.69.69,0,0,1,.19.1.81.81,0,0,1,.3.3A.81.81,0,0,1,22,10a1.72,1.72,0,0,1,.07.21,1.64,1.64,0,0,1,0,.22v5.22a1.5,1.5,0,0,1,0,.22,1.72,1.72,0,0,1-.07.21.69.69,0,0,1-.1.19,1,1,0,0,1-.13.16l-.17.14-.19.1a1,1,0,0,1-.21.07ZM21,9.4a.75.75,0,0,0-.21,0,.76.76,0,0,0-.2.06l-.18.1-.15.12a1,1,0,0,0-.13.16A.77.77,0,0,0,20,10l-.06.19a1.49,1.49,0,0,0,0,.21v5.22a1.49,1.49,0,0,0,0,.21l.06.2a1.62,1.62,0,0,0,.1.18.93.93,0,0,0,.13.15l.16.13a1,1,0,0,0,.17.1.76.76,0,0,0,.2.06,1,1,0,0,0,.42,0,.66.66,0,0,0,.2-.06l.18-.1.16-.13.13-.15a1.51,1.51,0,0,0,.09-.18,1.41,1.41,0,0,0,.09-.41V10.44a.76.76,0,0,0,0-.21.6.6,0,0,0-.06-.19.76.76,0,0,0-.09-.18c0-.06-.09-.11-.13-.16a1,1,0,0,0-.16-.12l-.18-.1a.66.66,0,0,0-.2-.06A.75.75,0,0,0,21,9.4Z"/><path class="cls-1" d="M6.08,9.37h0V19a1.24,1.24,0,0,0,0,.33,1.49,1.49,0,0,0,.09.3,1.51,1.51,0,0,0,.15.28,2.12,2.12,0,0,0,.2.24,1.12,1.12,0,0,0,.24.19,1.17,1.17,0,0,0,.27.15,1.76,1.76,0,0,0,.3.1,1.84,1.84,0,0,0,.33,0H9.43v2.74a1.5,1.5,0,0,0,0,.22,1.18,1.18,0,0,0,.07.2.76.76,0,0,0,.09.18.73.73,0,0,0,.14.16,1.07,1.07,0,0,0,.16.14,1,1,0,0,0,.18.1,1.17,1.17,0,0,0,.2.06l.22,0,.22,0a1.17,1.17,0,0,0,.2-.06.77.77,0,0,0,.18-.1,1.6,1.6,0,0,0,.3-.3,1.45,1.45,0,0,0,.1-.18l.06-.2a1.5,1.5,0,0,0,0-.22V20.65h1.84v2.74a1.5,1.5,0,0,0,0,.22,1.18,1.18,0,0,0,.07.2.52.52,0,0,0,.1.18.51.51,0,0,0,.13.16,1.07,1.07,0,0,0,.16.14,1,1,0,0,0,.18.1,1.17,1.17,0,0,0,.2.06l.22,0,.22,0a1.17,1.17,0,0,0,.2-.06,1,1,0,0,0,.18-.1,1.07,1.07,0,0,0,.16-.14A.51.51,0,0,0,15.4,24a.52.52,0,0,0,.1-.18,1.18,1.18,0,0,0,.07-.2,1.5,1.5,0,0,0,0-.22V20.65h1.73a1.84,1.84,0,0,0,.33,0,1.76,1.76,0,0,0,.3-.1,1.51,1.51,0,0,0,.28-.15,2,2,0,0,0,.24-.19l.19-.24a1.87,1.87,0,0,0,.25-.58,1.84,1.84,0,0,0,0-.33V9.41H6.08Z"/><path class="cls-1" d="M14.51,24.5l-.22,0-.21-.07-.19-.1a1.6,1.6,0,0,1-.3-.3,1.14,1.14,0,0,1-.1-.19.73.73,0,0,1-.06-.21.78.78,0,0,1,0-.22V20.68H11.62v2.71a1.5,1.5,0,0,1,0,.22,1.29,1.29,0,0,1-.07.21,1.14,1.14,0,0,1-.1.19,1.6,1.6,0,0,1-.3.3l-.19.1-.21.07a1.09,1.09,0,0,1-.44,0l-.21-.07-.19-.1a1.6,1.6,0,0,1-.3-.3,1.14,1.14,0,0,1-.1-.19.73.73,0,0,1-.06-.21.78.78,0,0,1,0-.22V20.68H7.7a1.84,1.84,0,0,1-.33,0l-.31-.1a1.51,1.51,0,0,1-.28-.15,1.59,1.59,0,0,1-.24-.2,1.16,1.16,0,0,1-.2-.25,1.87,1.87,0,0,1-.16-.28,1.58,1.58,0,0,1-.09-.31,1.75,1.75,0,0,1,0-.33V9.35H19v0h0V19a1.19,1.19,0,0,1,0,.33,1.58,1.58,0,0,1-.09.31,1.25,1.25,0,0,1-.15.28,1.45,1.45,0,0,1-.45.45,1.51,1.51,0,0,1-.28.15l-.31.1a1.84,1.84,0,0,1-.33,0h-1.7v2.71a.78.78,0,0,1,0,.22.73.73,0,0,1-.06.21,1.14,1.14,0,0,1-.1.19,1.6,1.6,0,0,1-.3.3l-.19.1-.21.07Zm-2.95-3.88h1.9v2.77a1.49,1.49,0,0,0,0,.21,1.17,1.17,0,0,0,.06.2,1.62,1.62,0,0,0,.1.18.93.93,0,0,0,.13.15.87.87,0,0,0,.15.13l.18.1a.66.66,0,0,0,.2.06,1,1,0,0,0,.42,0,.66.66,0,0,0,.2-.06l.18-.1a.61.61,0,0,0,.15-.13.93.93,0,0,0,.13-.15,1.62,1.62,0,0,0,.1-.18.66.66,0,0,0,.06-.2,1.49,1.49,0,0,0,0-.21V20.62h1.76a1.66,1.66,0,0,0,.32,0l.3-.09a1.82,1.82,0,0,0,.27-.15l.24-.19a1.55,1.55,0,0,0,.19-.24,1.17,1.17,0,0,0,.15-.27,1.32,1.32,0,0,0,.09-.3,1.66,1.66,0,0,0,0-.32V9.41H6.11V19a1.66,1.66,0,0,0,0,.32,1,1,0,0,0,.1.3,1.15,1.15,0,0,0,.14.27,1.16,1.16,0,0,0,.2.24,2.11,2.11,0,0,0,.23.19,1.82,1.82,0,0,0,.27.15,1.71,1.71,0,0,0,.3.09,1.66,1.66,0,0,0,.32,0H9.46v2.77a1.49,1.49,0,0,0,0,.21.66.66,0,0,0,.06.2,1.62,1.62,0,0,0,.1.18.93.93,0,0,0,.13.15.61.61,0,0,0,.15.13l.18.1a.66.66,0,0,0,.2.06,1,1,0,0,0,.42,0,.66.66,0,0,0,.2-.06l.18-.1a1.39,1.39,0,0,0,.28-.28,1.62,1.62,0,0,0,.1-.18.66.66,0,0,0,.06-.2.75.75,0,0,0,0-.21ZM18.93,9.39Zm0,0Z"/><path class="cls-1" d="M15.65,2.82l.14-.27.15-.27L16.08,2l.15-.27.14-.27.14-.27.15-.27L16.8.67l0,0,0,0h0l0,0h0l0,0,0,0h0l-.15.27-.14.27-.15.26L16,1.61l-.15.27-.14.27-.15.27-.14.27-.33-.16-.34-.14-.36-.12L14,2.17l-.36-.07A2.5,2.5,0,0,0,13.28,2L12.9,2h-.76l-.37,0-.35.06-.35.07a2.25,2.25,0,0,0-.35.09l-.33.1-.33.13-.32.14L9.6,2.36,9.46,2.1l-.14-.26-.14-.26L9,1.32,8.9,1.06,8.76.8,8.62.54h0l0,0,0,0h0l0,0h0l0,0,0,0,.14.26.14.25.14.26.14.26L9.08,2l.14.26.14.26.14.26q-.37.21-.72.45c-.23.17-.44.35-.65.54a6.76,6.76,0,0,0-.57.62A5.6,5.6,0,0,0,7.07,5a5.34,5.34,0,0,0-.39.75,5.6,5.6,0,0,0-.3.81,8,8,0,0,0-.19.85,6.54,6.54,0,0,0-.06.89H18.89a6.36,6.36,0,0,0-.06-.87,5.84,5.84,0,0,0-.18-.83,6.86,6.86,0,0,0-.28-.8A6.31,6.31,0,0,0,18,5.1a6.8,6.8,0,0,0-.47-.68A6.53,6.53,0,0,0,17,3.8a5.25,5.25,0,0,0-.62-.53A5.1,5.1,0,0,0,15.65,2.82ZM9.22,5.87H9.1L9,5.82l-.11-.05-.09-.08a.22.22,0,0,1-.07-.09.33.33,0,0,1-.06-.1.49.49,0,0,1,0-.11s0-.08,0-.12,0-.09,0-.13a.49.49,0,0,1,0-.11.33.33,0,0,1,.06-.1.22.22,0,0,1,.07-.09l.09-.08L9,4.7l.11,0h.24l.12,0,.1.06.09.08a.36.36,0,0,1,.08.09.31.31,0,0,1,0,.1.49.49,0,0,1,0,.11.53.53,0,0,1,0,.13.45.45,0,0,1-.05.23.31.31,0,0,1,0,.1.36.36,0,0,1-.08.09l-.09.08-.1.05-.12,0Zm6.47,0h-.12l-.11,0-.11-.05-.09-.08a.35.35,0,0,1-.07-.09.31.31,0,0,1,0-.1.45.45,0,0,1-.05-.23.53.53,0,0,1,0-.13.49.49,0,0,1,0-.11.31.31,0,0,1,0-.1.35.35,0,0,1,.07-.09l.09-.08.11-.06.11,0h.25l.11,0,.1.06a.24.24,0,0,1,.09.08.36.36,0,0,1,.08.09.31.31,0,0,1,.05.1.49.49,0,0,1,0,.11.53.53,0,0,1,0,.13.45.45,0,0,1-.05.23.31.31,0,0,1-.05.1.36.36,0,0,1-.08.09.24.24,0,0,1-.09.08l-.1.05-.11,0Z"/><path class="cls-1" d="M18.92,8.36H6.1v0a5.26,5.26,0,0,1,.07-.89,6.25,6.25,0,0,1,.18-.86,6.08,6.08,0,0,1,.3-.81A6.72,6.72,0,0,1,7.05,5a6.63,6.63,0,0,1,.49-.69A6,6,0,0,1,8.77,3.17a6.2,6.2,0,0,1,.69-.44L8.34.65,8.63.5,9.76,2.59l.29-.14.33-.12.34-.11.34-.09.35-.07L11.77,2a2.31,2.31,0,0,1,.37,0,4.82,4.82,0,0,1,.76,0c.13,0,.26,0,.38,0l.38.06.37.08.36.1a2.53,2.53,0,0,1,.36.12l.34.13.31.15L16.55.5l.29.15L15.69,2.81a7,7,0,0,1,.67.44,5.25,5.25,0,0,1,.62.53,6.53,6.53,0,0,1,.56.62,7.51,7.51,0,0,1,.47.68,7.39,7.39,0,0,1,.38.74,7.64,7.64,0,0,1,.29.8q.11.4.18.84a6.36,6.36,0,0,1,.06.87Zm-12.76,0h12.7a5.73,5.73,0,0,0-.06-.84,6.3,6.3,0,0,0-.18-.84,5.59,5.59,0,0,0-.28-.78A6.45,6.45,0,0,0,18,5.11a7.51,7.51,0,0,0-.47-.68,7.76,7.76,0,0,0-.55-.61,5.25,5.25,0,0,0-.62-.53,6.28,6.28,0,0,0-.69-.45h0L16.76.68l-.18-.1L15.42,2.73l0,0-.33-.15-.34-.14-.35-.12L14,2.2l-.37-.08-.37-.05-.39,0h-.75l-.36,0-.36,0-.35.07-.34.09-.33.11-.33.13-.31.14h0L8.61.58l-.19.1L9.54,2.75l0,0a7.56,7.56,0,0,0-.71.44c-.23.17-.44.35-.65.54a8.22,8.22,0,0,0-.57.61,6.54,6.54,0,0,0-.48.69,6.72,6.72,0,0,0-.4.75,6.29,6.29,0,0,0-.29.8,5.83,5.83,0,0,0-.19.85A6.11,6.11,0,0,0,6.16,8.31ZM15.69,5.9h-.13l-.11,0-.11-.06a.34.34,0,0,1-.09-.08l-.08-.09-.06-.11a.56.56,0,0,1,0-.12s0-.08,0-.12,0-.09,0-.13a.56.56,0,0,1,0-.12l.06-.11a.34.34,0,0,1,.08-.09.34.34,0,0,1,.09-.08.24.24,0,0,1,.11-.06l.11,0a.57.57,0,0,1,.26,0l.12,0a.3.3,0,0,1,.11.06l.09.08a.34.34,0,0,1,.08.09l.06.11a.53.53,0,0,1,0,.12.4.4,0,0,1,0,.25.53.53,0,0,1,0,.12l-.06.11-.08.09-.09.08-.11.06-.12,0Zm0-1.22h-.11l-.11,0a.31.31,0,0,0-.1,0l-.09.07-.07.09s0,.07-.05.1l0,.11a.49.49,0,0,0,0,.12.41.41,0,0,0,0,.11l0,.11s0,.07.05.1l.07.08.09.08.1,0a.35.35,0,0,0,.11,0,.65.65,0,0,0,.34,0l.1,0,.08-.08a.27.27,0,0,0,.07-.08l.06-.1,0-.11a.41.41,0,0,0,0-.11.49.49,0,0,0,0-.12l0-.11-.06-.1-.07-.09L16,4.78l-.1,0a.23.23,0,0,0-.11,0ZM9.22,5.9H9.09L9,5.85l-.1-.06a.39.39,0,0,1-.1-.08l-.08-.09-.06-.11,0-.12a.4.4,0,0,1,0-.25l0-.12.06-.11a.73.73,0,0,1,.08-.09.39.39,0,0,1,.1-.08A.27.27,0,0,1,9,4.68l.12,0a.57.57,0,0,1,.26,0l.12,0a.3.3,0,0,1,.11.06l.09.08a.34.34,0,0,1,.08.09L9.81,5a.53.53,0,0,1,0,.12.4.4,0,0,1,0,.25.53.53,0,0,1,0,.12l-.06.11-.08.09-.09.08-.11.06-.12,0Zm0-1.22H9.1l-.1,0-.1,0-.09.07-.07.09a.47.47,0,0,0-.05.1.45.45,0,0,0,0,.23.41.41,0,0,0,0,.11.49.49,0,0,0,0,.11l.05.1a.27.27,0,0,0,.07.08l.09.08.1,0,.1,0a.49.49,0,0,0,.24,0l.11,0,.1,0,.08-.08a.27.27,0,0,0,.07-.08l.06-.1,0-.11a.41.41,0,0,0,0-.11.49.49,0,0,0,0-.12l0-.11-.06-.1-.07-.09-.08-.07-.1,0-.11,0Z"/></svg>