<svg id="Layer_1" data-name="Layer 1" xmlns="http://www.w3.org/2000/svg" viewBox="0 0 25 25"><path d="M.5,11.4V1.34a2.72,2.72,0,0,1,0-.28A.54.54,0,0,1,1.23.57l5.32,1.5,2,.56a.76.76,0,0,0,.3,0L16,.6a1.3,1.3,0,0,1,.65,0l7.28,2.05a.63.63,0,0,1,.56.73V23.76c0,.59-.31.81-.88.64l-7.15-2a.86.86,0,0,0-.32,0c-2.36.67-4.73,1.33-7.09,2a1.31,1.31,0,0,1-.76,0l-7.2-2c-.49-.14-.6-.28-.6-.8ZM9.25,23.18l.22-.05,6-1.7a.34.34,0,0,0,.3-.39q0-9.45,0-18.9V1.83l-.22,0c-2,.56-4,1.14-6,1.69A.36.36,0,0,0,9.24,4q0,9.42,0,18.84Zm14.13,0V3.91a.28.28,0,0,0-.24-.32c-1.42-.39-2.84-.8-4.26-1.2l-2-.57V20c0,.39,0,.77,0,1.16,0,.14,0,.2.19.25.76.2,1.51.43,2.26.64Zm-15.25,0V3.92a.29.29,0,0,0-.26-.34l-4-1.13L1.62,1.82V17.36c0,1.22,0,2.45,0,3.67,0,.23,0,.34.29.4.72.19,1.44.41,2.16.61Z" style="fill:#e3204a"/><path d="M14.68,19.65a.45.45,0,0,1-.34.52c-1.13.34-2.26.66-3.39,1a.55.55,0,0,1-.62-.37.54.54,0,0,1,.37-.69c.55-.17,1.1-.31,1.64-.47L14,19.15A.53.53,0,0,1,14.68,19.65Z" style="fill:#e3204a"/><path d="M14.68,4.42a.45.45,0,0,1-.34.49c-1.12.34-2.26.66-3.39,1a.55.55,0,0,1-.62-.37.54.54,0,0,1,.37-.69c.55-.17,1.11-.32,1.67-.48L14,3.89A.53.53,0,0,1,14.68,4.42Z" style="fill:#e3204a"/><path d="M10.32,18c0-.36.13-.53.38-.6L14,16.43a.54.54,0,0,1,.29,1.05l-2.37.68-.91.26A.52.52,0,0,1,10.32,18Z" style="fill:#e3204a"/><path d="M11,13c-.36,0-.58-.16-.63-.42a.54.54,0,0,1,.4-.65l2.83-.8.37-.11a.56.56,0,0,1,.75.35.55.55,0,0,1-.45.71l-2.83.8Z" style="fill:#e3204a"/><path d="M14.68,14.26a.45.45,0,0,1-.33.5l-3.36,1a.55.55,0,0,1-.66-.35.56.56,0,0,1,.42-.72L14,13.72A.52.52,0,0,1,14.68,14.26Z" style="fill:#e3204a"/><path d="M22.31,17v3.59a.52.52,0,0,1-.69.52l-3.26-.93a.52.52,0,0,1-.42-.55q0-3.52,0-7.06A.54.54,0,0,1,18.7,12l3.16.89a.52.52,0,0,1,.44.59c0,1.18,0,2.36,0,3.53ZM19,19.25l2.19.62v-6L19,13.25Z" style="fill:#353f49"/><path d="M22.31,5.34a.53.53,0,0,1-.65.54l-3.34-1a.54.54,0,0,1-.36-.7.55.55,0,0,1,.65-.36l3.31,1A.5.5,0,0,1,22.31,5.34Z" style="fill:#353f49"/><path d="M18,7a.5.5,0,0,1,.69-.44c1.09.3,2.17.61,3.26.93a.54.54,0,1,1-.3,1l-3.23-.91A.54.54,0,0,1,18,7Z" style="fill:#353f49"/><path d="M22.31,10.79a.51.51,0,0,1-.68.49l-3.27-.92a.56.56,0,0,1-.41-.7.55.55,0,0,1,.7-.37c1.09.3,2.17.62,3.26.93A.52.52,0,0,1,22.31,10.79Z" style="fill:#353f49"/><path d="M7.06,8.91v3.48c0,.51-.29.73-.79.59l-3.1-.87c-.37-.11-.48-.25-.48-.63v-7a.54.54,0,0,1,.76-.57l3.07.87c.44.12.54.26.54.72ZM3.79,5.14v6L6,11.75v-6Z" style="fill:#353f49"/><path d="M7.06,20.61a.52.52,0,0,1-.67.52c-1.09-.3-2.19-.61-3.28-.93a.54.54,0,0,1-.4-.72.56.56,0,0,1,.71-.33L6.55,20C6.92,20.14,7.06,20.3,7.06,20.61Z" style="fill:#353f49"/><path d="M7.05,17.94a.51.51,0,0,1-.67.48c-1.12-.3-2.23-.62-3.34-1a.53.53,0,0,1-.33-.69.54.54,0,0,1,.65-.35l3.31.94A.48.48,0,0,1,7.05,17.94Z" style="fill:#353f49"/><path d="M7.05,15.21a.52.52,0,0,1-.68.51c-1.1-.31-2.21-.62-3.31-1a.52.52,0,0,1-.35-.69.53.53,0,0,1,.67-.35l3.26.92A.51.51,0,0,1,7.05,15.21Z" style="fill:#353f49"/></svg>