<svg id="Layer_1" data-name="Layer 1" xmlns="http://www.w3.org/2000/svg" viewBox="0 0 25 25"><defs><style>.cls-1{fill:#40739e;}.cls-2{fill:#003e5d;}.cls-3{fill:#bee0ff;}.cls-4{fill:#39bcff;}.cls-5{fill:#fbc531;}.cls-6{fill:#fff;}.cls-7{fill:#487eb0;}.cls-8{fill:#ffdb54;}.cls-9{fill:#65d4ff;}.cls-10{fill:#d0e8ff;}.cls-11{fill:#e1b12c;}.cls-12{fill:#e3204a;}.cls-13{fill:#ff5640;}.cls-14{fill:#9ec7ff;}.cls-15{fill:#d1d3d4;}.cls-16{fill:#f1f2f2;}</style></defs><path class="cls-1" d="M5.76,18.18v.31a.29.29,0,0,0,.29.26H19.31a.24.24,0,0,0,.24-.26v-.31Z"/><path class="cls-2" d="M18.62,18.18V10.33a.26.26,0,0,0-.26-.26H7a.26.26,0,0,0-.25.26v7.85Z"/><rect class="cls-3" x="7.16" y="10.49" width="11.05" height="7.28"/><rect class="cls-4" x="7.16" y="10.49" width="11.05" height="0.36"/><path class="cls-5" d="M20.42,10.49v0a3,3,0,0,1-6.09,0v0H12.89v0a4.49,4.49,0,0,0,9,0v0Z"/><path class="cls-5" d="M11.08,10.49v0a3,3,0,0,1-6.09,0v0H3.55v0a4.49,4.49,0,0,0,9,0v0Z"/><rect class="cls-2" x="20.37" y="10.18" width="1.55" height="0.36"/><rect class="cls-2" x="3.55" y="10.18" width="1.45" height="0.36"/><rect class="cls-6" x="3.85" y="8.73" width="1.19" height="1.39" rx="0.26"/><path class="cls-6" d="M4.72,9a.16.16,0,0,0,.22,0h0a.15.15,0,0,0,0-.21l-.51-.52a.16.16,0,0,0-.22,0h0a.16.16,0,0,0,0,.22Z"/><rect class="cls-5" x="3.65" y="7.91" width="0.57" height="2.43"/><rect class="cls-7" x="3.8" y="7.6" width="0.26" height="0.31"/><circle class="cls-8" cx="3.91" cy="6.46" r="1.24"/><circle class="cls-9" cx="3.91" cy="6.46" r="0.93"/><circle class="cls-10" cx="4.16" cy="6.05" r="0.26"/><path class="cls-6" d="M3.39,9.25a.16.16,0,0,0,.16.15H4a.15.15,0,0,0,.15-.15h0A.15.15,0,0,0,4,9.09H3.55a.16.16,0,0,0-.16.16Z"/><path class="cls-6" d="M3.39,8.89A.16.16,0,0,0,3.55,9H4a.15.15,0,0,0,.15-.15h0A.15.15,0,0,0,4,8.73H3.55a.16.16,0,0,0-.16.16Z"/><path class="cls-6" d="M3.39,9.61a.15.15,0,0,0,.16.15H4a.14.14,0,0,0,.15-.15h0A.15.15,0,0,0,4,9.45H3.55a.16.16,0,0,0-.16.16Z"/><path class="cls-6" d="M3.39,10a.16.16,0,0,0,.16.16H4A.15.15,0,0,0,4.16,10h0A.15.15,0,0,0,4,9.82H3.55a.16.16,0,0,0-.16.15Z"/><rect class="cls-2" x="20.22" y="14.67" width="2.74" height="4.13" rx="0.29"/><path class="cls-5" d="M1,15.55v2.89a.26.26,0,0,0,.26.25H5a.26.26,0,0,0,.26-.25V15.55Z"/><path class="cls-11" d="M3.27,17.4a.2.2,0,0,1-.27,0L1,15.73a.2.2,0,0,1,0-.27l2-2a.2.2,0,0,1,.27,0l2,2a.18.18,0,0,1,0,.27Z"/><path class="cls-6" d="M5,14.36V16L3.27,17.4a.2.2,0,0,1-.27,0L1.22,15.9V14.36a.26.26,0,0,1,.26-.26H4.73A.26.26,0,0,1,5,14.36Z"/><path class="cls-7" d="M4.22,15a.09.09,0,0,1-.08.08H2.07A.08.08,0,0,1,2,15H2a.08.08,0,0,1,.07-.08H4.14a.09.09,0,0,1,.08.08Z"/><path class="cls-7" d="M4.22,15.31a.08.08,0,0,1-.08.08H2.07A.07.07,0,0,1,2,15.31H2a.07.07,0,0,1,.07-.07H4.14a.08.08,0,0,1,.08.07Z"/><path class="cls-7" d="M4.22,15.67a.08.08,0,0,1-.08.08H2.07A.07.07,0,0,1,2,15.67H2a.07.07,0,0,1,.07-.07H4.14a.08.08,0,0,1,.08.07Z"/><path class="cls-12" d="M2.49,12.58a1.11,1.11,0,0,0,.18-.6,1.09,1.09,0,1,0-1.09,1.09,1.06,1.06,0,0,0,.68-.24l.41.13Z"/><path class="cls-6" d="M2.1,11.73a.05.05,0,0,1-.05,0H1.12a.05.05,0,0,1-.05,0h0a.06.06,0,0,1,.05-.06h.93a.06.06,0,0,1,.05.06Z"/><path class="cls-6" d="M2.1,12a.06.06,0,0,1-.05.06H1.12A.06.06,0,0,1,1.07,12h0a.05.05,0,0,1,.05-.05h.93A.05.05,0,0,1,2.1,12Z"/><path class="cls-6" d="M2.1,12.24a0,0,0,0,1-.05,0H1.12a0,0,0,0,1-.05,0h0a0,0,0,0,1,.05-.05h.93a0,0,0,0,1,.05.05Z"/><circle class="cls-12" cx="6.75" cy="8.27" r="0.98"/><polygon class="cls-6" points="6.43 7.96 7.05 8.27 6.43 8.58 6.43 7.96"/><rect class="cls-6" x="20.37" y="15.29" width="2.43" height="2.89"/><rect class="cls-12" x="20.37" y="15.29" width="2.43" height="0.21"/><rect class="cls-12" x="20.63" y="15.75" width="0.21" height="0.05"/><rect class="cls-12" x="20.63" y="15.91" width="1.86" height="0.05"/><rect class="cls-12" x="20.63" y="16.06" width="1.86" height="0.05"/><rect class="cls-12" x="20.73" y="16.94" width="0.21" height="0.62"/><rect class="cls-5" x="21.04" y="16.47" width="0.21" height="1.08"/><rect class="cls-12" x="21.35" y="16.84" width="0.21" height="0.72"/><rect class="cls-5" x="21.66" y="16.47" width="0.21" height="1.08"/><rect class="cls-12" x="21.97" y="16.63" width="0.21" height="0.93"/><rect class="cls-5" x="22.28" y="17.04" width="0.21" height="0.52"/><rect class="cls-7" x="20.63" y="17.66" width="1.91" height="0.05"/><rect class="cls-7" x="20.63" y="17.82" width="1.91" height="0.05"/><path class="cls-12" d="M2.72,9.4A.36.36,0,0,0,2.36,9a.36.36,0,0,0-.26.11A.36.36,0,0,0,1.84,9a.36.36,0,0,0-.36.36c0,.47.62.78.62.78S2.72,9.82,2.72,9.4Z"/><path class="cls-12" d="M23.83,8.68a.1.1,0,0,1-.1.1h0a.1.1,0,0,1-.11-.1V6.2a.11.11,0,0,1,.11-.1h0a.11.11,0,0,1,.1.1Z"/><path class="cls-1" d="M23.83,7.19v.5A.25.25,0,0,0,24,7.44.26.26,0,0,0,23.83,7.19Z"/><circle class="cls-12" cx="23.16" cy="10.07" r="0.52"/><circle class="cls-13" cx="23.16" cy="10.07" r="0.36"/><circle class="cls-14" cx="23.16" cy="10.07" r="0.26"/><rect class="cls-12" x="23.05" y="9.4" width="0.21" height="0.26"/><rect class="cls-12" x="22.67" y="9.56" width="0.21" height="0.26" transform="translate(-0.18 18.94) rotate(-44.99)"/><rect class="cls-12" x="22.49" y="9.97" width="0.26" height="0.21"/><rect class="cls-12" x="22.65" y="10.35" width="0.26" height="0.21" transform="translate(-0.72 19.17) rotate(-45.01)"/><rect class="cls-12" x="23.05" y="10.49" width="0.21" height="0.26"/><rect class="cls-12" x="23.44" y="10.33" width="0.21" height="0.26" transform="translate(-0.5 19.71) rotate(-44.99)"/><rect class="cls-12" x="23.57" y="9.97" width="0.26" height="0.21"/><rect class="cls-12" x="23.41" y="9.59" width="0.26" height="0.21" transform="translate(0.04 19.48) rotate(-45)"/><polygon class="cls-6" points="24.5 11.47 24.5 13.63 24.19 13.95 22.33 13.95 22.33 11.47 24.5 11.47"/><polygon class="cls-12" points="24.5 13.63 24.19 13.95 24.19 13.63 24.5 13.63"/><circle class="cls-12" cx="23" cy="12.29" r="0.36"/><circle class="cls-12" cx="23" cy="13.17" r="0.36"/><path class="cls-2" d="M23,11.93v.36h.36A.36.36,0,0,0,23,11.93Z"/><circle class="cls-6" cx="23" cy="12.29" r="0.14"/><rect class="cls-15" x="23.52" y="12.04" width="0.57" height="0.05"/><rect class="cls-15" x="23.52" y="12.19" width="0.57" height="0.05"/><rect class="cls-15" x="23.52" y="12.35" width="0.57" height="0.05"/><rect class="cls-15" x="23.52" y="12.5" width="0.31" height="0.05"/><rect class="cls-15" x="23.52" y="12.91" width="0.57" height="0.05"/><rect class="cls-15" x="23.52" y="13.07" width="0.57" height="0.05"/><rect class="cls-15" x="23.52" y="13.22" width="0.57" height="0.05"/><rect class="cls-15" x="23.52" y="13.38" width="0.31" height="0.05"/><path class="cls-5" d="M23,12.81v.36l.21.3a.38.38,0,0,0,.15-.3A.36.36,0,0,0,23,12.81Z"/><circle class="cls-6" cx="23" cy="13.17" r="0.14"/><path class="cls-16" d="M16.76,8.58a.36.36,0,0,0-.36.36v5.73a.47.47,0,0,1-.47.46H9.53V8.94a.36.36,0,0,1,.36-.36Z"/><path class="cls-15" d="M17.12,10.07V8.94a.36.36,0,0,0-.72,0v1.13Z"/><path class="cls-7" d="M10,14.67H9.07a.47.47,0,0,0,.46.46h6.4v-.46Z"/><path class="cls-16" d="M16.4,14.67a.47.47,0,0,1-.93,0Z"/><path class="cls-6" d="M15.11,13.17a.36.36,0,0,0-.36.36v5.73a.47.47,0,0,1-.47.47H7.88v-6.2a.36.36,0,0,1,.36-.36Z"/><path class="cls-7" d="M15.47,14.67V13.53a.36.36,0,0,0-.72,0v1.14Z"/><path class="cls-5" d="M8.35,19.31H7.42a.46.46,0,0,0,.46.47h6.4v-.47Z"/><path class="cls-6" d="M14.75,19.31a.47.47,0,0,1-.47.47.46.46,0,0,1-.46-.47Z"/><rect class="cls-15" x="10.67" y="9.92" width="4.44" height="0.1"/><rect class="cls-15" x="10.67" y="10.23" width="4.44" height="0.1"/><rect class="cls-15" x="10.67" y="10.54" width="4.44" height="0.1"/><rect class="cls-15" x="10.67" y="10.85" width="1.45" height="0.1"/><rect class="cls-15" x="9.12" y="14.82" width="4.44" height="0.1"/><rect class="cls-15" x="9.12" y="15.13" width="4.44" height="0.1"/><rect class="cls-15" x="9.12" y="15.44" width="4.44" height="0.1"/><rect class="cls-15" x="9.12" y="15.75" width="1.45" height="0.1"/><rect class="cls-15" x="9.12" y="16.63" width="4.44" height="0.1"/><rect class="cls-15" x="9.12" y="16.94" width="4.44" height="0.1"/><rect class="cls-15" x="9.12" y="17.25" width="4.44" height="0.1"/><rect class="cls-15" x="9.12" y="17.56" width="1.45" height="0.1"/><rect class="cls-12" x="10.62" y="11.26" width="2.17" height="1.39"/><rect class="cls-15" x="13.04" y="11.26" width="2.06" height="0.1"/><rect class="cls-15" x="13.04" y="11.57" width="2.06" height="0.1"/><rect class="cls-15" x="13.04" y="11.88" width="2.06" height="0.1"/><rect class="cls-15" x="13.04" y="12.19" width="2.06" height="0.1"/><rect class="cls-15" x="13.04" y="12.5" width="0.72" height="0.1"/><rect class="cls-12" x="23.73" y="15.44" width="0.41" height="3.3"/><rect class="cls-13" x="24.04" y="15.44" width="0.1" height="3.3"/><rect class="cls-1" x="23.73" y="18.23" width="0.41" height="0.21"/><polygon class="cls-1" points="23.93 14.67 23.84 15.03 24.03 15.03 23.93 14.67"/><polygon class="cls-16" points="23.84 15.03 23.73 15.44 24.14 15.44 24.03 15.03 23.84 15.03"/><rect class="cls-6" x="20.32" y="8.78" width="1.45" height="1.39" rx="0.26"/><path class="cls-6" d="M20.64,9.1a.16.16,0,0,1-.22,0h0a.16.16,0,0,1,0-.22l.51-.51a.16.16,0,0,1,.22,0h0a.16.16,0,0,1,0,.22Z"/><rect class="cls-12" x="21.2" y="7.8" width="0.57" height="2.37"/><path class="cls-6" d="M22,9.3a.15.15,0,0,1-.15.15h-.36a.15.15,0,0,1-.16-.15h0a.15.15,0,0,1,.16-.15h.36A.15.15,0,0,1,22,9.3Z"/><path class="cls-6" d="M22,8.94a.15.15,0,0,1-.15.15h-.36a.16.16,0,0,1-.16-.15h0a.16.16,0,0,1,.16-.16h.36a.16.16,0,0,1,.15.16Z"/><path class="cls-6" d="M22,9.66a.16.16,0,0,1-.15.16h-.36a.16.16,0,0,1-.16-.16h0a.16.16,0,0,1,.16-.15h.36a.15.15,0,0,1,.15.15Z"/><path class="cls-6" d="M22,10a.16.16,0,0,1-.15.16h-.36a.16.16,0,0,1-.16-.16h0a.16.16,0,0,1,.16-.15h.36A.15.15,0,0,1,22,10Z"/><path class="cls-6" d="M23.62,8.45a3.26,3.26,0,0,0-2.22-.57V7a3.32,3.32,0,0,0,2.22-.58Z"/><path class="cls-12" d="M21.87,6.87H21.2a.52.52,0,0,0-.52.52v.16a.51.51,0,0,0,.52.51h.67Z"/><rect class="cls-13" x="21.2" y="8.06" width="0.57" height="0.21"/><rect class="cls-6" x="21.09" y="7.18" width="0.62" height="0.05"/></svg>