<svg id="Layer_1" data-name="Layer 1" xmlns="http://www.w3.org/2000/svg" viewBox="0 0 25 25"><rect x="4.76" y="0.46" width="17.8" height="24.09" style="fill:none;stroke:#e3204a;stroke-miterlimit:10;stroke-width:0.5px"/><path d="M8.64,4.37A1.36,1.36,0,0,0,10,3H7.28A1.36,1.36,0,0,0,8.64,4.37Z" style="fill:none;stroke:#e3204a;stroke-miterlimit:10;stroke-width:0.5px"/><line x1="8.64" y1="3.01" x2="8.64" y2="1.95" style="fill:none;stroke:#e3204a;stroke-miterlimit:10;stroke-width:0.5px"/><line x1="14.04" y1="1.95" x2="20.04" y2="1.95" style="fill:none;stroke:#e3204a;stroke-miterlimit:10;stroke-width:0.5px"/><line x1="14.04" y1="3.01" x2="20.04" y2="3.01" style="fill:none;stroke:#e3204a;stroke-miterlimit:10;stroke-width:0.5px"/><line x1="9.14" y1="9.25" x2="18.18" y2="9.25" style="fill:none;stroke:#e3204a;stroke-miterlimit:10;stroke-width:0.5px"/><line x1="10.65" y1="11.3" x2="16.66" y2="11.3" style="fill:none;stroke:#e3204a;stroke-miterlimit:10;stroke-width:0.5px"/><rect x="-1.95" y="9.87" width="10.16" height="5.26" transform="translate(15.63 9.37) rotate(90)" style="fill:none;stroke:#e3204a;stroke-miterlimit:10;stroke-width:0.5px"/><path d="M2.62,9.94A1.36,1.36,0,0,0,4,11.3V8.58A1.36,1.36,0,0,0,2.62,9.94Z" style="fill:none;stroke:#e3204a;stroke-miterlimit:10;stroke-width:0.5px"/><line x1="3.98" y1="9.94" x2="5.03" y2="9.94" style="fill:none;stroke:#e3204a;stroke-miterlimit:10;stroke-width:0.5px"/><line x1="3.98" y1="13.27" x2="3.98" y2="16.71" style="fill:none;stroke:#e3204a;stroke-miterlimit:10;stroke-width:0.5px"/><line x1="2.62" y1="13.27" x2="2.62" y2="14.99" style="fill:none;stroke:#e3204a;stroke-miterlimit:10;stroke-width:0.5px"/><rect x="10.83" y="14.4" width="13.67" height="8.12" rx="4" style="fill:none;stroke:#e3204a;stroke-miterlimit:10;stroke-width:0.5px"/><polyline points="12.09 16.03 17.66 19.36 23.24 16.03" style="fill:none;stroke:#e3204a;stroke-miterlimit:10;stroke-width:0.5px"/><path d="M3.13,21l-1.29-.69a.13.13,0,0,1,0-.23l1.29-.69H13.74a.8.8,0,0,1,.8.81h0a.8.8,0,0,1-.8.8Z" style="fill:none;stroke:#e3204a;stroke-miterlimit:10;stroke-width:0.5px"/><line x1="3.13" y1="19.36" x2="3.13" y2="20.97" style="fill:none;stroke:#e3204a;stroke-miterlimit:10;stroke-width:0.5px"/><line x1="12.04" y1="19.36" x2="12.04" y2="20.97" style="fill:none;stroke:#e3204a;stroke-miterlimit:10;stroke-width:0.5px"/></svg>