<svg id="Layer_1" data-name="Layer 1" xmlns="http://www.w3.org/2000/svg" viewBox="0 0 25 25"><defs><style>.cls-1{fill:#272d47;}.cls-2{fill:#e3204a;}</style></defs><path class="cls-1" d="M12.5,6.68H19c.36,0,.72,0,1.07,0a.71.71,0,0,1,.71.6,4,4,0,0,1,0,1.15.73.73,0,0,1-.64.67.2.2,0,0,0-.1.08c-.81,1.31-1.6,2.61-2.4,3.92s-1.61,2.6-2.41,3.91c-.23.38-.48.75-.71,1.13a1.2,1.2,0,0,0-.08.27c-.18.78-.29,1.58-.4,2.38q-.06.51-.15,1a.53.53,0,0,1-.61.51H11.58a.47.47,0,0,1-.46-.33,2.75,2.75,0,0,1-.12-.57l-.42-2.83a1.09,1.09,0,0,0-.13-.34q-2-3.33-4-6.64L4.94,9.23a.21.21,0,0,0-.17-.12.71.71,0,0,1-.59-.61,9.29,9.29,0,0,1,0-1.18.73.73,0,0,1,.71-.62c1.38,0,2.76,0,4.14,0H12.5ZM5.43,9.12l.06.11L6.83,11.4l4,6.59a1.63,1.63,0,0,1,.21.57l.33,2.19c0,.31.09.64.13.95,0,.15.05.17.19.17h1.6c.15,0,.16,0,.19-.16.06-.4.12-.81.17-1.21a23.38,23.38,0,0,1,.41-2.34.92.92,0,0,1,.09-.23L15,16.54l4.76-7.75A.26.26,0,0,1,20,8.65a.28.28,0,0,0,.32-.26.34.34,0,0,0,0-.1c0-.27,0-.53,0-.8s-.09-.31-.33-.31l-2.56,0H4.94c-.19,0-.3.09-.3.26s0,.62,0,.92A.28.28,0,0,0,5,8.65H6.63a.38.38,0,0,1,.19,0,.22.22,0,0,1,.1.26.23.23,0,0,1-.23.17H5.43Z"/><path class="cls-1" d="M16,18.47l.94.94c.2-.15.4-.29.6-.45a.32.32,0,0,1,.39,0,7.13,7.13,0,0,0,.69.29.27.27,0,0,1,.21.25c0,.24.07.47.1.7,0,.07,0,.1.11.1.38,0,.76,0,1.14,0,.07,0,.1,0,.11-.09,0-.24.07-.48.1-.72a.28.28,0,0,1,.21-.24c.24-.09.49-.19.72-.3a.27.27,0,0,1,.32,0l.57.43.07.05.94-.94-.2-.28c-.1-.12-.19-.25-.28-.37a.26.26,0,0,1,0-.29c.11-.25.22-.5.31-.76a.3.3,0,0,1,.24-.19l.73-.1c.06,0,.08,0,.08-.09V15.22c0-.07,0-.09-.08-.1l-.73-.1a.25.25,0,0,1-.24-.21q-.14-.36-.3-.72a.29.29,0,0,1,0-.32l.45-.59s0-.08,0-.1l-.89-.9-.24.17-.42.32a.29.29,0,0,1-.31,0l-.73-.31a.28.28,0,0,1-.21-.24c0-.25-.07-.49-.1-.73,0-.06,0-.08-.09-.08h-.37a.24.24,0,1,1,0-.47h.62a.24.24,0,0,1,.27.23c0,.26.07.52.11.78,0,.07,0,.1.09.12l.46.19a.11.11,0,0,0,.13,0l.63-.47a.26.26,0,0,1,.37,0l1.17,1.18a.24.24,0,0,1,0,.37l-.47.63a.11.11,0,0,0,0,.13,3.71,3.71,0,0,1,.19.46c0,.06.06.09.12.09l.78.12a.23.23,0,0,1,.23.26v1.68a.24.24,0,0,1-.23.27l-.78.11c-.06,0-.09,0-.12.09a4.47,4.47,0,0,1-.19.46.11.11,0,0,0,0,.13l.46.62c.11.15.11.26,0,.38l-1.17,1.17a.25.25,0,0,1-.37,0l-.61-.47a.15.15,0,0,0-.16,0c-.15.06-.3.13-.45.18a.12.12,0,0,0-.09.11c0,.26-.07.53-.11.79a.24.24,0,0,1-.27.23H18.74a.25.25,0,0,1-.28-.24c0-.25-.07-.51-.1-.76a.14.14,0,0,0-.11-.13,3.43,3.43,0,0,1-.44-.19.14.14,0,0,0-.15,0L17,19.9a.24.24,0,0,1-.36,0L15.5,18.7a.25.25,0,0,1,0-.37l.47-.63a.09.09,0,0,0,0-.13,1.69,1.69,0,0,1-.13-.31A.22.22,0,0,1,16,17a.24.24,0,0,1,.31.14l.21.44a.27.27,0,0,1,0,.3Z"/><path class="cls-1" d="M2.76,12.19l-.94.94.19.26c.1.13.19.26.29.38a.27.27,0,0,1,0,.31c-.11.24-.21.49-.3.74a.28.28,0,0,1-.24.2l-.72.1c-.07,0-.09,0-.09.1v1.16c0,.07,0,.09.08.1l.73.1a.27.27,0,0,1,.24.21c.09.24.19.48.3.71a.32.32,0,0,1,0,.35c-.16.2-.32.42-.47.62l.94.94.31-.23.34-.26a.26.26,0,0,1,.29,0c.25.11.5.22.75.31a.29.29,0,0,1,.2.25c0,.24.07.49.11.73a.09.09,0,0,0,.06.06H6.09l.06-.39.06-.43a.28.28,0,0,1,.19-.23c.25-.09.5-.2.75-.31a.26.26,0,0,1,.3,0l.64.48L9,18.46a6.81,6.81,0,0,0-.42-.56.34.34,0,0,1,0-.45,4,4,0,0,0,.17-.36A.23.23,0,0,1,9.05,17a.23.23,0,0,1,.12.32,2.55,2.55,0,0,1-.13.29.14.14,0,0,0,0,.15c.16.2.31.41.46.61a.25.25,0,0,1,0,.38L8.33,19.87a.25.25,0,0,1-.37,0l-.61-.46a.15.15,0,0,0-.17,0,3.38,3.38,0,0,1-.44.18.12.12,0,0,0-.09.12c0,.24-.07.48-.11.71s-.09.3-.33.3H4.62c-.2,0-.27-.06-.3-.25s-.07-.51-.11-.76a.14.14,0,0,0-.09-.12,4.47,4.47,0,0,1-.46-.19.12.12,0,0,0-.14,0l-.62.47a.26.26,0,0,1-.37,0L1.36,18.7a.24.24,0,0,1,0-.37l.46-.62a.12.12,0,0,0,0-.15c-.07-.15-.13-.3-.19-.46a.12.12,0,0,0-.1-.08l-.79-.11a.24.24,0,0,1-.23-.26V15a.22.22,0,0,1,.22-.25l.79-.12c.06,0,.09,0,.12-.09A4.47,4.47,0,0,1,1.82,14a.11.11,0,0,0,0-.13l-.45-.61a.26.26,0,0,1,0-.41l1.15-1.15a.26.26,0,0,1,.39,0l.6.45a.14.14,0,0,0,.16,0L4.12,12a.12.12,0,0,0,.09-.11c0-.26.08-.53.11-.79a.25.25,0,0,1,.26-.23h.65a.23.23,0,0,1,.25.24.24.24,0,0,1-.26.23H4.84a.08.08,0,0,0-.09.08c0,.24-.07.48-.1.73a.29.29,0,0,1-.2.24l-.75.31a.26.26,0,0,1-.29,0l-.58-.44Z"/><path class="cls-2" d="M14.13,4A1.36,1.36,0,0,1,12.77,5.4a1.38,1.38,0,1,1,0-2.75A1.36,1.36,0,0,1,14.13,4Z"/><path class="cls-1" d="M3.73,15.79a1.7,1.7,0,1,1,1.7,1.71A1.69,1.69,0,0,1,3.73,15.79ZM5.46,17a1.23,1.23,0,1,0-1.26-1.2A1.23,1.23,0,0,0,5.46,17Z"/><path class="cls-1" d="M21.27,15.8a1.7,1.7,0,1,1-1.7-1.71A1.7,1.7,0,0,1,21.27,15.8Zm-.47,0A1.23,1.23,0,1,0,19.58,17,1.24,1.24,0,0,0,20.8,15.8Z"/><path class="cls-2" d="M16.34,6a1,1,0,0,1-1-1,1,1,0,1,1,1,1Z"/><path class="cls-2" d="M8.65,6a1,1,0,0,1-1-1,1,1,0,1,1,1,1Z"/><path class="cls-2" d="M15.92,8.31a1.84,1.84,0,0,1,1.41.56A1.68,1.68,0,0,1,17.77,10a1.72,1.72,0,0,1-.3,1.1,1.68,1.68,0,0,1-1.23.7,2,2,0,0,1-1.12-.16,1.58,1.58,0,0,1-.92-1.13,1.72,1.72,0,0,1,.16-1.28,1.65,1.65,0,0,1,1.28-.85ZM16,11a.92.92,0,0,0,0-1.83A.92.92,0,0,0,16,11Z"/><path class="cls-2" d="M13.89,11.69c-.28,0-.54,0-.79,0a.24.24,0,0,1-.27-.17c-.13-.27-.28-.52-.42-.78,0-.06-.06-.07-.13-.07-.26,0-.26,0-.26.26s0,.45,0,.67c0,.06,0,.09-.09.08h-.69c-.08,0-.11,0-.11-.1V8.46c0-.05,0-.07.07-.07.52,0,1,0,1.56,0a1,1,0,0,1,.85.53,1.12,1.12,0,0,1-.26,1.47c-.08.06-.1.1,0,.2.19.33.37.67.56,1ZM12,9.55v.31c0,.06,0,.09.08.09s.29,0,.43,0a.36.36,0,0,0,.34-.36.36.36,0,0,0-.32-.38,3.85,3.85,0,0,0-.48,0s-.05.05-.05.07S12,9.45,12,9.55Z"/><path class="cls-2" d="M10.18,9.69H9.86a.18.18,0,0,1-.17-.11A.76.76,0,0,0,9,9.14a.81.81,0,0,0-.8.68.93.93,0,0,0,.27.93.79.79,0,0,0,1.26-.27.19.19,0,0,1,.2-.14h.65c.08,0,.1,0,.08.1a1.59,1.59,0,0,1-.64,1,1.72,1.72,0,0,1-1.16.31A1.7,1.7,0,0,1,7.51,11,1.75,1.75,0,0,1,9.94,8.6a1.6,1.6,0,0,1,.68,1c0,.06,0,.08-.07.08Z"/></svg>