<svg id="Layer_1" data-name="Layer 1" xmlns="http://www.w3.org/2000/svg" viewBox="0 0 25 25"><path d="M20.09,9a.54.54,0,0,0-.39-.16H3.9A.55.55,0,0,0,3.5,9a.57.57,0,0,0-.16.4v9.77H20.26V9.41A.58.58,0,0,0,20.09,9Z" style="fill:#353f49"/><path d="M12,9.28A.24.24,0,1,1,11.8,9,.23.23,0,0,1,12,9.28Z" style="fill:#474f59"/><path d="M11.9,9.28a.1.1,0,0,1-.1.1.1.1,0,0,1-.11-.1.11.11,0,0,1,.11-.1A.11.11,0,0,1,11.9,9.28Z" style="fill:#fff"/><rect x="4.22" y="9.71" width="15.16" height="9.46" style="fill:#fff"/><rect x="7.72" y="12" width="8.16" height="4.89" style="fill:#e3204a"/><polygon points="7.71 12 11.8 15.01 15.88 12 7.71 12" style="fill:#353f49"/><path d="M18.73,11.23a.87.87,0,1,1-.87-.88A.87.87,0,0,1,18.73,11.23Z" style="fill:#e3204a"/><path d="M17.86,11.26V11.1A.11.11,0,0,0,18,11a.11.11,0,0,0-.22,0h-.16a.27.27,0,1,1,.27.28Z" style="fill:#fff"/><path d="M17.86,11.74a.32.32,0,0,1-.32-.32h.16a.16.16,0,1,0,.16-.16V11.1a.32.32,0,0,1,0,.64Z" style="fill:#fff"/><path d="M1.4,19.5A6.39,6.39,0,0,0,4,20H19.6a6.39,6.39,0,0,0,2.59-.54Z" style="fill:#cccbca"/><rect x="1.4" y="19.18" width="20.79" height="0.32" style="fill:#fff"/><rect x="9.99" y="19.18" width="3.61" height="0.16" style="fill:#cccbca"/><path d="M3.34,17.9c-1.42-.06-2.33-.42-2.56-1L.57,17c.26.71,1.23,1.11,2.77,1.18Z" style="fill:#eae8e9"/><path d="M4.22,12.57v.29c-2.4,1.52-3.79,3-3.44,4L.57,17C.16,15.83,1.61,14.19,4.22,12.57Z" style="fill:#eae8e9"/><path d="M11.56,9.45l-.07-.21.7-.23.07.22ZM13,9l-.06-.22.7-.2.07.22Zm1.41-.39,0-.22L15,8.23l.06.22Zm1.43-.33-.05-.22.73-.14,0,.22ZM17.24,8l0-.22.73-.1,0,.23Z" style="fill:#fff"/><path d="M18.69,7.87V7.64l.36,0v.22Z" style="fill:#fff"/><path d="M10.83,9.71l-.16.06a33.78,33.78,0,0,0-6.45,3.09v-.29a34,34,0,0,1,5.94-2.86Z" style="fill:#d9d8d7"/><polygon points="19.04 6.15 18.38 7.91 24.5 7.37 19.04 6.15" style="fill:#e6e5e5"/><polygon points="19.34 6.68 20.42 8.62 24.5 7.37 19.34 6.68" style="fill:#eae8e9"/><polygon points="18.38 4.96 19.04 6.15 24.5 7.37 18.38 4.96" style="fill:#eae8e9"/><polygon points="18.38 7.91 19.34 6.68 19.95 7.78 18.38 7.91" style="fill:#cccbca"/></svg>