<svg id="Layer_1" data-name="Layer 1" xmlns="http://www.w3.org/2000/svg" xmlns:xlink="http://www.w3.org/1999/xlink" viewBox="0 0 25 25"><defs><style>.cls-1{fill:#f97396;}.cls-2{fill:#e3204a;}.cls-3{fill:#9e1e40;}.cls-4{fill:#fff;}.cls-5{fill:#073c91;}.cls-6{fill:#e0e6f7;}.cls-7{fill:url(#linear-gradient);}.cls-8{fill:url(#linear-gradient-2);}.cls-9{fill:url(#linear-gradient-3);}.cls-10{fill:url(#linear-gradient-4);}.cls-11{fill:url(#linear-gradient-5);}.cls-12{fill:url(#linear-gradient-6);}.cls-13{fill:url(#linear-gradient-7);}.cls-14{fill:url(#linear-gradient-8);}.cls-15{fill:url(#linear-gradient-9);}.cls-16{fill:url(#linear-gradient-10);}.cls-17{fill:url(#linear-gradient-11);}.cls-18{fill:url(#linear-gradient-12);}.cls-19{fill:url(#linear-gradient-13);}.cls-20{fill:url(#linear-gradient-14);}.cls-21{fill:url(#linear-gradient-15);}.cls-22{fill:url(#linear-gradient-16);}.cls-23{fill:url(#linear-gradient-17);}.cls-24{fill:url(#linear-gradient-18);}.cls-25{fill:url(#linear-gradient-19);}.cls-26{fill:url(#linear-gradient-20);}.cls-27{fill:url(#linear-gradient-21);}.cls-28{fill:url(#linear-gradient-22);}.cls-29{fill:url(#linear-gradient-23);}</style><linearGradient id="linear-gradient" x1="19.56" y1="14.2" x2="19.91" y2="14.2" gradientUnits="userSpaceOnUse"><stop offset="0.04" stop-color="#758bff"/><stop offset="1" stop-color="#6880ff"/></linearGradient><linearGradient id="linear-gradient-2" x1="16.6" y1="15.1" x2="16.95" y2="15.1" xlink:href="#linear-gradient"/><linearGradient id="linear-gradient-3" x1="13.2" y1="15.72" x2="13.55" y2="15.72" xlink:href="#linear-gradient"/><linearGradient id="linear-gradient-4" x1="19.12" y1="10.67" x2="20.47" y2="10.67" gradientUnits="userSpaceOnUse"><stop offset="0" stop-color="#aab2f6"/><stop offset="1" stop-color="#9eb0f7"/></linearGradient><linearGradient id="linear-gradient-5" x1="15.23" y1="10.78" x2="17.34" y2="10.78" xlink:href="#linear-gradient-4"/><linearGradient id="linear-gradient-6" x1="15.23" y1="11.34" x2="17.34" y2="11.34" xlink:href="#linear-gradient-4"/><linearGradient id="linear-gradient-7" x1="15.23" y1="11.9" x2="17.34" y2="11.9" xlink:href="#linear-gradient-4"/><linearGradient id="linear-gradient-8" x1="5.71" y1="13.5" x2="9.45" y2="13.5" xlink:href="#linear-gradient-4"/><linearGradient id="linear-gradient-9" x1="5.71" y1="13.74" x2="8.51" y2="13.74" xlink:href="#linear-gradient-4"/><linearGradient id="linear-gradient-10" x1="5.07" y1="13.62" x2="5.54" y2="13.62" xlink:href="#linear-gradient-4"/><linearGradient id="linear-gradient-11" x1="5.71" y1="14.41" x2="9.45" y2="14.41" xlink:href="#linear-gradient"/><linearGradient id="linear-gradient-12" x1="5.71" y1="14.66" x2="8.51" y2="14.66" xlink:href="#linear-gradient"/><linearGradient id="linear-gradient-13" x1="5.07" y1="14.54" x2="5.54" y2="14.54" xlink:href="#linear-gradient"/><linearGradient id="linear-gradient-14" x1="5.71" y1="15.33" x2="9.45" y2="15.33" xlink:href="#linear-gradient-4"/><linearGradient id="linear-gradient-15" x1="5.71" y1="15.57" x2="8.51" y2="15.57" xlink:href="#linear-gradient-4"/><linearGradient id="linear-gradient-16" x1="5.07" y1="15.46" x2="5.54" y2="15.46" xlink:href="#linear-gradient-4"/><linearGradient id="linear-gradient-17" x1="5.71" y1="17.16" x2="9.45" y2="17.16" xlink:href="#linear-gradient"/><linearGradient id="linear-gradient-18" x1="5.71" y1="17.4" x2="8.51" y2="17.4" xlink:href="#linear-gradient"/><linearGradient id="linear-gradient-19" x1="5.07" y1="17.29" x2="5.54" y2="17.29" xlink:href="#linear-gradient"/><linearGradient id="linear-gradient-20" x1="11.13" y1="10.7" x2="11.13" y2="11.9" xlink:href="#linear-gradient"/><linearGradient id="linear-gradient-21" x1="12.03" y1="10.7" x2="12.03" y2="11.9" xlink:href="#linear-gradient"/><linearGradient id="linear-gradient-22" x1="12.94" y1="10.7" x2="12.94" y2="11.9" xlink:href="#linear-gradient"/><linearGradient id="linear-gradient-23" x1="13.84" y1="10.7" x2="13.84" y2="11.9" xlink:href="#linear-gradient"/></defs><path class="cls-1" d="M5.18,5.94v.34a.08.08,0,0,0,.08.07h.12s0,0,0,0a1.23,1.23,0,0,0,.12.26h0l-.11.11a.07.07,0,0,0,0,.1l.24.24a.07.07,0,0,0,.1,0L5.89,7h0a.74.74,0,0,0,.29.12h0v.15a.07.07,0,0,0,.07.07h.34a.08.08,0,0,0,.08-.07V7.09h0A.81.81,0,0,0,7,7H7l.1.11a.07.07,0,0,0,.1,0l.25-.24a.08.08,0,0,0,0-.11l-.09-.09a0,0,0,0,1,0,0,2.44,2.44,0,0,0,.1-.24,0,0,0,0,1,0,0h.13a.07.07,0,0,0,.07-.07V5.92a.08.08,0,0,0-.07-.08H7.44l0,0a.87.87,0,0,0-.1-.24,0,0,0,0,1,0,0l.09-.08a.08.08,0,0,0,0-.11L7.15,5.1a.07.07,0,0,0-.1,0l-.11.11h0a2.18,2.18,0,0,0-.27-.11,0,0,0,0,1,0,0V4.94a.07.07,0,0,0-.07-.07H6.23a.07.07,0,0,0-.07.07v.13s0,0,0,0a.87.87,0,0,0-.24.1,0,0,0,0,1,0,0l-.09-.08a.07.07,0,0,0-.1,0l-.25.24a.09.09,0,0,0,0,.1l.1.09a0,0,0,0,1,0,0,.85.85,0,0,0-.09.24s0,0,0,0H5.26A.08.08,0,0,0,5.18,5.94Zm.74-.14a.47.47,0,0,1,.18-.19.58.58,0,0,1,.8.79.47.47,0,0,1-.18.19A.58.58,0,0,1,5.92,5.8Z"/><circle class="cls-1" cx="6.41" cy="6.1" r="0.36"/><polygon class="cls-1" points="15.98 7.44 15.98 6.23 15.85 6.23 15.85 7.56 18.11 7.56 18.11 7.44 15.98 7.44"/><rect class="cls-1" x="16.1" y="7.09" width="0.22" height="0.25"/><rect class="cls-1" x="16.52" y="6.84" width="0.22" height="0.5"/><rect class="cls-1" x="16.93" y="7.09" width="0.22" height="0.25"/><rect class="cls-1" x="17.35" y="6.58" width="0.22" height="0.76"/><rect class="cls-1" x="17.77" y="6.84" width="0.22" height="0.5"/><path class="cls-1" d="M16.69,6.45l.22.2a0,0,0,0,0,.06,0l.56-.37,0,0,0-.09.05-.1h-.21l0,0L17,6.56l-.22-.2a0,0,0,0,0-.06,0l-.54.35.05.07Z"/><circle class="cls-1" cx="11.07" cy="4.19" r="0.2"/><path class="cls-1" d="M11,4.42h.05a.26.26,0,0,1,.26.26v0a0,0,0,0,1,0,0h-.58a0,0,0,0,1,0,0v0A.26.26,0,0,1,11,4.42Z"/><circle class="cls-1" cx="11.84" cy="4.19" r="0.2"/><path class="cls-1" d="M11.81,4.42h.05a.26.26,0,0,1,.26.26v0a0,0,0,0,1,0,0h-.58a0,0,0,0,1,0,0v0A.26.26,0,0,1,11.81,4.42Z"/><circle class="cls-1" cx="10.29" cy="4.19" r="0.2"/><path class="cls-1" d="M10.27,4.42h.05a.26.26,0,0,1,.26.26v0a0,0,0,0,1,0,0H10a0,0,0,0,1,0,0v0a.26.26,0,0,1,.26-.26Z"/><path class="cls-1" d="M11.84,3.83V3.49H10.31v.32a0,0,0,0,1,0,0s0,0,0,0V3.47s0,0,0,0h1.55s0,0,0,0v.34Z"/><path class="cls-1" d="M11.07,3.83l0,0V3.47s0,0,0,0,0,0,0,0v.34S11.08,3.83,11.07,3.83Z"/><path class="cls-1" d="M11.89,3.84a0,0,0,0,1,0,.05,0,0,0,0,1,0-.05,0,0,0,0,1,0,0A0,0,0,0,1,11.89,3.84Z"/><path class="cls-1" d="M11.11,3.84a0,0,0,0,1,0,.05A0,0,0,0,1,11,3.84a0,0,0,0,1,.05,0A0,0,0,0,1,11.11,3.84Z"/><path class="cls-1" d="M10.34,3.84a.05.05,0,0,1-.05.05,0,0,0,0,1,0-.05,0,0,0,0,1,0,0S10.34,3.82,10.34,3.84Z"/><path class="cls-1" d="M24.22,13.21l-1-.31-.4,1.27a.41.41,0,0,0,.26.5l1,.31.4-1.28A.39.39,0,0,0,24.22,13.21ZM23,14.27V14.1h.06v.09l.18-.07,0,.06Zm.13-.38,0-.18h.06v.09l.18-.07,0,.06Zm.12-.39,0-.18h.07v.09l.18-.07,0,.06Zm.82,1-.72-.22,0-.09.72.23Zm.12-.38-.71-.23,0-.09.72.23Zm.13-.39-.72-.23,0-.09.71.23Z"/><path class="cls-1" d="M21.58,5.43a.64.64,0,0,1,.25-.15v.13l.41-.32-.48-.19,0,.13a.83.83,0,0,0-.36.26.89.89,0,0,0-.2.49,1,1,0,0,0,.11.5,1,1,0,0,0,.36.33.87.87,0,0,1-.3-.36.78.78,0,0,1,0-.45A.7.7,0,0,1,21.58,5.43Z"/><path class="cls-1" d="M22.84,5.53a.83.83,0,0,0-.38-.34.88.88,0,0,1,.32.37.81.81,0,0,1,0,.46.74.74,0,0,1-.23.38.89.89,0,0,1-.25.14V6.42l-.41.31.48.19,0-.13a1.21,1.21,0,0,0,.35-.24A.93.93,0,0,0,23,6,.82.82,0,0,0,22.84,5.53Z"/><circle class="cls-1" cx="22.09" cy="5.91" r="0.31"/><rect class="cls-2" x="10.87" y="20.26" width="3.75" height="1.05"/><rect class="cls-3" x="3.64" y="8.8" width="18.22" height="11.54" rx="0.46"/><path class="cls-2" d="M21.86,9.26v10H3.64v-10A.47.47,0,0,1,4.1,8.8H21.4A.46.46,0,0,1,21.86,9.26Z"/><rect class="cls-4" x="4.09" y="9.26" width="17.33" height="9.54"/><path class="cls-2" d="M10,21.21h5.46a.33.33,0,0,1,.33.33v0a0,0,0,0,1,0,0H9.69a0,0,0,0,1,0,0v0A.33.33,0,0,1,10,21.21Z"/><path class="cls-5" d="M9.78,12.3H4.86a.09.09,0,0,1-.08-.08V9.84a.08.08,0,0,1,.08-.08H9.78a.08.08,0,0,1,.08.08v2.38A.09.09,0,0,1,9.78,12.3ZM4.86,9.82l0,0v2.38l0,0H9.78l0,0V9.84l0,0Z"/><path class="cls-5" d="M6.26,10.56H5.74v.35h.47v.22H5.74v.36h.52v.22H5.47V10.34h.79Z"/><path class="cls-5" d="M7.23,10.34c.33,0,.49.19.49.42a.4.4,0,0,1-.31.4l.33.55H7.42l-.3-.53H7v.53H6.71V10.34Zm0,.23H7V11h.23c.15,0,.22-.08.22-.2S7.37,10.57,7.22,10.57Z"/><path class="cls-5" d="M8.68,11.19H8.45v.52H8.17V10.34h.51c.33,0,.49.19.49.43A.43.43,0,0,1,8.68,11.19Zm0-.23c.16,0,.23-.07.23-.19s-.07-.2-.23-.2H8.45V11Z"/><rect class="cls-6" x="4.81" y="12.84" width="5.02" height="5.23" rx="0.82"/><rect class="cls-6" x="10.35" y="13.37" width="10.3" height="4.7" rx="2.13"/><path class="cls-5" d="M11.58,17.71a1.63,1.63,0,0,1-.51-.09l0-.05a1.2,1.2,0,0,0,1.21-.21,3.3,3.3,0,0,0,.46-.83c.17-.4.34-.77.61-.84s.39.15.6.38a1.45,1.45,0,0,0,1.08.65c.5,0,.78-.49,1-.93s.41-.7.71-.7a1.06,1.06,0,0,1,.75.48c.22.24.42.47.72.47.59,0,1.41-1.82,1.42-1.84l.05,0c0,.07-.84,1.87-1.47,1.87a1.07,1.07,0,0,1-.76-.49c-.21-.24-.42-.47-.71-.47s-.46.33-.66.68-.55,1-1.08,1a1.53,1.53,0,0,1-1.13-.67c-.2-.23-.35-.41-.54-.36s-.4.42-.57.8a3,3,0,0,1-.47.84A1,1,0,0,1,11.58,17.71Z"/><ellipse class="cls-7" cx="19.73" cy="14.2" rx="0.18" ry="0.16"/><ellipse class="cls-8" cx="16.78" cy="15.1" rx="0.18" ry="0.16"/><ellipse class="cls-9" cx="13.38" cy="15.72" rx="0.18" ry="0.16"/><path class="cls-5" d="M18.43,11.34a.69.69,0,0,0,.21.5l-.45.46a1.36,1.36,0,0,1-.41-1A1.34,1.34,0,0,1,19.12,10v.65A.69.69,0,0,0,18.43,11.34Z"/><path class="cls-10" d="M20.47,11.34h-.65a.69.69,0,0,0-.7-.69V10A1.34,1.34,0,0,1,20.47,11.34Z"/><path class="cls-6" d="M20.47,11.34a1.34,1.34,0,0,1-2.28,1l.45-.46a.71.71,0,0,0,.48.19.69.69,0,0,0,.7-.69Z"/><rect class="cls-11" x="15.23" y="10.71" width="2.11" height="0.14"/><rect class="cls-12" x="15.23" y="11.27" width="2.11" height="0.14"/><rect class="cls-13" x="15.23" y="11.83" width="2.11" height="0.14"/><rect class="cls-14" x="5.71" y="13.45" width="3.74" height="0.09"/><rect class="cls-15" x="5.71" y="13.69" width="2.79" height="0.09"/><rect class="cls-16" x="5.07" y="13.45" width="0.47" height="0.34"/><rect class="cls-17" x="5.71" y="14.37" width="3.74" height="0.09"/><rect class="cls-18" x="5.71" y="14.61" width="2.79" height="0.09"/><rect class="cls-19" x="5.07" y="14.37" width="0.47" height="0.34"/><rect class="cls-20" x="5.71" y="15.28" width="3.74" height="0.09"/><rect class="cls-21" x="5.71" y="15.53" width="2.79" height="0.09"/><rect class="cls-22" x="5.07" y="15.28" width="0.47" height="0.34"/><rect class="cls-5" x="5.71" y="16.2" width="3.74" height="0.09"/><rect class="cls-5" x="5.71" y="16.44" width="2.79" height="0.09"/><rect class="cls-5" x="5.07" y="16.2" width="0.47" height="0.34"/><rect class="cls-23" x="5.71" y="17.11" width="3.74" height="0.09"/><rect class="cls-24" x="5.71" y="17.36" width="2.79" height="0.09"/><rect class="cls-25" x="5.07" y="17.11" width="0.47" height="0.34"/><rect class="cls-26" x="11.05" y="11.39" width="0.16" height="0.77"/><rect class="cls-5" x="11.28" y="11.04" width="0.16" height="1.12"/><rect class="cls-27" x="11.95" y="10.89" width="0.16" height="1.27"/><rect class="cls-5" x="12.18" y="10.76" width="0.16" height="1.41"/><rect class="cls-28" x="12.86" y="11.33" width="0.16" height="0.83"/><rect class="cls-5" x="13.09" y="10.56" width="0.16" height="1.61"/><rect class="cls-29" x="13.76" y="10.31" width="0.16" height="1.85"/><rect class="cls-5" x="13.99" y="10.76" width="0.16" height="1.4"/><rect class="cls-6" x="11.07" y="12.3" width="3.05" height="0.06"/><rect class="cls-6" x="11.07" y="12.52" width="3.05" height="0.06"/><path class="cls-1" d="M1.78,9.39A1.18,1.18,0,0,0,1,9.67l0-.08a.07.07,0,0,0,0-.05L.78,9.32a.05.05,0,0,0-.09,0l0,.09s0,0,0,0l-.09,0s-.05.06,0,.09l.22.22a0,0,0,0,0,.05,0H.87a1.19,1.19,0,1,0,.91-.42Zm0,2.13a.94.94,0,0,1-.95-.94,1,1,0,0,1,.24-.64l.17.17a.72.72,0,0,0-.18.47.72.72,0,1,0,.72-.71.7.7,0,0,0-.47.17l-.17-.16a1,1,0,0,1,.64-.25.95.95,0,0,1,0,1.89Zm-.2-1.07a.2.2,0,0,0,0,.13.23.23,0,0,0,.24.23A.23.23,0,0,0,2,10.58a.23.23,0,0,0-.23-.24.25.25,0,0,0-.13,0l-.17-.17a.49.49,0,0,1,.3-.1.47.47,0,0,1,0,.94.48.48,0,0,1-.48-.47.46.46,0,0,1,.11-.3Z"/></svg>