<svg id="Layer_1" data-name="Layer 1" xmlns="http://www.w3.org/2000/svg" viewBox="0 0 25 25"><defs><style>.cls-1{fill:#2196f3;}</style></defs><path class="cls-1" d="M19.8,13.63,17.45,15,11,4a.93.93,0,0,1,.33-1.27l.76-.44a.93.93,0,0,1,1.26.34Zm-2.09,1.83,2.35-1.37,1.37,2.34L19.08,17.8ZM2.88,17.7,8.56,8,11,9.4,5.3,19.11ZM1.41,22.65l1.17-4.43L5,19.63l-3.29,3.2a.18.18,0,0,1-.22,0,.2.2,0,0,1-.08-.21m7.35-15,.82-1.39a.92.92,0,0,1,1.26-.34l.82.49A.91.91,0,0,1,12,7.66l-.81,1.4Zm12.31,9.51-1.29.76c-.63.37-.14,1.48,0,1.71.82,1.37,1.66,1.18,2.29,2.15a2.84,2.84,0,0,1,.36.94c.05.06.18.12.24.05a4.72,4.72,0,0,0,0-4.72c-.33-.48-.93-1.25-1.58-.89m3.43-2H21.12l-1.47-2.71H24.5V15.1Zm-7.61,0H8.08l1.51-2.71h5.8Zm-13,0H.5V12.39h5Z"/></svg>