<svg id="Layer_1" data-name="Layer 1" xmlns="http://www.w3.org/2000/svg" viewBox="0 0 25 25"><defs><style>.cls-1{fill:#f9ae41;}.cls-2{fill:#ee4035;}.cls-3{fill:#4f91cd;}.cls-4{fill:#7ac043;}</style></defs><path class="cls-1" d="M24.42,3.75a3.15,3.15,0,0,0-6.27-.44l0,0a4.57,4.57,0,0,0-4.75.9L7.64,10,9.9,12.14,14.52,7.6c2.16-2.16,3.33-.7,3.33-.7a2,2,0,0,1,.06,3l2.32,2.24c1.9-2.05,2-3.84,1.43-5.26a3.16,3.16,0,0,0,2.76-3.13"/><path class="cls-2" d="M21.69,18.23l0,0a4.56,4.56,0,0,0-.9-4.74L15.05,7.72,12.86,10l4.54,4.62c2.16,2.15.7,3.33.7,3.33-1.37,1.62-3,0-3,0l-2.24,2.33c2.05,1.89,3.84,2,5.26,1.43a3.15,3.15,0,1,0,3.57-3.52"/><path class="cls-3" d="M15.1,12.86,10.48,17.4c-2.16,2.16-3.33.7-3.33.7a2,2,0,0,1-.06-3L4.77,12.86c-1.9,2.05-2,3.84-1.43,5.26a3.15,3.15,0,1,0,3.51,3.57l0,0a4.57,4.57,0,0,0,4.75-.9l5.73-5.76L15.1,12.86"/><path class="cls-4" d="M7.6,10.39c-2.16-2.15-.7-3.33-.7-3.33,1.37-1.62,3,0,3,0l2.24-2.33c-2.05-1.89-3.84-2-5.26-1.43A3.15,3.15,0,1,0,3.31,6.77l0,0a4.56,4.56,0,0,0,.9,4.74L10,17.28,12.14,15,7.6,10.39"/></svg>