<svg id="Layer_1" data-name="Layer 1" xmlns="http://www.w3.org/2000/svg" xmlns:xlink="http://www.w3.org/1999/xlink" viewBox="0 0 25 25"><defs><clipPath id="clip-path"><rect width="25" height="25" style="fill:none"/></clipPath><linearGradient id="New_Gradient_Swatch" x1="10.4" y1="15.34" x2="10.61" y2="15.34" gradientUnits="userSpaceOnUse"><stop offset="0" stop-color="#ff6d6d"/><stop offset="1" stop-color="#ffe04e"/></linearGradient><linearGradient id="New_Gradient_Swatch-2" x1="12.84" y1="13.99" x2="13.15" y2="13.99" xlink:href="#New_Gradient_Swatch"/><linearGradient id="New_Gradient_Swatch-3" x1="11.97" y1="12.74" x2="11.97" y2="10.28" xlink:href="#New_Gradient_Swatch"/><linearGradient id="linear-gradient" x1="11.97" y1="9.85" x2="11.97" y2="10.38" gradientUnits="userSpaceOnUse"><stop offset="0" stop-color="#5900d7"/><stop offset="1" stop-color="#9482ad"/></linearGradient><linearGradient id="New_Gradient_Swatch_copy_8" x1="11.97" y1="2.46" x2="11.97" y2="9.95" gradientUnits="userSpaceOnUse"><stop offset="0" stop-color="#46b8fb"/><stop offset="1" stop-color="#77fffc"/></linearGradient><linearGradient id="New_Gradient_Swatch_copy_7" x1="12.88" y1="3.85" x2="12.88" y2="9.41" gradientUnits="userSpaceOnUse"><stop offset="0" stop-color="#6ceffc"/><stop offset="1" stop-color="#c7fffe"/></linearGradient><linearGradient id="linear-gradient-2" x1="11.97" y1="4.47" x2="11.97" y2="5.64" gradientUnits="userSpaceOnUse"><stop offset="0" stop-color="#d1d3d4"/><stop offset="1" stop-color="#fff"/></linearGradient></defs><g style="clip-path:url(#clip-path)"><path d="M33.07,22.08V18.32c0-.11,0-.22-.07-.33-.68-2.68-4-2.18-4.62.28a2.34,2.34,0,0,0-4.3-.26,2,2,0,0,0-3.36-1.53,2.94,2.94,0,0,0-5.79-.62A13.1,13.1,0,0,1,13,10.36c-.2-1.17.16-1.64-1-1.67s-.87.7-1.07,1.86A13,13,0,0,1,9,15.86a3,3,0,0,0-5.8.62A2,2,0,0,0-.17,18a2.34,2.34,0,0,0-4.3.26,2.54,2.54,0,0,0-2.31-2.16c-1.86,0-2.28,1.41-2.36,2.87v3.19a.38.38,0,0,0,.38.37H32.7a.38.38,0,0,0,.37-.3Z" style="fill:#e3204a"/><path d="M10.61,15.34a.11.11,0,0,1-.1.1.1.1,0,0,1-.11-.1.11.11,0,0,1,.1-.11A.11.11,0,0,1,10.61,15.34Z" style="fill:url(#New_Gradient_Swatch)"/><path d="M13.1,13.94H13v-.06a0,0,0,0,0,0-.05h0a0,0,0,0,0-.05.05v.06h-.06a0,0,0,0,0-.05.05.05.05,0,0,0,.05,0H13v.07a0,0,0,0,0,.05,0h0a0,0,0,0,0,.05-.05V14h.07a0,0,0,1,0,0-.09Z" style="fill:url(#New_Gradient_Swatch-2)"/><path d="M10.84,6.43A3.05,3.05,0,0,0,9.43,8.36c-.47,1.49-.27,1.93.22,1.4a2.91,2.91,0,0,1,1.55-.95Z" style="fill:#e3204a"/><path d="M13.1,6.43a3.09,3.09,0,0,1,1.41,1.93c.46,1.49.27,1.93-.22,1.4a2.89,2.89,0,0,0-1.56-.95Z" style="fill:#e3204a"/><path d="M12.37,10.28a1.63,1.63,0,0,1,.32,1,1.17,1.17,0,0,1-.39,1c-.05,0-.11-.08-.11-.08s-.12.48-.25.48-.29-.65-.33-.68,0,.06-.15.07-.21-.38-.21-.84h0a1.53,1.53,0,0,1,.32-1Z" style="fill:url(#New_Gradient_Swatch-3)"/><path d="M12.17,10.33a2.47,2.47,0,0,1,.21.91c0,.47-.11.59-.16.59s-.11-.13-.11-.13,0,.24-.14.24-.17-.29-.19-.37a.09.09,0,0,1-.08.06c-.06,0-.14-.29-.14-.59a2.33,2.33,0,0,1,.22-.76Z" style="fill:#ffe04e"/><path d="M12,9.85h.67a1.13,1.13,0,0,1-.09.38c-.08.11-.39.15-.58.15s-.5,0-.58-.15a.92.92,0,0,1-.09-.38Z" style="fill:url(#linear-gradient)"/><path d="M10.68,4.91c.27-1.29,1-2.45,1.29-2.45s1,1.16,1.28,2.45A9.5,9.5,0,0,1,13.15,9c-.28.76-.43.92-.72.92H11.5c-.29,0-.44-.16-.72-.92A9.5,9.5,0,0,1,10.68,4.91Z" style="fill:url(#New_Gradient_Swatch_copy_8)"/><path d="M12.52,3.9l.26,0a8.7,8.7,0,0,1,.45,2.42,14.55,14.55,0,0,1-.5,3.12c-.07.23.21-1.29.21-3.05A5.05,5.05,0,0,0,12.52,3.9Z" style="fill:url(#New_Gradient_Swatch_copy_7)"/><path d="M12,3.81a2.52,2.52,0,0,1-.88-.13c.32-.72.71-1.22.88-1.22s.56.5.87,1.22A2.49,2.49,0,0,1,12,3.81Z" style="fill:#e3204a"/><circle cx="11.97" cy="5.06" r="0.77" style="fill:#e3204a"/><circle cx="11.97" cy="5.06" r="0.59" style="fill:url(#linear-gradient-2)"/><path d="M12,2.61c-.07,0,.3.48.42,1.06a1.54,1.54,0,0,0,.27,0S12.18,2.53,12,2.61Z" style="fill:#fff"/><path d="M13.79,7.33a3.8,3.8,0,0,1,.57,1.13c.19.67.32,1.21.18,1.21s-.23-.18-.23-.18A8.3,8.3,0,0,0,13.79,7.33Z" style="fill:#fff"/><path d="M9.74,8A6.4,6.4,0,0,0,9.36,9.4c0,.57.19-.1.19-.1A11.53,11.53,0,0,1,9.74,8Z" style="fill:#fff"/></g></svg>