<svg id="Layer_1" data-name="Layer 1" xmlns="http://www.w3.org/2000/svg" viewBox="0 0 25 25"><rect x="19.2" y="19.85" width="0.96" height="0.96" style="fill:#282d33"/><path d="M18.17,20.81h-1v-1h1Zm-2.06,0h-1v-1h1Zm-2.06,0H13v-1h1Zm-2.07,0H11v-1h1Zm-2.06,0h-1v-1h1Zm-2.06,0h-1v-1h1Z" style="fill:#353f49"/><rect x="4.84" y="19.85" width="0.96" height="0.96" style="fill:#282d33"/><path d="M5.8,18.82h-1v-1h1Zm0-2.06h-1v-1h1Zm0-2.06h-1v-1h1Zm0-2.07h-1v-1h1Zm0-2.06h-1v-1h1Zm0-2.06h-1v-1h1Z" style="fill:#353f49"/><rect x="4.84" y="5.49" width="0.96" height="0.96" style="fill:#282d33"/><path d="M18.17,6.45h-1v-1h1Zm-2.06,0h-1v-1h1Zm-2.06,0H13v-1h1ZM12,6.45H11v-1h1Zm-2.06,0h-1v-1h1Zm-2.06,0h-1v-1h1Z" style="fill:#353f49"/><rect x="19.2" y="5.49" width="0.96" height="0.96" style="fill:#282d33"/><path d="M20.16,18.82h-1v-1h1Zm0-2.06h-1v-1h1Zm0-2.06h-1v-1h1Zm0-2.07h-1v-1h1Zm0-2.06h-1v-1h1Zm0-2.06h-1v-1h1Z" style="fill:#353f49"/><rect x="3.83" y="4.36" width="3.65" height="3.65" style="fill:#fff"/><path d="M8,8.49H3.35V3.88H8Zm-3.65-1H7V4.84H4.31Z" style="fill:#353f49"/><rect x="17.52" y="4.36" width="3.65" height="3.65" style="fill:#fff"/><path d="M21.65,8.49H17V3.88h4.61ZM18,7.53h2.69V4.84H18Z" style="fill:#353f49"/><rect x="17.52" y="18.28" width="3.65" height="3.65" style="fill:#fff"/><path d="M21.65,22.41H17V17.8h4.61Zm-3.65-1h2.69V18.76H18Z" style="fill:#353f49"/><rect x="3.83" y="18.28" width="3.65" height="3.65" style="fill:#fff"/><path d="M8,22.41H3.35V17.8H8Zm-3.65-1H7V18.76H4.31Z" style="fill:#353f49"/><rect x="0.5" y="11.21" width="24" height="3.87" style="fill:#e3204a"/><rect x="1.7" y="11.21" width="0.96" height="1.86" style="fill:#353f49"/><rect x="3.38" y="11.21" width="0.96" height="1" style="fill:#353f49"/><rect x="5.06" y="11.21" width="0.96" height="1.86" style="fill:#353f49"/><rect x="6.74" y="11.21" width="0.96" height="1" style="fill:#353f49"/><rect x="8.42" y="11.21" width="0.96" height="1.86" style="fill:#353f49"/><rect x="11.78" y="11.21" width="0.96" height="1.86" style="fill:#282d33"/><polyline points="14.42 12.21 13.46 12.21 13.46 11.21 14.42 11.21" style="fill:#282d33"/><rect x="15.14" y="11.21" width="0.96" height="1.86" style="fill:#353f49"/><rect x="16.82" y="11.21" width="0.96" height="1" style="fill:#353f49"/><rect x="18.5" y="11.21" width="0.96" height="1.86" style="fill:#353f49"/><rect x="20.18" y="11.21" width="0.96" height="1" style="fill:#353f49"/><rect x="21.86" y="11.21" width="0.96" height="1.86" style="fill:#353f49"/><path d="M13.61,5.15l-1.11-3-1.11,3A8.25,8.25,0,0,0,13.61,5.15Z" style="fill:#fff"/><path d="M12.5,5.71a5.49,5.49,0,0,1-1.25-.11l-.48-.15L12.5.73l1.73,4.72-.48.15A5.49,5.49,0,0,1,12.5,5.71Zm-.45-1h.89L12.5,3.52Z" style="fill:#353f49"/><path d="M13.73,24.07v-1.7H11.28v1.7c0,.12.12.2.27.2h1.91C13.61,24.27,13.73,24.18,13.73,24.07Z" style="fill:#e3204a"/><rect x="11.26" y="20.24" width="2.48" height="2.18" style="fill:#fff"/><path d="M14.22,22.9H10.78V19.76h3.44Zm-2.48-1h1.52V20.72H11.74Z" style="fill:#353f49"/><polygon points="10.81 8.01 10.81 11.25 10.81 19.77 14.19 19.77 14.19 11.25 14.19 7.83 14.19 5.44 10.81 5.44 10.81 8.01" style="fill:#e3204a"/></svg>