<svg id="Layer_1" data-name="Layer 1" xmlns="http://www.w3.org/2000/svg" viewBox="0 0 25 25"><path d="M6.69,24.5a.62.62,0,0,1-.36-.64c0-.9,0-1.79,0-2.68v-.26l-.14,0A.46.46,0,0,1,6.25,20c.21,0,.43,0,.72,0a6.89,6.89,0,0,0-.44-1.06,11.91,11.91,0,0,0-.94-1.27c-.26-.31-.31-.44-.11-.79Q7,14,8.56,11.24c.11-.2.23-.36.48-.36s.36.17.47.37c.74,1.34,1.49,2.69,2.22,4a.34.34,0,0,0,.36.21h3.53a6.62,6.62,0,0,0-5.14-6V9.8c0,.33-.18.52-.51.52-.62,0-1.25,0-1.87,0a.47.47,0,0,1-.51-.51,2.81,2.81,0,0,1,0-.29,6.63,6.63,0,0,0-5.15,6h.44a.46.46,0,0,1,.5.47q0,1,0,2a.44.44,0,0,1-.46.46c-.64,0-1.29,0-1.94,0a.47.47,0,0,1-.48-.52V16A.49.49,0,0,1,1,15.5h.46A7.56,7.56,0,0,1,5.34,9.38H3.39c0,.13,0,.27,0,.41,0,.35-.18.53-.52.54H1A.49.49,0,0,1,.5,9.79V8a.49.49,0,0,1,.56-.54H2.82c.38,0,.55.17.57.55V8.4H7.52c.07-.28.06-.62.23-.8s.51-.16.81-.24V2.28A1.63,1.63,0,0,1,10.34.5H22.53a1.69,1.69,0,0,1,2,1.36V15.08a1.69,1.69,0,0,1-2,1.36h-5c0,.49,0,.94,0,1.39a.49.49,0,0,1-.52.56H15.19a.48.48,0,0,1-.51-.52c0-.11,0-.23,0-.35V16.45H12.38l.19.35c.22.4.19.51-.11.85a8.79,8.79,0,0,0-.76,1A3.83,3.83,0,0,0,11.14,20c.24,0,.46,0,.68,0a.46.46,0,0,1,0,.92l-.14,0v3a.58.58,0,0,1-.35.62h-.24a.6.6,0,0,1-.35-.62c0-.9,0-1.8,0-2.7v-.27H7.27v.27c0,.9,0,1.8,0,2.7a.58.58,0,0,1-.35.62ZM18.88,1.44V5.31c0,.47-.16.63-.62.63H14.84c-.5,0-.65-.15-.65-.64V1.44H10.31c-.56,0-.81.25-.81.82v5.1c.31.08.65.08.81.24s.17.52.24.8h4.13c0-.14,0-.28,0-.41,0-.38.18-.55.57-.55H17c.39,0,.56.18.56.56,0,.59,0,1.18,0,1.76,0,.37-.17.56-.53.57H15.22c-.36,0-.53-.19-.55-.56V9.38H12.75a7.63,7.63,0,0,1,3.83,6.11h4.36V12.6a.52.52,0,0,1,.26-.51.47.47,0,0,1,.67.48c0,.9,0,1.79,0,2.68v.25h.92a.68.68,0,0,0,.76-.77V2.22a.68.68,0,0,0-.77-.78H18.88ZM8.56,13.27h0C7.83,14.5,7.14,15.75,6.46,17c0,0,0,.17.06.22a5.7,5.7,0,0,1,1.33,2.55.21.21,0,0,0,.24.18c.63,0,1.25,0,1.87,0,.15,0,.22,0,.25-.2a5.61,5.61,0,0,1,1.33-2.51.22.22,0,0,0,0-.32L9.63,13.41c0-.06-.06-.1-.13-.21v.21c0,.56,0,1.11,0,1.67a.46.46,0,0,1-.54.51c-.25,0-.39-.22-.39-.53C8.56,14.46,8.56,13.87,8.56,13.27ZM15.14,5h2.78V1.45H15.14ZM2.44,8.39h-1v1h1Zm14.18,0h-1v1h1ZM2.43,17.44v-1h-1v1Zm13.2,0h1v-1h-1ZM8.54,9.37h1v-1h-1Z" style="fill:#e3204a"/><path d="M6.69,24.5a.62.62,0,0,1-.36-.64c0-.9,0-1.79,0-2.68v-.26l-.14,0A.46.46,0,0,1,6.25,20c.21,0,.43,0,.72,0a6.89,6.89,0,0,0-.44-1.06,11.91,11.91,0,0,0-.94-1.27c-.26-.31-.31-.44-.11-.79Q7,14,8.56,11.24c.11-.2.23-.36.48-.36s.36.17.47.37c.74,1.34,1.49,2.69,2.22,4a.34.34,0,0,0,.36.21h3.53a6.62,6.62,0,0,0-5.14-6V9.8c0,.33-.18.52-.51.52-.62,0-1.25,0-1.87,0a.47.47,0,0,1-.51-.51,2.81,2.81,0,0,1,0-.29,6.63,6.63,0,0,0-5.15,6h.44a.46.46,0,0,1,.5.47q0,1,0,2a.44.44,0,0,1-.46.46c-.64,0-1.29,0-1.94,0a.47.47,0,0,1-.48-.52V16A.49.49,0,0,1,1,15.5h.46A7.56,7.56,0,0,1,5.34,9.38H3.39c0,.13,0,.27,0,.41,0,.35-.18.53-.52.54H1A.49.49,0,0,1,.5,9.79V8a.49.49,0,0,1,.56-.54H2.82c.38,0,.55.17.57.55V8.4H7.52c.07-.28.06-.62.23-.8s.51-.16.81-.24V2.28A1.63,1.63,0,0,1,10.34.5H22.53a1.69,1.69,0,0,1,2,1.36V15.08a1.69,1.69,0,0,1-2,1.36h-5c0,.49,0,.94,0,1.39a.49.49,0,0,1-.52.56H15.19a.48.48,0,0,1-.51-.52c0-.11,0-.23,0-.35V16.45H12.38l.19.35c.22.4.19.51-.11.85a8.79,8.79,0,0,0-.76,1A3.83,3.83,0,0,0,11.14,20c.24,0,.46,0,.68,0a.46.46,0,0,1,0,.92l-.14,0v3a.58.58,0,0,1-.35.62h-.24a.6.6,0,0,1-.35-.62c0-.9,0-1.8,0-2.7v-.27H7.27v.27c0,.9,0,1.8,0,2.7a.58.58,0,0,1-.35.62ZM18.88,1.44V5.31c0,.47-.16.63-.62.63H14.84c-.5,0-.65-.15-.65-.64V1.44H10.31c-.56,0-.81.25-.81.82v5.1c.31.08.65.08.81.24s.17.52.24.8h4.13c0-.14,0-.28,0-.41,0-.38.18-.55.57-.55H17c.39,0,.56.18.56.56,0,.59,0,1.18,0,1.76,0,.37-.17.56-.53.57H15.22c-.36,0-.53-.19-.55-.56V9.38H12.75a7.63,7.63,0,0,1,3.83,6.11h4.36V12.6a.52.52,0,0,1,.26-.51.47.47,0,0,1,.67.48c0,.9,0,1.79,0,2.68v.25h.92a.68.68,0,0,0,.76-.77V2.22a.68.68,0,0,0-.77-.78H18.88ZM8.56,13.27h0C7.83,14.5,7.14,15.75,6.46,17c0,0,0,.17.06.22a5.7,5.7,0,0,1,1.33,2.55.21.21,0,0,0,.24.18c.63,0,1.25,0,1.87,0,.15,0,.22,0,.25-.2a5.61,5.61,0,0,1,1.33-2.51.22.22,0,0,0,0-.32L9.63,13.41c0-.06-.06-.1-.13-.21v.21c0,.56,0,1.11,0,1.67a.46.46,0,0,1-.54.51c-.25,0-.39-.22-.39-.53C8.56,14.46,8.56,13.87,8.56,13.27ZM15.14,5h2.78V1.45H15.14ZM2.44,8.39h-1v1h1Zm14.18,0h-1v1h1ZM2.43,17.44v-1h-1v1Zm13.2,0h1v-1h-1ZM8.54,9.37h1v-1h-1Z" style="fill:#e3204a"/><path d="M21.87,11a.49.49,0,0,1-.47.46.5.5,0,0,1-.46-.47.49.49,0,0,1,.47-.46A.48.48,0,0,1,21.87,11Z" style="fill:#353f49"/><path d="M9.5,17a.49.49,0,0,1-.47.46.48.48,0,0,1-.46-.47A.47.47,0,0,1,9,16.48.49.49,0,0,1,9.5,17Z" style="fill:#353f49"/></svg>