<svg id="Layer_1" data-name="Layer 1" xmlns="http://www.w3.org/2000/svg" viewBox="0 0 25 25"><defs><style>.cls-1{fill:#e3204a;}</style></defs><path class="cls-1" d="M4.62,9.13A3.37,3.37,0,1,0,8,12.5,3.37,3.37,0,0,0,4.62,9.13ZM5,14.31v.07a.38.38,0,0,1-.75,0v-.07a1.13,1.13,0,0,1-.6-.5.37.37,0,0,1,.65-.37.38.38,0,0,0,.32.18A.37.37,0,0,0,5,13.25a.38.38,0,0,0-.38-.38,1.12,1.12,0,0,1-.37-2.18v-.07a.38.38,0,0,1,.75,0v.07a1.13,1.13,0,0,1,.6.5.37.37,0,0,1-.65.37.39.39,0,0,0-.33-.18.37.37,0,0,0,0,.74A1.13,1.13,0,0,1,5,14.31Z"/><path class="cls-1" d="M22.25,21.5h-9a.37.37,0,0,0-.37.38v2.24a.37.37,0,0,0,.37.38h9a.37.37,0,0,0,.37-.38V21.88A.37.37,0,0,0,22.25,21.5Zm-7.5,1.87a.36.36,0,0,1-.37-.37.37.37,0,1,1,.74,0A.36.36,0,0,1,14.75,23.37Z"/><path class="cls-1" d="M19.55,8a.39.39,0,0,0,.18,0,.38.38,0,0,0,.33-.2,6,6,0,0,0,0-5.6.38.38,0,1,0-.67.35,5.23,5.23,0,0,1,0,4.9A.39.39,0,0,0,19.55,8Z"/><path class="cls-1" d="M10.11,7.45a5.23,5.23,0,0,1,0-4.9.38.38,0,1,0-.67-.35,6,6,0,0,0,0,5.6.38.38,0,0,0,.33.2.37.37,0,0,0,.34-.55Z"/><path class="cls-1" d="M16.62,7.34A3,3,0,0,0,17.75,5a3,3,0,0,0-6,0,3,3,0,0,0,1.13,2.34V6.24A2.19,2.19,0,0,1,12.5,5,2.25,2.25,0,0,1,17,5a2.19,2.19,0,0,1-.38,1.24Z"/><path class="cls-1" d="M12.88,9.09V8.25a3.75,3.75,0,1,1,4.51-.59,1.89,1.89,0,0,1,.72.33,4.5,4.5,0,1,0-5.23,1.1Z"/><path class="cls-1" d="M21.52,10.25a1.12,1.12,0,0,0-1.14,1.13V9.91a1.15,1.15,0,0,0-1.11-1.16,1.12,1.12,0,0,0-1.14,1.13V9.54A1.15,1.15,0,0,0,17,8.38,1.11,1.11,0,0,0,15.88,9.5V5a1.15,1.15,0,0,0-1.11-1.16A1.11,1.11,0,0,0,13.63,5V15.13c-1.2-2.38-2.29-2.87-3-2.87a1.29,1.29,0,0,0-.43.07.36.36,0,0,0-.24.47c.31,1,.7,2.52.9,3.32a3,3,0,0,0,.41.95L14,20.75h7.5l1-2.54a3,3,0,0,0,.15-.95V11.41A1.14,1.14,0,0,0,21.52,10.25Z"/><circle class="cls-1" cx="21.87" cy="5" r="0.37"/><circle class="cls-1" cx="23.38" cy="5" r="0.37"/><circle class="cls-1" cx="6.13" cy="5" r="0.37"/><circle class="cls-1" cx="4.63" cy="5" r="0.37"/><circle class="cls-1" cx="4.63" cy="6.5" r="0.37"/><circle class="cls-1" cx="4.63" cy="8" r="0.37"/><circle class="cls-1" cx="7.63" cy="5" r="0.37"/><path class="cls-1" d="M3.12,6.12a.37.37,0,0,0,.38-.37V3.88H5.38a.38.38,0,0,0,0-.76H3.12a.38.38,0,0,0-.37.38V5.75A.37.37,0,0,0,3.12,6.12Z"/></svg>