<svg id="Layer_1" data-name="Layer 1" xmlns="http://www.w3.org/2000/svg" xmlns:xlink="http://www.w3.org/1999/xlink" viewBox="0 0 25 25"><defs><clipPath id="clip-path"><rect x="32.18" width="25" height="25" style="fill:none"/></clipPath></defs><path d="M2.2,13.56a2.27,2.27,0,0,1-1.08-.46s.09.06.28,0a1.87,1.87,0,0,1-.47-.62.65.65,0,0,0,.56.06S.63,11.37.84,10.66A7.19,7.19,0,0,1,1.37,9.4l.43.67a5.35,5.35,0,0,1,.12-2.56L3.19,5.38l.25,1.33S3.28,5.1,3.9,4.52A27.24,27.24,0,0,1,6.25,2.76l.15,1s0-1.11.46-1.23a5,5,0,0,1,2.51-.06s.09,3-.68,3.46A7.25,7.25,0,0,1,5.81,7a6.67,6.67,0,0,0,3.34-.87,6.94,6.94,0,0,1-3,4.11A3,3,0,0,0,7,10.2a5.92,5.92,0,0,1-2.81,2.47,1.77,1.77,0,0,0,.8.09,3.65,3.65,0,0,1-1.3.5.56.56,0,0,0,.43.27,1.78,1.78,0,0,1-1.17,0S3.44,6.68,8.69,2.94c0,0-6.21,3.23-6.37,12.6,0,0,0,1.13-.3,1.14S2.2,13.56,2.2,13.56Z" style="fill:#e3204a"/><polygon points="17.1 10.8 23.25 10.8 23.48 8.25 17.1 8.25 17.09 8.25 10.71 8.25 11.39 15.96 17.09 15.96 17.1 15.96 20.23 15.96 19.93 19.27 17.09 20.03 17.09 20.04 17.09 20.04 14.25 19.27 14.07 17.23 11.51 17.23 11.87 21.24 17.09 22.69 17.1 22.68 17.1 22.68 22.32 21.24 23.02 13.41 17.1 13.41 17.09 13.41 13.72 13.41 13.49 10.8 17.09 10.8 17.1 10.8" style="fill:#e3204a"/><polygon points="17.09 20.03 17.09 20.03 17.09 20.04 17.09 20.04 14.25 19.27 14.07 17.23 11.51 17.23 11.87 21.24 17.09 22.69 17.09 22.69 17.09 20.03" style="fill:#e3204a"/><polygon points="17.09 15.96 17.09 13.41 17.09 13.41 13.72 13.41 13.49 10.8 17.09 10.8 17.09 10.8 17.09 8.25 17.09 8.25 10.71 8.25 11.39 15.96 17.09 15.96 17.09 15.96" style="fill:#e3204a"/><g style="clip-path:url(#clip-path)"><path d="M65.26,22.08V18.32c0-.11,0-.22-.07-.33-.69-2.68-4-2.18-4.62.28A2.35,2.35,0,0,0,56.26,18a2,2,0,0,0-3.35-1.53,3,3,0,0,0-5.8-.62,13.09,13.09,0,0,1-1.93-5.5c-.21-1.17.16-1.64-1-1.67s-.86.7-1.07,1.86a12.85,12.85,0,0,1-1.9,5.31,3,3,0,0,0-5.8.62A2,2,0,0,0,32,18a2.34,2.34,0,0,0-4.3.26,2.54,2.54,0,0,0-2.31-2.16c-1.87,0-2.28,1.41-2.36,2.87v3.19a.38.38,0,0,0,.37.37H64.88a.38.38,0,0,0,.37-.3S65.26,22.13,65.26,22.08Z" style="fill:#e3204a"/></g></svg>