<svg xmlns="http://www.w3.org/2000/svg" xmlns:xlink="http://www.w3.org/1999/xlink" viewBox="0 0 25 25"><defs><clipPath id="clip-path"><polygon points="6.14 17.63 15.97 12.09 15.94 17.65 6.14 17.63" style="fill:none"/></clipPath></defs><g style="isolation:isolate"><g id="Layer_1" data-name="Layer 1"><g style="mix-blend-mode:screen"><g style="clip-path:url(#clip-path)"><polygon points="6.14 17.59 9.21 14.96 11.52 17.65 6.14 17.65 6.14 17.59" style="fill:#fff"/><polygon points="9.21 14.96 12.55 12.09 15.97 12.09 15.97 17.65 11.52 17.65 9.21 14.96" style="fill:#fff"/></g></g><path d="M15,21.06c-.31.86-8.75,1.23-9.53-.16S15.64,19.19,15,21.06Z" style="fill:#28495c"/><polygon points="19.92 6.17 19.99 18.47 0.63 18.31 0.5 5.9 19.92 6.17" style="fill:#38b8ff"/><polygon points="19.26 6.67 1.17 6.41 1.29 17.5 19.32 17.65 19.26 6.67" style="fill:#f1f2f2"/><path d="M12.65,17.69l-.17,3.25s-4.59,0-4.6-.17L7.8,17.82Z" style="fill:#2d8fc7"/><path d="M20,18.47.63,18.31l0-1.71,19.37,0Z" style="fill:#28495c"/><polygon points="17.24 11.29 16.83 10.21 16.5 11.28 15.32 11.33 16.31 11.87 15.8 13.13 16.83 12.19 17.64 13.13 17.25 11.86 18.33 11.42 17.24 11.29" style="fill:#ff933b"/><path d="M19.67,3.31l-.18-.18A8.62,8.62,0,0,1,17,5.06c-1.11.4-1.34.35-1.34.57a5.14,5.14,0,0,0,.56,1.81s.91-.34,1.33-.43a31.89,31.89,0,0,1,3.23,0l-.53-2Z" style="fill:#ff643b"/><path d="M17.7,6.8s.84,2.93.84,3.07-.63.57-.83.22-.91-3.23-.91-3.23Z" style="fill:#ff643b"/><path d="M17,5.06,17.14,5c-.23.69.06,1.82.65,2l-.25,0c-.42.09-1.33.43-1.33.43a5.14,5.14,0,0,1-.56-1.81C15.65,5.41,15.88,5.46,17,5.06Z" style="fill:#943a22"/><ellipse cx="20.15" cy="5.08" rx="0.61" ry="2.06" transform="translate(-0.58 6.49) rotate(-18.03)" style="fill:#ff643b"/><ellipse cx="20.15" cy="5.08" rx="0.61" ry="2.06" transform="translate(-0.58 6.49) rotate(-18.03)" style="fill:#943a22"/><path d="M19.62,5.41h0a.78.78,0,0,1-.05-.14c0-.11-.07-.22-.1-.32C19.67,4.87,20.43,5,19.62,5.41Z" style="fill:#fff;stroke:#e6e7e8;stroke-miterlimit:10;stroke-width:0.9055719999999999px"/><polygon points="17.89 8.17 18.07 8.11 18.42 8.7 18.04 8.86 17.89 8.17" style="fill:#154965"/><path d="M19.7,20.61a3.83,3.83,0,0,0,3.1-.17c.41-.18,1.06-.85.89-1.27S23,19,23,19s2.12-1.75,1.37-2.47-1.82.94-1.82.94,2.68-4,.91-4.92c-2-1-3.3,3.91-3.3,3.91s.27-1.62-.43-1.69S16.9,17.75,19.7,20.61Z" style="fill:#ff933b"/><path d="M21,20.54a11,11,0,0,1,.82-5.24,10.07,10.07,0,0,1,1.13-2.1l.07.06a10.39,10.39,0,0,0-1.12,2.08,11,11,0,0,0-.81,5.19Z" style="fill:#fff"/><path d="M21,19.4l0-.09A9.91,9.91,0,0,0,23.77,17l.07.06C23.76,17.18,22.08,19.07,21,19.4Z" style="fill:#fff"/><path d="M21.1,20.22H21v-.09a4.67,4.67,0,0,0,1.8-.5l0,.08A5,5,0,0,1,21.1,20.22Z" style="fill:#fff"/><path d="M21,19.81a2,2,0,0,1-1.49-.91,3.43,3.43,0,0,1-.34-2.14,6.88,6.88,0,0,1,.24-1.2l.09,0s-.66,2.05.09,3.26a1.9,1.9,0,0,0,1.42.87Z" style="fill:#fff"/><path d="M20.31,20.46c-.28.37-.71.59-1.8.37-.36-.07-1.14-.41-1-1.07s.91.06.91.06-2.24-3.13-.78-3.73,1.9,2.8,1.9,2.8.11-.47.44-.43A1.28,1.28,0,0,1,20.31,20.46Z" style="fill:#ff643b"/><path d="M19.41,20.59a9.9,9.9,0,0,1-1.52-3.73l.11,0a9.88,9.88,0,0,0,1.5,3.69Z" style="fill:#fff"/><path d="M19,20.4a1.14,1.14,0,0,1-.79-.17l.07-.09s.3.25,1,.11l0,.11A2.38,2.38,0,0,1,19,20.4Z" style="fill:#fff"/><path d="M19.37,20.45l-.05-.1a1.27,1.27,0,0,0,.6-1.35L20,19A1.38,1.38,0,0,1,19.37,20.45Z" style="fill:#fff"/><path d="M19.2,20.8c.21-.24.38-.51.73-.53a2.36,2.36,0,0,1,1.14.21c.12.14.55.64.09.83S18.6,21.44,19.2,20.8Z" style="fill:#d1d3d4"/><path d="M20.71,20.81a6.07,6.07,0,0,1-.84.18.52.52,0,0,1-.52-.37l-.15.18c-.6.64,1.51.7,2,.51.27-.11.23-.33.13-.52h0A.92.92,0,0,0,20.71,20.81Z" style="fill:#bcbec0"/><path d="M21.24,19.74c-.8.93-.27,2.11,1.2,2.13S24.5,20.62,24,20.09,22.21,18.62,21.24,19.74Z" style="fill:#d1d3d4"/><path d="M23.81,19.9c.13.35.17.7-.11.8-.62.23-.55-.12-1.26.21a1.49,1.49,0,0,1-1.57-.21c0,.63.59,1.16,1.57,1.17,1.47,0,2.06-1.25,1.56-1.78Z" style="fill:#bcbec0"/><path d="M2.29,7.67H10" style="fill:none;stroke:#383838;stroke-miterlimit:10;stroke-width:0.25px"/><line x1="2.26" y1="8.34" x2="13.23" y2="8.34" style="fill:none;stroke:#383838;stroke-miterlimit:10;stroke-width:0.25px"/><line x1="2.26" y1="8.95" x2="13.23" y2="8.95" style="fill:none;stroke:#383838;stroke-miterlimit:10;stroke-width:0.25px"/><line x1="2.26" y1="9.55" x2="13.23" y2="9.55" style="fill:none;stroke:#383838;stroke-miterlimit:10;stroke-width:0.25px"/><line x1="10.64" y1="14.01" x2="18.29" y2="14.01" style="fill:none;stroke:#939598;stroke-miterlimit:10;stroke-width:0.25px"/><line x1="7.53" y1="14.78" x2="18.37" y2="14.78" style="fill:none;stroke:#a7a9ac;stroke-miterlimit:10;stroke-width:0.25px"/><line x1="7.48" y1="15.57" x2="18.37" y2="15.57" style="fill:none;stroke:#a7a9ac;stroke-miterlimit:10;stroke-width:0.25px"/><ellipse cx="13.42" cy="18.95" rx="1.94" ry="3.44" transform="translate(-6.93 7.77) rotate(-25.92)" style="fill:#28495c"/><polygon points="12.4 15.65 11.93 15.85 11.97 15.98 12.55 15.77 12.4 15.65" style="fill:#28495c"/><path d="M15.26,21.91l-.4.16L14.7,22l.26-.11a2.19,2.19,0,0,1,.27,0Z" style="fill:#28495c"/><ellipse cx="13.82" cy="18.79" rx="1.95" ry="3.44" transform="translate(-6.82 7.93) rotate(-25.92)" style="fill:#fff1e0"/><path d="M14,21a4.6,4.6,0,0,1-1.32-1.67,4.51,4.51,0,0,1-.5-2.16,1.18,1.18,0,0,1,.48-1l.07,0a1.37,1.37,0,0,1,1.12.34,4.77,4.77,0,0,1,1.32,1.68,4.55,4.55,0,0,1,.49,2.15,1.18,1.18,0,0,1-.48,1l-.07,0A1.34,1.34,0,0,1,14,21Zm.94-.17c.07,0,.16-.2.18-.59a4,4,0,0,0-.44-1.89,4.1,4.1,0,0,0-1.16-1.47c-.36-.27-.58-.28-.62-.26s-.16.19-.18.58a4.11,4.11,0,0,0,.44,1.89A4,4,0,0,0,14.3,20.6C14.66,20.87,14.85,20.9,14.92,20.87Z" style="fill:#ff643b"/><path d="M14.37,19.6h0a.33.33,0,0,0,.11-.29,1.4,1.4,0,0,0-.17-.74,1.45,1.45,0,0,0-.45-.57.38.38,0,0,0-.31-.11h0c-.07,0-.11.15-.12.3a1.37,1.37,0,0,0,.17.73,1.41,1.41,0,0,0,.45.58.38.38,0,0,0,.31.11Z" style="fill:#ff643b"/><path d="M15.05,13.4s-.25,1-.36,1.33c0,0,.35.61.43.77l.31-1.36A4,4,0,0,0,15.05,13.4Z" style="fill:#28495c"/><polygon points="15.57 15.29 15.12 15.5 15.43 14.14 16.03 13.79 15.57 15.29" style="fill:#28495c"/><path d="M14.06,18.8l0,0a28.89,28.89,0,0,0,1.44-4.67.09.09,0,0,0-.06-.1.08.08,0,0,0-.1.06A29.32,29.32,0,0,1,14,18.68a.07.07,0,0,0,0,.11Z" style="fill:#ffab3b"/><polygon points="4.71 13.47 4.29 12.39 3.96 13.46 2.78 13.52 3.77 14.05 3.27 15.31 4.29 14.37 5.1 15.31 4.72 14.05 5.8 13.6 4.71 13.47" style="fill:#ff933b"/><polygon points="3.18 21.05 3.2 21.27 3.26 21.34 3.33 21.29 3.34 21.26 3.35 20.99 3.18 21.05" style="fill:#f7d5a0"/><polygon points="2.5 21.04 2.47 21.27 2.5 21.35 2.6 21.32 2.6 21.26 2.64 21.02 2.5 21.04" style="fill:#f7d5a0"/><path d="M3.08,14.91s0,.28.2.37v.15l-.45.07-.15-.17s.15,0,.09-.35S3.08,14.91,3.08,14.91Z" style="fill:#f7d5a0"/><g style="mix-blend-mode:multiply"><path d="M3.08,14.91a1.25,1.25,0,0,0,.06.21A.51.51,0,0,1,2.78,15v0C2.71,14.65,3.08,14.91,3.08,14.91Z" style="fill:#f7d5a0"/></g><path d="M2.81,13.85s-1.15.52-1.08,1.35c.06.56,1,.79,1,.79l-.4-.73C2,15,2.5,14.49,2.81,13.85Z" style="fill:#5cbcf2"/><path d="M2.48,21.06s0,0,.17,0c0,0,.35-1.89.38-2.1A11.34,11.34,0,0,0,3,17.64l-.61-.7s.09,1.93.07,2.15A13.28,13.28,0,0,0,2.48,21.06Z" style="fill:#1e3745"/><path d="M2.36,16.94a1.2,1.2,0,0,0,.27.75,3.72,3.72,0,0,1,.68,1.09,3.05,3.05,0,0,0-.19.89,13.58,13.58,0,0,0,0,1.41.25.25,0,0,0,.19,0,23.19,23.19,0,0,0,.51-2.37c0-.25-.38-1.77-.38-1.77l-.86-.15-.13.11Z" style="fill:#28495c"/><path d="M2.78,15.21a2,2,0,0,0-.41,0c-.18.07-.24,1.13,0,1.68a1.73,1.73,0,0,0,1.12,0s.17-.92.18-1-.07-.64-.07-.64l-.39-.09A1.36,1.36,0,0,1,2.78,15.21Z" style="fill:#78ceff"/><path d="M3.18,21.28a.4.4,0,0,0,0,.2s0,0,0,0h.67s0,0,0,0,0-.06,0-.07-.4-.13-.46-.15h0a.28.28,0,0,1-.14,0Z" style="fill:#1f3947"/><path d="M2.45,21.28a.51.51,0,0,0,0,.2,0,0,0,0,0,0,0H3.1s0,0,0,0a.07.07,0,0,0,0-.07c-.05,0-.39-.13-.45-.15h0a.23.23,0,0,1-.13,0S2.45,21.27,2.45,21.28Z" style="fill:#1f3947"/><path d="M4.9,14s.13,0,.14.06a5.38,5.38,0,0,1-.49,1.06,10,10,0,0,1-1.12,1l-.08-.74s.75-.43.85-.52A6.7,6.7,0,0,1,4.9,14Z" style="fill:#78ceff"/><path d="M2.66,15.22l.13-.1a.77.77,0,0,0,.38,0l.12.07A1,1,0,0,1,2.66,15.22Z" style="fill:#aee2ff"/><path d="M3,13.89a2.92,2.92,0,0,1,.43.64l-.12,0s.1.92-.66.25.13-.85.13-.85Z" style="fill:#f7d5a0"/><path d="M2.72,13.83c.06,0,.2-.36.38-.26s.36.51-.15.61-.2.71-.23.69-.18.1-.39-.31S2.29,13.94,2.72,13.83Z" style="fill:#0c3c63"/><path d="M2.75,14.51c-.09,0-.17-.07-.2.05s.17.21.21.14A.27.27,0,0,0,2.75,14.51Z" style="fill:#f7d5a0"/><path d="M2.37,17A1.37,1.37,0,0,0,3.5,17V17a1.88,1.88,0,0,1-1.12,0Z" style="fill:#ff7b3b"/><path d="M4.94,14.05A.19.19,0,0,0,5,14s0-.17.07-.17,0,.13,0,.13l.2-.08a.42.42,0,0,1-.08.14L5,14.08Z" style="fill:#f7d5a0"/><polygon points="10.31 17.27 11 17.71 10.96 17.8 10.12 17.39 10.31 17.27" style="fill:#f7d5a0"/><path d="M9.65,19.71s-.22.14-.3.68a7.67,7.67,0,0,1-.19,1.66v.11l.24.08.21.05h.23a.07.07,0,0,0,0-.1c-.06-.05-.45-.23-.46-.33s.78-2,.79-2.12l-.28-.11Z" style="fill:#f7d5a0"/><path d="M9.61,22.29h.23a.07.07,0,0,0,0-.1s-.05,0-.09-.06h0c-.05.14-.43-.08-.55-.16l0,.08v.11l.24.08Z" style="fill:#1f3947"/><path d="M8.64,19.63a1,1,0,0,0-.16.7c0,.48.43,1.35.4,1.57s-.06.31,0,.39.73,0,.76,0,.08-.07,0-.1-.54-.12-.6-.35,0-2.4,0-2.4Z" style="fill:#f7d5a0"/><path d="M9.61,22.19l-.1,0h0A1.23,1.23,0,0,1,8.88,22c0,.17-.06.25,0,.32s.73,0,.76,0S9.69,22.22,9.61,22.19Z" style="fill:#1f3947"/><path d="M8.92,15.63s-.12.18-.17.24l-.14.22s.19.37.21.38a3.25,3.25,0,0,0,.47.1,1.58,1.58,0,0,0,.22-.16L9.35,16s-.18,0-.2-.08a1.17,1.17,0,0,1,0-.25Z" style="fill:#f7d5a0"/><path d="M9.54,16a8.11,8.11,0,0,1,.77,1.28s-.16.14-.18.14-.47-.55-.47-.55l-.12-.66Z" style="fill:#aee2ff"/><g style="mix-blend-mode:multiply"><path d="M9.15,15.86c0-.09,0-.23,0-.23H8.92l0,.06A.43.43,0,0,0,9.15,15.86Z" style="fill:#f7d5a0"/></g><path d="M7.44,17s-.16.17-.14.2a1.67,1.67,0,0,0,1.07.55l.06,0a5.27,5.27,0,0,1-.75-.51l-.09-.18Z" style="fill:#f7d5a0"/><path d="M9.18,14.69a.8.8,0,0,1,.4.69l-.13,0s.07.64-.61.23S8.62,15,8.62,15a2.22,2.22,0,0,1,.13-.19S9.18,14.69,9.18,14.69Z" style="fill:#f7d5a0"/><path d="M9.29,14.34c.16-.07.58.24.1.62s-.62.16-.62.16.36.71-.06.92-.25.48-.41.63a.42.42,0,0,1-.69-.42c0-.58.57-.55.67-.82s-.08-.57,0-.77S8.75,14.58,9.29,14.34Z" style="fill:#0c3c63"/><path d="M9,15.22s-.06-.18-.16-.1,0,.32.15.27S9,15.22,9,15.22Z" style="fill:#f7d5a0"/><path d="M11,17.73s0-.06.13,0,.29.05.24.1a.64.64,0,0,1-.36,0C10.9,17.78,11,17.73,11,17.73Z" style="fill:#f7d5a0"/><path d="M8.46,17.67a.71.71,0,0,0-.24.69,5.64,5.64,0,0,0,.39,1.34s.42.35,1.55,0A5.68,5.68,0,0,0,9.46,18c-.36-.36-.61-.27-.61-.27Z" style="fill:#28495c"/><path d="M7.44,17a.29.29,0,0,0,.24.2l.82-.59a.4.4,0,0,0-.18-.4A9.11,9.11,0,0,0,7.44,17Z" style="fill:#78ceff"/><path d="M8.32,16.24a3.62,3.62,0,0,1,.39-.2,5.29,5.29,0,0,0,.55.44c.13,0,.11-.52.09-.52l.19,0s.18.45.31.68c0,0,0,.24-.3.31a3,3,0,0,0-.09,1,1,1,0,0,1-1-.31.7.7,0,0,0,0-1Z" style="fill:#78ceff"/><path d="M8.46,17.64s-.14,0-.19.15.1.17.17.08S8.52,17.67,8.46,17.64Z" style="fill:#f7d5a0"/><g style="mix-blend-mode:multiply"><path d="M9.35,16.93H8.87v0l0,0,0,0,0,0,0,0h.25l0,0,.05,0A0,0,0,0,0,9.35,16.93Z" style="fill:#78ceff"/></g><path d="M10,3.91a1.14,1.14,0,0,1,.42-.21.9.9,0,0,1,.4,0L11,3.65a1.56,1.56,0,0,1,.6.29v.43s0,.36,0,.36l-.19.1-.07.24,0,.11,0,.32h-.5l-.66-.2L9.9,4.53Z" style="fill:#ffab3b"/><path d="M10,5.4a.74.74,0,0,0-.66-.06c-.27.15-.15.51-.15.51l.44.06h.6a2.63,2.63,0,0,0,.18-.3l-.31-.2Z" style="fill:#d45430"/><path d="M9.92,5.81a.79.79,0,0,1-.26,0v.27H9.9Z" style="fill:#f7d5a0"/><path d="M9.2,5.57a.42.42,0,0,0,0,.51l.55,0a.3.3,0,0,1,0-.26S9.42,5.51,9.2,5.57Z" style="fill:#2582b5"/><path d="M9.34,5.57a.43.43,0,0,0-.11.51H9.17a.42.42,0,0,1,0-.51A.33.33,0,0,1,9.34,5.57Z" style="fill:#20709c"/><path d="M11.06,4.66l-.14-.08s-.05.14-.05.15.08.08.08.08Z" style="fill:#f7d5a0"/><path d="M10.87,4.94a1.13,1.13,0,0,1-.32,0,5.05,5.05,0,0,1-.06-.67,2.77,2.77,0,0,1,.41,0S10.88,4.9,10.87,4.94Z" style="fill:#0e3144"/><path d="M11,4.63a.3.3,0,0,0-.06-.28v.18a1.45,1.45,0,0,1-.41-.08c-.16-.07-.06.07,0,.1s-.12,0-.13,0,.27.3.47.19L11,4.67Z" style="fill:#f7d5a0"/><path d="M11,3.63a.15.15,0,0,1,.05.14c0,.09-.19.38-.39.42,0,0-.36-.28-.26-.52s.24-.12.24-.12Z" style="fill:#f7d5a0"/><g style="mix-blend-mode:multiply"><path d="M10.41,3.67c.1-.24.24-.12.24-.12l.36.08,0,0h0A.39.39,0,0,1,10.7,4,.27.27,0,0,1,10.41,3.67Z" style="fill:#f7d5a0"/></g><path d="M11,3.07s.22.7-.31.79-.34-.8-.34-.8l.4-.07Z" style="fill:#f7d5a0"/><path d="M10.38,3.39a.1.1,0,0,0-.11,0c-.07,0,0,.32.14.28S10.38,3.39,10.38,3.39Z" style="fill:#f7d5a0"/><path d="M11,3.12a.57.57,0,0,1-.64.25c-.42-.12-.18-.38-.18-.38s0,.06.08.06.2-.39.57-.34.26.17.26.17a.13.13,0,0,1,.14.08c.07.1.07.38-.07.46l-.06-.07A1.07,1.07,0,0,0,11,3.12Z" style="fill:#0c3c63"/><path d="M11.06,3.38a.1.1,0,0,1,.11,0c.07,0,0,.33-.14.29S11.06,3.38,11.06,3.38Z" style="fill:#f7d5a0"/><path d="M9.83,5.78a1,1,0,0,0,0,.29,6.35,6.35,0,0,0,1.83,0c.53-.17.6-.4.41-.57S11.14,5.22,9.83,5.78Z" style="fill:#ff653b"/><path d="M11.57,5.84s-.23.26-.31.27h.29l.1,0V5.92Z" style="fill:#f7d5a0"/><path d="M12.06,5.6a.42.42,0,0,1,0,.51h-.55a.3.3,0,0,0,0-.26S11.83,5.55,12.06,5.6Z" style="fill:#2582b5"/><path d="M11.91,5.61c.1.06.21.21.13.5h.06a.42.42,0,0,0,0-.51A.26.26,0,0,0,11.91,5.61Z" style="fill:#20709c"/><path d="M10.92,5.45a.49.49,0,0,1,.18.17.44.44,0,0,1,.07.3.4.4,0,0,1-.07.2s0,0,0,0,0,.12-.07.13,0-.1,0-.1,0,.1,0,.1-.14-.26-.08-.59C10.85,5.63,10.84,5.5,10.92,5.45Z" style="fill:#f7d5a0"/><path d="M11.1,5.7a.53.53,0,0,0,.17.12s0,.08-.15,0S11.1,5.7,11.1,5.7Z" style="fill:#f7d5a0"/><polygon points="10.85 5.63 10.8 5.62 10.68 5.53 10.8 5.46 10.85 5.43 10.89 5.43 10.93 5.45 11.03 5.61 10.85 5.63" style="fill:#f7d5a0"/><path d="M10.92,5.42a.21.21,0,0,0-.1.22s-1.07,0-1.33-.44S9.89,4,10,3.91s.34.73.19,1.06C10.17,5,10.88,5.38,10.92,5.42Z" style="fill:#ffbc62"/><path d="M11,4.61a.63.63,0,0,0-.11.21s.4.61.86.58.22-1.08-.16-1.46a1,1,0,0,0-.22.82A2,2,0,0,1,11,4.61Z" style="fill:#ffbc62"/><path d="M11.7,6.07a.36.36,0,0,0,0-.22h0a.34.34,0,0,1,0,.2Z" style="fill:#fff"/><path d="M11.78,6.07a.32.32,0,0,0,0-.26h0a.38.38,0,0,1,0,.24Z" style="fill:#fff"/><path d="M9.63,6h0a.38.38,0,0,1,0-.21h0A.32.32,0,0,0,9.63,6Z" style="fill:#fff"/><path d="M9.54,6h0a.23.23,0,0,1,0-.24h0A.23.23,0,0,0,9.54,6Z" style="fill:#fff"/><path d="M10.82,5.61v0s-1.11-.27-1.19-.52.41-1,.41-1h0s-.5.78-.42,1S10.77,5.6,10.82,5.61Z" style="fill:#fff"/><path d="M11.75,5.3a.17.17,0,0,0,.1,0c.23-.14-.22-1.25-.24-1.3h0s.46,1.14.24,1.28l-.09,0c-.27,0-.8-.49-.81-.49h0S11.47,5.29,11.75,5.3Z" style="fill:#fff"/><path d="M8.59,17.77a1.49,1.49,0,0,0-.12.77,4.14,4.14,0,0,0,.62,1.32" style="fill:none;stroke:#fff;stroke-miterlimit:10"/><path d="M3.29,17.08a10.42,10.42,0,0,1,.45,1.69c0,.3-.45,2.33-.45,2.33" style="fill:none;stroke:#fff;stroke-miterlimit:10"/><path d="M3,17.13s.11.39.41.45" style="fill:none;stroke:#fff;stroke-miterlimit:10"/><polygon points="13.95 11.29 13.54 10.21 13.21 11.28 12.03 11.33 13.02 11.87 12.51 13.13 13.54 12.19 14.35 13.13 13.96 11.86 15.04 11.42 13.95 11.29" style="fill:#ff933b"/><polygon points="10.66 11.29 10.24 10.21 9.91 11.28 8.74 11.33 9.73 11.87 9.22 13.13 10.25 12.19 11.06 13.13 10.67 11.86 11.75 11.42 10.66 11.29" style="fill:#ff933b"/><polygon points="7.37 11.29 6.96 10.21 6.62 11.28 5.45 11.33 6.43 11.87 5.93 13.13 6.96 12.19 7.77 13.13 7.38 11.86 8.46 11.42 7.37 11.29" style="fill:#ff933b"/></g></g></svg>