<svg id="Layer_1" data-name="Layer 1" xmlns="http://www.w3.org/2000/svg" viewBox="0 0 25 25"><defs><style>.cls-1{fill:#e3204a;}.cls-2{fill:#fff;}</style></defs><path class="cls-1" d="M18.25,18.62V15.25h5.21V4.13a.51.51,0,0,0-.16-.47.82.82,0,0,0-.42-.15H2.11a.51.51,0,0,0-.57.55V15.24H2.3v3.37A1.56,1.56,0,0,1,.5,17.05V4.12A1.56,1.56,0,0,1,2.16,2.46H22.89A1.57,1.57,0,0,1,24.5,4.08c0,1.88,0,3.75,0,5.63s0,3.83,0,5.74c0,.61,0,1.22,0,1.82A1.51,1.51,0,0,1,23,18.62H18.25Z"/><path class="cls-1" d="M9.76,22.54a1.77,1.77,0,0,0,.39-1.32c0-.2,0-.4,0-.61s0-.16.16-.16h6.36v-.16q0-5.55,0-11.11c0-.16,0-.21-.21-.21H7.73c-.16,0-.2,0-.2.19,0,.54,0,1.08,0,1.63h-1a.91.91,0,0,1,0-.17V8.82a.81.81,0,0,1,.88-.88h9.49a.78.78,0,0,1,.84.85c0,4.23,0,8.47,0,12.71a1.6,1.6,0,0,1-.11.57.72.72,0,0,1-.72.47H9.76Zm2.44-1.67a.48.48,0,0,0-.46.48.48.48,0,0,0,.47.48.48.48,0,0,0,0-1Z"/><path class="cls-1" d="M9.62,16.93v4.48A1,1,0,0,1,8.5,22.54H4A1,1,0,0,1,2.85,21.4V12.45A1,1,0,0,1,4,11.34H8.56a1,1,0,0,1,1.06,1c0,1.52,0,3,0,4.56ZM3.89,12.38s0,.08,0,.12c0,2.51,0,5,0,7.53,0,.13,0,.17.18.17H8.57V12.38Zm1.86,9a.49.49,0,0,0,.44.5.48.48,0,0,0,.45-.49.47.47,0,0,0-.44-.48A.46.46,0,0,0,5.75,21.34Z"/><path class="cls-1" d="M18.24,22.27c0-.5,0-1,0-1.49a.33.33,0,0,1,.16-.21s.15.05.2.11a.57.57,0,0,1,.11.22,1,1,0,0,0,.52.59c.25.11.52.19.78.28l.3.09c.26.08.28.11.25.41Z"/><path class="cls-2" d="M12.2,20.87a.48.48,0,0,1,0,1,.48.48,0,0,1-.47-.48A.48.48,0,0,1,12.2,20.87Z"/><path class="cls-2" d="M5.75,21.34a.46.46,0,0,1,.45-.47.47.47,0,0,1,.44.48.48.48,0,0,1-.45.49A.49.49,0,0,1,5.75,21.34Z"/></svg>