<svg id="Layer_1" data-name="Layer 1" xmlns="http://www.w3.org/2000/svg" viewBox="0 0 25 25"><defs><style>.cls-1{fill:#fbbc05;}.cls-2{fill:#34a853;}.cls-3{fill:#4185f4;}</style></defs><path class="cls-1" d="M1.68,15A5.3,5.3,0,0,1,1,14.76a.71.71,0,0,1-.36-.94h0a.71.71,0,0,1,1-.36,3.67,3.67,0,0,0,2.92.2c.68-.43.28-1.16-.39-1.31C3,12,1.63,11.94.89,11.06a2.06,2.06,0,0,1,0-2.36c1-1.34,3.16-1.4,4.72-.8A.71.71,0,0,1,6,8.83H6a.72.72,0,0,1-.92.39,3.07,3.07,0,0,0-2.5-.05.66.66,0,0,0,0,1.19c1,.47,2.78.47,3.55,1.41a2,2,0,0,1,0,2.34C5.26,15.43,3.15,15.44,1.68,15Z"/><rect class="cls-2" x="7.73" y="7.54" width="5.63" height="1.38" rx="0.69"/><rect class="cls-2" x="7.73" y="10.71" width="5.17" height="1.38" rx="0.69"/><rect class="cls-2" x="7.73" y="13.87" width="5.63" height="1.38" rx="0.69"/><path class="cls-3" d="M23.43,7.55,22.1,7.9l.38.38-2.57,2.36-.79-.8-2.24,2.72,2.24-1.84.79.79.21-.23,2.57-2.8.38.39Z"/><path class="cls-3" d="M24.24,16,23.1,14.8a.92.92,0,0,0-.9-.22l-.74-.74a3.91,3.91,0,0,0,.86-2.43A3.86,3.86,0,0,0,22,9.85L20.92,11c0,.12,0,.25,0,.38a2.48,2.48,0,1,1-2.48-2.49,2.45,2.45,0,0,1,1.83.81l1-.93a3.85,3.85,0,1,0-.43,5.62l.75.75a.9.9,0,0,0,.22.89L23,17.2a.89.89,0,0,0,1.26,0h0A.88.88,0,0,0,24.24,16Z"/></svg>