<svg id="Layer_1" data-name="Layer 1" xmlns="http://www.w3.org/2000/svg" viewBox="0 0 25 25"><path d="M20.43,5.17A.22.22,0,0,0,20.22,5l-1.93-.15L16.87,3.42a.59.59,0,0,0-.52-.07l-.72.23c-.43-1.24-1.18-2.37-2.51-2.37H13A1.63,1.63,0,0,0,11.76.5c-3.1,0-4.58,3.87-5,5.84L4.55,7c-.67.21-.69.23-.78.86C3.7,8.35,2,21.94,2,21.94L15.64,24.5l7.41-1.6S20.45,5.29,20.43,5.17ZM14.87,3.81l-1.15.36V3.92a5.67,5.67,0,0,0-.28-1.87c.68.08,1.14.86,1.43,1.76ZM12.59,2.2a5.78,5.78,0,0,1,.31,2.09v.13l-2.39.74a4.09,4.09,0,0,1,2.08-3Zm-.92-.87a.79.79,0,0,1,.4.13c-1,.47-2.06,1.65-2.51,4L7.67,6c.53-1.79,1.78-4.71,4-4.71Z" style="fill:#95bf46"/><path d="M20.22,5l-1.93-.15L16.87,3.42a.34.34,0,0,0-.2-.09l-1,21.17,7.41-1.6S20.45,5.29,20.43,5.17A.22.22,0,0,0,20.22,5" style="fill:#5e8e3e"/><path d="M13.12,9.08,12.2,11.8a4.18,4.18,0,0,0-1.78-.43c-1.44,0-1.51.9-1.51,1.13,0,1.24,3.24,1.72,3.24,4.63a3.43,3.43,0,0,1-3.41,3.76,4.74,4.74,0,0,1-3.55-1.46l.62-2.08a4.52,4.52,0,0,0,2.28,1.06.92.92,0,0,0,1-.93c0-1.62-2.66-1.69-2.66-4.35,0-2.24,1.61-4.41,4.86-4.41a4,4,0,0,1,1.87.36" style="fill:#fff"/></svg>