<svg id="Layer_1" data-name="Layer 1" xmlns="http://www.w3.org/2000/svg" viewBox="0 0 25 25"><defs><style>.cls-1{fill:#addb37;}.cls-1,.cls-10,.cls-11,.cls-13,.cls-14,.cls-15,.cls-16,.cls-17,.cls-18,.cls-19,.cls-2,.cls-20,.cls-21,.cls-23,.cls-24,.cls-26,.cls-27,.cls-28,.cls-29,.cls-3,.cls-30,.cls-31,.cls-33,.cls-34,.cls-35,.cls-36,.cls-37,.cls-38,.cls-39,.cls-4,.cls-41,.cls-46,.cls-47,.cls-49,.cls-5,.cls-50,.cls-51,.cls-53,.cls-55,.cls-7,.cls-9{fill-rule:evenodd;}.cls-2{fill:#83a62a;}.cls-3,.cls-6{fill:#ecf0f1;}.cls-4{fill:#c7ecf5;}.cls-5{fill:#81b7c4;}.cls-22,.cls-7{fill:#2c3e50;}.cls-16,.cls-8{fill:#fc6320;}.cls-9{fill:#ffc82f;}.cls-10{fill:#c29312;}.cls-11,.cls-12{fill:#3d566e;}.cls-13{fill:#f1c40f;}.cls-14{fill:#fff;}.cls-15,.cls-25{fill:#dae1e6;}.cls-17,.cls-42{fill:#c0392b;}.cls-18{fill:#1abec8;}.cls-19{fill:#159096;}.cls-20{fill:#ffed00;}.cls-21,.cls-32{fill:#f39c12;}.cls-23,.cls-54{fill:#b4ccfa;}.cls-24{fill:#d0defa;}.cls-26,.cls-43{fill:#c43e3f;}.cls-27{fill:#d1d1d1;}.cls-28{fill:#bdbdbd;}.cls-29{fill:#e74c3c;}.cls-30{fill:#40a5ba;}.cls-31{fill:#27ae60;}.cls-33{fill:#e8d6ac;}.cls-34{fill:#1877b1;}.cls-35{fill:#e8b119;}.cls-36{fill:#8a700f;}.cls-37{fill:#6b591a;}.cls-38{fill:#ccc;}.cls-39,.cls-40{fill:#4185f4;}.cls-41,.cls-52{fill:#ffcb05;}.cls-44{fill:#b3b3b3;}.cls-45{fill:#d15458;}.cls-46{fill:#b53e3e;}.cls-47{fill:#bf494d;}.cls-48{fill:#facc4d;}.cls-49{fill:#7f8c8d;}.cls-50{fill:#95a5a6;}.cls-51{fill:#bdc3c7;}.cls-53{fill:#50bfd8;}.cls-55{fill:#626270;}</style></defs><path class="cls-1" d="M12.79,6.62a1,1,0,1,1-1,1A1,1,0,0,1,12.79,6.62Z"/><path class="cls-2" d="M13.76,7.77a1,1,0,0,1-.78.8l-.7-.71h.07v0h.41l.06.06H13l.1.09h.06l-.26-.26h0v0h0l-.05-.05h0v0h.34Z"/><path class="cls-3" d="M13.13,7.43a.22.22,0,0,0-.22-.13h0v0h0a.27.27,0,0,1,.3.18s0,0,0,0a0,0,0,0,1,0,0h0S13.13,7.44,13.13,7.43Z"/><path class="cls-3" d="M13.25,7.4a.34.34,0,0,0-.38-.22s0,0,0,0v0h0a.39.39,0,0,1,.45.27s0,0,0,0a0,0,0,0,1,0,0h-.05Z"/><path class="cls-3" d="M12.38,7.89a.18.18,0,0,1-.18-.18.18.18,0,0,1,.15-.19.27.27,0,0,1,.27-.23.27.27,0,0,1,.21.11h.06a.17.17,0,0,1,.17.12.19.19,0,0,1,.17.19.19.19,0,0,1-.19.18Z"/><path class="cls-4" d="M3.7,16.5a.76.76,0,1,1-.76.76A.76.76,0,0,1,3.7,16.5Z"/><path class="cls-5" d="M3.71,18l-.44-.43v-.64h.17l.05.06H4v-.06h.17l.33.34A.75.75,0,0,1,3.71,18Z"/><rect class="cls-6" x="3.27" y="16.94" width="0.17" height="0.64"/><rect class="cls-6" x="3.95" y="16.94" width="0.17" height="0.64"/><path class="cls-7" d="M3.44,17.58v-.07H4v.07h.17v-.64H4V17H3.44v-.06H3.27v.64Zm.64-.38a0,0,0,0,1,0,0H4a0,0,0,0,1,0,0H4v0a0,0,0,0,1,0,0h0a0,0,0,0,1,0,0h0v0Zm0,.14a0,0,0,0,1,0,0H4a0,0,0,0,1,0,0H4v0s0,0,0,0h0s0,0,0,0h0v0Zm0-.29a0,0,0,0,1,0,0H4l0,0H4v0a0,0,0,0,1,0,0h0a0,0,0,0,1,0,0h0v0Zm0,.44a0,0,0,0,1,0,0H4a0,0,0,0,1,0,0H4v0l0,0h0a0,0,0,0,1,0,0h0v0ZM3.4,17.2a0,0,0,0,1,0,0h0a0,0,0,0,1,0,0h0v0a0,0,0,0,1,0,0h0a0,0,0,0,1,0,0h0v0Zm0,.14a0,0,0,0,1,0,0h0a0,0,0,0,1,0,0h0v0s0,0,0,0h0s0,0,0,0h0v0Zm0,.15a0,0,0,0,1,0,0h0a0,0,0,0,1,0,0h0v0a0,0,0,0,1,0,0h0a0,0,0,0,1,0,0h0v0Zm0-.44a0,0,0,0,1,0,0h0a0,0,0,0,1,0,0h0v0a0,0,0,0,1,0,0h0a0,0,0,0,1,0,0h0Z"/><rect class="cls-8" x="3.45" y="17.05" width="0.48" height="0.42"/><polygon class="cls-3" points="3.57 17.11 3.87 17.25 3.57 17.4 3.57 17.11"/><path class="cls-9" d="M11,13.05a.85.85,0,1,1-.85.85A.85.85,0,0,1,11,13.05Z"/><path class="cls-10" d="M11.8,14a.86.86,0,0,1-.61.72l-.41-.42h0L10.46,14h0v-.13h0l.1,0h.81Z"/><path class="cls-11" d="M10.48,13.76l.1,0h0V14h0l-.1,0a0,0,0,0,1,0-.05v-.13A.05.05,0,0,1,10.48,13.76Z"/><path class="cls-7" d="M11.4,14a.18.18,0,0,0,0-.1.15.15,0,0,0,0-.1Z"/><path class="cls-3" d="M10.62,13.88v-.14h.31c.14,0,.15-.17.39-.17v.31Z"/><path class="cls-11" d="M11.32,13.57h0a0,0,0,0,1,0,0v.54a0,0,0,0,1,0,0h0Z"/><path class="cls-3" d="M10.62,13.88V14h.31c.14,0,.15.16.39.17v-.62c-.24,0-.25.17-.39.17h-.31Z"/><path class="cls-11" d="M10.88,14a.66.66,0,0,0,0,.29s0,0,0,0-.17-.2-.18-.31Z"/><path class="cls-7" d="M10.88,14v0H10.7v0Z"/><rect class="cls-12" x="10.66" y="13.72" width="0.27" height="0.32" rx="0.02"/><path class="cls-13" d="M10.87,14.08h0v.07h0Z"/><path class="cls-9" d="M7.47,14.31a.57.57,0,0,1,.57.57.56.56,0,0,1-.57.57.57.57,0,0,1-.57-.57A.58.58,0,0,1,7.47,14.31Z"/><path class="cls-10" d="M8,15.13a.53.53,0,0,1-.24.25l-.25-.24-.28-.29h0v0h.11l-.1-.1h0v0h.26l0,0h0l0,0h0l0,0,0,0,.38.38Zm-.26.26L7.35,15H7.23l.32.32A.48.48,0,0,0,7.73,15.39Z"/><path class="cls-14" d="M7.67,15.12a.47.47,0,0,0-.43-.44,0,0,0,0,1,0,0v-.06h0a.56.56,0,0,1,.53.54,0,0,0,0,1,0,0H7.7a0,0,0,0,1,0,0Zm-.17,0a0,0,0,0,0,0,0h.06s0,0,0,0a.4.4,0,0,0-.36-.36h0v.06s0,0,0,0A.32.32,0,0,1,7.5,15.12Z"/><path class="cls-14" d="M7.29,15a.08.08,0,0,1,.08.09.08.08,0,0,1-.16,0A.08.08,0,0,1,7.29,15Z"/><path class="cls-15" d="M7.67,15.12a.47.47,0,0,0-.43-.44,0,0,0,0,1,0,0v-.06h0a.56.56,0,0,1,.53.54,0,0,0,0,1,0,0H7.7a0,0,0,0,1,0,0Zm-.17,0a0,0,0,0,0,0,0h.06s0,0,0,0a.4.4,0,0,0-.36-.36h0v.06s0,0,0,0A.32.32,0,0,1,7.5,15.12Z"/><path class="cls-14" d="M7.29,15a.08.08,0,0,1,.08.09.08.08,0,0,1-.16,0A.08.08,0,0,1,7.29,15Z"/><path class="cls-14" d="M7.54,14.82a.47.47,0,0,0-.3-.14,0,0,0,0,1,0,0v-.06h0a.54.54,0,0,1,.37.17l-.07.07ZM7.41,15l.08-.07a.39.39,0,0,0-.25-.12h0v.06s0,0,0,0A.26.26,0,0,1,7.41,15Z"/><path class="cls-14" d="M7.29,15l.06,0-.12.12a.14.14,0,0,1,0-.06A.08.08,0,0,1,7.29,15Z"/><path class="cls-4" d="M10.36,8.72a.61.61,0,0,1,.61.61.61.61,0,0,1-.61.62.62.62,0,0,1-.62-.62A.61.61,0,0,1,10.36,8.72Z"/><path class="cls-5" d="M11,9.42a.63.63,0,0,1-.44.5l-.4-.4a.94.94,0,0,1-.1-.1v0h0v0h0v0h0v0h0V9.2h0v0h0v0h.27v0h0l0,0h.33Z"/><path class="cls-16" d="M10.36,9.69c.12-.1.38-.24.38-.4a.19.19,0,0,0-.38,0,.2.2,0,0,0-.39,0C10,9.45,10.23,9.59,10.36,9.69Z"/><path class="cls-17" d="M10.36,9.24a.19.19,0,0,1,.38,0c0,.16-.26.3-.38.4Z"/><path class="cls-18" d="M13.68,8.56a.78.78,0,1,1-.77.78A.77.77,0,0,1,13.68,8.56Z"/><path class="cls-19" d="M13.89,10.08l-.32-.32v0h0v0h0v0h0V9.61h0l-.29-.29h.13l0,.05h0v0h0v0h0v0h0v0h0L13.37,9h0l.13.14h.22L13.68,9h0V8.87h0l.2.2h0L14,9h0l.46.45A.78.78,0,0,1,13.89,10.08Z"/><path class="cls-13" d="M13.68,9.05a.25.25,0,0,1,.25.25c0,.12-.06.12-.09.2s0,.13-.07.13H13.6c-.06,0-.06-.09-.07-.13s-.08-.08-.09-.15A.25.25,0,0,1,13.68,9.05Z"/><path class="cls-3" d="M13.38,9.27h0Z"/><path class="cls-3" d="M13.47,9.05v0h0L13.37,9h0Z"/><path class="cls-3" d="M13.69,9h0V8.87h0Z"/><path class="cls-3" d="M14,9.29h0Z"/><path class="cls-3" d="M13.91,9.07h0v0L14,9h0s0,0,0,0Z"/><path class="cls-20" d="M13.68,9.22a.23.23,0,0,0-.2.1s0,0,0,0,.07-.21.21-.21Z"/><path class="cls-20" d="M13.72,9.63h0a.81.81,0,0,1,0-.16,1.31,1.31,0,0,1,0-.15h0s0,0,0,0a.48.48,0,0,0,0,.14.81.81,0,0,0,0,.16Zm-.14-.3v0h0a.48.48,0,0,1,0,.15.81.81,0,0,1,0,.16h0a.81.81,0,0,0,0-.16A.43.43,0,0,0,13.58,9.33Z"/><path class="cls-20" d="M13.62,9.34h0V9.29h0a0,0,0,0,1,0,0Z"/><path class="cls-20" d="M13.65,9.34h0V9.29h0Z"/><path class="cls-20" d="M13.68,9.35h0l0-.06h0v0Z"/><path class="cls-20" d="M13.71,9.34h0l0-.05h0Z"/><path class="cls-20" d="M13.75,9.34h0V9.29h0a0,0,0,0,1,0,0Z"/><path class="cls-7" d="M13.68,9.82a.05.05,0,0,1,0,0l-.06,0V9.7h0v0h0V9.61h.24v.06h0v0h0v0l0,0A.09.09,0,0,1,13.68,9.82Z"/><path class="cls-11" d="M13.57,9.74h0Zm0,0h0Zm0,0h0Z"/><path class="cls-20" d="M13.59,9.33s0,0,0,0h.2s0,0,0,0Z"/><path class="cls-4" d="M7.14,15.56a.61.61,0,0,1,.62.61.62.62,0,0,1-1.24,0A.61.61,0,0,1,7.14,15.56Z"/><path class="cls-5" d="M7.21,16.78l-.27-.28v-.08H7l.08,0h0L7,16.22l0,0h0v0h0v0h0v0h0v0l0-.2h.56l.33.34A.6.6,0,0,1,7.21,16.78Z"/><path class="cls-13" d="M6.86,15.84c0,.15,0,.37.17.41a.08.08,0,0,1,0,.15l-.08,0h.34l-.09,0c-.06,0-.08-.13,0-.15s.14-.26.17-.41Zm.11,0V16a.71.71,0,0,0,.06.25c-.09,0-.11-.17-.13-.24v-.09Zm.27.33a.66.66,0,0,0,0-.25v-.08h.07V16c0,.07,0,.18-.09.22Z"/><path class="cls-21" d="M7.31,16.42l-.09,0c-.06,0-.08-.13,0-.15s.14-.26.17-.41H7.14v.58Zm-.07-.21a.66.66,0,0,0,0-.25v-.08h.07V16c0,.07,0,.18-.09.22Z"/><rect class="cls-22" x="6.94" y="16.42" width="0.4" height="0.09"/><rect class="cls-12" x="7.14" y="16.42" width="0.2" height="0.09"/><path class="cls-9" d="M2.75,15a.75.75,0,1,1-.75.75A.75.75,0,0,1,2.75,15Z"/><path class="cls-10" d="M3.07,16.47l-.55-.55-.06-.05a.09.09,0,0,1,0-.06h.41l.6.6A.78.78,0,0,1,3.07,16.47Z"/><path class="cls-7" d="M2.65,15.43a.25.25,0,0,1,.18.08.23.23,0,0,1,.08.18.27.27,0,0,1,0,.12h0l.19.19a.09.09,0,0,1,0,.12h0a.09.09,0,0,1-.12,0l-.2-.19v0a.2.2,0,0,1-.11,0,.26.26,0,0,1-.19-.08.27.27,0,0,1,0-.36.26.26,0,0,1,.19-.08Zm.12.13a.17.17,0,0,0-.12-.05.17.17,0,0,0-.18.18.21.21,0,0,0,0,.13.19.19,0,0,0,.13,0,.17.17,0,0,0,.12,0,.18.18,0,0,0,.06-.13A.16.16,0,0,0,2.77,15.56Z"/><path class="cls-23" d="M2.65,15.51a.18.18,0,1,0,.18.18A.18.18,0,0,0,2.65,15.51Z"/><path class="cls-24" d="M2.65,15.65a.18.18,0,0,0-.14.09v0a.15.15,0,0,1,.15-.17Z"/><path class="cls-4" d="M6.68,12.15a.92.92,0,1,1-.92.92A.92.92,0,0,1,6.68,12.15Z"/><path class="cls-5" d="M6.93,14l-.52-.52a.28.28,0,0,1-.1-.09v0h0v-.46h0v0l0,0v0h0v0h0v0h.51l0,0H7l0,0H7l0,0v0l.51.5A.91.91,0,0,1,6.93,14Z"/><path class="cls-7" d="M6.68,12.61a.47.47,0,0,0-.46.46.46.46,0,0,0,.46.45.45.45,0,0,0,.45-.45A.46.46,0,0,0,6.68,12.61Z"/><path class="cls-3" d="M6.78,12.72,7,13s0,0,0,0a.36.36,0,0,0-.08-.12.42.42,0,0,0-.12-.08Z"/><path class="cls-3" d="M7,13l-.31-.32h0v0l.32.32h0Z"/><polygon class="cls-3" points="6.97 13.06 6.69 12.78 6.69 12.86 6.89 13.06 6.97 13.06"/><polygon class="cls-3" points="6.85 13.06 6.69 12.89 6.69 12.97 6.78 13.06 6.85 13.06"/><path class="cls-3" d="M6.74,13.06l0-.05v0h0Z"/><path class="cls-15" d="M6.65,12.7a.36.36,0,0,0-.23.11.25.25,0,0,0-.08.12.34.34,0,0,0,0,.28.21.21,0,0,0,.06.1h0l.24-.24h0v-.35h0Z"/><path class="cls-21" d="M6.69,13.08h.36l0,.12a.5.5,0,0,1-.08.12l-.12.08a.34.34,0,0,1-.28,0l-.1-.06h0l.24-.24Z"/><path class="cls-18" d="M12.18,15.68a1,1,0,1,1,0,1.95,1,1,0,0,1,0-1.95Z"/><path class="cls-19" d="M12.27,17.63l-.53-.53h0v-.85h.07l.2.2h.25l.22-.11.64.65A1,1,0,0,1,12.27,17.63Z"/><path class="cls-7" d="M11.77,17.11h0s0,0,0,0v-.85h.07V17h.82a0,0,0,0,1,0,0v.05h-.86Z"/><rect class="cls-25" x="11.8" y="16.42" width="0.62" height="0.62"/><path class="cls-26" d="M11.85,16.86l.17-.21h.21l.08-.14-.05,0s0,0,0,0l0,0s0,0,0,0l.25-.13v.28a0,0,0,0,1,0,0h0a0,0,0,0,1,0,0v-.05l-.1.16s0,0,0,0h-.2l-.16.2h-.06S11.84,16.88,11.85,16.86Z"/><path class="cls-9" d="M16.7,16.41a.77.77,0,1,1-.77.76A.77.77,0,0,1,16.7,16.41Z"/><path class="cls-10" d="M16.79,17.93l-.5-.5h0v0h0V17h0V17h.84l.35.35A.76.76,0,0,1,16.79,17.93Z"/><path class="cls-15" d="M17.11,17.43s0,0,0,0l-.27-.2-.12.1h-.08l-.12-.1-.27.2s0,0,0,0l0,0h.76Z"/><polygon class="cls-27" points="16.27 17 16.27 17.35 16.27 17.35 16.27 17.4 16.54 17.2 16.5 17.18 16.27 17"/><path class="cls-27" d="M17.13,17.4l-.27-.2-.12.1h-.06l.14.14h.26l0,0S17.13,17.41,17.13,17.4Z"/><polygon class="cls-28" points="17.13 17.4 17.13 17.35 17.13 17.35 17.13 17 16.9 17.18 16.86 17.2 17.13 17.4"/><path class="cls-3" d="M17.08,16.9h-.79a.05.05,0,0,0,0,0V17c.39.29,0,0,.39.3h.08l.39-.3V17a.05.05,0,0,0,0,0Z"/><path class="cls-29" d="M17.13,17V17l-.4.3h-.06l-.4-.3V17l.39.3h.08Z"/><path class="cls-18" d="M11.92,8.79a.78.78,0,1,1-.78.77A.78.78,0,0,1,11.92,8.79Z"/><path class="cls-30" d="M12,8.79h0Z"/><path class="cls-19" d="M12,10.33l-.51-.51h0V9.36h1l.29.29A.76.76,0,0,1,12,10.33Z"/><path class="cls-25" d="M11.49,9.28h.84a.07.07,0,0,1,.07.07v.4a.08.08,0,0,1-.08.08h-.84a.08.08,0,0,1-.08-.08v-.4a.07.07,0,0,1,.07-.07Z"/><path class="cls-31" d="M11.83,9.69a.17.17,0,0,1,0-.26h0Z"/><path class="cls-31" d="M12,9.35a.27.27,0,0,1,0,.42h.34s0,0,0,0v-.4s0,0,0,0H12Z"/><path class="cls-31" d="M12,9.69a.17.17,0,0,0,0-.26h0Z"/><path class="cls-31" d="M11.83,9.35a.27.27,0,0,0,0,.42h-.35l0,0v-.4l0,0h.35Z"/><rect class="cls-25" x="12.2" y="9.37" width="0.13" height="0.03" rx="0.01"/><rect class="cls-25" x="12.2" y="9.72" width="0.13" height="0.03" rx="0.01"/><path class="cls-15" d="M12.27,9.52a0,0,0,0,1,0,.08,0,0,0,0,1,0-.08Z"/><rect class="cls-25" x="11.49" y="9.37" width="0.13" height="0.03" rx="0.01"/><rect class="cls-25" x="11.49" y="9.72" width="0.13" height="0.03" rx="0.01"/><path class="cls-15" d="M11.55,9.52a0,0,0,1,0,0,.08,0,0,0,0,0,0-.08Z"/><rect class="cls-25" x="11.81" y="9.28" width="0.2" height="0.55"/><rect class="cls-32" x="11.83" y="9.28" width="0.04" height="0.55"/><polygon class="cls-21" points="11.89 9.28 11.91 9.28 11.93 9.28 11.93 9.84 11.91 9.84 11.89 9.84 11.89 9.28"/><polygon class="cls-21" points="11.97 9.28 11.95 9.28 11.95 9.84 11.97 9.84 11.99 9.84 11.99 9.28 11.97 9.28"/><path class="cls-9" d="M9.54,14.55a1.61,1.61,0,1,1-1.61,1.6A1.6,1.6,0,0,1,9.54,14.55Z"/><path class="cls-10" d="M11.1,16.5a1.6,1.6,0,0,1-1.54,1.26L8.76,17h0v0h0v-.82h0v0h.05L9,15.93h.12l.06.06h.15l0,0,0,0h0l0,0,0,0v0l0,0v0l0,0v-.45h0v0h0v0h.14v0Z"/><path class="cls-33" d="M9.22,16.05a1.2,1.2,0,0,0,.39-.68h0a.69.69,0,0,0,.05-.13s0-.05,0-.06.07,0,.1.05,0,.21,0,.34-.09.23.13.24.35,0,.39.06,0,.09,0,.13,0,.08,0,.17-.06.08,0,.16-.08.1-.08.21a.11.11,0,0,1,0,.1.92.92,0,0,1-.76,0A1,1,0,0,1,9.22,16.05Z"/><path class="cls-3" d="M9.22,16.05a.09.09,0,0,0-.1,0l-.1,0a.11.11,0,0,0-.06.1v.53a.11.11,0,0,0,.05.09.1.1,0,0,0,.09,0l.29-.1h0a.07.07,0,0,0,0-.07A1.06,1.06,0,0,1,9.22,16.05Z"/><path class="cls-34" d="M9.08,16a.09.09,0,0,0-.13,0L8.81,16a.13.13,0,0,0-.08.12v.75a.14.14,0,0,0,.06.12.15.15,0,0,0,.13,0l.38-.14,0,0a.07.07,0,0,0,0-.09A1.31,1.31,0,0,1,9.08,16Z"/><path class="cls-4" d="M5.37,13.71a.32.32,0,1,0,0-.63.32.32,0,0,0,0,.63Z"/><path class="cls-1" d="M7.52,17.89a.46.46,0,1,0,0-.91.46.46,0,1,0,0,.91Z"/><path class="cls-4" d="M12.93,11a.45.45,0,0,0,.46-.46.46.46,0,0,0-.46-.46.47.47,0,0,0-.46.46A.46.46,0,0,0,12.93,11Z"/><path class="cls-35" d="M10.81,10.64a.33.33,0,1,0-.33-.33A.33.33,0,0,0,10.81,10.64Z"/><path class="cls-1" d="M9.74,14a.21.21,0,0,0,.21-.21.2.2,0,0,0-.21-.2.2.2,0,0,0-.2.2A.2.2,0,0,0,9.74,14Z"/><path class="cls-4" d="M1.94,15.37a.19.19,0,0,0,.19-.18A.2.2,0,0,0,1.94,15a.19.19,0,0,0-.18.19A.18.18,0,0,0,1.94,15.37Z"/><path class="cls-4" d="M11.69,15.52a.43.43,0,1,0-.43-.43A.43.43,0,0,0,11.69,15.52Z"/><path class="cls-4" d="M13.39,17.91a.39.39,0,0,0,0-.78.39.39,0,0,0,0,.78Z"/><path class="cls-1" d="M2.62,17.16a.25.25,0,1,0-.24-.24A.25.25,0,0,0,2.62,17.16Z"/><path class="cls-35" d="M5,17.89A.47.47,0,1,0,5,17a.47.47,0,1,0,0,.94Z"/><path class="cls-18" d="M11.26,8.75a.47.47,0,1,0-.46-.46A.47.47,0,0,0,11.26,8.75Z"/><path class="cls-1" d="M3.22,18.62a.29.29,0,1,0-.29-.29A.29.29,0,0,0,3.22,18.62Z"/><path class="cls-1" d="M11,17.89a.29.29,0,1,0-.29-.29A.29.29,0,0,0,11,17.89Z"/><path class="cls-1" d="M14.15,11.88a2,2,0,1,1-2,2A2,2,0,0,1,14.15,11.88Z"/><path class="cls-2" d="M14.4,15.89l-1.08-1.08h0v-.14l0,0,0,0h0l-.09-.09,0,0v0l0,0v0l0,0v0l0,0v0l0,0v-.66l0,0v0l0,0,0,0,0,0,0,0,0,0,0,0,0,0,0,0,0,0,0,0,0,0,0,0,0,0,0,0,0,0,0,0,0,0h0l0,0h.68l0,0h0l0,0,0,0,0,0h0l0,0,0,0,0,0,0,0,0,0,.18.19,0,0,0-.09h0l.3-.14h0l.94.93A2,2,0,0,1,14.4,15.89Z"/><path class="cls-36" d="M14.22,14.65l.16.16a.12.12,0,1,0,.17-.17l-.12-.12a.57.57,0,0,1-.21.13Zm-.78-.13-.12.12a.12.12,0,1,0,.17.17l.15-.16A.63.63,0,0,1,13.44,14.52Z"/><path class="cls-37" d="M14.22,14.65l.1.1a1.28,1.28,0,0,0,.21-.14l-.1-.09a.57.57,0,0,1-.21.13Zm-.88,0a1.28,1.28,0,0,0,.21.14l.09-.1a.63.63,0,0,1-.2-.13Z"/><path class="cls-29" d="M13.93,14.79a.92.92,0,1,0-.91-.92A.92.92,0,0,0,13.93,14.79Z"/><path class="cls-3" d="M13.93,14.59a.74.74,0,1,0-.73-.74A.74.74,0,0,0,13.93,14.59Z"/><path class="cls-29" d="M13.93,14.4a.55.55,0,0,0,.56-.55.56.56,0,0,0-1.11,0A.55.55,0,0,0,13.93,14.4Z"/><path class="cls-3" d="M13.93,13.5a.37.37,0,1,1-.36.37A.37.37,0,0,1,13.93,13.5Z"/><path class="cls-29" d="M13.93,14a.19.19,0,0,1-.18-.19.18.18,0,0,1,.18-.18.18.18,0,0,1,.19.18A.19.19,0,0,1,13.93,14Z"/><path class="cls-29" d="M14.85,13.42l0-.09h0l.3-.14h0s0,0,0,0v0Z"/><path class="cls-29" d="M14.87,13.48l.08,0h0l.31-.13a0,0,0,0,0,0,0h0l0,0Z"/><path class="cls-17" d="M14.85,13.88h0v-.06h-.18v.07Z"/><path class="cls-38" d="M14.67,13.88v-.07h-.18v.07Zm-.37-.07h-.19a.06.06,0,0,1,0,0v0h.18Z"/><path class="cls-17" d="M14.49,13.88v-.07H14.3v.06h.19Z"/><path class="cls-17" d="M14.11,13.81a.06.06,0,0,1,0,0v0H14l0-.07Z"/><path class="cls-7" d="M15.25,13.32,14,13.87a0,0,0,0,1,0,0v0a0,0,0,0,1,0,0l1.28-.55a0,0,0,0,1,0,0h0S15.26,13.31,15.25,13.32Z"/><path class="cls-35" d="M8.74,12.64a.29.29,0,1,0-.29-.29A.29.29,0,0,0,8.74,12.64Z"/><path class="cls-35" d="M13.26,11.92a.4.4,0,1,0-.4-.4A.4.4,0,0,0,13.26,11.92Z"/><path class="cls-4" d="M13.14,6.56a.25.25,0,1,0-.25-.25A.25.25,0,0,0,13.14,6.56Z"/><path class="cls-39" d="M13.35,19.06v-.92h1v1a1.36,1.36,0,0,1-1.36,1.36H7.69a1.36,1.36,0,0,1-1.36-1.36v-1h1v.92a.52.52,0,0,0,.52.52h5A.52.52,0,0,0,13.35,19.06Z"/><rect class="cls-40" x="1.38" y="14.62" width="0.86" height="5.09" transform="translate(-6 1.77) rotate(-20.87)"/><rect class="cls-40" x="15.75" y="4.46" width="0.86" height="14.45" transform="translate(-3.1 6.53) rotate(-20.87)"/><rect class="cls-40" x="17.94" y="9.55" width="5.44" height="0.86" transform="translate(-2.2 8.01) rotate(-20.87)"/><rect class="cls-40" x="16.43" y="6.16" width="5.44" height="0.86" transform="translate(0.47 14.42) rotate(-41.74)"/><path class="cls-4" d="M15.23,12a.25.25,0,1,0-.24-.24A.25.25,0,0,0,15.23,12Z"/><path class="cls-18" d="M6.7,14.59a.25.25,0,1,0-.25-.25A.25.25,0,0,0,6.7,14.59Z"/><path class="cls-4" d="M8.32,17.88a.22.22,0,1,0-.22-.22A.22.22,0,0,0,8.32,17.88Z"/><path class="cls-1" d="M3.37,15.09a.18.18,0,1,0-.18-.18A.18.18,0,0,0,3.37,15.09Z"/><path class="cls-1" d="M15.76,16.57a.27.27,0,1,0-.27-.27A.27.27,0,0,0,15.76,16.57Z"/><path class="cls-35" d="M13.58,16.57a.3.3,0,1,0-.29-.3A.3.3,0,0,0,13.58,16.57Z"/><rect class="cls-40" x="19.06" y="13.08" width="5.44" height="0.86"/><path class="cls-18" d="M14.7,16.13a.9.9,0,1,1-.9.9A.9.9,0,0,1,14.7,16.13Z"/><path class="cls-30" d="M14.76,16.13h0Z"/><path class="cls-19" d="M14.91,17.91l-.48-.49-.11-.11,0-.07-.13-.13V17l.12,0,0-.06,0-.1.11-.11.1.05.06,0,0-.11h.15l.12.12.08,0,.11.11.49.49A.9.9,0,0,1,14.91,17.91Z"/><path class="cls-7" d="M14.82,16.68l0,0,.11-.05.11.11-.06.1,0,.06.11,0v.15l-.11,0,0,.06.06.1-.11.11-.11-.05,0,0,0,.11h-.15l0-.11-.06,0-.1.05-.11-.11,0-.1,0-.06-.12,0V17l.12,0,0-.06,0-.1.11-.11.1.05.06,0,0-.11h.15l0,.11Zm-.12.26a.09.09,0,0,0-.09.1.09.09,0,0,0,.09.09.09.09,0,0,0,.1-.09A.09.09,0,0,0,14.7,16.94Z"/><path class="cls-11" d="M14.71,17.5h-.08l0-.11-.06,0-.1.05-.11-.11,0-.1,0-.06-.12,0V17l.12,0,0-.06,0-.1.11-.11.1.05.06,0,0-.11h.08v.37h0a.09.09,0,0,0-.09.1.09.09,0,0,0,.09.09h0Z"/><path class="cls-41" d="M14.7,16.77a.27.27,0,1,1-.27.27.27.27,0,0,1,.27-.27Zm0,.17a.09.09,0,0,0-.09.1.09.09,0,0,0,.09.09.09.09,0,0,0,.1-.09A.09.09,0,0,0,14.7,16.94Z"/><path class="cls-11" d="M14.7,17.24a.2.2,0,0,0,.21-.2.21.21,0,0,0-.21-.21.2.2,0,0,0-.2.21.2.2,0,0,0,.2.2Zm0-.3a.09.09,0,0,1,.1.1.09.09,0,0,1-.1.09.09.09,0,0,1-.09-.09A.09.09,0,0,1,14.7,16.94Z"/><path class="cls-1" d="M14.42,10.28a.74.74,0,1,1-.73.74A.74.74,0,0,1,14.42,10.28Z"/><path class="cls-30" d="M14.47,10.28h0Z"/><path class="cls-2" d="M14.57,11.73l-.37-.37h0V11.2h0l-.1-.09h0v-.16h.1v-.2h.35l.53.53.05.05A.73.73,0,0,1,14.57,11.73Z"/><polygon class="cls-15" points="14.6 10.73 14.59 10.73 14.59 10.73 14.6 10.73"/><path class="cls-15" d="M14.7,11.38h-.46a0,0,0,0,1-.05,0V10.7a0,0,0,0,1,.05,0h.31l.19.19v.5A0,0,0,0,1,14.7,11.38Z"/><polygon class="cls-27" points="14.67 10.78 14.74 10.84 14.74 11.01 14.56 10.83 14.67 10.78"/><path class="cls-27" d="M14.7,11.38h-.33l-.18-.18v-.13l.32-.16.23.23v.2A0,0,0,0,1,14.7,11.38Z"/><path class="cls-3" d="M14.74,10.84h-.15a0,0,0,0,1,0,0v-.15Z"/><rect class="cls-42" x="14.1" y="10.9" width="0.42" height="0.22" rx="0.03"/><path class="cls-18" d="M5.06,13.8A1.46,1.46,0,1,1,3.6,15.26,1.46,1.46,0,0,1,5.06,13.8Z"/><path class="cls-30" d="M5.18,13.8h0Z"/><path class="cls-19" d="M5.53,16.64l-.92-.92h0v0h0v0h0v0h0v0h0v0h0v0h0v0h0v0h0v0h0v0h0v0h0v0h0v0h0v0h0v0h0v0h0v0h0v0h0v0h0v0h0v0h0v0h0v0h0l0,0h.94l.91.92A1.43,1.43,0,0,1,5.53,16.64Z"/><path class="cls-24" d="M5.52,14.81a.6.6,0,0,0-.21-.14.7.7,0,0,0-.25-.05.6.6,0,0,0-.24.05.64.64,0,0,0-.35.35.7.7,0,0,0,0,.25.64.64,0,0,0,0,.24.64.64,0,0,0,.35.35.6.6,0,0,0,.24.05.7.7,0,0,0,.25-.05.6.6,0,0,0,.21-.14.77.77,0,0,0,.14-.21.64.64,0,0,0,0-.24.69.69,0,0,0,0-.25A.77.77,0,0,0,5.52,14.81Z"/><path class="cls-23" d="M5.48,14.85a.8.8,0,0,0-.19-.13.85.85,0,0,0-.23,0,.78.78,0,0,0-.22,0,.64.64,0,0,0-.19.13.59.59,0,0,0-.13.19.59.59,0,0,0,0,.23.54.54,0,0,0,0,.22.62.62,0,0,0,.32.32.54.54,0,0,0,.22,0,.55.55,0,0,0,.42-.17.62.62,0,0,0,.12-.19.54.54,0,0,0,.05-.22A.59.59,0,0,0,5.6,15,.76.76,0,0,0,5.48,14.85Z"/><path class="cls-31" d="M5,14.68a.6.6,0,0,0-.37.17.58.58,0,0,0-.13.64.54.54,0,0,0,.1.16h0s.16-.07.16-.13-.06-.06-.08-.1,0-.11,0-.15-.14,0-.17-.09a.15.15,0,0,1,0-.09l0,0h0A.91.91,0,0,0,4.82,15s0,0,0-.06,0,.06.09,0A.74.74,0,0,0,5,14.78s.06,0,.07,0,0,.07,0,.08.08,0,.08,0,0-.1,0-.12-.11,0-.16,0Z"/><path class="cls-31" d="M5.51,14.88l.1.17a.57.57,0,0,1,0,.22.59.59,0,0,1-.05.23.59.59,0,0,1-.13.19.62.62,0,0,1-.19.12s0-.08,0-.14-.26,0-.26-.1.06-.11.08-.17.06,0,.17,0,.25,0,.29-.08-.18,0-.22,0,0-.06-.08,0,0,0,0,.06-.13,0-.13,0,.09-.1.1-.11,0-.06,0-.11.08-.06.1-.09,0-.06,0-.09A.44.44,0,0,1,5.51,14.88Z"/><path class="cls-18" d="M11.45,10.63a1.18,1.18,0,1,1-1.18,1.18A1.18,1.18,0,0,1,11.45,10.63Z"/><path class="cls-30" d="M11.48,10.63h0Z"/><path class="cls-19" d="M11.46,13l-.6-.6v-.14H11V11.8h.31v-.57h.31l1,1A1.18,1.18,0,0,1,11.46,13Z"/><rect class="cls-22" x="11.6" y="11.59" width="0.31" height="0.66"/><rect class="cls-25" x="10.98" y="11.8" width="0.31" height="0.46"/><rect class="cls-43" x="11.29" y="11.23" width="0.31" height="1.02"/><rect class="cls-12" x="11.6" y="11.59" width="0.05" height="0.66"/><rect class="cls-44" x="10.98" y="11.8" width="0.05" height="0.46"/><rect class="cls-45" x="11.29" y="11.23" width="0.05" height="1.02"/><polygon class="cls-46" points="11.29 12.25 11.29 11.8 11.61 12.11 11.61 12.25 11.29 12.25"/><polygon class="cls-47" points="11.29 12.25 11.29 11.8 11.35 11.85 11.35 12.25 11.29 12.25"/><rect class="cls-12" x="10.86" y="12.25" width="1.18" height="0.13"/><rect class="cls-22" x="11.45" y="12.25" width="0.59" height="0.13"/><path class="cls-39" d="M16.32,15.05a.54.54,0,0,1,.55.55.55.55,0,0,1-.55.55.55.55,0,0,1-.55-.55A.55.55,0,0,1,16.32,15.05Z"/><path class="cls-30" d="M16.34,15.05h0Z"/><path class="cls-39" d="M16.42,16.14l-.25-.25h0l-.1-.1h0v-.34h0v0h.27v0h0l.05,0h.23l.26.26A.54.54,0,0,1,16.42,16.14Z"/><path class="cls-11" d="M16,15.4h0v0h.58v0H16Z"/><path class="cls-15" d="M16.6,15.4v.35a0,0,0,0,1,0,0h-.47a0,0,0,0,1,0,0V15.4Z"/><path class="cls-7" d="M16.3,15.35v0s0,0,0,0v0Z"/><path class="cls-7" d="M16.3,15.79v.09s0,0,0,0v-.09Z"/><path class="cls-7" d="M16.4,15.79l.08.08s0,0,0,0l-.1-.1Z"/><path class="cls-7" d="M16.24,15.79l-.08.08s0,0,0,0l.1-.1Z"/><path class="cls-26" d="M16.36,15.58l.12-.11s0,0,0,0l-.14.14-.07-.07-.12.13s-.05,0,0,0l.15-.15Z"/><path class="cls-18" d="M7.68,11.14a.63.63,0,0,1,0,1.26.63.63,0,1,1,0-1.26Z"/><path class="cls-30" d="M7.71,11.14h0Z"/><path class="cls-19" d="M7.62,12.4l-.32-.31V12h0v0s0,0,0,0h.22l-.14-.14v-.08a.05.05,0,0,1,0,0h.07l0,0,.11-.11,0,0,0,0h0s0,0,0,0a.11.11,0,0,1,.13,0h0l.06.06.42.42a.63.63,0,0,1-.6.45Z"/><path class="cls-7" d="M7.65,11.84c-.11.1-.26-.07-.16-.16h0l.11-.1,0-.05h0a0,0,0,0,1,0,0c.1-.1.27,0,.16.16h0l0,0-.12.12h0Z"/><path class="cls-11" d="M7.47,11.81a.11.11,0,0,1,0-.13h0l.11-.1,0-.05h0a0,0,0,0,1,0,0,.11.11,0,0,1,.13,0Z"/><path class="cls-7" d="M7.76,11.72l.3.3c0,.06,0,.09,0,.05l-.31-.31Z"/><path class="cls-21" d="M7.39,11.94h.36a0,0,0,0,1,0,0v0H7.34v0S7.36,11.94,7.39,11.94Z"/><path class="cls-7" d="M7.39,11.94h.36a0,0,0,0,1,0,0H7.34S7.36,11.94,7.39,11.94Z"/><path class="cls-11" d="M7.39,11.94h.36l0,0H7.35Z"/><rect class="cls-32" x="7.58" y="11.56" width="0.16" height="0.21" transform="translate(-6 8.83) rotate(-45)"/><rect class="cls-48" x="7.53" y="11.58" width="0.16" height="0.07" transform="translate(-5.98 8.79) rotate(-45.01)"/><path class="cls-7" d="M7.83,12.09V12a0,0,0,0,0,0,0H7.35a0,0,0,0,0,0,0v.06Z"/><path class="cls-11" d="M7.83,12l0,0H7.35l0,0Z"/><rect class="cls-32" x="7.58" y="11.65" width="0.01" height="0.18" transform="translate(-6.07 8.78) rotate(-44.9)"/><rect class="cls-32" x="7.73" y="11.5" width="0.01" height="0.18" transform="translate(-5.93 8.88) rotate(-45.05)"/><path class="cls-1" d="M9.27,9.75a1.06,1.06,0,1,1-1.06,1.06A1.05,1.05,0,0,1,9.27,9.75Z"/><path class="cls-30" d="M9.32,9.75h0Z"/><path class="cls-2" d="M9.34,11.87l-.47-.47h0l.47.47h0l-.47-.48h0l.47.48h0l-.47-.48h0l.47.48h0l-.47-.48h0l.47.48h0l-.47-.48h0l.47.48h0l-.47-.48h0l.47.48-.47-.48h0l.47.48h0l-.47-.48h0l.47.48h0l-.47-.48h0l.47.48h0l-.47-.48h0l.47.48h0l-.47-.48h0v-.18l-.05-.05,0,0h0l-.14-.51h.06l.89-.24h.1l.67.67A1.07,1.07,0,0,1,9.34,11.87Z"/><path class="cls-3" d="M8.67,10.44l.89-.24a.08.08,0,0,1,.1.06l.14.5a.08.08,0,0,1-.06.1l-.89.24a.08.08,0,0,1-.1,0l-.14-.51A.1.1,0,0,1,8.67,10.44Z"/><rect class="cls-22" x="8.62" y="10.44" width="1.09" height="0.16" transform="translate(-2.41 2.73) rotate(-15)"/><path class="cls-49" d="M8.91,10.72h.92a.08.08,0,0,1,.08.08v.52a.07.07,0,0,1-.08.08H8.91a.07.07,0,0,1-.08-.08V10.8A.08.08,0,0,1,8.91,10.72Z"/><path class="cls-50" d="M9.78,10.72h.05a.08.08,0,0,1,.08.08v.52a.07.07,0,0,1-.08.08H8.91a.07.07,0,0,1-.08-.08v-.1A2.3,2.3,0,0,0,9.78,10.72Z"/><path class="cls-51" d="M9.91,11v.3a.07.07,0,0,1-.08.08H8.91a.08.08,0,0,1-.08-.07A2.65,2.65,0,0,0,9.91,11Z"/><path class="cls-3" d="M9.81,11v-.1H9.55V11a0,0,0,0,0,0,0H9.8S9.81,11,9.81,11Z"/><rect class="cls-6" x="8.95" y="11.23" width="0.19" height="0.05" rx="0.01"/><rect class="cls-6" x="9.17" y="11.23" width="0.19" height="0.05" rx="0.01"/><rect class="cls-6" x="9.4" y="11.23" width="0.19" height="0.05" rx="0.01"/><rect class="cls-6" x="9.63" y="11.23" width="0.19" height="0.05" rx="0.01"/><rect class="cls-52" x="8.95" y="10.92" width="0.2" height="0.16" rx="0.02"/><path class="cls-53" d="M9.7,12.17a.51.51,0,1,1-.5.51A.51.51,0,0,1,9.7,12.17Z"/><path class="cls-30" d="M9.72,12.17h0Z"/><path class="cls-30" d="M9.77,13.17l-.25-.25h0v0h0v0h0v0h0v0h0v0h0v0h0v0h0v0h0v0h0v0h0v0h.38l.31.32A.49.49,0,0,1,9.77,13.17Z"/><rect class="cls-22" x="9.51" y="12.42" width="0.39" height="0.51" rx="0.04"/><rect class="cls-6" x="9.72" y="12.76" width="0.13" height="0.12" rx="0.01"/><rect class="cls-6" x="9.55" y="12.76" width="0.13" height="0.12" rx="0.01"/><rect class="cls-6" x="9.72" y="12.61" width="0.13" height="0.12" rx="0.01"/><rect class="cls-6" x="9.55" y="12.61" width="0.13" height="0.12" rx="0.01"/><polygon class="cls-11" points="9.6 12.83 9.61 12.82 9.6 12.8 9.6 12.8 9.6 12.79 9.61 12.79 9.62 12.81 9.63 12.79 9.64 12.79 9.64 12.8 9.64 12.8 9.63 12.82 9.64 12.83 9.64 12.84 9.64 12.84 9.63 12.84 9.62 12.82 9.61 12.84 9.6 12.84 9.6 12.84 9.6 12.83"/><polygon class="cls-11" points="9.61 12.69 9.61 12.67 9.6 12.67 9.59 12.67 9.59 12.66 9.6 12.66 9.61 12.66 9.61 12.64 9.62 12.64 9.62 12.64 9.63 12.64 9.63 12.66 9.64 12.66 9.65 12.66 9.65 12.67 9.64 12.67 9.63 12.67 9.63 12.69 9.62 12.7 9.62 12.7 9.61 12.69"/><rect class="cls-54" x="9.55" y="12.47" width="0.3" height="0.07" rx="0.01"/><polygon class="cls-11" points="9.79 12.79 9.8 12.79 9.79 12.8 9.78 12.79 9.79 12.79"/><rect class="cls-12" x="9.76" y="12.81" width="0.06" height="0.01" rx="0.01"/><polygon class="cls-11" points="9.79 12.85 9.8 12.84 9.79 12.83 9.78 12.84 9.79 12.85"/><polygon class="cls-11" points="9.8 12.49 9.82 12.49 9.82 12.49 9.83 12.49 9.83 12.53 9.83 12.53 9.82 12.54 9.8 12.54 9.8 12.54 9.79 12.53 9.79 12.49 9.79 12.49 9.8 12.49"/><path class="cls-11" d="M9.77,12.66h0Z"/><rect class="cls-54" x="9.8" y="12.5" width="0.02" height="0.03"/><path class="cls-4" d="M8.54,12.84a.86.86,0,0,1,0,1.72.86.86,0,0,1,0-1.72Z"/><path class="cls-30" d="M8.58,12.85h0Z"/><path class="cls-5" d="M8.62,14.56l-.49-.49h0l0-.28L8,13.69H8v0h.46l.23-.23H8.8l.57.57A.85.85,0,0,1,8.62,14.56Z"/><path class="cls-29" d="M9,14l0-.31H8.09l0,.31a.07.07,0,0,0,.07.07h.69A.07.07,0,0,0,9,14Zm-.3-.29V14H8.59v-.24h.06Zm.17,0V14H8.76v-.24h.06Zm-.4,0h.06V14H8.42v-.24Zm-.17,0h.06V14H8.25Z"/><path class="cls-7" d="M9,13.72A.07.07,0,0,0,9,13.65v0A.07.07,0,0,0,9,13.56H8.1a.07.07,0,0,0-.07.07v0a.07.07,0,0,0,.06.07Z"/><path class="cls-55" d="M8.8,13.33h0a.06.06,0,0,0-.08,0l-.24.24a0,0,0,0,0,0,.07h0a.06.06,0,0,0,.08,0l.24-.24A0,0,0,0,0,8.8,13.33Z"/><path class="cls-1" d="M6.23,16.68a.63.63,0,1,1-.62.63A.63.63,0,0,1,6.23,16.68Z"/><path class="cls-30" d="M6.27,16.68h0Zm.59.63h0Z"/><path class="cls-2" d="M6.86,17.38l-.34-.33H5.94v.37H6v0H6v0H6l.36.36A.65.65,0,0,0,6.86,17.38Z"/><path class="cls-38" d="M5.94,17.07c0,.32-.05.48.29.56.34-.08.28-.24.29-.56C6.53,17,5.93,17,5.94,17.07Z"/><path class="cls-3" d="M5.94,17.07c0,.32-.05.48.29.56h0V17C6.08,17,5.93,17,5.94,17.07Z"/><path class="cls-11" d="M6.23,17.3v.33h0c.24-.06.28-.16.29-.33Z"/><path class="cls-11" d="M5.94,17.07v.23h.29V17C6.08,17,5.93,17,5.94,17.07Z"/></svg>