<svg id="Layer_1" data-name="Layer 1" xmlns="http://www.w3.org/2000/svg" viewBox="0 0 25 25"><defs><style>.cls-1{fill:#fff;}.cls-2{fill:#01579b;}</style></defs><path class="cls-1" d="M12.5.53a12,12,0,0,0,0,23.94h0a12,12,0,0,0,0-23.94Z"/><path class="cls-2" d="M2.9,12.5a9.61,9.61,0,0,0,5.41,8.64L3.73,8.59A9.65,9.65,0,0,0,2.9,12.5ZM19,12a5.08,5.08,0,0,0-1-2.65A4.51,4.51,0,0,1,17,7.12a1.87,1.87,0,0,1,1.83-1.71H19A9.59,9.59,0,0,0,4.67,7,1.07,1.07,0,0,0,5,7c1,0,2.55-.12,2.55-.12a.4.4,0,0,1,.06.79s-.51.07-1.09.09L10.12,18.4l2.1-6.3L10.65,7.75c-.51,0-1-.09-1-.09a.4.4,0,0,1,.06-.79S11.29,7,12.24,7s2.55-.12,2.55-.12a.4.4,0,0,1,.07.79s-.53.06-1.1.09l3.53,10.57,1-3.2A8.87,8.87,0,0,0,19,12Zm-6.31,1.32L9.79,21.71a9.65,9.65,0,0,0,5.9-.15l-.07-.14Zm8.26-5.45a7.74,7.74,0,0,1,.06,1,9,9,0,0,1-.73,3.44L17.33,20.8a9.62,9.62,0,0,0,3.6-12.91Z"/><path class="cls-2" d="M.5,12.5a12,12,0,1,0,12-12A12,12,0,0,0,.5,12.5Zm1.2,0A10.8,10.8,0,1,1,12.5,23.3,10.81,10.81,0,0,1,1.7,12.5Z"/></svg>