<svg id="Layer_1" data-name="Layer 1" xmlns="http://www.w3.org/2000/svg" viewBox="0 0 512 512"><defs><style>.cls-1{fill:#fff;}</style></defs><rect class="cls-1" x="369.73" y="45.07" width="77.44" height="141.93"/><path class="cls-1" d="M169.43,208.61h-24.5v29.58c0,67.62-37.33,73.51-58.94,73.28H65.88v58.6H165.5c35.95-25.43,54.09-71.89,54.09-122.4C203.53,241.89,184,229.41,169.43,208.61Z"/><path class="cls-1" d="M347,121.46V45.07H285.13v95.46c0,3.12.8,29.36-28,29.36s-34.1-32.36-9.25-63.57l-52.24-29s-26.12,28.78-26.12,69.35,21.73,60,21.73,60,14.21,13.75,30.05,20.57c0,0,13.75,5.55,23.81,6.48,53.05,4.5,76.28-26.93,76.28-26.93C347.54,178.44,347,154.75,347,121.46Z"/><path class="cls-1" d="M244.33,253.45V370.07h76.28V231.49A107.94,107.94,0,0,1,244.33,253.45Z"/><path class="cls-1" d="M397.35,197.74l-45.19,44.61s45.77,23.47,45.77,53.63c0,12.37-10.64,12.25-17.8,12.25H344.65v61.84H446.47v-120C446.35,250.1,432.14,221.09,397.35,197.74Z"/><polygon class="cls-1" points="152.56 392.83 175.44 392.83 175.44 446.12 208.73 446.12 208.73 466.69 152.56 466.69 152.56 392.83"/><path class="cls-1" d="M217.17,392.83H251q10.05,0,16.3,2.78a26.59,26.59,0,0,1,10.28,7.86c2.66,3.35,5.78,7.39,7.05,11.9a57.08,57.08,0,0,1,1.85,14.33c0,8-.92,14.1-2.66,18.38s-5.77,8.9-9,11.79-6.36,4-10.06,5.08A51.4,51.4,0,0,1,251.15,467H217.28l-.11-74.2Zm22.88,20.11v33.41h5.66c4.74,0,8.21-.58,10.17-1.62a10.38,10.38,0,0,0,4.74-5.55c1.16-2.66,1.74-3.47,1.74-9.36,0-7.86-1.27-9.71-3.82-12.71s-6.82-4.4-12.71-4.4l-5.78.23Z"/><path class="cls-1" d="M339.33,456.86H313.44l-3.58,9.94H286.51L314.25,393h25L367,466.8H343Zm-4.74-17.1-8.2-26.58-8.09,26.58Z"/><path class="cls-1" d="M374.58,466.8V393h38c7.05,0,27.5,3,27.73,25,.12,4.17-.34,20.81-13.87,23.81,2.78.93,19.77,25,19.77,25H419.08s-13.52-21.38-14.8-21.38h-6.93V466.8Zm23-39.41h8.55a33.6,33.6,0,0,0,6.13-1A6.06,6.06,0,0,0,416,424a7,7,0,0,0,1.38-4.28,6.86,6.86,0,0,0-2.31-5.54c-1.5-1.28-4.39-2-8.55-2h-8.9Z"/><path class="cls-1" d="M117.77,456.86H91.88L88.3,466.8H64.84L92.58,393h24.84l27.74,73.85H121.35Zm-4.85-17.1-8.21-26.58-8.09,26.58Z"/><path class="cls-1" d="M0,0V512H512V0ZM506.36,506.36H5.64V5.64H506.36Z"/></svg>