<svg id="Layer_1" data-name="Layer 1" xmlns="http://www.w3.org/2000/svg" viewBox="0 0 1080 404.43"><defs><style>.cls-1{fill:#e93435;}.cls-2{fill:#e93333;}.cls-3{fill:#e93738;}.cls-4{fill:#f7c1c2;}.cls-5{fill:#ef6e6f;}.cls-6{fill:#ee6465;}.cls-7{fill:#0f86bb;}.cls-8{fill:#fff;}.cls-9{fill:#e82e2f;}.cls-10{fill:#e83031;}.cls-11{fill:#e93233;}.cls-12{fill:#e93334;}.cls-13{fill:#f4a6a6;}.cls-14{fill:#ec4f50;}.cls-15{fill:#ea3f40;}.cls-16{fill:#ea3f3f;}.cls-17{fill:#e82d2e;}.cls-18{fill:#ed6061;}.cls-19{fill:#eb4747;}.cls-20{fill:#f4a2a2;}.cls-21{fill:#f18585;}.cls-22{fill:#ee6869;}.cls-23{fill:#fefefe;}.cls-24{fill:#eff6fa;}.cls-25{fill:#e9f4f8;}.cls-26{fill:#f2f8fb;}.cls-27{fill:#d2e8f2;}.cls-28{fill:#e7f2f8;}.cls-29{fill:#e0eff5;}.cls-30{fill:#d5e9f3;}.cls-31{fill:#d3e8f2;}.cls-32{fill:#afd6e8;}.cls-33{fill:#f28989;}.cls-34{fill:#e93132;}.cls-35{fill:#ed5f60;}.cls-36{fill:#0f87bb;}.cls-37{fill:#1087bb;}.cls-38{fill:#1288bc;}.cls-39{fill:#1188bc;}.cls-40{fill:#1389bd;}.cls-41{fill:#1389bc;}.cls-42{fill:#2190c0;}.cls-43{fill:#3f9fc9;}.cls-44{fill:#409fc9;}.cls-45{fill:#2893c2;}.cls-46{fill:#5fafd2;}.cls-47{fill:#4da6cc;}.cls-48{fill:#168abd;}.cls-49{fill:#d4e9f3;}.cls-50{fill:#54aacf;}.cls-51{fill:#389bc7;}.cls-52{fill:#1a8cbe;}</style></defs><path class="cls-1" d="M97.89,319c-2.19.07-3.16,1.16-3.08,3.37q.12,3.63,0,7.26c-.18,4.19-1.89,7.13-6.56,7.43-2.26,1-4.83-.41-7.07.87h-1c-5.24-2.59-5.54-7.33-5.54-12.3,0-2.5,1.05-5.43-2.92-7.19h7.63c-1.56,4.52-1.24,9.06-.38,13.59.51,2.7,2.59,3.71,5.07,3.7,3.33,0,6.9-.29,8.31-3.89s.6-7.43.46-11.15c-.07-1.72-2.32-.84-3.11-2.11a25.07,25.07,0,0,1,8.2,0Z"/><path class="cls-2" d="M154,337.91c-4.86-6.14-6.88-14.27-13.27-19.34h7.71c-.49,5.5,4.28,8.67,6,13.35,5.63-5.69,7.68-11.16,4.86-13.44h6.94A114.26,114.26,0,0,0,155,337.91Z"/><path class="cls-3" d="M220,337.91v-7.15c1.89,2.92,3.84,4.88,6.84,5.26.26,2.51-2.37.6-2.9,1.89Z"/><path class="cls-4" d="M265.12,336c1.27.09,1.05,1.07,1.12,1.88H255.41c.08-1.2.45-2.11,1.91-2C259.92,335.59,262.51,336.39,265.12,336Z"/><path class="cls-5" d="M223.91,337.91c.35-1.58,2.4-.54,2.9-1.89l2.11.06c.87.81,2.4-.31,3.09,1a2.18,2.18,0,0,1-.23.79Z"/><path class="cls-6" d="M81.15,337.91c2.16-1.89,4.71-.66,7.07-.87a6.09,6.09,0,0,0-.18.87Z"/><path class="cls-7" d="M182.46,254.79c-27-.39-52.87.33-78.73-1.2-14.24-.84-22.72-10.42-28.84-22.26a40.63,40.63,0,0,1-4.14-19c0-24.33.1-48.67-.1-73,0-4.2,1.28-5.47,5.28-5.07,3.09.3,6.26-.22,9.33.13,4,.46,4.78-1.23,5-4.86a88.8,88.8,0,0,1,65.81-80.66C210.22,34.53,264.57,74,267.24,129.81c.18,3.63,1.08,4.88,4.77,4.62,4.41-.31,8.86.11,13.27-.13,3.14-.17,3.83,1,3.82,3.95-.1,27.28.09,54.56-.12,81.83a33.9,33.9,0,0,1-31.38,33.6C232.23,255.7,206.8,254.24,182.46,254.79Z"/><path class="cls-8" d="M458.22,149.51v52.8c0,6.36-.3,6.66-6.57,6.69-1.64,0-3.28,0-4.92-.1-3.37-.16-4.87-1.79-4.86-5.32q.13-34.54,0-69.1c0-3.77,1.46-6.23,5.31-7.08,11.64-2.56,17.82.19,23.46,10.52,8.11,14.86,16.21,29.73,24.56,45.06,1-2.26.4-4.29.4-6.25,0-14.54.08-29.08-.05-43.61,0-3.72,1.17-5.33,5.09-5.28,13.07.16,10.77-.68,10.84,10.65.15,21.56.11,43.12.21,64.68,0,3.58-1.73,5.86-5.08,6-12.28.6-15.15,1.42-21.33-10.61C476.82,182.05,467.06,166.19,458.22,149.51Z"/><path class="cls-8" d="M370.6,156.53c0,8-.2,16,0,24,.31,10.13,6.74,16.25,16.9,16.57,10.53.33,17.18-5,17.57-15.45.58-15.83.29-31.69.37-47.54,0-6.47.38-6.82,7-6.9,9.45-.12,9.45-.12,9.45,9.17,0,12.75-.5,25.52.22,38.23.34,6,1.17,11.72-1.23,17.52-3.29,7.92-8.75,13.28-17,15.72a52.92,52.92,0,0,1-29.1.59c-13-3.47-20.45-12.5-20.84-26.87-.44-16.66-.07-33.34-.18-50,0-2.74,1.16-4,3.64-4.13,2.94-.18,5.9-.26,8.84-.15s4.27,1.57,4.21,4.72c-.17,8.17-.06,16.34-.06,24.51Z"/><path class="cls-8" d="M598.52,191.51c6.56-20.29,13-39.46,18.89-58.77,1.47-4.8,3.71-6.46,8.68-6.32,11.39.31,11.37.07,7.53,10.86-7.88,22.11-15.82,44.2-23.49,66.38-1.38,4-3.56,5.31-7.52,5.4-15.66.35-15.66.42-20.77-14.26Q571.46,165,561.1,135.22c-2.55-7.37-1.85-8.28,5.88-8.31a32.19,32.19,0,0,0,3.93,0c4.84-.62,7,1.83,8.34,6.19,5.72,18,11.7,36,17.6,53.93C597.25,188.23,597.74,189.43,598.52,191.51Z"/><path class="cls-8" d="M646.26,168.25c0-11.27,0-22.53,0-33.8,0-5.52,1.5-7.17,6.83-7.2,12.78-.08,25.56,0,38.35-.06,3.47,0,5.3,1.17,5,4.84a32.3,32.3,0,0,0,0,4.4c.22,3.32-1.13,4.67-4.59,4.59-7.86-.19-15.73.08-23.6-.13-3.23-.08-4.86.51-4.53,4.2.46,5-2,11.5.91,14.68s9.57.74,14.57,1.06c1.79.11,3.6,0,5.41,0,6.81,0,6.91.11,6.89,6.81,0,6.48,0,6.49-6.62,6.49-5.9,0-11.81.1-17.7,0-2.43-.06-3.57.44-3.45,3.19.2,5.05.18,10.12,0,15.18-.09,2.59.78,3.34,3.34,3.3,8-.15,16.07.09,24.1-.12,3.71-.1,5.32.94,5.33,4.9,0,8.39.13,8.46-8.28,8.46-11.31,0-22.62,0-33.93,0-6.83,0-8.06-1.3-8.07-7.94Q646.25,184.65,646.26,168.25Z"/><path class="cls-8" d="M806.77,210.42a43.91,43.91,0,0,1-19.66-3.74c-5.32-2.4-7.86-9.7-5.44-14.92,1.37-2.95,3.2-1.58,4.77-.59,4.92,3.11,10.12,5.43,16,5.88,3.78.29,7.55,0,10.94-2a9,9,0,0,0,2-13.9,23.92,23.92,0,0,0-8.11-5.38c-5.83-2.54-11.92-4.58-17.05-8.57-13-10.11-11-30.43,3.87-37.47,10.13-4.81,20.62-4.81,31.05-.9a10.57,10.57,0,0,1,5.85,14.11c-1.48,3.51-4.09,2-6.15.8-4.65-2.66-9.46-4.38-14.91-4.08-4.36.24-8.21,1.34-9.77,5.93-1.64,4.84,1.37,7.69,4.91,10.12,4.22,2.89,9.14,4.35,13.74,6.45,6.4,2.93,11.64,6.83,15.3,13.16,6.81,11.73-.18,25.91-9,30.51C819.12,208.91,813,210.87,806.77,210.42Z"/><path class="cls-8" d="M930,167q0-16.66,0-33.34c0-5.64.76-6.35,6.58-6.47,10.16-.23,10.16-.23,10.16,10,0,17.81.11,35.62-.09,53.43,0,3.76,1.12,4.76,4.74,4.61,6.55-.27,13.12-.14,19.68-.05,4.19.06,5.8,2.52,5.89,8.23.07,4.11-1.66,5.75-5.94,5.67-11-.23-22,0-33-.09-6.7,0-8-1.35-8-8.13C929.91,189.59,930,178.31,930,167Z"/><path class="cls-8" d="M548,168.7c0,11.74-.17,23.49.08,35.23.09,4.14-1.57,5.39-5.38,5.55-11.25.48-11.44.38-11.44-10.92q0-32.3,0-64.6c0-6,.68-6.63,6.79-6.73,10-.17,10-.17,10,9.66Z"/><path class="cls-9" d="M159.88,298.91a2.32,2.32,0,0,1-2.29.64c-1.06-2.32-3.16-1.24-4.76-1.25-18-.08-36-.18-54,.05-4.1,0-5.35-1.06-5.14-5.13.33-6.67.08-13.38.09-20.07,0-2.21-.66-4.57,3.17-4.52,4.06,0,2.82,2.75,2.86,4.73.12,5.06.13,10.12,0,15.18-.06,2.33.31,3.56,3.13,3.49,7.37-.19,14.75-.17,22.12,0,2.74.06,3.47-1.08,3.18-3.49s.13-3.89,3.28-3.85,2.91,1.87,2.77,3.82c-.17,2.27.17,3.58,3.06,3.57s3.21-1.4,3-3.62-.09-3.71,2.93-3.76,3.65,1.36,3.37,3.85.4,3.51,3.16,3.51c2.93,0,3.27-1.47,3-3.67-.32-2.65.56-3.7,3.46-3.68,3.35,0,2.41,2.16,2.66,4C159.44,292.06,157.81,295.65,159.88,298.91Z"/><path class="cls-8" d="M694.35,256.68c0,10.19,0,20.41,0,30.63,0,1.58.91,4.06-2.09,4-2.74-.09-1.6-2.44-1.61-3.78q-.14-17.88,0-35.76c0-1.42-.82-3.39,1.92-3.63,2.26-.21,3.17.88,3.91,2.76,3.87,9.86,7.84,19.68,11.78,29.51.59,1.47,1.25,2.92,2.3,5.35l11.65-29.16c.85-2.12,1.83-4.19,2.53-6.36s2.18-2.21,3.89-2c2,.23,1.51,1.83,1.51,3q0,18.61,0,37.23c0,1.23.34,2.9-1.7,2.82s-1.54-1.78-1.55-3c0-10.55,0-21.11-.62-31.85L714.3,286.09c-.31.76-.65,1.5-.92,2.27-.55,1.57-1,3.14-3.22,3-1.95-.12-2.24-1.65-2.77-3-3.67-9.07-7.3-18.15-11-27.22C695.77,259.57,695,258,694.35,256.68Z"/><path class="cls-8" d="M523.05,257.05c0,9.94.05,19.88-.06,29.83,0,1.52,1.21,4.14-1.63,4.3-3,.18-1.9-2.51-1.91-4q-.13-17.4,0-34.8c0-1.44-1-3.5,1.41-4.13s3.07,1.39,4,2.85q9.61,15.07,19.18,30.19a16.53,16.53,0,0,0,1.23,1.5c1.67-.86,1-2.34,1-3.46.07-9,0-18,.09-27,0-1.55-1-4.15,1.93-4.08,2.66,0,1.49,2.48,1.5,3.84q.15,17.64,0,35.28c0,1.3.92,3.18-1,3.84-2.14.72-3.2-.81-4.22-2.44q-8.62-13.68-17.36-27.29c-1-1.61-2.1-3.18-3.15-4.77Z"/><path class="cls-8" d="M835.43,284.52c0-11.7,0-21.91.05-32.11,0-1.52-1.13-4.18,1.84-4.09S839,251,839,252.55q.15,17.37,0,34.75c0,1.43.92,3.46-1.55,4-2.06.45-2.88-1.07-3.77-2.47-6.79-10.68-13.59-21.37-21.5-31.86v19.14c0,3.75.07,7.51,0,11.26-.05,1.44.84,3.78-1.67,3.85-3.13.09-1.75-2.62-1.76-4-.12-11.74-.1-23.49,0-35.23,0-1.28-.94-3.16,1.15-3.74,1.93-.53,2.9.84,3.83,2.31q9.13,14.47,18.38,28.9C832.93,280.73,833.79,282,835.43,284.52Z"/><path class="cls-8" d="M562.29,270.61a69.11,69.11,0,0,0,.83,7.77c2,9.38,10.55,13.48,19.28,9.4,5.25-2.45,2.67-7.19,2.8-10.88s-3.4-1.64-5.28-2.14a11.53,11.53,0,0,0-2.94,0c-1.4,0-2.65-.09-2.58-2s1.44-1.35,2.48-1.48a2.67,2.67,0,0,1,.49,0c3.85.4,9.72-1.82,11.1.91,1.93,3.78,1.21,9.29.49,13.89-.57,3.69-4.61,4.87-7.88,5.71-12.29,3.18-22.1-4.21-22.39-16.9-.15-6.15-.82-12.42,1.93-18.32s7.71-8.63,14.16-8.66c6.78,0,11.42,2.83,13.68,8.39.57,1.39,2,3.22-.17,4.16s-2.55-1.08-3.25-2.62c-2.14-4.78-6.13-6.54-11.16-6.28-5.25.27-8.38,3.44-10.16,8C562.33,263,562.4,266.83,562.29,270.61Z"/><path class="cls-8" d="M959.5,270.32a30.49,30.49,0,0,0,.75,8.31c1.28,6.1,5,9.9,10.19,10.35,6.28.55,9.24-1.59,11.72-8.52.44-1.24.68-2.87,2.47-2.24,2,.69.54,2.26.27,3.22-1.51,5.46-4.88,9.43-10.65,10.23-6.27.86-12-.16-15.84-6.26-6.23-10-4.89-27.43,2.87-34.18,4.57-4,9.84-4.12,15.27-2.46s7.48,6,8.78,10.91c.25.94.72,2-.66,2.41-1.23.36-2,0-2.62-1.37-3.69-7.88-7-10.16-12.83-9.08-5.2,1-9.25,6.71-9.7,13.83C959.42,266.94,959.5,268.41,959.5,270.32Z"/><path class="cls-8" d="M616.74,270A28.58,28.58,0,0,0,618,281.14c1.87,5.21,5.84,8,11.14,7.88,5.51-.09,8.33-2.3,10.12-8.13.42-1.36.27-3.4,2.44-2.63,1.72.61.65,2.3.31,3.38-1.67,5.38-5,9.32-10.82,10.05-6.07.76-11.68-.11-15.46-6-6.82-10.62-5.24-28,3.48-35.08,4.56-3.68,9.8-3.47,14.9-1.69,4.71,1.63,7,5.61,8.19,10.26.24,1,.89,2.4-.71,2.91-1.83.58-1.95-.86-2.46-2.13-2.7-6.77-6.59-9.31-12.5-8.39-5.06.79-9.26,6.1-9.82,12.58C616.6,266.11,616.74,268.08,616.74,270Z"/><path class="cls-8" d="M368,271.58c0-5.38-.11-10.76,0-16.13.08-2.69-.72-3.9-3.6-3.69s-5.55.06-8.33,0c-1,0-2-.1-2.11-1.45s.55-2.21,1.94-2.21q14.24,0,28.46,0a1.66,1.66,0,0,1,1.77,1.86c0,1.67-1.09,1.77-2.29,1.78-2.61,0-5.24.18-7.84,0-3-.24-4,.87-3.93,3.86.15,10.43.11,20.86,0,31.28,0,1.68,1.14,4.52-2.12,4.41s-1.89-2.91-1.95-4.58C367.92,281.68,368,276.63,368,271.58Z"/><path class="cls-9" d="M90,282.4c0,3.76.21,7.53-.06,11.27-.4,5.6-4.73,9.69-10.62,10.46-4.31.57-8.56-2.12-10.39-6.6-.55-1.35-1.48-3.08.75-3.49,1.53-.29,3.66-2.65,4.87.64.91,2.44,2.54,3.75,5.32,2.87a5.39,5.39,0,0,0,4-5.5c.08-6.53.07-13.06,0-19.59,0-2.07-.16-3.76,2.9-3.83,3.29-.08,3.28,1.66,3.21,4-.1,3.27,0,6.54,0,9.8Z"/><path class="cls-8" d="M860.59,271.13c3.52-6.61,6.79-12.78,10.08-18.94a24.45,24.45,0,0,1,2-3.34,2.47,2.47,0,0,1,3.15-.53c1.75.86.24,2-.19,2.79-2.12,4-4.1,8.19-6.59,12-5,7.6-7.9,15.61-6.69,24.84.17,1.32,1,3.6-1.66,3.79-2.86.2-2.07-2.18-1.89-3.47,1.31-9.42-1.77-17.56-6.81-25.29-2.23-3.41-4-7.1-5.9-10.72-.65-1.24-2.73-2.84-.81-3.94s3.46.53,4.47,2.53c2.94,5.82,6.06,11.55,9.12,17.31C859.32,269,859.82,269.8,860.59,271.13Z"/><path class="cls-8" d="M897.28,269.75c0-6,0-12.09.05-18.13,0-1.24-.92-3.34,1.5-3.41,2.61-.09,2,2.1,2,3.59,0,10.62.17,21.24-.06,31.86-.07,3.6.87,5,4.64,4.7,4.41-.32,8.85-.07,13.28-.07,1.37,0,2.76.06,2.74,1.93,0,2.13-1.71,1.58-2.88,1.59-6.07.05-12.15-.12-18.21.09-2.87.1-3.13-1.24-3.09-3.52C897.35,282.17,897.29,276,897.28,269.75Z"/><path class="cls-8" d="M927.8,269.66c0-5.55-.14-11.1.09-16.63.07-1.61-1.54-4.68,1.51-4.71,3.4,0,1.87,3.23,1.9,5,.15,10.11.22,20.23,0,30.34-.08,3.59.86,5,4.63,4.7,4.07-.32,8.19-.12,12.28-.05,1.33,0,3.22-.57,3.35,1.73.15,2.52-1.87,1.75-3.13,1.76-5.73.08-11.47-.12-17.2.1-2.91.11-3.54-1-3.47-3.64C927.92,282.06,927.8,275.86,927.8,269.66Z"/><path class="cls-8" d="M504.29,269.27c0-6,0-12.09,0-18.14,0-1.2-.44-2.85,1.55-3,2.17-.14,2.2,1.44,2.2,3v37.24c0,1.54,0,3.13-2.19,3-2-.13-1.56-1.78-1.56-3C504.27,282,504.29,275.64,504.29,269.27Z"/><path class="cls-10" d="M97.89,319v-.4c5-1.19,9.09.07,12.65,3.95,2.8,3.05,6.16,5.59,10.42,9.36-1.19-5.31,2-9.91-2.48-13.16,4.34-.77,4.34-.77,4.89,1.17-1.73,5.48.1,11.22-1.18,17.62l-17.4-14.86c.89,5.52-1.6,10.18,2.2,14.15h-6.71c5-4.27,1.87-9.84,2.37-14.73C103,319.18,99.77,319.63,97.89,319Z"/><path class="cls-11" d="M265.12,336a7.56,7.56,0,0,1-7.8-.11c1.21-1.9-.57-3.2-1-4.77-.54-.7-1.45-1-2-1.73-3.07-4.43-3.07-4.43-5.8-.1a7.19,7.19,0,0,1-2,1.7c-1,1.81-3.31,3.41-.74,5.79h-6.44c5.48-5.59,7.83-13.05,13-19.52,3,5,5.71,9.74,8.52,14.41C262,333.45,262.56,335.7,265.12,336Z"/><path class="cls-12" d="M175.75,328.24c-.18,8,1.82,9.42,9.64,6.94.47-.15.92-.34,1.39-.49.93-.31,2.2-1.61,2.57.32.25,1.3-.93,1.92-2.26,1.92H169.83c4.2-4,3.82-16.14-.74-18.65,5.83,0,11.38.09,16.93,0,2.83-.06,3.31,1.29,2.72,4.17a8.56,8.56,0,0,0-6.81-2.62c-7.08.32-6.26-1-6.18,6.21A1.83,1.83,0,0,1,175.75,328.24Z"/><path class="cls-1" d="M288.63,332.93c-.23,2.88-.92,4.13-3.52,4.05-5.24-.14-10.48,0-16.49,0,4.13-2.71,2.69-6.39,2.53-9.52s2.46-7.12-4-9h9.51c-2.41,4.58-1,9.41-1.33,14.12-.12,2.14,1.28,2.77,3.17,2.79C281.88,335.41,285.22,335.29,288.63,332.93Z"/><path class="cls-12" d="M232,337.12c-1-.41-2.35.17-3.09-1,1.78-.12,3.42-.94,3.54-2.68s-1.9-2.42-3.31-3.06c-2.06-.93-4.27-1.51-6.29-2.51s-3.83-2.37-3.48-4.74,2.09-3.52,4.5-3.61c.28.17.37.33.27.49s-.19.23-.29.23c-1.57,2.31-.31,3.61,1.72,4.51s4.24,1.66,6.33,2.56c2.43,1,5.23,2.12,5.09,5.21C236.88,335.18,234.57,336.51,232,337.12Z"/><path class="cls-12" d="M136.12,318.49c-2.07,7.21-1.26,15.84,1.71,18.3h-9c3.43-3.78,3.29-15-.38-18.3Z"/><path class="cls-13" d="M256.44,299.7c.73-1.63,2.23-1.09,3.43-1.09,8.36,0,16.72.09,25.07.15l.37.45-.3.5-2.24,0a3.15,3.15,0,0,1-4.51,0Z"/><path class="cls-14" d="M192.45,266.91c.18,1.75-.63,2.35-2.27,2.31s-2.36-.73-2.39-2.33c0-1.9.9-2.51,2.72-2.49S192.54,265.57,192.45,266.91Z"/><path class="cls-15" d="M211.72,302.79c-1.54.09-2.48-.33-2.49-2.12s1.08-2.05,2.52-2c1.28,0,2.17.27,2.21,1.85S213.34,302.9,211.72,302.79Z"/><path class="cls-16" d="M218,298.66c1.86-.25,2,.94,2,2.38,0,1.6-1,1.75-2.2,1.77-1.56,0-2.4-.49-2.39-2.2C215.43,298.74,216.56,298.57,218,298.66Z"/><path class="cls-15" d="M235.58,279.16c.14,1.81-1,2.07-2.43,2.08-1.59,0-2.28-.64-2.26-2.28s1-2.06,2.48-2.06S235.78,277.52,235.58,279.16Z"/><path class="cls-15" d="M278.26,299.67h4.51c-.07,1.71,1.06,4-2.26,4S278.33,301.38,278.26,299.67Z"/><path class="cls-17" d="M288.73,303.44c-3.36.84-4.27-.72-3.72-3.73l.12.14C289.42,298.79,289.73,299.11,288.73,303.44Z"/><path class="cls-18" d="M175.75,328.24V326l7.79.16c.57,1-.22,1.36-.9,1.74Z"/><path class="cls-19" d="M230.91,319.57c4.81-1.78,4.42,1.11,3.7,4.69L230.93,320Z"/><path class="cls-20" d="M288.73,303.44c.42-2.81-.3-4.47-3.6-3.59-.06-.37-.12-.73-.19-1.09l6.82-.18C289.53,299.45,290.3,302.17,288.73,303.44Z"/><path class="cls-21" d="M230.91,319.57l0,.41c-2.37-.33-4.75-.87-7.07.22a.59.59,0,0,1,0-.72C226.26,317.13,228.59,318.25,230.91,319.57Z"/><path class="cls-22" d="M184.54,325.17c.36-.93,1.41-1.37,1.63-.47.45,1.89,1.11,4-.46,5.79L184.62,329A9.6,9.6,0,0,0,184.54,325.17Z"/><path class="cls-11" d="M184.54,325.17c1.47,1.25,1.36,2.54.08,3.85l-2-1.12.9-1.74Z"/><path class="cls-23" d="M94,135c-.18-46.58,37.82-86.11,82.91-86.24,48.33-.13,87.24,38.28,87.25,86.14,0,47.48-39,88-84.92,88.11C132.66,223.13,94.14,183.36,94,135Z"/><path class="cls-24" d="M160.91,236a2.7,2.7,0,0,1,3.44-.94c1,.64,0,2.06-.1,3.15-.33,3.87-2.9,7.54-1.09,11.6.29.66-.19.84-.64.83-1.26,0-2.58.36-3.71-.61-1-.83.06-1.1.26-1.71,1.24-3.74,2.39-7.52,1.85-11.56-.36-.16-.48-.33-.37-.5S160.79,236,160.91,236Z"/><path class="cls-25" d="M171.77,236c4.53-2.39,6.85-1.3,6.68,3.42-.13,3.69-.77,7.38-4.63,9.36-1.07.54-1.17-.06-1.06-.91.48-1.38,3.1-2.29.93-4.25a1.46,1.46,0,0,1-.45-1.17c1.2-2.26,1.35-4.33-1.14-5.89Z"/><path class="cls-26" d="M181.08,234.67c3-1.26,5.86-.55,8.59-.69.9,0,1.65.31,1.17,1.41-.38.85-1.49,2.31-1.79,1.84C187.09,234.27,183.52,237.39,181.08,234.67Z"/><path class="cls-27" d="M199,239.07c.42-3.39-2-3.33-5.75-3.07,3.09-2.28,5-3,6.86-1.07,1.5,1.61,1.41,3.41-1,4.45Z"/><path class="cls-28" d="M173.58,242.42l.11,1.16c-2.19.53-4.43.79-5-2.11-.47-2.48-.25-4.93,3-5.51l-.07-.08C172.51,238,171.65,240.61,173.58,242.42Z"/><path class="cls-29" d="M196.85,250.77c-2.9-.34-4.75-.27-5.31-2.48a1.72,1.72,0,0,1,.57-1.2C194,247.4,194.89,248.91,196.85,250.77Z"/><path class="cls-30" d="M199,239.07l.14.31c.09,3.71-2.53,2.19-4.54,1.87Z"/><path class="cls-27" d="M199.53,249.68c-1.25-3.1.15-4.35.61-5.85C201.61,245.55,200.31,246.92,199.53,249.68Z"/><path class="cls-27" d="M172.76,247.83l1.06.91c-2,1.77-4,2.11-6.62-.18C169.3,247.49,171.33,249.42,172.76,247.83Z"/><path class="cls-31" d="M183.62,246.82c-.49,1.17-.9,2.41-2.62,2.75-.35-1.77.87-2.7,1.63-3.81C183.52,245.59,184.07,245.75,183.62,246.82Z"/><path class="cls-27" d="M160.91,236a3.22,3.22,0,0,1,0,.76c-1,.24-1.82,1.43-3.15.84C158.07,235.56,159.63,236,160.91,236Z"/><path class="cls-32" d="M183.62,246.82l-1-1.06c.6-.75.75-2.68,2.14-1.61C185.55,244.75,184.41,246.06,183.62,246.82Z"/><path class="cls-8" d="M774.27,202.69c-2.39-5.88-5.29-11.57-7.58-17.49-2.19-5.68-5.39-10.39-11.5-13.9,5.61-2.77,10.4-5.2,13.17-10.21,7.91-14.3-.09-29.92-17.07-33-10.4-1.88-20.93-.6-31.39-.84-6.21-.15-7.52,1.3-7.52,7.4,0,21.23-.1,42.46,0,63.69.08,12.34-2.72,11.25,12.17,11.22l.49,0c2.93.05,4-1.41,3.93-4.28-.13-7.19,0-14.37,0-21.56,0-8.05,2.27-9.54,10-6.64,2.58,1,4.26,2.9,5.76,5.09,3.45,5.05,5.31,10.82,7.63,16.38,4.87,11.69,4.83,11.71,17.58,10.84C774.87,209.06,776.14,207.29,774.27,202.69Zm-28.39-41.23c-4.65,1.94-9.61,1.45-14.49,1.41-1.82,0-2-1.3-2-2.7q0-4.38,0-8.78a4.39,4.39,0,0,1,0-1.45c1.22-3.12-2.86-8.87,2.39-9.38,10.7-1,17.27-1.07,20.07,7.23C753.83,153.62,751.56,159.09,745.88,161.46Z"/><path class="cls-8" d="M917.6,201.13c-8.5-22.93-17.14-45.8-25.56-68.76-1.34-3.68-3.63-5.16-7.29-5.14h-7.38c-8.48,0-8.51,0-11.26,7.7q-10.05,28.09-20,56.19c-1.53,4.3-3.14,8.58-4.5,12.94-.62,2-1.14,4.27,1.81,5.22,7.94,2.56,14-.4,16.58-8.1,3.49-10.52,3.49-10.52,14.4-10.52h7.87c12.69,0,13-.11,16.76,12,1.7,5.52,4.58,7.45,9.93,6.81a24.18,24.18,0,0,1,3,0C919.44,209.43,920.27,208.34,917.6,201.13Zm-29.55-23.5c-5.89,0-11.78,0-17.67,0-3.69,0-1.89-2.16-1.43-3.52,3.25-9.71,6.61-19.38,10.45-30.55,3.92,11.38,7.4,21.47,10.89,31.55C891,177.32,889.77,177.64,888.05,177.63Z"/><path class="cls-17" d="M237.7,288.26c-.06-1.79.37-3.63-2.57-3.53-2.26.08-3.9.22-3.54,3.1.26,2-1,2.49-2.73,2.46-2,0-3.94-.1-5.9,0-2.63.18-4.5-.12-4.15-3.54.27-2.57-1.89-2.11-3.46-2.17-1.73-.07-3.54,0-3.16,2.46.57,3.59-1.38,3.84-4.24,3.82-8.5-.06-8.5,0-8.5-8.94v-.49c0-7-2.57-9-9.64-7.29-4,1-5.91,3.85-6.25,7.8s2.19,5.83,5.71,6.7c.84.21,2.11-.24,2.07,2.16-5.09,0-10.21-.21-15.31.08-3.6.2-6.33-.57-8.22-3.84-.75-1.29-1.77-3.13-3.71-1-1.24,1.33-3.17,2-1.48,4.69,3.26,5.27,2.91,5.71-2.74,8.19-.75.28-1.71-.19-2.29.64-.65,5.84.1,6.55,5.34,4.81,2.83-.94,5.69-2.14,6.87-5.11.95-2.4,2.66-2.38,4.69-2.39,18.37-.07,36.74-.21,55.11-.29C238,296.53,238,296.56,237.7,288.26Zm-46.29-5.73c-.64,0-1.42-.29-1.31-1,.15-1.06,1-1.48,2.08-1.47.7,0,1.18.3,1.17,1.09C193.33,282.45,192.43,282.61,191.41,282.53Z"/><path class="cls-17" d="M289,284.7c-3.58.08-3,2.33-2.83,4.31.28,3-.65,4-3.77,3.86-6.22-.25-12.48-.33-18.69,0-4.14.22-6-.71-6.3-5.27-.3-5-2.65-6.06-9.34-5.77-4.62.21-7.19,2.44-7.36,6.75a53.2,53.2,0,0,0,.24,10.26c.34,2.15-2.64,5.12.94,6.36a13,13,0,0,0,7.76-.26,11.88,11.88,0,0,0,6.82-5.26c1.64-1,3.46-.47,5.19-.52,7.69-.22,15.38.21,23.07.11,2.49,1.09,4.8.5,7.06-.71.08-3.09.24-6.19.21-9.29C291.94,287.24,293,284.62,289,284.7Zm-39.84,8.05c-2,.3-2.74-.45-2.59-2.35s1-2.42,2.75-2.53c2.11-.14,2.23,1.11,2.34,2.66C251.79,292.58,250.74,293,249.13,292.75Z"/><path class="cls-33" d="M247.41,299.54h-4.24C244.55,298.34,245.53,298.45,247.41,299.54Z"/><path class="cls-8" d="M490.07,254.26a14.15,14.15,0,0,0-10.89-5.75c-3.44-.13-6.88-.18-10.31-.43-2.74-.19-3.76.79-3.67,3.63.19,6,.06,12.09.06,18.13,0,6.21,0,12.43,0,18.64,0,1.16-.66,3.18,1.25,3.16,6.61-.08,13.46,1.66,19.61-2.44C495.62,282.9,497.74,263.75,490.07,254.26Zm-19.14,34a2.18,2.18,0,0,1-1.71-2.5c0-10.45,0-20.9,0-31.35,0-2.26,1.1-2.57,3-2.71,12.83-.91,18.49,4.7,18.49,19.33a18.55,18.55,0,0,1-1.82,10.1C485.8,286.89,477.45,290.23,470.93,288.29Z"/><path class="cls-8" d="M413.54,276.1c-1.29-2.22-2.06-3.54,1.12-5.14,5.34-2.69,5.92-8,5.14-13.16-.75-5-4.18-8-9.14-9a46,46,0,0,0-6.83-.69c-11.16-.49-11.16-.47-11.16,10.74v6.85q0,11.25,0,22.51c0,1.46-.2,3.2,2.05,3.07,2.09-.11,1.39-1.85,1.44-3,.1-2.12,0-4.24,0-6.36,0-9,0-8.85,8.78-8.66a4.52,4.52,0,0,1,4.48,2.89c2.15,4.21,4.56,8.28,6.74,12.47,1.11,2.14,2.45,3.43,5.58,2.22C418.92,285.72,416.33,280.85,413.54,276.1Zm-8.35-5.72c-9.81.28-9.81.28-9.81-9.55s0-9.92,10-9.35c6.48.37,10.35,4.13,10.33,10C415.7,267.2,412.16,270.18,405.19,270.38Z"/><path class="cls-8" d="M681.63,264c-.88-9.15-6.89-15.64-14.84-16.16s-14.28,4.24-16.33,12.58a38.47,38.47,0,0,0,0,18.92c2.11,8.16,7.53,12.43,15.39,12.47,7.44.05,12.54-4.22,15-12.26,1-3.2.81-6.45.83-9.69C681.66,267.92,681.82,265.94,681.63,264Zm-5,16.25a12.1,12.1,0,0,1-10.89,8.44c-4.93.23-9.56-2.29-11.26-7.05a35.14,35.14,0,0,1,.09-23.93c1.55-4.4,6.64-6.84,11.61-6.52a11.79,11.79,0,0,1,10.46,8.27,29,29,0,0,1,1,10.64A26.76,26.76,0,0,1,676.68,280.26Z"/><path class="cls-8" d="M758.05,248.68c-4.72-.46-9.49-.31-14.23-.61-2.7-.17-3.32,1-3.26,3.47.13,6,0,12.09,0,18.13,0,6.21,0,12.42,0,18.63,0,1.19-.5,2.86,1.51,3,2.2.17,2.16-1.46,2.16-3,0-3.76.11-7.52,0-11.27-.09-2.37.86-3.1,3.16-3.07,3.91,0,7.84.31,11.74-.62,5.9-1.41,9-5.88,8.8-12.86S764.48,249.31,758.05,248.68Zm-3.8,22c-10,.51-10,.51-10-9.46s0-10.06,10-9.4c6.85.45,9.58,3.23,9.54,9.73C763.79,267.55,760.89,270.31,754.25,270.65Z"/><path class="cls-8" d="M801.79,288.45c-4.51-12.58-9.1-25.11-13.64-37.67-.46-1.27-.76-2.53-2.44-2.63s-2.23.77-2.74,2.19q-6.91,19.32-14,38.57c-.62,1.69-.5,2.49,1.57,2.46,1.67.21,2-1.23,2.48-2.4a38.29,38.29,0,0,0,2-6c.58-2.91,2.39-3.93,4.94-3.28,5.14,1.33,11.53-3.33,15.54,2.95,1.37,2.15,1.86,4.85,2.82,7.27a2.38,2.38,0,0,0,3.26,1.36C803.46,290.61,802.09,289.29,801.79,288.45ZM777.21,276c2.48-7.16,4.88-14.09,7.29-21l1.06-.11c2.45,6.95,4.89,13.9,7.43,21.12Z"/><path class="cls-8" d="M458.9,288.44c-.79-2.31-1.69-4.58-2.52-6.87q-5.49-15.15-11-30.28c-.49-1.34-.67-3-2.62-3.11a2.27,2.27,0,0,0-2.55,1.73q-7.08,19.5-14.24,39c-.57,1.55-.3,2.58,1.88,2.45,1.2,0,1.68-.92,2-2.12.56-1.86,1.46-3.65,1.87-5.54.71-3.32,2.57-4.6,5.92-4.08a24.4,24.4,0,0,0,3.92,0c9.49,0,9.49,0,13.11,8.6.26.6.42,1.24.7,1.83a2.23,2.23,0,0,0,2.89,1.19C460,290.73,459.24,289.44,458.9,288.44Zm-11.44-12.31c-4.22,0-8.44,0-13.27,0,2.63-7.51,5.08-14.52,7.91-22.63,2.67,7.52,5,14.05,7.32,20.58C450.17,276.14,448.91,276.14,447.46,276.13Z"/><path class="cls-34" d="M206.38,328.05c2.75-1.46,6.43-1.73,5.58-5.56s-4.16-4.15-7.39-4.19c-3.76-.05-7.52,0-11.55,0,4,2.39,2,6,2.21,8.84.18,3.11,1.2,6.5-1.64,9.36H201a3.11,3.11,0,0,0-.39-.86c-2.14-2.23-2.11-5.72-.61-7.05,1.83-1.61,3.36,1.64,4.83,3,3.3,3,5.93,7.33,11.79,4.76C212,334.77,209.25,331.51,206.38,328.05Zm-4.45-1c-3.41.5-2.51-2-2.59-3.14-.09-2.74-.48-5.07,3-4.68,2.6.29,5.27.91,5.09,4S204.42,326.72,201.93,327.09Z"/><path class="cls-35" d="M255.23,328.88a15.07,15.07,0,0,1-7.66.14l-1,2,9.8.13Z"/><path class="cls-36" d="M130.51,185.75c5.07-6.14,9.59-11.89,14.44-17.34,2.18-2.46,4.67-4.58,5.26-8,.32-1.88,1.72-2.19,3.25-2.33a377.87,377.87,0,0,1,40.24-1.59c2.36,0,3.07,1.34,3.43,3.28,1.05,5.77,2.35,11.51,3.1,17.31.45,3.45,1.82,4.51,5.14,3.86,5.3-1,9.28-3.46,9.95-9.23s5.2-8.39,8.58-12c1-1.07,2.53-.39,3.76-.21a213.49,213.49,0,0,1,24,5.11c2.43.65,3.51,1.48,2.19,4.39a100.31,100.31,0,0,1-12.8,20.8c-1.09,1.37-2,2-4.07,1.35-17.3-5.78-35.3-6.67-53.33-7A467.31,467.31,0,0,0,136,185.73C134.45,185.86,132.87,185.75,130.51,185.75Z"/><path class="cls-36" d="M236.86,194.28a80.32,80.32,0,0,1-25.38,18.41,4.5,4.5,0,0,1-3.29.11c-18.83-4.77-37.67-3.79-56.48.17a9.54,9.54,0,0,1-6.62-.67,84.2,84.2,0,0,1-19.83-13.46c-1.55-1.42-3.64-2.72-2.49-5.26a7,7,0,0,1,6-4.43c5.72-.43,11.43-.9,17.16-1.19,21.94-1.11,43.88-1.73,65.78.87A112,112,0,0,1,236.86,194.28Z"/><path class="cls-36" d="M177.55,104.34c-.79.82-1.89,1.51-2.32,2.48-3.26,7.33-9.09,8.2-16.34,7.62-15.81-1.26-31.59-2.71-47.28-5.07-2.74-.41-3-.94-1.65-3.61,3.71-7.26,9.3-12.26,16.49-15.84,4.66-2.33,9.41-3.8,14.67-3a193.12,193.12,0,0,0,36.2,1.9c1.14,0,2.29,0,3.43,0s1.91.39,1.88,1.66c0,1.11-.87,1.09-1.69,1.27-6.81,1.5-8.07,5.62-3.4,11C178.23,103.31,178.21,103.82,177.55,104.34Z"/><path class="cls-36" d="M199.61,76.41c-5.89-4-8.85,1.53-13,4.8-3.17,2.5-6.87,4.61-11.3,4.74a223.93,223.93,0,0,1-36.68-2.24c-3.35-.45-5.84-1.49-6.46-5.26-.23-1.4-1.22-2.66-1.7-4-.67-1.93-4.49-3.75-.7-5.93,3.35-1.92,6.11-7.55,11-2.91,2.51,2.39,3.06,1,3.83-1.06.51-1.38,1-2.77,1.45-4.15.93-2.69,2.81-3.56,5.37-2.47a69.74,69.74,0,0,0,36,4.9c3.42-.4,6.66,2.3,7.71,6.15.54,2,1,3.92,3.42,4.17s2.59-2.07,3.43-3.53c.67-1.17.68-3.24,2.76-2.55,2.34.78,1.22,2.58.76,4.09C204.68,73.8,204.09,76.68,199.61,76.41Z"/><path class="cls-36" d="M98.55,116.54c1.49-2.07.59-4.41,2.36-5s2.15,1.52,3,2.6c.73.91,2.23,2.13,2.46.53.63-4.29,3.41-2.56,5.43-2.27,17.64,2.61,35.34,4.65,53.19,5,2,0,3,.47,2.75,2.76a21.27,21.27,0,0,0,1.79,10.49c.88,2.14.43,2.91-1.95,2.9-11.46-.08-22.92.23-34.37-.2-5.19-.19-9.55-4.14-14.84-4.7-1.45-.15-3.26-1-4.29-.42-4.8,2.67-7.52,1.14-11.43-2.57C99.24,122.42,103.69,117.69,98.55,116.54Z"/><path class="cls-37" d="M134.55,136.32c12.46,0,24.18-1,35.62.4,6.17.73,12.24.74,18.34,1.06,2.71.14,4.28.9,3.86,4.13-.4,3,1.91,5.45,2.64,8.28.66,2.53.29,3.48-2.6,3.41A328.3,328.3,0,0,0,154.65,155c-1.83.16-3-.08-2.24-2.32,2.2-6.83-.75-7.8-6.2-8.75C141.36,143.07,137.83,140.83,134.55,136.32Z"/><path class="cls-37" d="M245.77,136.42c4.09,0,8.18,0,12.27,0,2.24,0,3.07,1.08,2.86,3.41a108.8,108.8,0,0,1-3.56,19.68c-.71,2.56-1.81,3.3-4.55,2.46A164.63,164.63,0,0,0,227,156.39c-3.18-.45-4.79-6.31-2.43-9.84,2.07-3.12,4.67-5.87,7-8.84,1.06-1.39,2.48-1.39,4-1.39h10.32Z"/><path class="cls-38" d="M240.84,116.1c8.09,1.18,15,8.07,15.92,15.63.25,2-.75,1.78-1.88,1.78q-9.27,0-18.56,0c-1.15,0-2.44,0-1.95-1.85,1-3.7-2-2.22-3.51-2.72-.61-1.08.38-1.32.95-1.77,1.46-.64,2.89-1.33,4.36-1.93,3.72-1.5,5.43-3.82,3.32-7.77C239.32,116.4,239.66,115.83,240.84,116.1Z"/><path class="cls-38" d="M203.62,215.3c-16.28,6.1-32.62,6.18-50.17.37C170.9,212.2,187.23,211.22,203.62,215.3Z"/><path class="cls-39" d="M112.68,160.14c-.14.1-.38.39-.67.44C99.75,163,102.05,165,99,153c-1.08-4.24-1.3-8.69-1.93-13-.37-2.6.37-4.12,3.35-3.67a9.13,9.13,0,0,0,1.48,0c6.93,0,7.17.06,4.77,6.53-1.48,4,.21,7,1.85,10.14C109.77,155.42,111.27,157.75,112.68,160.14Z"/><path class="cls-38" d="M192.7,53.23c-2.26,4.89-5.76,7.2-11.35,7.22-9,0-17.75-.81-27.1-4.81,6-1.48,10.59-3.71,16.35-1.63,5.38,2,11.32.62,16.91-.72C189.22,52.88,190.84,52.05,192.7,53.23Z"/><path class="cls-38" d="M113.6,185.53a73.71,73.71,0,0,1-10-17.74,3.58,3.58,0,0,1-.43-1.37c.06-.92,9.41-3.45,11.3-3,2.61.56,2,2.54,1.73,4.25C115.41,173.24,114.58,178.85,113.6,185.53Z"/><path class="cls-40" d="M198.06,99.66l.24,1.43c3.19-2.19,6.51,1,8.88.32,3.12-.85,5.24.61,7.8.79,1.86.13,3.68.75,3.16,3.27-.45,2.17-2.19,3.92-4.1,3.31-3.56-1.14-7-.79-10.51-.61a4.14,4.14,0,0,1-3.83-2.62,11.38,11.38,0,0,0-3.62-3.84C196.28,100.59,196.6,99.58,198.06,99.66Z"/><path class="cls-41" d="M198.06,99.66l-2,2-9.45-.06c-1.16.2-2.6,1.36-3-.9a8.43,8.43,0,0,0,3.26-4.1c.9-2.22,2.33-4.28,5.13-3C194.63,95,198.79,94.94,198.06,99.66Z"/><path class="cls-42" d="M104.81,133.18c-8.07.8-8.07.8-7.2-4A19.34,19.34,0,0,1,104.81,133.18Z"/><path class="cls-43" d="M226.86,128a3.53,3.53,0,0,1-3.68-3,1.4,1.4,0,0,1,.81-1l2.87,3.09c.25.2.34.41.25.62S227,128,226.86,128Z"/><path class="cls-44" d="M234.59,115.36c-.88-.37-2-.8-1.58-1.94s1.39-.43,2.06-.2a20.16,20.16,0,0,1,2.56,1.25C237.19,116.73,235.76,115.59,234.59,115.36Z"/><path class="cls-45" d="M221.88,122.28a8.3,8.3,0,0,1-2.44-5.2c2.58.54,2.41,2.72,3.17,4.18A1.24,1.24,0,0,1,221.88,122.28Z"/><path class="cls-46" d="M226.86,128a7.22,7.22,0,0,1,0-.93,9.35,9.35,0,0,0,4.95.08l-.95,1.77C229.41,129.11,228,129.35,226.86,128Z"/><path class="cls-47" d="M234.59,115.36c1.06-.14,2.25.18,3-.89l3.21,1.63-1.35,1.36C238.19,116,236.08,116.4,234.59,115.36Z"/><path class="cls-48" d="M221.88,122.28l.73-1L224,124l-.81,1Z"/><path class="cls-49" d="M174,52.06a6.56,6.56,0,0,1,4.89-.05C177.32,52.84,176,52.6,174,52.06Z"/><path class="cls-50" d="M177.55,104.34V102.8l4-1.19c.56.36.58.74,0,1.15Z"/><path class="cls-51" d="M181.63,102.76l0-1.15,2-.86c.77,1.06,2,.62,3,.9C185.11,102.67,183.33,102.55,181.63,102.76Z"/><path class="cls-52" d="M173.58,242.42c-5-.94-2.86-3.9-1.88-6.54C176.5,237.32,177,239,173.58,242.42Z"/></svg>