<?xml version="1.0" encoding="utf-8"?>
<!-- Generator: Adobe Illustrator 25.1.0, SVG Export Plug-In . SVG Version: 6.00 Build 0)  -->
<svg version="1.1" id="Layer_1" xmlns="http://www.w3.org/2000/svg" xmlns:xlink="http://www.w3.org/1999/xlink" x="0px" y="0px"
	 viewBox="0 0 167 57.9" style="enable-background:new 0 0 167 57.9;" xml:space="preserve">
<style type="text/css">
	.st0{fill:#248B9F;}
	.st1{fill:#575194;}
	.st2{fill:#268B9F;}
</style>
<g>
	<g id="shape">
		<path class="st0" d="M25.1,0.2c0,0-7,6.9-8.6,14.9L3.8,12.3c0,0,3.3-7,9.5-9.9C19.5-0.4,24.7-0.1,25.1,0.2z"/>
		<path class="st0" d="M1.4,18.4l13.2,7.4c0,0-0.4,7.4,1.2,12.6c1.6,5.2,3.8,10.2,6.1,13.2c2.3,3,4.1,4.7,4.1,4.7l0,0.2
			c0,0-6.5,1-11.5-1.8s-6.8-4.8-9.1-7.9s-4.1-7.6-4.8-12C-0.1,30.3-0.4,27,1.4,18.4z"/>
		<path class="st0" d="M39,26.2c0-0.2,6.5-4.6,6.5-4.6s1.9,6.7,0,14.3c-1.9,7.8-4,10.1-4.4,10.7c-0.3,0.5-2.3,3.1-3.6,4.2
			c-0.6,0.5-4.5,3.8-5.7,3.8l-0.1-0.2l1.2-2.3c0,0,2.3-4.5,3.1-7.2c0.8-2.7,2-6.4,2.5-9.5C39.2,32.5,39.1,26.9,39,26.2z"/>
		<path class="st1" d="M31.5,13.3c0.2,2.7-1.4,4.8-3.5,5c-2.1,0.1-4.4-2.3-4.6-5s1.3-4.9,3.4-5C29,8.2,31.3,10.6,31.5,13.3z"/>
		<path class="st2" d="M30,1.7c0,0,1.9,2.7,2.5,3.8c0.6,1.1,2.3,4.3,2.5,5c0.2,0.6,1.5,4,1.9,5.1c0.4,1.1,0.5,1.4,0.5,1.4l6.8-0.6
			c0,0-1.2-2.8-1.9-4C41.5,11.2,39.4,8,37.2,6c-2.3-2-4.6-3.4-5.7-4C30.4,1.5,29.9,1.2,30,1.7z"/>
		<path class="st1" d="M0.3,15.6l12.4,6.1l8.6,4.2c0,0,0.6,0.1,0.7,0.9c0.2,0.8,0.4,4.6,0.4,5.5c0.1,0.9,1,7.4,1.2,8.7
			s1.8,8.2,1.9,9c0.2,0.9,2.1,6.1,2.3,6.7c0.4,0.9,0.7,1.2,0.8,1.1c0.2-0.1,0.2-0.4,0.2-0.4s0.7-1.3,1-3c0.3-1.7,1.3-6.1,1.6-8.1
			c0.3-2,1.3-10.1,1.3-13.9c0-3.8,0.2-5.8,0.2-5.8s-0.1-0.5,0.3-0.6c0.3-0.2,11.8-6.7,11.8-6.7s0.7-0.8,0-0.9S36,19.6,36,19.6
			l-5,0.6c0,0-3.6,0.3-6.1-0.3S5.8,15.4,5.8,15.4l-4.8-1.1C1.1,14.3-0.7,14.2,0.3,15.6z"/>
	</g>
	<g id="text">
		<g>
			<path class="st1" d="M64.8,19.4h3.1l0,15.8c-0.4,1.5-1.5,1.2-2.3,1.2h-0.8l0-7.6l-7.2,0v7.5h-3.1l-0.1-15.5
				c0.2-1.4,1.6-1.7,1.9-1.7h1.2v7h7.3L64.8,19.4L64.8,19.4z"/>
			<path class="st1" d="M70.3,29.8c0-1.1,0.2-2.1,0.5-3c0.3-0.8,0.8-1.5,1.3-2.1c0.6-0.6,1.2-1,1.9-1.3c0.7-0.3,1.5-0.4,2.2-0.4
				c1.8,0,3.1,0.6,4.1,1.6c1,1.1,1.5,2.7,1.5,4.9c0,0.2,0,0.3,0,0.6s0,0.6,0,0.7h-8.4c0.1,1,0.4,1.7,1.1,2.2
				c0.6,0.6,1.6,0.8,2.8,0.8c0.7,0,1.4-0.1,1.9-0.2c0.6-0.1,1.1-0.3,1.4-0.4l0.4,2.4c-0.2,0.1-0.4,0.2-0.7,0.2
				c-0.3,0.1-0.6,0.2-1,0.2c-0.4,0.1-0.8,0.1-1.2,0.2c-0.4,0.1-0.9,0.1-1.3,0.1c-1.1,0-2.1-0.2-2.9-0.5c-0.8-0.3-1.5-0.8-2-1.4
				s-0.9-1.3-1.2-2.1C70.4,31.7,70.3,30.8,70.3,29.8z M78.7,28.2c0-0.4,0-0.5-0.1-0.9c-0.1-0.4-0.3-0.7-0.5-1s-0.5-0.5-0.8-0.6
				s-0.7-0.2-1.1-0.2c-0.5,0-0.9,0.1-1.2,0.2c-0.3,0.2-0.6,0.4-0.9,0.7s-0.4,0.6-0.6,1s-0.1,0.4-0.2,0.8L78.7,28.2L78.7,28.2
				L78.7,28.2z"/>
			<path class="st1" d="M88.7,22.9c1,0,1.8,0.1,2.5,0.4s1.2,0.6,1.6,1.1c0.4,0.4,0.7,1,0.9,1.6c0.2,0.6,0.2,1.3,0.2,2.1V36
				c-0.5,0.1-1.1,0.2-2.1,0.4c-0.9,0.2-2,0.2-3.2,0.2c-0.8,0-1.5-0.1-2.1-0.2c-0.6-0.2-1.2-0.4-1.6-0.7c-0.5-0.3-0.8-0.8-1.1-1.3
				c-0.2-0.5-0.4-1.2-0.4-2c0-0.7,0.2-1.4,0.4-1.9c0.3-0.5,0.7-0.9,1.2-1.3c0.5-0.3,1.1-0.6,1.7-0.7c0.6-0.2,1.3-0.2,2-0.2
				c0.3,0,0.7,0,1.1,0.1c0.4,0,0.7,0.1,1.2,0.2v-0.5c0-0.3,0-0.7-0.1-1s-0.2-0.6-0.4-0.8c-0.2-0.2-0.5-0.4-0.8-0.6
				c-0.3-0.1-0.8-0.2-1.3-0.2c-0.7,0-1.3,0.2-1.8,0.3c-0.6,0.1-1.1,0.3-1.5,0.5l-0.3-1.9c-0.1-0.4,0.1-0.8,0.5-0.9
				c0.3-0.1,0.7-0.2,1.1-0.3C87.1,23,87.9,22.9,88.7,22.9z M88.9,34.1c0.9,0,1.6-0.1,2.1-0.2v-3.3c-0.2-0.1-0.4-0.1-0.7-0.2
				c-0.3-0.1-0.6-0.1-1.1-0.1c-0.3,0-0.6,0-1,0.1c-0.3,0.1-0.6,0.2-0.9,0.3s-0.5,0.3-0.6,0.6s-0.2,0.6-0.2,0.9
				c0,0.7,0.2,1.2,0.7,1.5C87.6,34,88.2,34.1,88.9,34.1z"/>
			<path class="st1" d="M101.2,35.7c-0.1,0.5-0.5,0.9-1,0.9c-0.6,0-1.1-0.1-1.5-0.3c-0.6-0.2-0.9-0.5-1.3-0.8
				c-0.3-0.3-0.6-1-0.7-1.5c-0.1-0.5-0.2-1.1-0.2-1.7V17.6l2.9-0.5v14.7c0,0.4,0,0.6,0.1,0.9c0.1,0.2,0.2,0.5,0.3,0.6
				c0.2,0.2,0.3,0.3,0.6,0.4c0.2,0.1,0.6,0.2,1,0.2L101.2,35.7z"/>
			<path class="st1" d="M103,20l3-0.6v3.9h4.5v2.5h-4.5V31c0,1,0.2,1.8,0.5,2.2c0.3,0.4,0.9,0.6,1.6,0.6c0.5,0,2.2-0.4,2.4-0.5
				l0.4,1.4c0.2,0.5-0.1,1.1-0.5,1.3c-0.2,0.1-0.4,0.2-0.7,0.3c-0.6,0.2-1.5,0.3-2.3,0.3c-0.9,0-1.5-0.2-2.2-0.4
				c-0.6-0.2-1.1-0.7-1.5-1.1c-0.4-0.5-0.6-1.1-0.8-1.7c-0.2-0.6-0.2-1.6-0.2-2.4L103,20z"/>
			<path class="st1" d="M113,36.2V17.7l2.9-0.5v6.3c0.3-0.1,0.7-0.2,1.1-0.3s0.9-0.1,1.3-0.1c1,0,1.9,0.2,2.5,0.4s1.2,0.7,1.6,1.2
				c0.4,0.5,0.7,1.1,0.9,1.9c0.2,0.7,0.2,1.5,0.2,2.4v7.2h-2.9v-6.7c0-0.7,0-1.3-0.1-1.8c-0.1-0.5-0.2-0.9-0.4-1.2
				c-0.2-0.3-0.5-0.5-0.8-0.6c-0.3-0.1-0.8-0.2-1.3-0.2c-0.4,0-0.8,0-1.2,0.1c-0.4,0.1-0.7,0.2-0.9,0.2v10.2L113,36.2L113,36.2
				L113,36.2z"/>
			<path class="st1" d="M134,28.7c-0.4,1.5-0.8,2.4-1.2,3.8c-0.4,1.4-0.9,2.6-1.3,3.8H129c-0.3-0.8-0.7-1.6-1.1-2.6s-0.7-2-1.1-3.2
				c-0.4-1.1-0.7-2.3-1.1-3.5c-0.4-1.2-0.7-2.5-1.1-3.8h3.1c0.2,0.7,0.4,1.4,0.6,2.2c0.2,0.8,0.5,1.7,0.7,2.5s0.5,1.6,0.7,2.4
				c0.2,0.8,0.2,0.9,0.5,1.6c0.2-0.8,0.3-0.9,0.6-1.7c0.2-0.8,0.6-1.7,0.8-2.5c0.2-0.8,0.4-1.7,0.6-2.5c0.2-0.8,0.3-1.3,0.5-2h2.4
				c0.2,0.7,0.3,1.4,0.5,2.2s0.5,1.5,0.7,2.3s0.5,1.7,0.8,2.5c0.2,0.8,0.3,1,0.5,1.8c0.2-0.7,0.3-0.8,0.6-1.6s0.5-1.6,0.7-2.4
				c0.2-0.8,0.5-1.7,0.7-2.6c0.2-0.8,0.4-1.5,0.6-2.2h3.1c-0.3,1.3-0.7,2.5-1.1,3.8c-0.4,1.2-0.7,2.4-1.1,3.5
				c-0.4,1.1-0.7,2.2-1.1,3.2c-0.4,1-0.7,1.9-1.1,2.6l-2.6,0c-0.4-1.2-0.8-2.5-1.3-3.9C134.6,31.1,134.3,30.2,134,28.7z"/>
			<path class="st1" d="M148.8,23c1,0,1.8,0.1,2.4,0.4s1.2,0.6,1.6,1c0.4,0.4,0.7,1,0.9,1.6c0.2,0.6,0.2,1.3,0.2,2.1V36
				c-0.5,0.1-1.1,0.2-1.9,0.3c-0.9,0.1-2,0.2-3.1,0.2c-0.8,0-1.5,0-2.2-0.2s-1.3-0.6-1.7-0.9c-0.4-0.3-0.7-0.8-1-1.3
				c-0.2-0.5-0.4-1.1-0.4-1.8c0-0.7,0.1-1.4,0.4-1.9c0.3-0.5,0.9-1.1,1.4-1.4c0.5-0.3,0.9-0.6,1.5-0.8c0.6-0.1,1-0.1,1.7-0.1
				c0.3,0,1,0,1.3,0s0.6,0.1,1,0.2c0,0,0-1.8-0.4-2.1c-0.2-0.2-0.5-0.4-0.8-0.6s-0.9-0.1-1.4-0.1c-0.7,0-1,0.1-1.6,0.2
				c-0.4,0.1-0.8,0.2-1.1,0.3c-0.2,0.1-0.4-0.1-0.4-0.3l-0.3-2.2c0.4-0.1,0.9-0.2,1.6-0.4C147.3,23.1,148,23,148.8,23z M149.1,34.1
				c0.9,0,1.6-0.1,2.1-0.2v-3.3c-0.2-0.1-0.4-0.1-0.7-0.2c-0.3-0.1-0.6-0.1-1-0.1c-0.3,0-0.6,0-1,0.1c-0.3,0.1-0.6,0.1-0.9,0.3
				c-0.3,0.1-0.5,0.3-0.6,0.6c-0.2,0.2-0.2,0.5-0.2,0.9c0,0.7,0.2,1.2,0.6,1.5C147.8,34,148.3,34.1,149.1,34.1z"/>
			<path class="st1" d="M167,23.2c-1.3,4.9-2.7,9.4-4.4,13.3c-0.3,0.7-0.7,1.3-1.1,1.8s-0.7,1.1-1.1,1.4c-0.4,0.3-0.9,0.6-1.5,0.7
				c-0.5,0.2-1.1,0.2-1.8,0.2c-0.2,0-0.5,0-0.7,0c-0.6,0-1.2-0.1-1.6-0.5c-0.2-0.2-0.2-0.7-0.1-1l0.3-1.4c0.6,0.2,1.3,0.3,1.9,0.3
				c0.8,0,1.4-0.2,1.8-0.6s0.6-0.7,0.9-1.5c-0.9-1.8-1.9-3.9-2.7-6c-0.9-2.1-1.6-4.4-2.3-6.8l3.4-0.1c0.2,0.7,0.4,1.4,0.6,2.2
				c0.2,0.8,0.5,1.6,0.8,2.4c0.3,0.8,0.6,1.6,0.9,2.5s0.6,1.4,0.9,2.1c0.5-1.5,0.9-2.8,1.3-4.4s0.8-3.2,1.2-4.7L167,23.2L167,23.2z"
				/>
		</g>
		<g>
			<path class="st1" d="M61.7,54.3c-0.1-0.3-0.3-0.6-0.5-1.1c-0.2-0.5-0.4-0.9-0.6-1.5c-0.2-0.5-0.5-1.1-0.7-1.6
				c-0.3-0.6-0.5-1.1-0.7-1.6c-0.2-0.5-0.5-0.9-0.6-1.3c-0.2-0.4-0.4-0.7-0.5-0.9c-0.1,1.4-0.2,3-0.3,4.7c-0.1,1.7-0.2,3.4-0.2,5.1
				h-1.8c0.1-1.1,0.1-2.2,0.2-3.3c0.1-1.1,0.1-2.2,0.2-3.3c0.1-1.1,0.2-2.1,0.2-3.1s0.2-2,0.3-2.9h1.6c0.3,0.5,0.7,1.2,1.1,1.9
				c0.4,0.7,0.8,1.5,1.1,2.3c0.4,0.8,0.8,1.6,1.1,2.4c0.4,0.8,0.7,1.5,1,2.2c0.3-0.6,0.6-1.4,1-2.2c0.4-0.8,0.7-1.6,1.1-2.4
				c0.4-0.8,0.8-1.5,1.1-2.3c0.4-0.7,0.7-1.4,1.1-1.9h1.6c0.4,4.1,0.7,8.3,1,12.6h-1.8c-0.1-1.7-0.1-3.4-0.2-5.1
				c-0.1-1.7-0.2-3.2-0.3-4.7c-0.1,0.2-0.3,0.5-0.5,0.9c-0.2,0.4-0.4,0.8-0.6,1.3c-0.2,0.5-0.5,1-0.7,1.6c-0.3,0.6-0.5,1.1-0.7,1.6
				c-0.2,0.5-0.5,1-0.6,1.5c-0.2,0.5-0.4,0.8-0.5,1.1L61.7,54.3L61.7,54.3z"/>
			<path class="st1" d="M71.1,51.4c0-0.8,0.1-1.6,0.4-2.2c0.2-0.6,0.6-1.1,1-1.5s0.9-0.7,1.4-0.9c0.5-0.2,1.1-0.3,1.6-0.3
				c1.3,0,2.3,0.4,3,1.2c0.7,0.8,1.1,2,1.1,3.6c0,0.1,0,0.2,0,0.3s0,0.2,0,0.3h-6.6c0.1,1,0.4,1.7,0.9,2.3c0.5,0.5,1.3,0.8,2.4,0.8
				c0.6,0,1.1-0.1,1.5-0.2c0.4-0.1,0.7-0.2,1-0.3l0.2,1.4c-0.2,0.1-0.6,0.2-1.1,0.3s-1.1,0.2-1.8,0.2c-0.8,0-1.6-0.1-2.2-0.4
				c-0.6-0.2-1.1-0.6-1.5-1c-0.4-0.4-0.7-1-0.9-1.5C71.1,52.8,71.1,52.1,71.1,51.4z M77.7,50.4c0-0.8-0.2-1.4-0.6-1.9
				c-0.4-0.5-1-0.7-1.7-0.7c-0.4,0-0.7,0.1-1.1,0.2c-0.3,0.2-0.6,0.3-0.8,0.6s-0.4,0.5-0.5,0.8s-0.2,0.6-0.2,1L77.7,50.4L77.7,50.4
				L77.7,50.4z"/>
			<path class="st1" d="M87.8,42.3l1.7-0.3v13.9c-0.4,0.1-0.9,0.2-1.5,0.3c-0.6,0.1-1.3,0.2-2.1,0.2c-0.7,0-1.4-0.1-2-0.3
				c-0.6-0.2-1.1-0.6-1.5-1s-0.7-1-1-1.5c-0.2-0.6-0.3-1.3-0.3-2.1c0-0.7,0.1-1.4,0.3-2c0.2-0.6,0.5-1.1,0.8-1.6
				c0.4-0.4,0.8-0.8,1.4-1c0.6-0.2,1.2-0.4,1.9-0.4c0.6,0,1.1,0.1,1.5,0.2s0.7,0.3,1,0.4L87.8,42.3L87.8,42.3L87.8,42.3z M87.8,48.6
				c-0.2-0.2-0.5-0.3-0.9-0.5s-0.8-0.2-1.3-0.2c-0.5,0-0.9,0.1-1.3,0.3s-0.6,0.4-0.9,0.7c-0.2,0.3-0.4,0.7-0.5,1.1
				c-0.1,0.4-0.2,0.9-0.2,1.4c0,1.1,0.3,1.9,0.8,2.6c0.6,0.6,1.3,0.9,2.2,0.9c0.5,0,0.9,0,1.2-0.1c0.3,0,0.6-0.1,0.7-0.1L87.8,48.6
				L87.8,48.6L87.8,48.6z"/>
			<path class="st1" d="M92.9,44.9c-0.3,0-0.6-0.1-0.8-0.3c-0.2-0.2-0.3-0.5-0.3-0.8s0.1-0.6,0.3-0.8c0.2-0.2,0.5-0.3,0.8-0.3
				s0.6,0.1,0.8,0.3c0.2,0.2,0.3,0.5,0.3,0.8s-0.1,0.6-0.3,0.8C93.5,44.8,93.3,44.9,92.9,44.9z M93.8,56.1h-1.7v-9.5h1.7V56.1z"/>
			<path class="st1" d="M100.5,56.3c-0.8,0-1.5-0.1-2.1-0.4c-0.6-0.2-1.1-0.6-1.5-1c-0.4-0.4-0.7-1-0.9-1.5c-0.2-0.6-0.3-1.3-0.3-2
				s0.1-1.4,0.3-2c0.2-0.6,0.5-1.1,0.9-1.6c0.4-0.4,0.9-0.8,1.5-1.1c0.6-0.2,1.2-0.4,1.9-0.4c0.4,0,0.9,0,1.3,0.1
				c0.4,0.1,0.9,0.2,1.2,0.3l-0.4,1.5c-0.2-0.1-0.6-0.2-0.9-0.3s-0.7-0.1-1.1-0.1c-1,0-1.7,0.3-2.2,0.9c-0.5,0.6-0.8,1.5-0.8,2.6
				c0,0.5,0.1,1,0.2,1.4c0.1,0.4,0.3,0.8,0.6,1.1c0.2,0.3,0.6,0.5,1,0.7c0.4,0.2,0.9,0.2,1.5,0.2c0.5,0,0.9,0,1.2-0.1
				c0.4-0.1,0.7-0.2,0.9-0.3l0.2,1.4c-0.1,0.1-0.2,0.1-0.4,0.2c-0.2,0.1-0.4,0.1-0.6,0.2c-0.2,0-0.5,0.1-0.7,0.1
				C101,56.3,100.8,56.3,100.5,56.3z"/>
			<path class="st1" d="M107.7,46.4c0.7,0,1.3,0.1,1.8,0.3s0.9,0.4,1.1,0.7c0.3,0.3,0.5,0.7,0.6,1.1c0.1,0.4,0.2,0.9,0.2,1.5v5.9
				c-0.2,0-0.4,0.1-0.6,0.1c-0.3,0-0.6,0.1-0.9,0.1c-0.3,0-0.7,0.1-1.1,0.1c-0.4,0-0.8,0-1.2,0c-0.6,0-1.1-0.1-1.5-0.2
				c-0.5-0.1-0.9-0.3-1.2-0.5c-0.3-0.2-0.6-0.6-0.8-0.9c-0.2-0.4-0.3-0.9-0.3-1.4s0.1-1,0.3-1.4c0.2-0.4,0.5-0.7,0.9-0.9
				c0.4-0.2,0.8-0.4,1.3-0.5s1-0.2,1.6-0.2c0.2,0,0.3,0,0.6,0c0.2,0,0.4,0,0.5,0.1c0.2,0,0.3,0.1,0.4,0.1c0.1,0,0.2,0,0.2,0.1v-0.5
				c0-0.3,0-0.6-0.1-0.8s-0.2-0.5-0.3-0.7c-0.2-0.2-0.4-0.4-0.6-0.5c-0.3-0.1-0.6-0.2-1.1-0.2c-0.6,0-1.1,0-1.5,0.1
				c-0.4,0.1-0.7,0.2-1,0.2l-0.2-1.4c0.2-0.1,0.6-0.2,1.1-0.3C106.5,46.5,107.1,46.4,107.7,46.4z M107.8,54.9c0.4,0,0.8,0,1.1,0
				c0.3,0,0.6-0.1,0.8-0.1v-2.8c-0.1-0.1-0.3-0.1-0.6-0.2c-0.3,0-0.6-0.1-1-0.1c-0.2,0-0.5,0-0.8,0.1c-0.3,0-0.6,0.1-0.8,0.2
				c-0.2,0.1-0.4,0.3-0.6,0.5c-0.2,0.2-0.2,0.5-0.2,0.8c0,0.6,0.2,1,0.6,1.3C106.6,54.7,107.1,54.9,107.8,54.9z"/>
			<path class="st1" d="M116.7,56.3c-1.1,0-1.8-0.2-2.3-0.7s-0.7-1.1-0.7-2V42.3l1.7-0.3v11.4c0,0.3,0,0.5,0.1,0.7
				c0.1,0.2,0.1,0.3,0.2,0.4c0.1,0.1,0.2,0.2,0.4,0.2c0.2,0.1,0.4,0.1,0.7,0.1L116.7,56.3z"/>
		</g>
	</g>
</g>
</svg>
