<?xml version="1.0" encoding="iso-8859-1"?>
<!-- Generator: Adobe Illustrator 18.0.0, SVG Export Plug-In . SVG Version: 6.00 Build 0)  -->
<!DOCTYPE svg PUBLIC "-//W3C//DTD SVG 1.1//EN" "http://www.w3.org/Graphics/SVG/1.1/DTD/svg11.dtd">
<svg version="1.1" id="Layer_1" xmlns="http://www.w3.org/2000/svg" xmlns:xlink="http://www.w3.org/1999/xlink" x="0px" y="0px"
	 viewBox="0.935 341.782 592.787 158.014" style="enable-background:new 0.935 341.782 592.787 158.014;" xml:space="preserve">
<g>
	<g>
		<path style="fill:#FFFFFF;" d="M196.037,498.55v-16.83h-1.558v18.077h10.285l-0.623-1.247H196.037L196.037,498.55z
			 M241.54,483.901c-0.935-0.935-1.87-1.558-3.117-1.87c-1.247-0.623-2.493-0.623-3.74-0.623c-1.247,0-2.493,0.312-3.74,0.623
			c-1.247,0.623-2.182,1.247-3.117,1.87c-0.935,0.935-1.558,1.87-2.182,2.805c-0.623,1.247-0.623,2.182-0.623,3.74
			c0,1.247,0.312,2.493,0.623,3.74c0.623,1.247,1.247,2.182,2.182,2.805c0.935,0.935,1.87,1.558,3.117,1.87
			c1.247,0.623,2.493,0.623,3.74,0.623c1.247,0,2.493-0.312,3.74-0.623c1.247-0.623,2.182-1.247,3.117-1.87
			c0.935-0.935,1.558-1.87,2.182-2.805c0.623-1.247,0.623-2.182,0.623-3.74c0-1.247-0.312-2.493-0.623-3.74
			C243.099,485.771,242.164,484.836,241.54,483.901z M242.164,493.875c-0.312,0.935-0.935,1.87-1.558,2.493
			c-0.623,0.623-1.558,1.247-2.493,1.558c-0.935,0.312-2.182,0.623-3.117,0.623c-1.247,0-2.182-0.312-3.117-0.623
			c-0.935-0.312-1.87-0.935-2.493-1.558c-0.623-0.623-1.247-1.558-1.87-2.493c-0.312-0.935-0.623-1.87-0.623-3.117
			c0-1.247,0.312-2.182,0.623-3.117s0.935-1.87,1.87-2.493c0.623-0.623,1.558-1.247,2.493-1.558
			c0.935-0.312,2.182-0.623,3.117-0.623c1.247,0,2.182,0.312,3.117,0.623c0.935,0.312,1.87,0.935,2.493,1.558
			c0.623,0.623,1.247,1.558,1.558,2.493s0.623,1.87,0.623,3.117C242.787,491.693,242.475,492.628,242.164,493.875z M281.122,496.991
			l-14.025-15.583l-0.935-0.623v18.388h1.558V483.59l14.025,15.583l0.935,0.623v-18.7h-1.558V496.991z M319.768,484.525
			c-0.623-0.935-1.87-1.558-3.117-2.182c-1.247-0.623-2.805-0.935-4.675-0.935h-6.233v18.077h6.545c1.87,0,3.428-0.312,4.675-0.935
			c1.247-0.623,2.182-1.247,3.117-2.182c0.623-0.935,1.247-1.87,1.558-2.805c0.312-0.935,0.623-2.182,0.623-3.117
			c0-0.935-0.312-1.87-0.312-3.117C321.015,486.395,320.392,485.46,319.768,484.525z M319.457,493.875
			c-0.312,0.935-0.935,1.87-1.87,2.493c-0.623,0.623-1.558,1.247-2.493,1.558c-0.935,0.312-2.182,0.623-3.117,0.623h-4.987v-15.583
			h4.987c1.247,0,2.493,0.312,3.428,0.623c0.935,0.312,1.87,0.935,2.493,1.558s1.247,1.558,1.558,2.493
			c0.312,0.935,0.623,1.87,0.623,3.117C320.08,492.005,320.08,492.94,319.457,493.875z M359.35,483.901
			c-0.935-0.935-1.87-1.558-3.117-1.87c-1.247-0.623-2.493-0.623-3.74-0.623c-1.247,0-2.493,0.312-3.74,0.623
			c-1.247,0.623-2.182,1.247-3.117,1.87c-0.935,0.935-1.558,1.87-2.182,2.805c-0.623,1.247-0.623,2.182-0.623,3.74
			c0,1.247,0.312,2.493,0.623,3.74c0.623,1.247,1.247,2.182,2.182,2.805c0.935,0.935,1.87,1.558,3.117,1.87
			c1.247,0.623,2.493,0.623,3.74,0.623s2.493-0.312,3.74-0.623c1.247-0.623,2.182-1.247,3.117-1.87
			c0.935-0.935,1.558-1.87,2.182-2.805c0.623-1.247,0.623-2.182,0.623-3.74c0-1.247-0.312-2.493-0.623-3.74
			C360.908,485.771,360.285,484.836,359.35,483.901z M359.973,493.875c-0.312,0.935-0.935,1.87-1.558,2.493
			s-1.558,1.247-2.493,1.558c-0.935,0.312-2.182,0.623-3.117,0.623c-1.247,0-2.182-0.312-3.117-0.623
			c-0.935-0.312-1.87-0.935-2.493-1.558s-1.247-1.558-1.87-2.493c-0.312-0.935-0.623-1.87-0.623-3.117
			c0-1.247,0.312-2.182,0.623-3.117s0.935-1.87,1.87-2.493c0.623-0.623,1.558-1.247,2.493-1.558
			c0.935-0.312,2.182-0.623,3.117-0.623c1.247,0,2.182,0.312,3.117,0.623c0.935,0.312,1.87,0.935,2.493,1.558
			c0.623,0.623,1.247,1.558,1.558,2.493c0.312,0.935,0.623,1.87,0.623,3.117C360.596,491.693,360.596,492.628,359.973,493.875z
			 M399.243,496.991l-14.025-15.583l-0.935-0.623v18.388h1.558V483.59l14.025,15.583l0.935,0.623v-18.7h-1.558V496.991z
			 M56.411,392.584c-1.558-2.182-3.117-3.74-4.987-5.298c-1.87-1.558-3.74-2.493-5.61-3.74c-4.363-2.182-9.35-3.74-15.272-4.363
			c3.74-0.312,7.48-1.247,10.285-2.493c1.247-0.623,2.493-1.247,3.74-2.182s2.493-1.87,3.428-3.117
			c0.935-1.247,1.87-2.493,2.493-4.052c0.623-1.558,0.935-3.428,0.935-5.298c0-2.493-0.623-4.987-1.558-7.168
			c-0.935-2.182-2.805-4.363-4.675-5.922c-2.182-1.558-4.675-3.117-8.103-4.052c-3.117-0.935-6.857-1.558-11.22-1.558H0.935v1.247
			l8.415,2.805v89.448l-8.415,2.182v1.247h24.933c5.298,0,10.285-0.935,14.648-2.493s8.103-3.74,11.22-6.545s5.61-5.922,7.168-9.973
			c1.558-3.74,2.493-7.792,2.493-12.155c0-3.428-0.312-6.545-1.247-9.35C58.905,396.947,57.97,394.765,56.411,392.584z
			 M21.193,346.457h4.987c4.052,0,7.48,1.247,9.973,4.052c2.493,2.805,3.74,6.545,3.74,11.843s-1.247,9.038-3.74,11.843
			c-2.493,2.493-5.922,4.052-9.973,4.052h-4.987V346.457z M46.438,421.257c-1.247,3.428-2.805,6.545-4.675,8.727
			c-1.87,2.493-4.363,4.052-6.857,5.298c-2.805,1.247-5.61,1.87-8.727,1.87h-4.987v-56.1h4.987c3.117,0,5.922,0.623,8.727,1.87
			s4.987,3.117,6.857,5.298c1.87,2.493,3.428,5.298,4.675,8.727s1.87,7.48,1.87,12.155
			C47.996,413.777,47.373,417.828,46.438,421.257z M127.783,421.568c0-1.247,0.312-2.493,0.312-3.74h-1.247
			c-2.493,2.493-4.363,5.298-5.922,8.415c-1.558,3.428-2.493,6.857-2.493,10.597H90.694v-46.75h13.09l6.233,12.467h1.247V375.13
			h-1.247l-6.233,12.467h-13.09v-41.14h26.18c0,3.74,0.935,7.48,2.493,10.597c1.558,3.428,3.428,6.233,5.922,8.415h1.247
			c-0.312-1.247-0.312-2.493-0.312-3.74c0-1.247-0.312-2.182-0.312-3.428c0-1.247,0-2.493,0-3.74c0-1.87,0-3.428,0-4.675
			c0-1.247,0-2.493,0.312-3.428c0-1.247,0.312-2.182,0.312-2.805h-56.1v1.247l8.415,2.182v89.448l-8.415,2.182v1.247h57.346
			c0.312-0.935,0-1.87,0-2.805s-0.312-2.182-0.312-3.428c0-1.247,0-2.805,0-4.675c0-1.247,0-2.493,0-3.74
			C127.783,424.062,127.783,422.815,127.783,421.568z M194.791,437.152c0-0.935-0.312-2.182-0.312-3.428c0-1.247,0-2.805,0-4.675
			c0-1.247,0-2.493,0-3.74c0-1.247,0-2.493,0.312-3.428c0-1.247,0.312-2.493,0.312-3.74h-1.247
			c-2.493,2.493-4.363,5.298-5.922,8.415c-1.558,3.428-2.493,6.857-2.493,10.597h-24.933v-89.76l8.415-2.182v-1.558h-28.362v1.247
			l8.415,2.182v89.448l-8.415,2.182v1.247h54.541C195.102,439.022,195.102,438.087,194.791,437.152z M237.489,396.012h13.713v7.48
			c0,7.168-0.623,12.778-1.558,17.453c-0.935,4.675-2.182,8.415-3.74,11.22c-1.558,2.805-3.428,4.675-5.298,5.922
			c-2.182,1.247-4.052,1.87-6.233,1.87c-2.182,0-4.363-0.623-6.545-2.182s-4.052-4.052-5.922-7.792
			c-1.87-3.74-3.428-8.727-4.363-14.648c-1.247-6.233-1.87-14.025-1.87-23.375c0-9.35,0.623-16.83,1.87-23.063
			c1.247-6.233,2.805-10.908,4.675-14.648c1.87-3.74,4.052-6.233,6.545-7.48c2.805-1.558,5.298-2.182,8.103-2.182
			c4.052,0,8.103,1.87,11.532,5.922c3.428,4.052,6.233,9.662,8.415,17.453h2.182c-0.312-1.558-0.312-2.805-0.623-4.363
			c0-1.247-0.312-2.805-0.312-4.052c0-1.558,0-3.117,0-4.675c0-1.247,0-2.805,0-4.052c0-1.558,0-2.805,0.312-4.052
			c0-1.247,0.312-2.805,0.312-4.052H256.5c-1.247,0.312-2.805,1.247-4.052,2.182c-1.247,1.247-2.182,2.493-3.117,3.74
			c-1.247-1.247-2.493-2.493-3.74-3.428c-1.247-0.935-2.805-1.558-4.675-2.182c-1.87-0.623-3.74-1.247-5.922-1.247
			c-4.052,0-7.792,0.935-11.843,3.117c-3.74,2.182-7.48,5.298-10.597,9.35c-3.117,4.052-5.61,9.35-7.48,15.583
			c-1.87,6.233-2.805,13.713-2.805,22.128c0,8.415,0.935,15.895,2.805,22.128s4.363,11.532,7.48,15.583
			c3.117,4.052,6.545,7.168,10.285,9.35c3.74,2.182,7.48,3.117,11.22,3.117s7.168-0.935,10.597-2.493
			c3.428-1.558,6.545-4.052,9.038-7.48c2.493-3.117,4.675-7.168,6.233-12.155c1.558-4.675,2.493-10.285,2.493-16.518v-10.285
			h-25.557v2.805H237.489z M342.52,434.347c-0.312,0.623-0.935,1.247-1.247,1.87c-0.312,0.312-0.935,0.935-1.558,1.247
			c-0.623,0.312-0.935,0.623-1.558,0.623c-0.935,0-1.558-0.312-2.182-1.247c-0.623-0.623-0.935-1.87-1.247-3.74l-2.805-23.998
			c-0.312-4.363-1.87-7.48-4.363-9.973s-5.298-4.363-8.103-5.61c-3.428-1.558-6.857-2.493-10.908-2.805
			c4.987-0.312,9.35-1.558,13.402-3.428c1.558-0.623,3.428-1.558,4.987-2.805c1.558-1.247,3.117-2.493,4.363-4.052
			s2.182-3.428,3.117-5.61c0.935-2.182,1.247-4.363,1.247-7.168c0-3.428-0.623-6.233-2.182-9.35
			c-1.247-2.805-3.428-5.298-6.233-7.48c-2.805-2.182-6.545-4.052-10.908-5.298c-4.363-1.247-9.35-1.87-15.272-1.87h-25.557v1.247
			l8.415,2.182v89.448l-8.415,2.182v1.247h28.362v-1.247l-8.415-2.182V391.96h5.61c3.117,0,5.922,0.312,8.103,0.935
			c2.182,0.623,4.052,1.558,5.61,3.117c1.558,1.247,2.493,3.117,3.428,5.298c0.935,2.182,1.558,4.675,1.87,7.792l2.805,23.998
			c0.312,2.493,1.558,4.363,3.428,6.233c1.87,1.87,4.675,2.805,7.792,2.805c1.87,0,3.428-0.312,4.675-0.935
			c1.247-0.623,2.493-1.247,3.117-2.182c0.935-0.935,1.87-1.87,2.493-3.117L342.52,434.347z M295.458,389.155v-42.698h5.61
			c6.857,0,12.155,1.87,15.895,5.61s5.61,9.038,5.61,15.895s-1.87,12.155-5.61,15.895c-3.74,3.74-9.038,5.61-15.895,5.61h-5.61
			V389.155z M382.725,341.782h-2.182l-27.115,93.499l-9.038,3.428v1.247h20.882v-1.247l-9.038-3.428l6.857-23.375h28.362
			l7.48,24.622l-8.415,2.182v1.247h28.985v-1.247l-8.415-2.182L382.725,341.782z M364.025,409.102l13.09-45.503l13.713,45.503
			H364.025z M460.952,345.21l9.038,3.428l-19.635,70.748l-22.128-71.995l8.415-2.182v-1.558h-28.985v1.247l8.415,2.182
			l28.985,94.746h2.182l25.557-93.499l9.038-3.428v-1.247h-20.882L460.952,345.21L460.952,345.21z M484.951,345.21l8.415,2.182
			v89.448l-8.415,2.182v1.247h28.362v-1.247l-8.415-2.182v-89.448l8.415-2.182v-1.558h-28.362V345.21z M585.93,436.528
			l-28.985-94.746h-2.182l-27.115,93.499l-9.038,3.428v1.247h20.882v-1.247l-9.038-3.428l6.857-23.375h28.362l7.48,24.622
			l-8.415,2.182v1.247h28.985v-1.247L585.93,436.528z M538.245,409.102l13.09-45.503l13.713,45.503H538.245z"/>
	</g>
</g>
</svg>
