<?xml version="1.0" encoding="iso-8859-1"?>
<!-- Generator: Adobe Illustrator 18.0.0, SVG Export Plug-In . SVG Version: 6.00 Build 0)  -->
<!DOCTYPE svg PUBLIC "-//W3C//DTD SVG 1.1//EN" "http://www.w3.org/Graphics/SVG/1.1/DTD/svg11.dtd">
<svg version="1.1" id="Layer_1" xmlns="http://www.w3.org/2000/svg" xmlns:xlink="http://www.w3.org/1999/xlink" x="0px" y="0px"
	 viewBox="0 0 331 43" style="enable-background:new 0 0 331 43;" xml:space="preserve">
<path id="Combined-Shape" style="fill:#FFFFFF;" d="M7.365,35.752h10.771c4.407,0,6.61-1.885,6.61-5.656
	c0-3.772-2.203-5.656-6.61-5.656H7.365V35.752z M7.365,18.841h9.233c4.063,0,6.097-1.754,6.097-5.264
	c0-3.509-2.033-5.264-6.097-5.264H7.365V18.841z M81.281,13.802h5.429V5.57h0.514l6.041,2.072v6.16h6.383v5.04h-6.383v15.176
	c0,1.941,1.081,2.911,3.249,2.911c0.871,0,1.766-0.112,2.676-0.335l0.172,0.112V41.8c-1.558,0.374-3.154,0.56-4.787,0.56
	c-2.433,0-4.351-0.663-5.755-1.989c-1.407-1.324-2.11-3.255-2.11-5.796V18.841h-5.429h-6.383v15.176
	c0,1.941,1.083,2.911,3.249,2.911c0.873,0,1.766-0.112,2.677-0.335l0.172,0.112V41.8c-1.559,0.374-3.154,0.56-4.787,0.56
	c-2.433,0-4.351-0.663-5.756-1.989c-1.406-1.324-2.108-3.255-2.108-5.796V18.841h-5.3v-5.04h5.3V5.57h0.512l6.041,2.072v6.16H81.281
	z M24.291,20.914c2.013,0.634,3.704,1.773,5.072,3.415c1.368,1.644,2.052,3.64,2.052,5.992c0,3.473-1.282,6.254-3.847,8.345
	c-2.564,2.088-6.032,3.135-10.4,3.135H0.412v-39.2h16.072c3.838,0,6.904,0.934,9.204,2.801c2.298,1.867,3.447,4.238,3.447,7.111
	c0,3.623-1.615,6.347-4.844,8.176V20.914z M62.553,29.536h-21.77c0.152,2.278,0.96,4.08,2.423,5.404
	c1.461,1.326,3.333,1.987,5.613,1.987c3.836,0,6.326-1.64,7.466-4.927l5.644,0.335l0.228,0.281
	c-0.952,3.135-2.577,5.543-4.875,7.224c-2.298,1.679-5.157,2.52-8.577,2.52c-4.293,0-7.741-1.336-10.343-4.006
	c-2.602-2.667-3.904-6.189-3.904-10.556c0-4.256,1.398-7.745,4.189-10.471c2.792-2.724,6.145-4.087,10.058-4.087
	c4.103,0,7.438,1.279,10.003,3.837c2.565,2.557,3.846,6.055,3.846,10.498V29.536z M40.897,24.889h15.559
	c-0.19-2.016-1.007-3.593-2.452-4.731c-1.444-1.139-3.211-1.708-5.3-1.708c-1.976,0-3.675,0.569-5.1,1.708
	C42.18,21.295,41.277,22.873,40.897,24.889z M128.886,29.536h-21.768c0.15,2.278,0.958,4.08,2.423,5.404
	c1.46,1.326,3.332,1.987,5.612,1.987c3.836,0,6.326-1.64,7.466-4.927l5.644,0.335l0.227,0.281c-0.949,3.135-2.576,5.543-4.874,7.224
	c-2.297,1.679-5.155,2.52-8.576,2.52c-4.294,0-7.741-1.336-10.345-4.006c-2.602-2.667-3.904-6.189-3.904-10.556
	c0-4.256,1.398-7.745,4.19-10.471c2.791-2.724,6.144-4.087,10.058-4.087c4.102,0,7.438,1.279,10,3.837
	c2.566,2.557,3.847,6.055,3.847,10.498V29.536z M107.231,24.889h15.558c-0.19-2.016-1.009-3.593-2.45-4.731
	c-1.444-1.139-3.212-1.708-5.3-1.708c-1.976,0-3.675,0.569-5.1,1.708C108.515,21.295,107.61,22.873,107.231,24.889z M140.179,13.802
	v3.473c2.395-2.689,5.129-4.033,8.207-4.033c1.026,0,1.842,0.15,2.45,0.449l-0.855,5.151l-0.228,0.169
	c-0.454-0.112-1.081-0.169-1.88-0.169c-3.344,0-5.906,1.737-7.694,5.207V41.8h-6.497V13.802H140.179z M198.818,13.242
	c4.445,0,8.073,1.37,10.885,4.116c2.811,2.744,4.217,6.224,4.217,10.441c0,4.221-1.406,7.701-4.217,10.445
	c-2.812,2.744-6.44,4.116-10.885,4.116c-4.408,0-8.017-1.372-10.828-4.116c-2.812-2.744-4.218-6.224-4.218-10.445
	c0-4.217,1.406-7.697,4.218-10.441C190.801,14.612,194.41,13.242,198.818,13.242z M198.818,18.898c-2.507,0-4.559,0.793-6.155,2.38
	c-1.596,1.586-2.395,3.759-2.395,6.521c0,2.766,0.799,4.94,2.395,6.526c1.596,1.588,3.648,2.38,6.155,2.38
	c2.545,0,4.617-0.793,6.213-2.38c1.595-1.586,2.393-3.761,2.393-6.526c0-2.762-0.799-4.934-2.393-6.521
	C203.434,19.691,201.363,18.898,198.818,18.898z M224.871,13.802v3.304c2.392-2.576,5.244-3.864,8.548-3.864
	c3.382,0,5.757,1.326,7.125,3.976c2.772-2.65,5.868-3.976,9.289-3.976c2.849,0,5.025,0.747,6.526,2.24
	c1.501,1.494,2.251,3.509,2.251,6.047V41.8h-6.497V23.153c0-2.873-1.386-4.312-4.161-4.312c-2.469,0-4.54,1.252-6.21,3.751V41.8
	h-6.499V23.266c0-2.95-1.348-4.425-4.045-4.425c-2.356,0-4.465,1.381-6.326,4.143V41.8h-6.497V13.802H224.871z M290.336,29.536
	h-21.77c0.152,2.278,0.958,4.08,2.422,5.404c1.461,1.326,3.333,1.987,5.612,1.987c3.838,0,6.326-1.64,7.467-4.927l5.644,0.335
	l0.227,0.281c-0.951,3.135-2.574,5.543-4.874,7.224c-2.298,1.679-5.157,2.52-8.577,2.52c-4.293,0-7.741-1.336-10.344-4.006
	c-2.602-2.667-3.904-6.189-3.904-10.556c0-4.256,1.398-7.745,4.189-10.471c2.792-2.724,6.145-4.087,10.058-4.087
	c4.103,0,7.438,1.279,10.002,3.837c2.566,2.557,3.847,6.055,3.847,10.498V29.536z M268.68,24.889h15.559
	c-0.19-2.016-1.009-3.593-2.452-4.731c-1.444-1.139-3.211-1.708-5.3-1.708c-1.976,0-3.675,0.569-5.1,1.708
	C269.963,21.295,269.059,22.873,268.68,24.889z M308.985,22.369c-0.265-1.38-0.874-2.436-1.823-3.164
	c-0.952-0.728-2.129-1.092-3.535-1.092c-1.102,0-2.049,0.226-2.848,0.672c-0.799,0.449-1.196,1.103-1.196,1.961
	c0,0.895,0.551,1.642,1.652,2.239c1.102,0.599,3.021,1.269,5.755,2.015c3.042,0.785,5.281,1.813,6.726,3.081
	c1.444,1.271,2.166,2.968,2.166,5.097c0,2.653-1.027,4.842-3.077,6.578c-2.052,1.737-4.731,2.605-8.037,2.605
	c-3.381,0-6.116-0.776-8.205-2.325c-2.091-1.546-3.385-3.703-3.879-6.465l0.116-0.337l5.414-0.896
	c0.76,3.174,2.964,4.761,6.611,4.761c1.405,0,2.574-0.298,3.505-0.898c0.931-0.597,1.395-1.418,1.395-2.463
	c0-1.044-0.532-1.876-1.595-2.491c-1.065-0.616-2.945-1.261-5.642-1.932c-2.928-0.708-5.11-1.728-6.556-3.054
	c-1.443-1.324-2.164-3.069-2.164-5.234s0.931-4.004,2.793-5.517c1.86-1.513,4.254-2.267,7.178-2.267c3.042,0,5.521,0.7,7.439,2.1
	c1.918,1.398,3.067,3.406,3.447,6.019l-0.17,0.28L308.985,22.369z M177.507,15.789c1.823,1.699,2.734,4.003,2.734,6.917V41.8h-6.498
	V24.161c0-1.716-0.511-3.033-1.538-3.947c-1.024-0.915-2.374-1.372-4.045-1.372c-1.521,0-2.993,0.401-4.417,1.204
	s-2.631,1.876-3.619,3.221V41.8h-6.497V11.714V0.922h0.466l6.031,2.183v8.608v5.615c1.139-1.156,2.611-2.127,4.417-2.911
	c1.803-0.785,3.694-1.177,5.67-1.177C173.249,13.242,175.682,14.091,177.507,15.789z"/>
<path id="point" style="fill:#EC5F77;" d="M320.862,33.025c1.102-1.066,2.405-1.599,3.908-1.599c1.501,0,2.804,0.533,3.908,1.599
	c1.102,1.069,1.655,2.347,1.655,3.829c0,1.487-0.553,2.776-1.655,3.864c-1.104,1.092-2.407,1.637-3.908,1.637
	c-1.502,0-2.805-0.545-3.908-1.637c-1.104-1.088-1.655-2.378-1.655-3.864C319.207,35.372,319.759,34.094,320.862,33.025"/>
</svg>
