<?xml version="1.0" encoding="iso-8859-1"?>
<!-- Generator: Adobe Illustrator 18.0.0, SVG Export Plug-In . SVG Version: 6.00 Build 0)  -->
<!DOCTYPE svg PUBLIC "-//W3C//DTD SVG 1.1//EN" "http://www.w3.org/Graphics/SVG/1.1/DTD/svg11.dtd">
<svg version="1.1" id="Layer_1" xmlns="http://www.w3.org/2000/svg" xmlns:xlink="http://www.w3.org/1999/xlink" x="0px" y="0px"
	 viewBox="17.979 380.897 532.645 107.417" style="enable-background:new 17.979 380.897 532.645 107.417;" xml:space="preserve">
<g>
	<path style="fill:#06CA77;" d="M65.288,380.907c0.349,0.719,1.12,0.867,1.723,1.216c14.322,8.276,28.633,16.552,42.987,24.775
		c1.163,0.666,1.617,1.374,1.617,2.748c-0.053,16.816-0.053,33.632,0,50.449c0,1.321-0.465,1.966-1.554,2.59
		c-14.459,8.287-28.908,16.605-43.314,24.987c-1.427,0.824-2.442,0.877-3.89,0.032c-14.343-8.35-28.739-16.626-43.135-24.913
		c-0.528-0.307-0.983-0.92-1.744-0.676c0-18.137,0-36.275,0-54.412c0.296-0.127,0.613-0.222,0.888-0.38
		c14.766-8.498,29.531-17.028,44.297-25.557c0.37-0.211,0.92-0.264,0.93-0.867C64.496,380.907,64.887,380.907,65.288,380.907z
		 M75.943,465.401c6.944-4.006,13.582-7.832,20.241-11.637c0.824-0.465,0.698-1.163,0.698-1.871c0-11.373-0.021-22.735,0.032-34.108
		c0-1.152-0.402-1.733-1.374-2.283c-8.445-4.82-16.848-9.713-25.282-14.533c-1.86-1.068-3.636-3.076-5.655-2.854
		c-1.977,0.222-3.784,1.955-5.676,3.023c-0.169,0.095-0.338,0.211-0.507,0.307c-0.454,0.243-0.645,0.602-0.634,1.12
		c0.021,1.268,0.011,2.537,0.011,4.069c2.135-1.226,3.974-2.22,5.75-3.319c0.803-0.497,1.427-0.602,2.304-0.095
		c8.572,4.989,17.165,9.935,25.758,14.861c0.761,0.433,1.131,0.92,1.131,1.85c-0.032,9.925-0.021,19.85-0.021,29.764
		c0,0.602,0.021,1.173-0.624,1.533c-1.12,0.624-2.22,1.279-3.594,2.072c0-1.025,0-1.67,0-2.315c0-9.27-0.032-18.529,0.032-27.798
		c0.011-1.48-0.359-2.346-1.712-3.097c-5.57-3.086-11.288-5.982-16.499-9.608c-4.143-2.885-7.578-3.012-11.267,0.243
		c-0.148,0.127-0.338,0.211-0.507,0.296c-0.518,0.254-0.782,0.613-0.761,1.237c0.042,1.216,0.011,2.442,0.011,4.006
		c2.029-1.152,3.816-2.082,5.507-3.16c1.004-0.645,1.786-0.687,2.843-0.063c5.538,3.266,11.119,6.479,16.721,9.639
		c1.046,0.592,1.427,1.258,1.427,2.473c-0.053,9.132-0.032,18.264-0.032,27.407c0,3.699-0.095,3.826-4.08,5.232
		c0-0.761,0-1.459,0-2.146c0-9.333-0.021-18.666,0.032-27.999c0.011-1.205-0.338-1.913-1.395-2.494
		c-2.885-1.575-5.686-3.277-8.561-4.873c-1.881-1.036-3.668-3.044-5.665-2.843c-1.966,0.201-3.763,1.987-5.665,3.012
		c-0.856,0.465-1.173,1.036-1.152,2.019c0.063,3.287,0.011,6.574,0.032,9.861c0.011,2.156-0.634,4.756,0.338,6.352
		c1.025,1.681,3.636,2.389,5.528,3.562c0.74,0.454,1.374,0.666,2.135,0.063c1.554-1.247,1.955-0.56,1.776,1.078
		c-0.042,0.391,0,0.793-0.011,1.184c-0.032,2.23-2.209,3.435-4.175,2.315c-2.79-1.596-5.538-3.277-8.371-4.788
		c-1.163-0.624-1.49-1.363-1.48-2.642c0.053-10.908,0.032-21.816,0.021-32.724c0-0.698,0.19-1.427-0.18-2.093
		c-0.624-0.137-1.004,0.296-1.437,0.55c-5.919,3.403-11.817,6.849-17.768,10.189c-1.194,0.676-1.585,1.427-1.575,2.78
		c0.053,11.109,0.063,22.207,0,33.315c-0.011,1.363,0.423,2.103,1.596,2.769c8.783,4.999,17.641,9.904,26.234,15.22
		c3.234,1.998,5.549,2.029,8.762,0.011c2.315-1.448,2.674-2.981,2.537-5.232c-0.063-1.089-0.444-1.025-1.194-0.581
		c-1.575,0.941-3.192,1.818-4.756,2.79c-0.698,0.433-1.247,0.444-1.977,0.021c-8.625-5.01-17.271-9.999-25.927-14.967
		c-0.698-0.402-1.025-0.835-1.025-1.691c0.032-9.988,0.021-19.977,0.011-29.965c0-0.602,0-1.152,0.655-1.501
		c1.131-0.602,2.22-1.258,3.562-2.04c0,1.025,0,1.67,0,2.315c0,9.396,0.032,18.793-0.032,28.189c-0.011,1.3,0.402,1.998,1.522,2.621
		c5.602,3.15,11.405,6.056,16.668,9.713c4.048,2.811,7.409,3.076,11.066-0.137c0.19-0.169,0.444-0.285,0.676-0.402
		c0.539-0.264,0.74-0.687,0.729-1.268c-0.021-1.226-0.011-2.452-0.011-3.974c-2.124,1.215-4.016,2.241-5.845,3.361
		c-0.772,0.465-1.353,0.486-2.146,0.021c-5.782-3.372-11.584-6.712-17.398-10.041c-0.772-0.444-1.099-0.941-1.099-1.86
		c0.032-9.925,0.021-19.85,0.021-29.764c0-0.592-0.042-1.173,0.613-1.533c1.12-0.613,2.22-1.279,3.583-2.061
		c0,1.004,0,1.649,0,2.283c0,9.396,0.032,18.793-0.032,28.189c-0.011,1.289,0.381,1.998,1.522,2.611
		c2.833,1.522,5.834,2.885,8.318,4.862c3.985,3.181,7.504,2.97,11.267-0.18c0.772-0.655,1.247-1.131,1.237-2.188
		c-0.053-4.207-0.222-8.424,0.042-12.61c0.18-2.811-0.602-4.524-3.255-5.591c-2.072-0.835-3.816-3.181-6.247-0.581
		c-0.423-1.289-0.243-2.336-0.243-3.361c0-2.04,2.135-3.298,3.879-2.304c2.801,1.585,5.549,3.266,8.392,4.767
		c1.279,0.676,1.67,1.49,1.659,2.928C75.911,441.883,75.943,453.447,75.943,465.401z M71.514,472.778
		c-1.903,1.099-3.689,2.061-5.401,3.139c-0.941,0.592-1.681,0.581-2.664,0.011c-11.119-6.469-22.26-12.895-33.432-19.279
		c-1.11-0.634-1.511-1.321-1.511-2.621c0.053-12.747,0.063-25.483,0-38.23c-0.011-1.437,0.412-2.22,1.67-2.928
		c7.314-4.133,14.575-8.35,21.847-12.557c0.708-0.412,1.617-0.624,1.554-1.776c-0.063-1.216-0.011-2.431-0.011-3.763
		c-0.423,0.148-0.613,0.18-0.772,0.275c-9.153,5.274-18.296,10.57-27.481,15.791c-1.036,0.592-1.025,1.342-1.025,2.272
		c0.011,14.449,0.021,28.897-0.032,43.357c0,1.311,0.433,1.955,1.543,2.59c11.849,6.775,23.729,13.508,35.44,20.516
		c2.685,1.607,4.513,1.459,7.177,0.011c2.854-1.554,3.858-3.382,3.234-6.373C71.651,473.148,71.62,473.085,71.514,472.778z
		 M58.08,396.815c1.723-0.994,3.456-1.892,5.084-2.959c1.131-0.75,2.008-0.708,3.192-0.021
		c11.056,6.447,22.143,12.842,33.263,19.184c1.142,0.655,1.48,1.374,1.48,2.642c-0.042,12.747-0.053,25.494,0.011,38.241
		c0.011,1.363-0.433,2.093-1.607,2.759c-7.42,4.207-14.808,8.498-22.186,12.779c-0.581,0.338-1.406,0.486-1.385,1.459
		c0.032,1.268,0.011,2.547,0.011,4.016c0.528-0.233,0.761-0.317,0.983-0.444c9.048-5.2,18.085-10.432,27.153-15.59
		c1.089-0.624,1.142-1.416,1.142-2.442c-0.011-14.385-0.032-28.781,0.021-43.166c0-1.342-0.381-2.093-1.575-2.78
		c-11.796-6.743-23.612-13.455-35.281-20.41c-2.642-1.575-4.503-1.628-7.198-0.063C58.397,391.657,57.034,393.358,58.08,396.815z"/>
	<path style="fill:#09CB79;" d="M67.582,434.802c0,1.385-1.543,3.107-2.801,3.129c-1.258,0.011-2.685-1.681-2.685-3.181
		c0.011-1.427,1.353-2.97,2.632-2.991C66.028,431.715,67.582,433.375,67.582,434.802z"/>
</g>
<g>
	<path style="fill:#FFFFFF;" d="M171.249,451.893c0.433,0,0.814,0.18,1.142,0.539l3.139,3.456c-2.399,2.833-5.295,5.031-8.709,6.617
		c-3.414,1.585-7.547,2.368-12.388,2.368c-4.186,0-8.001-0.74-11.426-2.23c-3.425-1.48-6.352-3.562-8.773-6.247
		c-2.42-2.674-4.302-5.887-5.634-9.629s-1.998-7.864-1.998-12.356c0-4.492,0.698-8.614,2.082-12.356
		c1.385-3.742,3.34-6.965,5.856-9.65c2.516-2.695,5.528-4.777,9.037-6.268c3.509-1.48,7.388-2.23,11.637-2.23
		c4.164,0,7.832,0.676,11.024,2.04c3.181,1.363,5.982,3.203,8.413,5.538l-2.611,3.699c-0.159,0.275-0.37,0.507-0.634,0.687
		s-0.602,0.275-1.036,0.275c-0.486,0-1.089-0.275-1.797-0.814c-0.708-0.539-1.628-1.142-2.78-1.807
		c-1.142-0.666-2.568-1.268-4.281-1.807c-1.712-0.539-3.826-0.814-6.331-0.814c-3.023,0-5.782,0.539-8.287,1.607
		c-2.505,1.068-4.661,2.611-6.469,4.64c-1.807,2.029-3.213,4.492-4.228,7.409c-1.004,2.917-1.511,6.204-1.511,9.861
		c0,3.721,0.528,7.029,1.575,9.946c1.046,2.917,2.473,5.38,4.281,7.388c1.807,2.008,3.942,3.541,6.405,4.598
		c2.463,1.057,5.126,1.585,7.98,1.585c1.744,0,3.308-0.106,4.714-0.317s2.695-0.539,3.879-0.983
		c1.184-0.444,2.283-1.004,3.308-1.681c1.025-0.676,2.029-1.49,3.044-2.431C170.329,452.094,170.784,451.893,171.249,451.893z"/>
	<path style="fill:#FFFFFF;" d="M189.661,430.5c1.311-2.885,2.907-5.137,4.82-6.765c1.903-1.628,4.228-2.431,6.976-2.431
		c0.867,0,1.712,0.095,2.516,0.296c0.803,0.19,1.511,0.497,2.146,0.92l-0.528,5.538c-0.159,0.698-0.571,1.036-1.226,1.036
		c-0.38,0-0.941-0.085-1.67-0.254c-0.74-0.169-1.564-0.254-2.494-0.254c-1.311,0-2.473,0.19-3.488,0.581
		c-1.025,0.391-1.934,0.962-2.738,1.723s-1.522,1.702-2.167,2.833c-0.645,1.12-1.215,2.41-1.733,3.847v26.635h-7.304v-42.152h4.164
		c0.793,0,1.332,0.148,1.628,0.454c0.296,0.307,0.507,0.835,0.613,1.585L189.661,430.5z"/>
	<path style="fill:#FFFFFF;" d="M248.153,422.055l-23.063,54.592c-0.243,0.55-0.55,0.994-0.92,1.332
		c-0.37,0.338-0.93,0.497-1.691,0.497h-5.39l7.547-16.732l-17.059-39.699h6.289c0.624,0,1.12,0.159,1.49,0.476
		c0.37,0.317,0.624,0.676,0.75,1.057l11.066,26.551c0.433,1.163,0.803,2.389,1.099,3.657c0.381-1.3,0.793-2.537,1.226-3.699
		l10.739-26.509c0.159-0.444,0.444-0.814,0.835-1.099c0.391-0.296,0.835-0.433,1.332-0.433h5.75V422.055z"/>
	<path style="fill:#FFFFFF;" d="M261.492,428.587c1.744-2.188,3.752-3.953,6.046-5.285c2.283-1.332,4.894-1.998,7.832-1.998
		c2.399,0,4.556,0.465,6.49,1.395c1.934,0.93,3.583,2.304,4.936,4.122c1.363,1.818,2.41,4.069,3.139,6.765
		c0.74,2.695,1.099,5.782,1.099,9.28c0,3.107-0.412,6.004-1.226,8.678s-1.998,4.989-3.53,6.944s-3.414,3.499-5.634,4.619
		c-2.22,1.12-4.714,1.681-7.494,1.681c-2.526,0-4.703-0.433-6.511-1.311c-1.807-0.877-3.403-2.082-4.799-3.636v18.645h-7.304
		v-56.431h4.365c1.036,0,1.67,0.518,1.924,1.543L261.492,428.587z M261.862,454.049c1.332,1.829,2.79,3.118,4.365,3.868
		c1.575,0.75,3.351,1.12,5.306,1.12c3.868,0,6.828-1.406,8.9-4.207c2.072-2.801,3.097-6.796,3.097-11.986
		c0-2.748-0.243-5.105-0.719-7.071c-0.476-1.966-1.163-3.583-2.061-4.851c-0.898-1.258-1.998-2.188-3.308-2.769
		c-1.311-0.581-2.79-0.877-4.45-0.877c-2.368,0-4.439,0.56-6.225,1.659c-1.786,1.11-3.425,2.674-4.915,4.703v20.41H261.862z"/>
	<path style="fill:#FFFFFF;" d="M312.48,464.872c-3.266,0-5.771-0.93-7.526-2.79c-1.755-1.86-2.632-4.534-2.632-8.033v-25.8h-4.978
		c-0.433,0-0.803-0.127-1.099-0.391c-0.296-0.264-0.444-0.676-0.444-1.226v-2.96l6.775-0.877l1.67-13.022
		c0.085-0.412,0.264-0.75,0.55-1.015s0.655-0.391,1.12-0.391h3.678v14.523h11.954v5.369h-11.965v25.304
		c0,1.776,0.423,3.097,1.268,3.953c0.846,0.856,1.934,1.289,3.266,1.289c0.761,0,1.416-0.106,1.977-0.317
		c0.56-0.211,1.036-0.433,1.448-0.687c0.412-0.254,0.75-0.476,1.036-0.687c0.285-0.211,0.539-0.317,0.75-0.317
		c0.381,0,0.719,0.233,1.025,0.708l2.124,3.541c-1.247,1.194-2.759,2.125-4.534,2.812
		C316.179,464.534,314.351,464.872,312.48,464.872z"/>
	<path style="fill:#FFFFFF;" d="M346.271,421.389c3.023,0,5.739,0.518,8.16,1.543c2.42,1.025,4.492,2.484,6.204,4.365
		c1.712,1.892,3.023,4.164,3.942,6.849c0.909,2.674,1.363,5.665,1.363,8.963c0,3.329-0.454,6.321-1.363,8.984
		c-0.909,2.664-2.22,4.936-3.942,6.828c-1.712,1.892-3.784,3.34-6.204,4.344c-2.42,1.015-5.147,1.522-8.16,1.522
		c-3.044,0-5.792-0.507-8.223-1.522c-2.431-1.015-4.513-2.463-6.225-4.344c-1.712-1.881-3.023-4.164-3.942-6.828
		c-0.909-2.664-1.363-5.655-1.363-8.984c0-3.298,0.454-6.289,1.363-8.963c0.909-2.674,2.22-4.957,3.942-6.849
		c1.712-1.881,3.784-3.34,6.225-4.365C340.489,421.896,343.227,421.389,346.271,421.389z M346.271,459.006
		c4.08,0,7.124-1.395,9.143-4.186c2.008-2.79,3.023-6.68,3.023-11.669c0-5.021-1.004-8.931-3.023-11.732s-5.063-4.207-9.143-4.207
		c-2.072,0-3.868,0.359-5.412,1.078c-1.533,0.719-2.812,1.765-3.837,3.118c-1.025,1.363-1.786,3.033-2.283,5.01
		c-0.507,1.987-0.75,4.228-0.75,6.722c0,4.989,1.015,8.889,3.044,11.669C339.052,457.611,342.138,459.006,346.271,459.006z"/>
	<path style="fill:#FFFFFF;" d="M407.374,414.973c-0.328,0.581-0.676,1.004-1.036,1.268c-0.37,0.264-0.824,0.391-1.363,0.391
		c-0.571,0-1.194-0.211-1.86-0.645s-1.459-0.909-2.389-1.437c-0.93-0.528-2.008-1.004-3.245-1.437s-2.706-0.645-4.386-0.645
		c-1.522,0-2.854,0.19-3.995,0.56c-1.142,0.37-2.103,0.898-2.875,1.564c-0.772,0.666-1.353,1.459-1.733,2.389
		c-0.381,0.93-0.571,1.945-0.571,3.055c0,1.416,0.391,2.59,1.163,3.541c0.772,0.941,1.807,1.744,3.086,2.41
		c1.279,0.666,2.738,1.258,4.365,1.786c1.628,0.528,3.308,1.089,5.021,1.681c1.712,0.592,3.393,1.289,5.021,2.082
		c1.628,0.793,3.086,1.786,4.365,2.991c1.279,1.205,2.304,2.685,3.086,4.429c0.772,1.744,1.163,3.868,1.163,6.363
		c0,2.716-0.454,5.264-1.363,7.631c-0.909,2.368-2.241,4.439-3.995,6.204c-1.755,1.765-3.9,3.15-6.426,4.164
		s-5.433,1.522-8.699,1.522c-1.881,0-3.731-0.19-5.549-0.56c-1.829-0.37-3.573-0.909-5.243-1.607
		c-1.67-0.698-3.245-1.522-4.714-2.494c-1.469-0.972-2.78-2.051-3.921-3.245l3.224-5.369c0.275-0.391,0.624-0.719,1.057-0.983
		c0.433-0.264,0.898-0.391,1.385-0.391c0.676,0,1.416,0.285,2.209,0.856c0.793,0.571,1.723,1.205,2.812,1.892
		c1.089,0.698,2.357,1.321,3.816,1.892c1.459,0.571,3.203,0.856,5.243,0.856c3.129,0,5.549-0.75,7.261-2.272
		c1.712-1.511,2.568-3.678,2.568-6.511c0-1.585-0.391-2.875-1.163-3.868c-0.772-0.994-1.807-1.839-3.086-2.516
		c-1.279-0.676-2.738-1.258-4.365-1.723c-1.628-0.476-3.298-0.983-4.978-1.543c-1.691-0.55-3.351-1.216-4.978-1.998
		c-1.628-0.772-3.086-1.786-4.365-3.033c-1.279-1.247-2.304-2.812-3.086-4.682c-0.772-1.871-1.163-4.186-1.163-6.934
		c0-2.188,0.433-4.323,1.289-6.405c0.856-2.082,2.103-3.921,3.731-5.538c1.628-1.607,3.647-2.896,6.046-3.868
		s5.147-1.459,8.244-1.459c3.488,0,6.691,0.56,9.629,1.659c2.938,1.11,5.443,2.664,7.515,4.661L407.374,414.973z"/>
	<path style="fill:#FFFFFF;" d="M437.539,420.85c3.097,0,5.93,0.518,8.466,1.543c2.547,1.025,4.725,2.484,6.532,4.365
		c1.807,1.892,3.203,4.186,4.186,6.913c0.983,2.716,1.469,5.76,1.469,9.111c0,3.382-0.486,6.437-1.469,9.153
		c-0.983,2.716-2.378,5.031-4.186,6.944c-1.807,1.913-3.985,3.382-6.532,4.408c-2.547,1.025-5.369,1.543-8.466,1.543
		c-3.129,0-5.972-0.518-8.53-1.543c-2.558-1.025-4.746-2.494-6.553-4.408c-1.807-1.913-3.213-4.228-4.207-6.944
		c-0.994-2.716-1.49-5.771-1.49-9.153c0-3.361,0.497-6.395,1.49-9.111c0.994-2.716,2.399-5.021,4.207-6.913
		c1.807-1.881,3.995-3.34,6.553-4.365C431.567,421.357,434.411,420.85,437.539,420.85z M437.539,456.924
		c3.488,0,6.056-1.194,7.737-3.583c1.67-2.389,2.516-5.877,2.516-10.485s-0.835-8.117-2.516-10.527
		c-1.67-2.41-4.249-3.625-7.737-3.625c-3.541,0-6.162,1.216-7.853,3.636c-1.702,2.431-2.547,5.93-2.547,10.506
		c0,4.577,0.846,8.065,2.547,10.464C431.388,455.719,433.998,456.924,437.539,456.924z"/>
	<path style="fill:#FFFFFF;" d="M501.993,421.516v42.691h-6.162c-1.332,0-2.177-0.624-2.526-1.871l-0.698-3.414
		c-1.712,1.776-3.604,3.213-5.676,4.302c-2.072,1.099-4.503,1.649-7.304,1.649c-2.283,0-4.302-0.391-6.056-1.184
		c-1.755-0.793-3.234-1.903-4.429-3.351c-1.194-1.437-2.103-3.16-2.716-5.137c-0.613-1.987-0.92-4.164-0.92-6.553v-27.132h10.083
		v27.122c0,2.611,0.592,4.629,1.776,6.056c1.184,1.427,2.96,2.146,5.327,2.146c1.744,0,3.372-0.391,4.894-1.184
		c1.522-0.793,2.97-1.881,4.323-3.266v-30.874H501.993L501.993,421.516z"/>
	<path style="fill:#FFFFFF;" d="M522.033,402.374v35.408h1.881c0.676,0,1.216-0.085,1.617-0.275c0.391-0.18,0.793-0.55,1.205-1.099
		l10.411-13.106c0.433-0.581,0.92-1.025,1.448-1.332c0.529-0.307,1.216-0.454,2.061-0.454h9.227l-13.022,15.854
		c-0.93,1.247-1.934,2.209-3.023,2.875c0.571,0.412,1.078,0.898,1.533,1.459c0.444,0.56,0.877,1.152,1.289,1.786l13.962,20.727h-9.1
		c-0.793,0-1.469-0.127-2.04-0.391c-0.571-0.264-1.046-0.74-1.427-1.437l-10.696-16.182c-0.38-0.634-0.772-1.057-1.184-1.247
		c-0.412-0.19-1.025-0.296-1.839-0.296h-2.304v19.554h-10.083v-61.832h10.083V402.374z"/>
</g>
</svg>
