<?xml version="1.0" encoding="utf-8"?>
<!-- Generator: Adobe Illustrator 18.0.0, SVG Export Plug-In . SVG Version: 6.00 Build 0)  -->
<!DOCTYPE svg PUBLIC "-//W3C//DTD SVG 1.1//EN" "http://www.w3.org/Graphics/SVG/1.1/DTD/svg11.dtd">
<svg version="1.1" id="Layer_1" xmlns="http://www.w3.org/2000/svg" xmlns:xlink="http://www.w3.org/1999/xlink" x="0px" y="0px"
	 viewBox="0.9 17.5 42.4 8.9" enable-background="new 0.9 17.5 42.4 8.9" xml:space="preserve">
<g>
	<path fill="#FFFFFF" d="M20.7,23.1c0.3-0.6,0.6-1.1,0.9-1.7c0.5-1,1.1-2,1.6-3c0.1-0.1,0.1-0.2,0.3-0.2c0.2,0,0.1,0.2,0.1,0.3
		c0.2,1.8,0.5,3.5,0.7,5.3c0,0.2,0.1,0.3,0.1,0.5c0.1,0.1,0,0.2-0.1,0.2c-0.3,0-0.6,0-0.9,0c-0.1,0-0.2,0-0.2-0.1
		c0.1-1.3-0.3-2.6-0.4-3.9c-0.1,0-0.1,0.1-0.2,0.2c-0.6,1.2-1.3,2.4-1.9,3.6c-0.1,0.1-0.1,0.2-0.3,0.2c-0.2,0-0.3-0.1-0.3-0.2
		c-0.6-1.2-1.3-2.5-1.9-3.7c0-0.1-0.1-0.2-0.2-0.2c-0.1,0.6-0.2,1.2-0.2,1.8c-0.1,0.8-0.3,1.5-0.2,2.3c0,0.1,0,0.2-0.2,0.2
		c-0.5,0-0.5,0-0.4-0.5c0.2-0.9,0.3-1.9,0.4-2.8c0.1-0.9,0.2-1.8,0.4-2.7c0-0.1,0-0.3,0.2-0.3c0.2,0,0.2,0,0.3,0.2
		c0.8,1.5,1.5,3,2.3,4.4C20.6,22.9,20.6,22.9,20.7,23.1z"/>
	<path fill="#FFFFFF" d="M37.9,18.1c1.1,0,2.1-0.1,3.1,0.2c1,0.3,1.5,1.1,1.3,2c-0.2,0.7-0.8,1-1.5,1.2c-0.1,0-0.2,0-0.2,0
		c0.9,1,1.9,1.9,2.9,2.9c-0.4,0-0.8,0-1.1,0c-0.1,0-0.2-0.1-0.2-0.2c-0.8-0.7-1.5-1.5-2.2-2.3c-0.1-0.2-0.3-0.3-0.5-0.4
		c-0.1-0.1-0.2-0.1-0.2,0.1c0,0.7,0,1.4,0,2.1c0,0.1,0,0.3,0.1,0.4c0.1,0.3,0,0.3-0.2,0.3c-0.3,0-0.6,0-0.8,0c-0.1,0-0.2,0-0.1-0.2
		c0.1-0.3,0.1-0.5,0.1-0.8c0-1.4,0-2.8,0-4.2C38.1,18.8,38.1,18.5,37.9,18.1z M39.1,19.8c0,0.4,0,0.8,0,1.2c0,0.2,0.1,0.2,0.2,0.2
		c0.3,0,0.6,0,0.8,0c0.6-0.1,1-0.4,1.1-1c0.1-0.6-0.1-1.2-0.7-1.5c-0.4-0.2-0.8-0.2-1.3-0.2c-0.2,0-0.2,0-0.2,0.2
		C39.1,19.1,39.1,19.4,39.1,19.8z"/>
	<path fill="#FFFFFF" d="M31.1,24.4c-0.4,0-0.8,0-1.1,0c-0.2,0-0.2-0.1-0.3-0.2c-0.3-0.6-0.6-1.3-0.8-1.9c-0.1-0.2-0.2-0.2-0.3-0.2
		c-0.5,0-1.1,0-1.6,0c-0.2,0-0.3,0.1-0.3,0.2c-0.3,0.6-0.5,1.2-0.8,1.8c-0.1,0.2-0.2,0.3-0.5,0.3c-0.1,0-0.3,0-0.5,0
		c0.3-0.4,0.5-0.8,0.7-1.2c0.7-1.6,1.4-3.2,2.1-4.8c0-0.1,0.1-0.2,0.2-0.2c0.2,0,0.2,0.1,0.2,0.2c0.7,1.6,1.5,3.2,2.2,4.8
		C30.5,23.6,30.7,24,31.1,24.4z M27.7,19.8c-0.3,0.7-0.6,1.3-0.8,1.9c0.5,0,1,0,1.5,0c0.1,0,0.2,0,0.1-0.2
		C28.2,20.9,27.9,20.4,27.7,19.8z"/>
	<path fill="#FFFFFF" d="M37.6,24.4c-0.4,0-0.8,0-1.2,0c-0.2,0-0.2-0.1-0.3-0.2c-0.3-0.6-0.6-1.3-0.9-1.9c-0.1-0.1-0.1-0.2-0.3-0.2
		c-0.6,0-1.1,0-1.7,0c-0.2,0-0.2,0-0.3,0.2c-0.3,0.6-0.5,1.2-0.8,1.8c-0.1,0.2-0.2,0.3-0.5,0.3c-0.1,0-0.3,0-0.4,0
		c0.4-0.6,0.6-1.2,0.9-1.8c0.6-1.4,1.3-2.8,1.9-4.2c0-0.1,0-0.2,0.2-0.3c0.2,0,0.2,0.1,0.3,0.2c0.7,1.7,1.5,3.3,2.2,5
		C37,23.7,37.3,24.1,37.6,24.4z M33.3,21.7c0.4,0,0.8,0,1.2,0c0.5,0,0.5,0,0.3-0.5c-0.2-0.5-0.4-0.9-0.6-1.4
		C33.9,20.4,33.6,21,33.3,21.7z"/>
	<path fill="#FFFFFF" d="M16.4,23.8C16.4,23.8,16.5,23.9,16.4,23.8c-0.1,0.6-0.1,0.6-0.6,0.6c-1.2,0-2.4,0-3.6,0
		c-0.2,0-0.3,0-0.2-0.2c0.1-0.2,0.1-0.4,0.1-0.6c0-1.5,0-3.1,0-4.6c0-0.2,0-0.5-0.1-0.7c-0.1-0.1,0-0.2,0.1-0.2c1.3,0,2.7,0,4,0
		c0.1,0,0.2,0,0.2,0.1c0,0.2,0.1,0.3,0,0.5c0,0.1-0.2,0-0.2-0.1c-0.2-0.1-0.4-0.1-0.6-0.1c-0.7,0-1.4,0-2.1,0c-0.2,0-0.2,0-0.2,0.2
		c0,0.7,0,1.4,0,2c0,0.2,0.1,0.2,0.2,0.2c0.8,0,1.5,0,2.3,0c0.1,0,0.3-0.1,0.2,0.1c0,0.1,0,0.4-0.3,0.4c-0.5,0-1,0-1.5,0
		c-0.3,0-0.8-0.1-0.9,0.1c-0.2,0.2,0,0.6-0.1,0.9c0,0.4,0,0.9,0,1.3c0,0.2,0,0.2,0.2,0.2c0.8,0,1.6,0,2.4,0
		C15.9,24,16.2,23.9,16.4,23.8z"/>
</g>
<g>
	<path fill="#FFFFFF" d="M9.9,26.5c-3,0-6,0-8.9,0c0-0.7,0-1.4,0-2.1c0-0.5,0-0.9,0-1.4C1,23,1,23,1.1,23c0.8,0.1,1.6,0.1,2.3,0.3
		c1.2,0.2,2.5,0.5,3.7,1c0,0,0.1,0,0.1,0.1c0,0,0,0,0.1,0c0,0,0,0,0,0c0,0,0,0,0,0c-0.3-0.2-0.7-0.4-1-0.6c0,0,0,0-0.1,0
		c0,0,0,0,0.1,0c0.5-0.2,1.1-0.4,1.6-0.5c0.7-0.2,1.3-0.4,2-0.5c0,0,0,0.1,0,0.1C9.9,23.9,9.9,25.2,9.9,26.5z M3.8,25.7
		C3.8,25.7,3.8,25.7,3.8,25.7c-0.2-0.4-0.4-0.8-0.6-1.1c0,0,0,0-0.1,0c0,0,0,0,0,0.1c0,0.2-0.1,0.4-0.1,0.6C3,25.5,3,25.7,3,25.9
		c0,0.1,0,0.1,0.1,0.1c0,0,0,0,0,0c0-0.2,0-0.4,0.1-0.5c0-0.1,0-0.3,0.1-0.4c0,0,0,0,0,0.1c0.1,0.3,0.3,0.6,0.4,0.9
		c0,0,0,0.1,0.1,0.1c0,0,0.1,0,0.1-0.1c0.1-0.3,0.3-0.5,0.4-0.8c0,0,0,0,0,0c0,0.3,0.1,0.6,0.1,0.9c0,0,0,0,0,0c0.1,0,0.1,0,0.2,0
		c0,0,0,0,0,0c0,0,0-0.1,0-0.1c-0.1-0.4-0.1-0.8-0.2-1.2c0,0,0-0.1,0-0.1c0,0,0,0-0.1,0c-0.1,0.2-0.2,0.5-0.4,0.7
		C4,25.5,3.9,25.6,3.8,25.7z M7.8,24.6c0,0.1,0,0.2,0,0.3c0,0.3,0,0.7,0,1c0,0.1,0,0.1,0,0.2c0,0,0,0,0,0c0.1,0,0.1,0,0.2,0
		c0,0,0.1,0,0.1-0.1c0,0,0-0.1,0-0.1c0-0.2,0-0.3,0-0.5c0,0,0,0,0.1,0c0,0,0.1,0.1,0.1,0.1c0.2,0.2,0.3,0.4,0.5,0.5c0,0,0,0,0.1,0
		c0.1,0,0.2,0,0.3,0c-0.2-0.2-0.4-0.5-0.7-0.7c0,0,0,0,0.1,0c0.2,0,0.3-0.1,0.4-0.3c0.1-0.2-0.1-0.4-0.3-0.5
		C8.3,24.6,8.1,24.6,7.8,24.6z M6.2,26c-0.1-0.1-0.1-0.2-0.2-0.3c-0.2-0.4-0.3-0.8-0.5-1.1c0,0,0-0.1,0-0.1c0,0,0,0-0.1,0.1
		c-0.2,0.4-0.3,0.8-0.5,1.1c0,0.1-0.1,0.2-0.2,0.3c0,0,0.1,0,0.1,0C4.9,26.1,5,26,5,26c0.1-0.1,0.1-0.3,0.2-0.4c0,0,0-0.1,0.1-0.1
		c0.1,0,0.3,0,0.4,0c0,0,0.1,0,0.1,0.1c0.1,0.1,0.1,0.3,0.2,0.4c0,0,0,0,0.1,0C6.1,26,6.1,26,6.2,26z M7.8,26
		c-0.1-0.1-0.1-0.2-0.2-0.3c-0.2-0.4-0.3-0.8-0.5-1.2c0,0,0-0.1-0.1-0.1c0,0,0,0-0.1,0.1c-0.1,0.3-0.3,0.7-0.4,1
		c-0.1,0.1-0.1,0.3-0.2,0.4c0,0,0.1,0,0.1,0c0.1,0,0.1,0,0.1-0.1c0.1-0.1,0.1-0.3,0.2-0.4c0,0,0,0,0.1,0c0.1,0,0.3,0,0.4,0
		c0,0,0.1,0,0.1,0c0.1,0.1,0.1,0.3,0.2,0.4c0,0,0,0,0.1,0C7.6,26,7.7,26,7.8,26z M2.8,25.9c-0.1,0-0.1,0-0.2,0c-0.2,0-0.4,0-0.6,0
		c0,0,0,0,0,0c0-0.1,0-0.2,0-0.3c0-0.1,0-0.2,0-0.2c0,0,0.1,0,0.2,0c0.1,0,0.2,0,0.3,0c0.1,0,0.1-0.1,0.1-0.1c0,0,0,0-0.1,0
		c-0.2,0-0.4,0-0.5,0c0,0-0.1,0-0.1-0.1c0-0.2,0-0.3,0-0.5c0,0,0-0.1,0.1-0.1c0.2,0,0.3,0,0.5,0c0.1,0,0.1,0,0.1,0c0,0,0,0,0.1,0
		c0,0,0-0.1,0-0.1c0,0,0,0,0,0c-0.3,0-0.6,0-0.9,0c0,0,0,0,0,0c0,0,0,0.1,0,0.2c0,0.4,0,0.7,0,1.1c0,0,0,0.1,0,0.1
		c0,0.1,0,0.1,0,0.1c0.3,0,0.6,0,0.8,0C2.8,26,2.8,26,2.8,25.9C2.8,25.9,2.8,25.9,2.8,25.9z"/>
	<path fill="#FFFFFF" d="M2.8,17.5c0,0.1,0,0.1,0.1,0.2c0.5,1.6,1.1,3.2,1.6,4.8c0,0,0,0,0,0.1c-0.1-0.1-0.2-0.2-0.3-0.2
		c-0.9-0.8-1.7-1.6-2.6-2.4c-0.3-0.2-0.5-0.5-0.8-0.7c0-0.5,0-1.1,0-1.6C1.6,17.5,2.2,17.5,2.8,17.5z"/>
	<path fill="#FFFFFF" d="M9.9,19.1c-0.2,0.2-0.4,0.3-0.5,0.5c-0.8,0.8-1.6,1.5-2.4,2.2c-0.2,0.2-0.4,0.4-0.6,0.6c0,0,0,0,0,0
		c0,0,0,0,0-0.1c0.6-1.6,1.1-3.2,1.7-4.8c0,0,0,0,0-0.1c0.6,0,1.3,0,1.9,0C9.9,18.1,9.9,18.6,9.9,19.1z"/>
	<path fill="#FFFFFF" d="M5.4,17.5c0,0.3,0,0.5,0,0.8c0,0.7-0.1,1.4-0.1,2.2c0,0.6-0.1,1.2-0.1,1.8c0,0,0,0,0,0c0,0,0,0,0,0
		c-0.7-1.6-1.4-3.1-2.2-4.7c0,0,0,0,0,0C3.8,17.5,4.6,17.5,5.4,17.5z"/>
	<path fill="#FFFFFF" d="M7.9,17.5C7.9,17.6,7.9,17.6,7.9,17.5c-0.7,1.6-1.4,3.2-2.1,4.7c0,0,0,0,0,0c0-0.2,0-0.3,0-0.5
		c0-0.5-0.1-1.1-0.1-1.6c0-0.8-0.1-1.7-0.1-2.5c0,0,0-0.1,0-0.1C6.3,17.5,7.1,17.5,7.9,17.5z"/>
	<path fill="#FFFFFF" d="M9.9,22.2c-1,0.1-2,0.3-3,0.6c-0.1,0-0.1,0-0.2,0c0,0,0,0,0-0.1c1-1.2,2-2.3,3.1-3.5c0,0,0,0,0,0
		c0,0.4,0,0.8,0,1.2C9.9,21.1,9.9,21.6,9.9,22.2z"/>
	<path fill="#FFFFFF" d="M4.1,22.9c-0.1,0-0.3-0.1-0.5-0.1c-0.6-0.2-1.3-0.3-1.9-0.4c-0.2,0-0.5-0.1-0.7-0.1c-0.1,0-0.1,0-0.2,0
		c0-1,0-2,0-3c0.2,0.2,0.3,0.3,0.5,0.5C2.3,20.8,3.2,21.8,4.1,22.9C4.1,22.8,4.1,22.8,4.1,22.9C4.1,22.9,4.1,22.9,4.1,22.9z"/>
	<path fill="#FFFFFF" d="M6.3,22.5C6.3,22.5,6.3,22.5,6.3,22.5C6.3,22.5,6.3,22.5,6.3,22.5C6.3,22.5,6.3,22.5,6.3,22.5
		C6.3,22.5,6.3,22.5,6.3,22.5z"/>
	<path fill="#FFFFFF" d="M4.1,22.9C4.2,22.9,4.2,22.9,4.1,22.9C4.1,22.9,4.1,22.9,4.1,22.9C4.1,22.9,4.1,22.9,4.1,22.9z"/>
	<path fill="#FFFFFF" d="M8.1,25c0-0.1,0-0.2,0-0.3c0,0,0-0.1,0.1-0.1c0.1,0,0.2,0,0.3,0.1c0.1,0.1,0.2,0.2,0.2,0.3
		c0,0.1-0.1,0.2-0.3,0.2c-0.1,0-0.1,0-0.2,0c0,0-0.1,0-0.1-0.1C8.1,25.2,8.1,25.1,8.1,25z"/>
	<path fill="#FFFFFF" d="M5.4,25c0.1,0.1,0.1,0.3,0.2,0.4c0,0,0,0,0,0c-0.1,0-0.2,0-0.4,0C5.3,25.3,5.4,25.1,5.4,25z"/>
	<path fill="#FFFFFF" d="M6.8,25.4C6.8,25.3,6.9,25.1,7,25c0.1,0.1,0.1,0.2,0.2,0.3c0,0.1,0,0.1-0.1,0.1C7,25.4,6.9,25.4,6.8,25.4z"
		/>
</g>
</svg>
