<?xml version="1.0" encoding="iso-8859-1"?>
<!-- Generator: Adobe Illustrator 18.0.0, SVG Export Plug-In . SVG Version: 6.00 Build 0)  -->
<!DOCTYPE svg PUBLIC "-//W3C//DTD SVG 1.1//EN" "http://www.w3.org/Graphics/SVG/1.1/DTD/svg11.dtd">
<svg version="1.1" id="Layer_1" xmlns="http://www.w3.org/2000/svg" xmlns:xlink="http://www.w3.org/1999/xlink" x="0px" y="0px"
	 viewBox="17.021 351.906 563.067 176.086" style="enable-background:new 17.021 351.906 563.067 176.086;" xml:space="preserve">
<g id="logo">
	<path style="fill:#B6DBD1;" d="M507.591,392.83l-0.152-37.461c0,0-0.608-5.471-7.979-2.66l-37.461,21.808l-31.686,18.009
		c-2.128,1.216-3.647,3.267-4.027,5.699c-0.152,0.76-0.228,1.672-0.228,2.66c0,5.091,0.532,79.786,0.532,79.786
		s0.608,6.991,5.547,5.091c4.787-1.824,35.942-20.136,35.942-20.136l36.854-21.124c0,0,3.191-1.368,3.039-5.091
		C507.895,435.914,507.591,392.83,507.591,392.83z M435.708,473.376l-0.38-72.567l63.069-36.702l0.228,72.187L435.708,473.376z"/>
	<path style="fill:#B6DBD1;" d="M531.831,408.027l-0.152-37.461c0,0-0.608-5.471-7.979-2.66l-37.461,21.808l-31.686,18.009
		c-2.128,1.216-3.647,3.267-4.027,5.699c-0.152,0.76-0.228,1.672-0.228,2.66c0,5.091,0.532,79.786,0.532,79.786
		s0.304,7.371,5.547,5.091c4.711-2.052,35.942-20.137,35.942-20.137l36.854-21.124c0,0,3.191-1.368,3.039-5.091
		C532.059,451.112,531.831,408.027,531.831,408.027z M459.872,488.573l-0.38-72.567l63.069-36.702l0.228,72.187L459.872,488.573z"/>
	<path style="fill:#B6DBD1;" d="M556.147,420.945l-0.152-37.461c0,0-0.608-5.471-7.979-2.66l-37.461,21.808l-31.686,18.009
		c-2.128,1.216-3.647,3.267-4.027,5.699c-0.152,0.76-0.228,1.672-0.228,2.66c0,5.091,0.532,79.786,0.532,79.786
		s0.152,7.143,5.547,5.091c4.787-1.824,35.942-20.136,35.942-20.136l36.854-21.124c0,0,3.191-1.368,3.039-5.091
		C556.375,464.029,556.147,420.945,556.147,420.945z M484.187,501.491l-0.38-72.567l63.069-36.702l0.228,72.187L484.187,501.491z"/>
	<path style="fill:#B6DBD1;" d="M579.703,434.623l-0.152-37.461c0,0-0.608-5.471-7.979-2.66l-37.461,21.808l-31.686,18.009
		c-2.128,1.216-3.647,3.267-4.027,5.699c-0.152,0.76-0.228,1.672-0.228,2.66c0,5.091,0.532,79.786,0.532,79.786
		s0.304,7.371,5.547,5.091c4.711-2.052,35.942-20.136,35.942-20.136l36.854-21.124c0,0,3.191-1.368,3.039-5.091
		C579.931,477.707,579.703,434.623,579.703,434.623z M507.743,515.169l-0.38-72.567l63.069-36.702l0.228,72.187L507.743,515.169z"/>
</g>
<g id="text">
	<g id="_x31_st">
		<path style="fill:#FFFFFF;" d="M387.076,398.301c-0.152-1.14-2.052-3.191-3.039-3.799c-0.988-0.608-4.331-0.912-6.155,0.228
			c-1.596,0.988-2.812,3.723-3.799,6.155s-0.532,1.52-0.76,2.128c-0.228,0.608-3.571,0.38-3.571,0.38l-2.508-0.836l0.152,0.228
			l0.076-8.586l-3.875,0.076l-0.228,8.966c0,0-4.407,0.152-5.319,0.076c-0.912-0.076-1.824-0.532-1.824-0.532l0.076-8.435
			l-0.304-0.076l-3.495-0.076l0.076,8.814l-12.234-0.076c0,0,0,0,0-0.836c0-0.836-0.532-2.584-1.672-4.939s-4.407-4.787-4.407-4.787
			l-2.508,2.888c0.836,0.684,3.875,3.723,5.015,5.547c1.14,1.824-1.064,2.66-1.064,2.66l-7.675-0.076l0.152,3.419
			c0,0,7.295,0.076,8.662-0.228c1.368-0.304,2.204-1.368,2.584-0.912c0.38,0.456,2.66,1.216,2.66,1.216l5.091,0.076
			c0,0,6.459,0.076,7.143-0.228s0.836-1.292,0.836-1.292l0.532,0.38c0,0,0.988,0.836,2.204,1.14
			c1.216,0.304,6.383-0.076,7.143-0.304c0.76-0.228,1.216-0.988,1.216-0.988s0.456,0.304,1.596,0.912
			c1.14,0.608,3.267,0.38,4.559,0.456c1.292,0.076,1.976-0.608,1.976-0.608l1.14-1.672l0.304,0.304
			c0.304,0.304,1.14,0.912,1.52,1.14l1.748,0.532c0.684,0.304,1.368,0.38,2.128,0.304l1.976-0.228l2.508-1.14l1.52-2.432l0.228-2.66
			C387.456,400.429,387.152,399.441,387.076,398.301z M383.885,402.556c-0.456,1.064-1.748,0.988-3.799,0.988
			c-2.052,0-3.343-1.14-3.343-1.14s1.444-2.66,2.052-3.647c0.228-0.38,0.684-0.76,1.14-0.836c2.052-0.608,2.28-0.152,3.419,0.836
			C384.721,399.897,384.341,401.492,383.885,402.556z"/>
		<circle style="fill:#FFFFFF;" cx="352.046" cy="389.107" r="2.128"/>
		<circle style="fill:#FFFFFF;" cx="356.682" cy="389.031" r="2.128"/>
		<circle style="fill:#FFFFFF;" cx="365.344" cy="389.183" r="2.128"/>
		<path style="fill:#FFFFFF;" d="M324.463,394.882l-0.76,3.647l-1.9-0.608c0,0-1.748-0.228-2.356-0.152
			c-0.608,0.076-1.444,0.76-1.368,1.52s0.684,1.52,1.216,1.9c0.532,0.38,2.432,1.9,2.66,2.432c0,0,1.216,1.292,1.216,3.039
			c0,1.52-0.684,2.887-1.9,3.951s-1.748,1.672-3.647,2.204c-1.9,0.532-4.559,0.76-6.231,0.608c-1.672-0.152-5.167-0.76-7.143-3.495
			c-1.976-2.736-1.748-4.103-1.824-5.547c-0.152-1.444,1.976-5.775,1.976-5.775l3.115,1.824l0.152,0.076
			c0,0-0.988,2.052-1.368,3.267c-0.228,0.836,0,3.039,0.608,3.723c0.684,0.76,1.9,1.9,3.267,2.128
			c1.368,0.228,3.799,0.38,5.091,0.076c1.292-0.304,2.508-0.608,3.191-1.444c0.684-0.836,1.368-1.444-0.152-3.039
			c-1.52-1.672-3.039-2.964-3.419-3.799c-0.532-0.988-0.912-4.407,1.444-6.155C318.156,393.894,322.64,393.59,324.463,394.882z"/>
	</g>
	<g id="_x32_nd">
		<path style="fill:#FFFFFF;" d="M285.254,383.939"/>
		<polygon style="fill:#FFFFFF;" points="285.254,383.939 288.978,383.863 288.978,406.887 285.33,406.887 		"/>
		<path style="fill:#FFFFFF;" d="M275.984,383.863l3.419,0.076v23.024h-8.814c0,0-1.292,0.152-2.204-0.608
			c-0.912-0.76-0.912-0.76-0.912-0.76s-1.216,0.988-1.596,1.064c-0.38,0.076-5.395,0.076-5.395,0.076s-1.9-0.836-2.128-0.988
			c-0.228-0.152-0.532,0.532-1.216,0.836s-5.395,0.228-5.395,0.228s-1.9-0.684-2.052-0.836c-0.152-0.152-1.216,0.532-1.216,0.532
			l-1.064,0.456l-13.298,0.076c0,0-2.963-0.228-3.039-3.571c-0.076-3.267,0-19.149,0-19.149h3.419v17.477c0,0,0,1.52,0.836,1.52
			c0.836,0.076,10.41,0,10.41,0s0.836-0.228,0.912-0.836c0.076-0.608,0-5.395,0-5.395h3.799v5.319c0,0,0.228,0.76,1.596,0.76
			c1.368,0,2.887,0,2.887,0s0.304,0,0.456-0.456c0.228-0.38,0-6.915,0-6.915h3.647l-0.076,6.231c0,0,0,1.14,2.28,1.14
			s2.964-0.076,2.964-0.076v-8.89h3.723v8.131c0,0,0.152,0.912,2.204,0.912s5.699,0,5.699,0L275.984,383.863"/>
		<circle style="fill:#FFFFFF;" cx="255.543" cy="389.183" r="2.128"/>
		<circle style="fill:#FFFFFF;" cx="259.875" cy="389.107" r="2.128"/>
		<circle style="fill:#FFFFFF;" cx="257.595" cy="384.927" r="2.128"/>
		<path style="fill:#FFFFFF;" d="M221.577,394.122h3.875v11.55c0,0-0.456,7.979-8.662,7.827v-3.647c0,0,2.66,0.076,3.571-0.76
			c0.912-0.836,1.292-1.368,1.368-3.115C221.729,404.152,221.577,394.122,221.577,394.122z"/>
		<path style="fill:#FFFFFF;" d="M212.155,395.034c-1.14-1.216-3.267-1.368-4.483-1.368s-3.191,0.684-4.255,1.52
			c-1.064,0.836-2.052,2.887-2.28,5.015s0.988,2.963,0.988,2.963s-5.471,0.152-6.307,0.152c-0.684,0-0.684-0.912-0.684-0.912v-10.79
			h-3.875l-0.076,1.9l-0.608,0.152c-3.951,0.228-6.687,2.811-7.599,3.875c-0.912,1.064-1.216,2.356-0.988,4.255
			c0.228,1.748,2.204,3.039,3.343,3.647c0.456,0.228,0.988,0.38,1.52,0.38h1.52c1.292,0,3.419-0.912,3.419-0.912
			c0.988,2.128,2.887,1.976,2.887,1.976l19.377,0.152c0,0,0-6.079,0-7.903C214.055,397.313,213.219,396.173,212.155,395.034z
			 M191.335,401.568c0,0-1.596,0.988-2.66,1.064c-1.064,0.076-1.976-0.304-2.584-0.76c-0.608-0.456-0.912-1.824,0-2.888
			c0.912-1.14,2.812-2.128,5.319-2.356L191.335,401.568z M207.976,403.24c-0.912,0-1.824-0.304-2.432-0.836
			c-0.38-0.38-0.684-0.836-0.836-1.368c-0.304-1.672,0.684-3.115,1.52-3.495c2.28-0.836,3.571,0.684,3.571,0.684
			c0.608,1.064,0.684,1.9,0.684,3.115v1.9L207.976,403.24L207.976,403.24z"/>
		<circle style="fill:#FFFFFF;" cx="209.799" cy="389.107" r="2.128"/>
		<circle style="fill:#FFFFFF;" cx="205.164" cy="389.107" r="2.128"/>
		<circle style="fill:#FFFFFF;" cx="192.93" cy="388.499" r="2.128"/>
		<circle style="fill:#FFFFFF;" cx="188.447" cy="388.347" r="2.128"/>
	</g>
	<g id="_x33_rd">
		<path style="fill:#FFFFFF;" d="M373.171,450.656H357.67v-3.647l6.459-0.076l0.076-13.07l3.799-0.076l-0.076,13.07l4.103,0.076
			V427.48h4.027v18.161c0,0-0.076,0.988,1.216,1.14c1.292,0.152,6.383,0.076,6.383,0.076l0.076-19.149h3.647v22.948l-7.219-0.152
			c0,0-3.571,0.228-4.939-1.368C375.146,449.212,374.007,450.656,373.171,450.656"/>
		<path style="fill:#FFFFFF;" d="M348.171,438.118l0.076,9.346c0,0,0.076-0.076-2.356-0.076c-2.432,0-2.736-1.064-2.736-1.064
			l-0.076-6.611h-3.799c0,0,0.076,6.307,0.076,6.839c0,0.532-0.912,0.76-0.912,0.76s-0.152,0.076-2.052,0.076
			s-2.356-0.988-2.356-0.988v-5.395h-3.799c0,0,0,5.395,0,5.851c0,0.456-0.684,0.304-0.684,0.304s-10.106,0.076-12.462,0.076
			s-2.28-0.988-2.28-0.988l0.076-8.055l-3.723-0.076v8.89l-0.456,0.228c0,0-4.027,0.152-5.319-0.076
			c-1.292-0.228-1.52-0.988-1.52-0.988v-7.827H300.3c0,0-0.076,4.255,0,6.839c0.076,2.584-0.76,2.204-0.76,2.204
			s-3.115-0.152-4.559-0.076c-1.444,0.076-1.976-0.912-1.976-0.912s0,0,0-2.28s-1.596-4.027-2.887-5.243
			c-1.292-1.216-4.483-0.912-5.243-0.684c-0.76,0.228-1.596,0.76-2.887,1.824c-1.292,1.064-2.28,4.787-2.736,6.003
			s-1.368,1.14-1.368,1.14s-2.128,0-2.811,0s-0.76-1.368-0.76-1.368v-17.781h-3.571c0,0-0.076,16.717,0,19.453
			s2.887,3.267,2.887,3.267l4.255,0.152c0.608,0,1.292-0.152,1.824-0.456l0.228-0.152c1.064-0.608,1.596-1.216,1.596-1.216
			c0.38,0.38,2.432,1.748,3.723,1.748c0.836,0.076,2.128,0,2.887,0c0.456,0,0.912-0.152,1.368-0.304
			c0.152-0.076,0.304-0.152,0.456-0.228c0.836-0.38,1.672-1.216,1.672-1.216l0.456,0.228c1.292,1.216,2.811,1.52,2.811,1.52
			s6.459-0.076,7.143-0.304c0.684-0.228,1.368-1.14,1.368-1.14l0.304,0.228c0.912,0.912,2.812,1.14,2.812,1.14
			s6.079-0.076,6.535-0.152c0.456-0.076,1.216-1.292,1.216-1.292s0,0,0.608,0.684c0.608,0.684,2.052,0.836,2.052,0.836
			s13.754,0,14.741,0s1.976-1.368,1.976-1.368c1.14,0.988,2.508,1.292,2.508,1.292s2.963,0,4.103-0.076s2.052-1.064,2.052-1.064
			c0.76,0.76,2.736,1.064,2.736,1.064h7.219l0.076-0.152l0.076-12.538L348.171,438.118z M289.357,446.173
			c-0.532,1.368-4.407,1.976-6.839-0.076c0,0,0.608-2.66,1.748-3.723c1.064-0.988,2.204-1.14,2.812-1.064
			c0.608,0.076,1.9,0.76,2.28,2.128C289.813,444.805,289.661,445.413,289.357,446.173z"/>
		<circle style="fill:#FFFFFF;" cx="302.047" cy="429" r="2.128"/>
		<circle style="fill:#FFFFFF;" cx="315.269" cy="433.103" r="2.128"/>
		<circle style="fill:#FFFFFF;" cx="310.938" cy="432.875" r="2.128"/>
		<circle style="fill:#FFFFFF;" cx="304.251" cy="433.179" r="2.128"/>
		<circle style="fill:#FFFFFF;" cx="299.844" cy="432.951" r="2.128"/>
		<path style="fill:#FFFFFF;" d="M261.09,438.118l0.076,12.386c0,0,0.152,3.115-4.635,3.191l0.076,3.647
			c0,0,2.052-0.228,3.115-0.608c1.064-0.304,4.635-2.052,5.243-5.167c0.684-3.951,0.38-13.45,0.38-13.45H261.09z"/>
	</g>
	<g id="_x34_th">
		<polygon style="fill:#FFFFFF;" points="239.054,427.936 242.778,427.936 242.93,450.884 239.13,450.96 		"/>
		<polygon style="fill:#FFFFFF;" points="229.632,427.936 233.507,427.936 233.507,450.656 212.915,450.656 212.839,447.16 
			219.83,447.16 219.83,433.863 223.477,433.863 223.477,446.932 229.708,447.084 		"/>
		<path style="fill:#FFFFFF;" d="M224.389,426.796v1.824h-1.824c0,0-0.988,0.38-0.836,1.064c0.152,0.684,0.38,0.988,0.836,0.988
			c0.456,0,1.9,0,1.9,0l0.076,2.204h-5.851v-2.356h1.292c0,0-0.456-1.064-0.456-1.596c0.076-0.608,0.304-1.52,1.292-1.9
			C221.729,426.568,224.389,426.796,224.389,426.796z"/>
		<path style="fill:#FFFFFF;" d="M197.49,438.118l0.152,3.267c0,0,1.748-0.988,3.267-0.836c1.52,0.152,2.584,0.456,3.267,1.52
			c0.608,1.064,0.608,3.343,0.836,3.875c0.304,0.76,0.836,1.444,0.836,1.444l-12.69-0.304c0,0-1.444-0.076-1.444-0.608
			c0-0.532,0-8.359,0-8.359l-3.571-0.076l-0.152,8.51c0,0-0.152,0.684-0.912,0.684c-0.76,0-5.319,0-5.319,0
			s-0.988-0.304-0.912-0.988c0-0.684,0-8.207,0-8.207l-3.495,0.076l-0.076,8.51c0,0-0.228,0.456-0.532,0.532
			c-0.38,0.076-12.158,0.076-12.158,0.076s-0.684-0.38-0.684-1.14c0-0.76,0-7.979,0-7.979h-5.927c0,0-4.939,0.684-5.243,4.635v7.447
			c0,0-0.988,2.736-3.799,3.267c-2.812,0.608-5.775,0.076-5.775,0.076s-3.419-1.064-3.799-3.571c-0.38-2.963,0.076-3.799,0.76-4.711
			c0.684-0.836,0.684-0.836,0.684-0.836l-2.887-1.748c0,0-1.216,0.76-1.9,3.039c0,0-0.912,4.787,0.76,7.219
			c1.368,2.052,3.039,3.191,5.243,3.951c2.28,0.836,6.079,0.532,7.067,0.304s3.571-0.836,4.787-2.432
			c1.292-1.596,1.9-2.508,2.052-3.723c0.152-1.14,0.076-7.143,0.076-7.143s0.456-1.9,1.368-2.128s2.812-0.228,2.812-0.228v5.243
			c0,0.152,0,0.304,0.076,0.532c0.152,0.532,0.532,1.824,1.596,2.584c0.532,0.38,0.684,0.608,1.368,0.684
			c0.532,0.076,9.802,0.076,13.146,0.076c0.912,0,1.824-0.228,2.66-0.608c0.228-0.076,0.38-0.228,0.456-0.304
			c0.38-0.38,0.38-0.38,0.38-0.38s0.76,1.14,2.736,1.14c2.052,0.076,6.003,0.152,6.003,0.152s1.292-0.228,1.9-1.14
			c0.608-0.912,0-0.152,0-0.152s0.76,1.216,1.976,1.216h17.249h0.228l-0.076-3.343c0,0-1.14,0.304-1.52-1.292
			c-0.38-1.596-0.304-4.255-0.76-5.015c-0.38-0.684-1.9-2.888-3.115-3.267C202.505,437.282,200.909,436.978,197.49,438.118z"/>
		<circle style="fill:#FFFFFF;" cx="144.147" cy="460.838" r="2.128"/>
		<circle style="fill:#FFFFFF;" cx="148.554" cy="460.914" r="2.128"/>
		<circle style="fill:#FFFFFF;" cx="178.797" cy="454.987" r="2.128"/>
		<circle style="fill:#FFFFFF;" cx="189.815" cy="433.103" r="2.128"/>
		<circle style="fill:#FFFFFF;" cx="202.809" cy="454.911" r="2.128"/>
	</g>
	<g id="_x35_TH">
		<polygon style="fill:#FFFFFF;" points="118.007,428.392 121.503,428.392 121.503,451.036 118.083,451.036 		"/>
		<path style="fill:#FFFFFF;" d="M108.509,428.316l0.076,19.225h-5.395c0,0-1.748-0.076-1.976-0.684
			c-0.228-0.608,0.304-2.432-0.304-3.951c-0.608-1.52-1.9-3.647-3.343-4.179c-1.444-0.532-2.736-0.836-4.255-0.304
			s-3.419,2.204-3.951,3.343c0,0-0.988,1.14-1.368,2.508s-0.152,2.28-0.532,2.508c-0.304,0.228-0.836,0.532-2.66,0.608
			c-1.824,0-3.115,0.076-3.495-0.304c-0.38-0.38-0.38-0.38-0.38-0.38v-8.359h-3.647l0.076,8.663c0,0,0,0.456-0.38,0.456
			c-0.304,0.076-5.091,0.076-5.091,0.076s-0.38,0.38-0.38-2.356c0-2.736,0-16.793,0-16.793h-3.875v18.997
			c0,0,0.076,3.419,3.115,3.419h7.067c0,0,1.14-0.228,1.596-0.684s0.456-0.456,0.456-0.456s1.368,1.368,2.812,1.368
			s3.647,0.076,3.647,0.076s1.14-0.076,2.128-0.988c0.988-0.912,0.988-0.912,0.988-0.912s0.608,0.608,1.672,1.216
			c1.064,0.608,2.204,0.76,3.647,0.684s3.115-0.228,3.951-0.988s0.836-0.76,0.836-0.76s1.064,0.912,1.748,1.14
			c0.684,0.228,0.912,0.456,1.824,0.532c0.912,0.076,8.89,0,8.89,0v-22.644L108.509,428.316z M97.871,445.793
			c-0.228,0.684-0.532,1.596-1.672,1.824c-1.14,0.228-3.039,0.76-5.547-1.14c0,0,0.152-1.976,0.912-2.811
			c0.76-0.836,1.596-1.52,2.584-1.748c1.14-0.304,2.66,0.456,3.039,1.368C97.643,444.121,98.099,445.109,97.871,445.793z"/>
		<path style="fill:#FFFFFF;" d="M81.078,454.835c0.304,1.444-0.988,2.736-2.432,2.432c-0.836-0.152-1.52-0.836-1.672-1.672
			c-0.304-1.444,0.988-2.736,2.432-2.432C80.318,453.315,80.926,453.999,81.078,454.835z"/>
		<path style="fill:#FFFFFF;" d="M21.656,438.65l0.076,12.082c0,0-0.076,1.824-1.368,2.508c-1.292,0.684-1.824,0.836-3.343,0.988
			l0.076,3.495c0,0,2.963-0.076,4.635-1.216s3.039-2.128,3.267-4.483c0.228-2.356,0.076-0.76,0.076-0.76l16.413-0.076
			c0,0,1.064-0.38,1.596-1.064l0.228-0.152c0,0,0.912,0.912,2.204,0.988s4.483,0,4.483,0s1.14,0,1.596-0.532
			c0.456-0.532,0.608-0.532,0.608-0.532s1.216,1.14,2.356,1.216c1.14,0.076,7.447-0.076,7.447-0.076l0.076-12.462h-3.647l0,8.814
			l-3.419,0.076c0,0-1.52,0.152-1.748-0.608c-0.228-0.76-0.076-6.915-0.076-6.915h-3.723v7.067c0,0-0.38,0.532-2.28,0.456
			c-1.9-0.076-2.736-0.076-2.887-0.608c-0.152-0.532-0.152-5.547-0.152-5.547h-3.419v6.003H25.532v-8.662H21.656z"/>
		<path style="fill:#FFFFFF;" d="M53.343,428.924c0.304,1.444-0.988,2.736-2.432,2.432c-0.836-0.152-1.52-0.836-1.672-1.672
			c-0.304-1.444,0.988-2.736,2.432-2.432C52.507,427.404,53.191,428.088,53.343,428.924z"/>
		<path style="fill:#FFFFFF;" d="M51.215,433.027c0.304,1.444-0.988,2.736-2.432,2.432c-0.836-0.152-1.52-0.836-1.672-1.672
			c-0.304-1.444,0.988-2.736,2.432-2.432C50.379,431.507,51.063,432.191,51.215,433.027z"/>
		<path style="fill:#FFFFFF;" d="M55.622,432.951c0.304,1.444-0.988,2.736-2.432,2.432c-0.836-0.152-1.52-0.836-1.672-1.672
			c-0.304-1.444,0.988-2.736,2.432-2.432C54.786,431.431,55.47,432.115,55.622,432.951z"/>
	</g>
	<path style="fill:#FFFFFF;" d="M33.586,478.467l-2.432,2.812c0,0-1.596-1.444-2.736-1.596s-1.9-0.608-3.039-0.076
		c-1.14,0.532-1.52,0.912-1.824,1.52c-0.304,0.608,0.076,1.444,0.456,1.748c0.38,0.304,0.988,1.064,2.508,1.52
		c1.52,0.456,3.343,0.684,4.179,1.292c0.912,0.608,2.508,1.976,2.887,2.736c0.228,0.456,0.912,2.888,0.684,4.103
		c-0.228,1.216-0.532,2.356-1.444,3.039c-0.988,0.684-2.28,1.596-3.191,1.9c-0.912,0.304-3.419,0.608-4.559,0.532
		c-1.14-0.076-3.343-0.532-4.559-1.14c-0.912-0.456-2.66-2.052-2.66-2.052l2.508-2.887c0,0,1.9,1.292,2.887,1.748
		c0.988,0.38,3.191,0.836,3.951,0.532c0.836-0.304,2.052-1.216,2.128-1.824s0.38-2.204-1.52-2.887
		c-1.9-0.684-4.787-1.368-4.787-1.368s-3.951-1.672-4.255-4.027c-0.304-2.508-0.076-3.875,0.76-5.167
		c0.836-1.292,2.28-2.28,4.407-2.888c2.128-0.608,5.851,0.152,6.763,0.684C31.61,477.023,33.586,478.467,33.586,478.467z"/>
	<polygon style="fill:#FFFFFF;" points="41.565,476.263 41.565,497.54 46.2,497.54 46.2,488.497 56.23,488.573 56.078,497.692 
		60.561,497.616 60.561,476.263 56.002,476.263 56.002,484.47 46.048,484.47 46.048,476.187 	"/>
	<path style="fill:#FFFFFF;" d="M79.938,476.339h-5.547l-7.827,21.2l5.243,0.076l1.14-4.863h7.979l1.52,5.015l5.167-0.152
		L79.938,476.339z M73.935,489.181l3.115-8.738l2.887,8.662L73.935,489.181z"/>
	<path style="fill:#FFFFFF;" d="M105.622,489.181c0,0,3.115-2.28,3.343-4.255c0.228-2.052,0-3.495,0-3.495s-0.608-5.091-4.863-5.167
		c-4.255-0.076-10.638,0-10.638,0v21.276h4.711v-7.979h3.039l3.723,8.055l5.167-0.152L105.622,489.181z M101.822,486.142
		l-3.799,0.076v-6.307l3.951,0.076c0.532,0,1.064,0.076,1.444,0.456c2.432,2.28,0.912,4.483-0.076,5.091
		C102.734,485.914,102.354,486.142,101.822,486.142z"/>
	<path style="fill:#FFFFFF;" d="M124.618,476.339h5.091v13.906c0,1.824-0.684,6.383-3.267,7.371
		c-2.204,0.836-4.407,1.292-7.143,0.228c-2.736-1.064-4.179-2.508-4.179-2.508l2.736-2.66c0,0,1.824,1.596,2.432,1.672
		c0.608,0.076,3.191,0.608,4.103-1.14C125.074,491.689,124.618,476.339,124.618,476.339z"/>
	<path style="fill:#FFFFFF;" d="M148.63,476.263h-5.547l-7.827,21.2l5.243,0.076l1.14-4.863h7.979l1.52,5.015l5.167-0.152
		L148.63,476.263z M142.703,489.105l3.115-8.738l2.887,8.662L142.703,489.105z"/>
	<polygon style="fill:#FFFFFF;" points="162.232,476.339 162.232,497.616 166.943,497.616 166.943,488.573 176.897,488.649 
		176.821,497.692 181.228,497.692 181.228,476.339 176.669,476.339 176.669,484.546 166.791,484.546 166.791,476.263 	"/>
	<polygon style="fill:#FFFFFF;" points="198.173,476.339 198.173,497.692 203.037,497.692 202.961,489.333 210.255,489.333 
		210.255,485.458 202.809,485.458 202.809,480.367 212.459,480.367 212.459,476.339 	"/>
	<path style="fill:#FFFFFF;" d="M236.243,479.987c-1.976-2.432-2.736-3.267-6.611-3.495c-3.875-0.228-10.562-0.152-10.562-0.152
		l0.076,21.276h10.334c0,0,3.799-0.456,5.471-1.976c1.596-1.52,2.887-2.736,3.267-5.015c0.304-1.824,0-6.003,0-6.003
		S237.914,481.962,236.243,479.987z M233.279,489.941c-0.152,0.912-0.76,1.596-1.444,2.128c-1.292,0.988-2.887,1.52-4.483,1.52
		h-3.571v-13.298c0,0,2.584,0,5.243,0c0.988,0,1.9,0.608,2.584,1.292c1.368,1.444,2.052,3.419,2.052,5.395
		C233.583,487.965,233.507,488.953,233.279,489.941z"/>
	<polygon style="fill:#FFFFFF;" points="245.437,476.263 250.148,476.339 250.148,497.692 245.437,497.692 	"/>
	<polygon style="fill:#FFFFFF;" points="267.093,476.035 267.093,497.388 271.956,497.388 271.88,489.105 279.175,489.029 
		279.175,485.154 271.729,485.154 271.729,480.063 281.379,480.063 281.379,476.035 	"/>
	<path style="fill:#FFFFFF;" d="M328.491,489.257c0,0,3.115-2.28,3.343-4.255c0.228-2.052,0-3.495,0-3.495s-0.608-5.091-4.863-5.167
		c-4.255-0.076-10.638,0-10.638,0v21.276h4.711v-7.979h3.039l3.723,8.055l5.167-0.152L328.491,489.257z M324.615,486.218
		l-3.799,0.076v-6.307l3.951,0.076c0.532,0,1.064,0.076,1.444,0.456c2.432,2.28,0.912,4.483-0.076,5.091
		C325.603,485.914,325.147,486.218,324.615,486.218z"/>
	<path style="fill:#FFFFFF;" d="M298.248,475.655c-6.231,0-11.246,5.015-11.246,11.246s5.015,11.246,11.246,11.246
		c6.231,0,11.246-5.015,11.246-11.246S304.479,475.655,298.248,475.655z M298.172,493.74c-3.495,0-6.383-3.115-6.383-6.991
		c0-3.875,2.812-6.991,6.383-6.991s6.383,3.115,6.383,6.991C304.555,490.625,301.667,493.74,298.172,493.74z"/>
	<path style="fill:#FFFFFF;" d="M352.426,476.263h4.863v14.893c0,0-0.228,1.672-1.064,2.812c-0.76,1.14-2.736,2.963-4.407,3.647
		c-1.824,0.76-7.143,0.152-7.143,0.152s-5.167-2.28-5.319-6.383c-0.228-4.711-0.076-15.045-0.076-15.045h4.559v13.602
		c0,0,0.304,2.356,1.292,2.887c0.912,0.456,2.052,1.14,3.419,0.988c1.14-0.152,1.976-0.228,3.191-1.672
		c0.608-0.76,0.684-1.216,0.684-1.216L352.426,476.263z"/>
	<polygon style="fill:#FFFFFF;" points="365.42,476.415 364.508,497.388 369.143,497.464 369.295,483.102 374.311,491.765 
		376.894,491.765 381.453,483.254 381.985,497.692 386.696,497.692 385.861,476.187 381.377,476.263 375.83,486.294 
		370.131,476.415 	"/>
</g>
</svg>
