<?xml version="1.0" encoding="utf-8"?>
<!-- Generator: Adobe Illustrator 18.0.0, SVG Export Plug-In . SVG Version: 6.00 Build 0)  -->
<!DOCTYPE svg PUBLIC "-//W3C//DTD SVG 1.1//EN" "http://www.w3.org/Graphics/SVG/1.1/DTD/svg11.dtd">
<svg version="1.1" id="Layer_1" xmlns="http://www.w3.org/2000/svg" xmlns:xlink="http://www.w3.org/1999/xlink" x="0px" y="0px"
	 viewBox="0 0 283.5 83.1" enable-background="new 0 0 283.5 83.1" xml:space="preserve">
<rect x="281" y="0" fill="#FFFFFF" width="2.5" height="41.6"/>
<rect x="239.4" y="0" fill="#FFFFFF" width="2.5" height="41.6"/>
<rect x="197.8" y="0" fill="#FFFFFF" width="2.5" height="41.6"/>
<polygon fill="#FFFFFF" points="119.7,0 119.7,41.6 158.8,41.6 158.8,39.1 122.2,39.1 122.2,2.5 158.8,2.5 158.8,0 "/>
<polygon fill="#FFFFFF" points="0,0 0,2.5 36.6,2.5 36.6,39.1 0,39.1 0,41.6 39.1,41.6 39.1,0 "/>
<rect x="78.1" y="0" fill="#FFFFFF" width="2.5" height="41.6"/>
<rect x="80.6" y="47.8" fill="#FFFFFF" width="6.2" height="2.5"/>
<rect x="71.9" y="47.8" fill="#FFFFFF" width="6.2" height="2.5"/>
<path fill="#A0A9AD" d="M7.3,73.3c-3.9-0.8-4.6-1.8-4.6-3.3c0-1.6,1.5-2.7,3.6-2.7c1.8,0,3.4,0.6,5,1.8l1.1-1.6
	c-1.9-1.5-3.7-2.1-6.1-2.1c-3.3,0-5.7,2-5.7,4.8c0,2.7,1.6,4.1,5.8,5c3.7,0.8,4.4,1.7,4.4,3.3c0,1.7-1.6,2.9-3.8,2.9
	c-2.3,0-4-0.7-5.9-2.4L0,80.4c2.1,1.9,4.3,2.8,7.1,2.8c3.5,0,5.9-2,5.9-5C13,75.6,11.3,74.1,7.3,73.3"/>
<path fill="#A0A9AD" d="M274.9,80.9H271V67.6h3.9c3.7,0,6.7,3,6.7,6.7C281.5,77.9,278.5,80.9,274.9,80.9 M274.9,65.7H271H269v17.2h0
	h5.9c4.7,0,8.6-3.8,8.6-8.6C283.5,69.5,279.6,65.7,274.9,65.7"/>
<path fill="#A0A9AD" d="M75.6,76.6l3.8-8.5l3.8,8.5H75.6z M78.3,65.7l-7.7,17.2h2.1l1.9-4.3H84l1.9,4.3h2.1l-7.7-17.2H78.3z"/>
<polygon fill="#A0A9AD" points="140.5,82.8 152.4,82.8 152.4,80.9 142.4,80.9 142.4,75.2 151.7,75.2 151.7,73.3 142.4,73.3 
	142.4,67.6 152.4,67.6 152.4,65.7 140.5,65.7 "/>
<polygon fill="#A0A9AD" points="204.7,82.8 216.6,82.8 216.6,80.9 206.7,80.9 206.7,75.2 216,75.2 216,73.3 206.7,73.3 206.7,67.6 
	216.6,67.6 216.6,65.7 204.7,65.7 "/>
</svg>
