<?xml version="1.0" encoding="utf-8"?>
<!-- Generator: Adobe Illustrator 18.0.0, SVG Export Plug-In . SVG Version: 6.00 Build 0)  -->
<!DOCTYPE svg PUBLIC "-//W3C//DTD SVG 1.1//EN" "http://www.w3.org/Graphics/SVG/1.1/DTD/svg11.dtd">
<svg version="1.1" id="Layer_1" xmlns="http://www.w3.org/2000/svg" xmlns:xlink="http://www.w3.org/1999/xlink" x="0px" y="0px"
	 viewBox="7.1 5.8 29.8 32.4" enable-background="new 7.1 5.8 29.8 32.4" xml:space="preserve">
<g>
	<g>
		<path fill="#FCBD1B" d="M21.2,12.7l0.4-4.4V5.9c0,0,0-0.1-0.1-0.1h-0.7c0,0-0.1,0-0.1,0.1v2.3l0.4,4.4
			C21.1,12.7,21.2,12.7,21.2,12.7z M19.5,12.7l0.4-3.6V7.3c0,0,0-0.1-0.1-0.1h-0.7c0,0-0.1,0-0.1,0.1v1.8l0.4,3.6
			C19.4,12.8,19.5,12.8,19.5,12.7z M22.9,12.7l0.4-4.4V5.9c0,0,0-0.1-0.1-0.1h-0.7c0,0-0.1,0-0.1,0.1v2.3l0.4,4.4
			C22.8,12.7,22.9,12.7,22.9,12.7z M17.8,12.8l0.3-2.5V8.4c0,0,0-0.1-0.1-0.1h-0.7c0,0-0.1,0-0.1,0.1v1.8l0.3,2.5
			C17.6,12.9,17.8,12.9,17.8,12.8z M16.1,12.9l0.3-2.5l0,0c0,0,0-0.1-0.1-0.1h-0.6c0,0-0.1,0-0.1,0.1l0,0l0.3,2.5
			C15.9,13,16.1,13,16.1,12.9z M24.6,12.7L25,9.1V7.3c0,0,0-0.1-0.1-0.1h-0.7c0,0-0.1,0-0.1,0.1v1.8l0.4,3.6
			C24.5,12.8,24.6,12.8,24.6,12.7z M28.1,12.9l0.3-2.5l0,0c0,0,0-0.1-0.1-0.1h-0.7c0,0-0.1,0-0.1,0.1l0,0l0.3,2.5
			C27.9,13,28.1,13,28.1,12.9z M26.4,12.8l0.3-2.5V8.4c0,0,0-0.1-0.1-0.1h-0.7c0,0-0.1,0-0.1,0.1v1.8l0.3,2.5
			C26.2,12.9,26.4,12.9,26.4,12.8z M28.4,16.5L28.1,14c0-0.1-0.2-0.1-0.2,0l-0.3,2.5l0,0c0,0,0,0.1,0.1,0.1h0.6
			C28.4,16.6,28.4,16.6,28.4,16.5L28.4,16.5z M16.1,14c0-0.1-0.2-0.1-0.2,0l-0.3,2.5l0,0c0,0,0,0.1,0.1,0.1h0.6c0,0,0.1,0,0.1-0.1
			l0,0L16.1,14z M17.6,14.2l-0.3,2.5v1.8c0,0,0,0.1,0.1,0.1h0.7c0,0,0.1,0,0.1-0.1v-1.8l-0.3-2.5C17.8,14.1,17.7,14.1,17.6,14.2z
			 M21.1,14.3l-0.4,4.4v2.4c0,0,0,0.1,0.1,0.1h0.7c0,0,0.1,0,0.1-0.1v-2.3l-0.4-4.4C21.2,14.2,21.1,14.2,21.1,14.3z M24.5,14.3
			l-0.4,3.6v1.8c0,0,0,0.1,0.1,0.1h0.7c0,0,0.1,0,0.1-0.1v-1.8l-0.4-3.6C24.7,14.2,24.5,14.2,24.5,14.3z M22.8,14.3l-0.4,4.4v2.4
			c0,0,0,0.1,0.1,0.1h0.7c0,0,0.1,0,0.1-0.1v-2.3l-0.4-4.4C22.9,14.2,22.8,14.2,22.8,14.3z M19.4,14.3L19,17.9v1.8
			c0,0,0,0.1,0.1,0.1h0.7c0,0,0.1,0,0.1-0.1v-1.8l-0.4-3.6C19.5,14.2,19.4,14.2,19.4,14.3z M26.2,14.2l-0.3,2.5v1.8
			c0,0,0,0.1,0.1,0.1h0.7c0,0,0.1,0,0.1-0.1v-1.8l-0.3-2.5C26.4,14.1,26.2,14.1,26.2,14.2z"/>
		<path fill="#AAAAAA" d="M29.6,13.4l-3.3-0.1h-8.6l-3.3,0.1c0,0-0.1,0-0.1,0.1c0,0,0,0.1,0.1,0.1l3.3,0.1h8.6l3.3-0.1
			C29.6,13.6,29.6,13.5,29.6,13.4C29.6,13.5,29.6,13.4,29.6,13.4z"/>
	</g>
	<g>
		<path opacity="0.2" fill="#AAAAAA" enable-background="new    " d="M7.5,37.7c0.4,0,0.7,0.1,0.9,0.1c0.6,0,1-0.1,1.3-0.4
			c0.3-0.3,0.4-0.6,0.4-0.9c0-0.3-0.1-0.5-0.2-0.7c-0.1-0.2-0.5-0.5-0.9-0.7L8.7,35c-0.3-0.2-0.5-0.3-0.5-0.4
			C8.1,34.6,8,34.4,8,34.4c0-0.1,0-0.3,0.2-0.3c0.2-0.1,0.3-0.2,0.6-0.2c0.2,0,0.4,0,0.7,0.1l0.4,0.1c0,0,0,0,0,0v-0.6c0,0,0,0,0,0
			l-0.4-0.1l0,0l0,0c-0.3,0-0.5-0.1-0.8-0.1c-0.5,0-0.8,0.1-1.1,0.4c-0.3,0.3-0.4,0.5-0.4,0.9c0,0.3,0.1,0.5,0.3,0.7
			c0.2,0.2,0.5,0.4,0.9,0.7L8.6,36c0.3,0.2,0.5,0.3,0.5,0.4c0,0.1,0,0.2,0,0.3c0,0.2-0.1,0.3-0.2,0.4c-0.1,0.1-0.3,0.2-0.6,0.2
			c-0.1,0-0.3,0-0.5,0c-0.1,0-0.3-0.1-0.5-0.1"/>
		<path fill="#AAAAAA" d="M14.3,33.3h-0.9c0,0,0,0,0,0v1.7c0,0,0,0,0,0h-1.7c0,0,0,0,0,0v-1.7c0,0,0,0,0,0h-0.8c0,0,0,0,0,0v4.3
			c0,0,0,0,0,0h0.9c0,0,0,0,0,0v-1.9c0,0,0,0,0,0h1.8c0,0,0,0,0,0v1.9c0,0,0,0,0,0h0.9c0,0,0,0,0,0L14.3,33.3L14.3,33.3z M26.1,33.5
			c-0.3-0.2-0.7-0.3-1.2-0.3s-0.9,0.1-1.2,0.3s-0.6,0.5-0.8,0.8c-0.2,0.4-0.3,0.7-0.3,1.2s0.1,0.9,0.3,1.2c0.2,0.4,0.5,0.6,0.8,0.8
			c0.3,0.2,0.7,0.3,1.2,0.3s0.9-0.1,1.2-0.3c0.3-0.2,0.6-0.5,0.8-0.8c0.2-0.4,0.3-0.7,0.3-1.2s-0.1-0.9-0.3-1.2
			C26.7,34,26.4,33.7,26.1,33.5z M25.9,36.7c-0.2,0.3-0.5,0.5-0.9,0.5c-0.4,0-0.7-0.2-0.9-0.5c-0.2-0.3-0.3-0.7-0.3-1.2
			c0-0.5,0.1-0.9,0.3-1.2c0.2-0.3,0.5-0.5,0.9-0.5c0.4,0,0.7,0.2,0.9,0.5c0.2,0.3,0.3,0.7,0.3,1.2C26.2,36,26.1,36.4,25.9,36.7z
			 M36.7,34.3c-0.2-0.4-0.5-0.6-0.8-0.8c-0.3-0.2-0.7-0.3-1.2-0.3c-0.5,0-0.9,0.1-1.2,0.3c-0.3,0.2-0.6,0.5-0.8,0.8
			c-0.2,0.4-0.3,0.7-0.3,1.2c0,0.5,0.1,0.9,0.3,1.2c0.2,0.4,0.5,0.6,0.8,0.8c0.3,0.2,0.7,0.3,1.2,0.3c0.1,0,0.3,0,0.4,0l0.3,0.4h1
			l-0.5-0.6c0,0,0,0,0,0c0.3-0.2,0.6-0.5,0.8-0.8c0.2-0.4,0.3-0.7,0.3-1.2C36.9,35.1,36.8,34.7,36.7,34.3z M35.6,36.8
			c0,0.1-0.1,0.1-0.1,0.2c0,0,0,0.1-0.1,0.1l-0.3-0.4h-0.7l0.4,0.6c0,0-0.1,0-0.1,0c-0.4,0-0.7-0.2-0.9-0.5s-0.3-0.7-0.3-1.2
			s0.1-0.9,0.3-1.2c0.2-0.3,0.5-0.5,0.9-0.5s0.7,0.2,0.9,0.5c0.2,0.3,0.3,0.7,0.3,1.2C35.9,36,35.8,36.4,35.6,36.8z M31,33.5
			c-0.3-0.2-0.7-0.3-1.2-0.3s-0.9,0.1-1.2,0.3c-0.3,0.2-0.6,0.5-0.8,0.8c-0.2,0.4-0.3,0.7-0.3,1.2s0.1,0.9,0.3,1.2
			c0.2,0.4,0.5,0.6,0.8,0.8c0.3,0.2,0.7,0.3,1.2,0.3s0.9-0.1,1.2-0.3s0.6-0.5,0.8-0.8c0.2-0.4,0.3-0.7,0.3-1.2s-0.1-0.9-0.3-1.2
			C31.6,34,31.3,33.7,31,33.5z M30.8,36.7c-0.2,0.3-0.5,0.5-0.9,0.5s-0.7-0.2-0.9-0.5c-0.2-0.3-0.3-0.7-0.3-1.2
			c0-0.5,0.1-0.9,0.3-1.2c0.2-0.3,0.5-0.5,0.9-0.5s0.7,0.2,0.9,0.5c0.2,0.3,0.3,0.7,0.3,1.2C31,36,31,36.4,30.8,36.7z M18.5,33.3
			h-0.7c0,0,0,0,0,0v2.7c0,0.5-0.1,0.7-0.3,0.9c-0.2,0.2-0.4,0.3-0.6,0.3s-0.5-0.1-0.7-0.3c-0.2-0.2-0.3-0.5-0.3-1v-2.7c0,0,0,0,0,0
			H15c0,0,0,0,0,0V36c0,0.5,0.1,0.9,0.3,1.1c0.2,0.3,0.4,0.4,0.6,0.5c0.3,0.1,0.6,0.2,0.9,0.2s0.7-0.1,0.9-0.2
			c0.3-0.1,0.4-0.3,0.5-0.5c0.1-0.2,0.2-0.6,0.2-1.1L18.5,33.3C18.5,33.3,18.5,33.3,18.5,33.3z M21.4,35.8
			C21.3,35.8,21.3,35.7,21.4,35.8c0.5-0.2,0.9-0.7,0.9-1.2s-0.4-1.2-1.4-1.2h-1.6c0,0,0,0,0,0v4.3c0,0,0,0,0,0h0.8c0,0,0,0,0,0V36
			c0,0,0,0,0,0h0.3c0,0,0,0,0,0l1.2,1.7l0,0h1c0,0,0,0,0,0L21.4,35.8z M20.3,35.3h-0.2c0,0,0,0,0,0V34c0,0,0,0,0,0h0.3
			c0.3,0,0.5,0,0.6,0.1c0.3,0.1,0.4,0.3,0.4,0.6C21.3,35.2,20.9,35.3,20.3,35.3z M9,35.2L8.7,35c-0.3-0.2-0.5-0.3-0.5-0.4
			C8.1,34.6,8,34.4,8,34.3c0-0.1,0-0.3,0.2-0.3c0.2-0.1,0.3-0.2,0.6-0.2c0.4,0,1.1,0.3,1.1,0.3s0,0,0,0v-0.6c0,0,0,0,0,0
			c0,0-0.6-0.2-1.2-0.2c-0.5,0-0.8,0.1-1.1,0.4c-0.3,0.3-0.4,0.5-0.4,0.9c0,0.3,0.1,0.5,0.3,0.7c0.2,0.2,0.5,0.4,0.9,0.7L8.6,36
			c0.3,0.2,0.5,0.3,0.5,0.4c0,0.1,0,0.2,0,0.3c0,0.2-0.1,0.3-0.2,0.4c-0.1,0.1-0.4,0.3-1,0.1c-0.3,0-0.7-0.3-0.7-0.3s0,0,0,0v0.7
			c0,0,0,0,0,0c0,0,0.6,0.1,1.2,0.1c0.6,0,1-0.1,1.3-0.4c0.3-0.3,0.4-0.6,0.4-0.9c0-0.3-0.1-0.5-0.2-0.7C9.8,35.6,9.5,35.4,9,35.2z"
			/>
		<path fill="#AAAAAA" d="M10,24.7c0.3,0,0.6-0.3,0.6-0.5c0-0.3-0.3-0.5-0.6-0.5c-0.3,0-0.5,0.3-0.5,0.5C9.5,24.5,9.7,24.7,10,24.7z
			 M12.2,25.5h-1.3c-0.6,0-1.2,0.2-1.6,0.6C9,26.5,8.8,27,8.8,27.7c0,1.2,0.6,1.8,1.6,1.8c0.3,0,0.7,0,1-0.1c0,0.9-0.5,1.4-1.4,1.4
			c-1.3,0-2-0.8-2-2.3V28c0,0,0,0,0,0H7.2c0,0-0.1,0-0.1,0v0.5c0,1.8,1,2.9,2.8,2.9c1.6,0,2.4-0.7,2.4-2L12.2,25.5
			C12.3,25.5,12.3,25.5,12.2,25.5z M11.4,28.7c-0.3,0.1-0.5,0.1-0.7,0.1c-0.6,0-0.9-0.4-0.9-1.2c0-1,0.4-1.5,1.1-1.5h0.4
			c0,0,0.1,0,0.1,0.1L11.4,28.7C11.3,28.7,11.4,28.7,11.4,28.7z M11.5,24.7c0.3,0,0.5-0.3,0.5-0.5c0-0.3-0.3-0.5-0.5-0.5
			s-0.6,0.3-0.6,0.5C10.9,24.5,11.2,24.7,11.5,24.7z"/>
		<path fill="#AAAAAA" d="M16.4,25.6H15c-0.6,0-1.1,0.2-1.5,0.7c-0.3,0.4-0.5,0.9-0.5,1.6c0,0.5,0.1,0.9,0.4,1.3
			c0.3,0.4,0.7,0.6,1.1,0.6c0.3,0,0.7,0,1-0.2c-0.1,0.9-0.5,1.4-1.2,1.6c0,0,0,0,0,0.1c0,0,0.1,0.3,0.1,0.3l0,0c0,0,0,0,0.1,0l0,0
			c1.2-0.3,1.9-1.1,1.9-2.4L16.4,25.6C16.4,25.6,16.4,25.6,16.4,25.6z M15.6,28.9C15.3,28.9,15,29,14.8,29c-0.6,0-0.9-0.5-0.9-1.4
			c0-0.9,0.4-1.5,1.2-1.5h0.4c0,0,0.1,0,0.1,0.1C15.6,26.2,15.6,28.9,15.6,28.9z"/>
		<path fill="#AAAAAA" d="M34,24.1c0,0.3,0.3,0.5,0.5,0.5c0.3,0,0.6-0.3,0.6-0.5c0-0.3-0.3-0.5-0.6-0.5C34.2,23.6,34,23.8,34,24.1z
			 M33.8,23.3c0.3,0,0.5-0.3,0.5-0.5c0-0.3-0.3-0.6-0.5-0.6c-0.3,0-0.5,0.3-0.5,0.6C33.2,23.1,33.4,23.3,33.8,23.3z M33,24.7
			c0.3,0,0.5-0.3,0.5-0.5c0-0.3-0.3-0.5-0.5-0.5c-0.3,0-0.6,0.3-0.6,0.5C32.5,24.5,32.8,24.7,33,24.7z"/>
		<path fill="#AAAAAA" d="M30.5,29.4c0.4,0,0.7-0.1,1-0.3c0.1-0.1,0.1-0.1,0.2-0.2c0.4,0.4,0.8,0.5,1.2,0.5c0.5,0,0.9-0.2,1.1-0.5
			c0.3,0.3,0.7,0.5,1.2,0.5c0.8,0,1.3-0.5,1.3-1.3v-2.5c0,0,0,0-0.1,0l-0.9,0.2c0,0,0,0,0,0.1l0.2,1.1c0,0,0,0.1,0,0.1v0.9
			c0,0.5-0.2,0.7-0.7,0.7c-0.3,0-0.5-0.1-0.8-0.3v-2.3c0,0,0,0-0.1,0L33.3,26c0,0-0.1,0-0.1,0.1v1.7c0,0.5-0.2,0.7-0.7,0.7
			c-0.3,0-0.6-0.1-0.8-0.3v-2.3c0,0,0,0-0.1,0L30.9,26c0,0-0.1,0-0.1,0.1v1.7c0,0.5-0.2,0.7-0.7,0.7H19.3c-0.5,0-0.7-0.3-0.7-0.7
			v-2.2c0,0,0,0-0.1,0l-0.9,0.2l0,0c0,0,0,0,0,0.1l0,0l0.2,1.2v2.3c0,1.3-0.9,1.6-1.2,1.7c0,0,0,0,0,0.1l0.2,0.3c0,0,0,0,0.1,0
			c1.1-0.3,1.8-1,1.9-2v0c0,0,0,0,0.1,0c0.1,0,0.3,0,0.4,0C19.1,29.4,30.5,29.4,30.5,29.4z"/>
	</g>
</g>
</svg>
