<svg xmlns="http://www.w3.org/2000/svg" viewBox="0 0 674 491.84"><defs><style>.cls-1{fill:#fff;}</style></defs><title>gulf-sothebay-white</title><g id="Layer_2" data-name="Layer 2"><g id="Layer_1-2" data-name="Layer 1"><path class="cls-1" d="M412.7,266.54c9.9-2.7,19.8-5.4,30.7-8.4v57.7c3.5-2.4,6.2-4.5,9.2-6.2,15.3-8.8,32.8-4.2,41.1,11.4,8.2,15.4,8.7,31.5-.5,46.7-9.7,16-25.4,21.3-43.3,20.4-6.8-.3-13.5-2.2-20.2-3-4.3-.5-5.3-2.5-5.3-6.6.2-31.5-.1-62.9.3-94.4.1-5.9-1.4-9.7-6.8-12.2-2-.9-3.6-2.6-5.3-3.9A3.69,3.69,0,0,1,412.7,266.54Zm30.7,80.8h0c0,7.8,0,15.6.1,23.5,0,1.5.3,3.5,1.2,4.5,9.9,11.1,26.9,8.1,32-5.8a56.85,56.85,0,0,0,1.6-33.9c-3.8-14.6-15.1-20.8-29.8-17.2-3.6.9-5.3,2.4-5.1,6.4C443.6,332.44,443.4,339.94,443.4,347.34Z"/><path class="cls-1" d="M277.6,384.74H239.1c-.2-.4-.4-.9-.6-1.3,2-.9,3.8-2.2,5.9-2.6,4.5-.9,5.4-3.4,5.4-7.8-.2-30.3-.2-60.7,0-91,0-4.2-1-6.9-4.8-8.8-2.7-1.4-5-3.5-7.5-5.2a7.84,7.84,0,0,0,.2-1.4c9.8-2.7,19.6-5.4,30.4-8.4v60.7c3.9-2.9,6.5-5.6,9.7-7.1,5.5-2.5,11.2-5.4,17.1-6.2,12.9-1.7,22.4,6.2,23.8,19.2.7,6.4.5,13,.5,19.5.1,9.5.2,19-.1,28.5-.2,4.6.7,7.7,5.8,8.4,1.7.2,3.2,1.3,5.1,2-3.2,2.8-34.6,3.2-40,.5,2.5-1.3,4.3-2.5,6.3-3.1,3-.9,4.1-2.5,4.1-5.7-.2-13.2,0-26.3-.1-39.5-.1-12-6-17.4-18-16.5-1.3.1-2.7.3-4,.5-9.9,1.7-10.5,2.5-10.5,12.4,0,13.8.2,27.7-.1,41.5-.1,4.4,1.1,6.9,5.4,7.9,1.6.4,3,1.5,4.5,2.3C277.9,383.84,277.7,384.24,277.6,384.74Z"/><path class="cls-1" d="M2.4,348.94A26.49,26.49,0,0,1,6.5,353c4.9,6.9,9,14.5,14.6,20.6,6.9,7.4,16.1,10.1,26.1,6.7,12.7-4.2,16.5-21.9,6.3-30.6-4.5-3.8-10.2-6.1-15.6-8.7-4.9-2.4-10.3-4-15.2-6.3C8.6,328,1.9,316,4,301.64c2-13.6,12.8-24.5,27-27.3,8.1-1.6,16-1.1,23.4,2.6,3.4,1.7,5.7,1.5,8.3-1.2,1.1-1.2,3.1-1.5,4.7-2.2.5,1.6,1.4,3.2,1.5,4.9.8,8.3,1.6,16.6,2.2,24.9.1,1.3-.9,2.7-1.4,4.1-1.2-.9-2.7-1.6-3.6-2.7-5.2-6.6-10.3-13.3-15.5-19.9a7.22,7.22,0,0,0-2.4-1.8c-8.9-5.4-19.8-3.7-24.5,3.8a18.13,18.13,0,0,0,6.3,24.8c6.7,3.9,14.1,6.6,21.2,9.9,2.3,1,4.6,2,6.8,3.1,12.3,6.4,19.5,15.9,18.2,30.4s-9.2,24.3-22.5,29.8c-12.1,5-24.2,3.5-36.1-.9-3.5-1.3-6.1-1.8-8.7,1.4-1,1.2-3.1,1.5-4.7,2.2-.6-1.6-1.5-3.2-1.6-4.9-.7-10.8-1.2-21.6-1.7-32.4A8.7,8.7,0,0,0,2.4,348.94Z"/><path class="cls-1" d="M77.6,70.64H51.3c0-2.4-.3-4.4.1-6.3.2-1.1,1.6-2.8,2.5-2.8,11.3-.2,22.6-.1,33.9-.1a14.93,14.93,0,0,1,.6,2.9v48.3H78.8V99.34c-.8.1-1.3,0-1.4.2-13,23-54,22.2-67.9-6.1-12.1-24.5-12.3-49.7,1.8-73.6C20.9,3.64,36.5-1.86,54.7.54c17.5,2.3,26.9,13.9,31.9,29.8.7,2.2,1.4,4.7-2,4.8-2.8.1-6.8,4.5-8.5-1.7-.3-1.1-.8-2.2-1.2-3.3-4.4-12-12.3-19.6-25.7-20.2-12.5-.5-22.9,4.4-28.9,15.3C8.4,47,8.7,69.44,20.9,90.94c7,12.4,21.3,17.1,35.2,13.5,12.2-3.2,20.4-14,21.5-28.2C77.7,74.84,77.6,73.14,77.6,70.64Z"/><path class="cls-1" d="M89.6,339c.2-9.5,7.1-23.2,23.3-30.1,15.5-6.7,31.1-5.7,44.4,6,12.3,10.8,15.5,33.7,7.8,50.6C158,381,141.7,390,124.2,388,102.1,385.64,89.7,370.84,89.6,339Zm19,7.9c2.1,8.4,3.6,17.2,6.5,25.6,2.3,6.4,7.5,10.5,15,10.3,7.3-.2,11.9-4.4,14.2-10.7,6.3-16.8,6.5-33.9-.1-50.6-2.6-6.7-7.8-11.2-15.7-10.9-7.6.3-12.1,5-14.2,11.4C111.8,329.84,110.6,338,108.6,346.94Z"/><path class="cls-1" d="M530.2,408.14c3.6-6.7,7.2-13,10.4-19.5.6-1.2-.2-3.2-.8-4.7-8.7-21.3-17.5-42.5-26.2-63.7-1.5-3.7-3.4-6.7-7.7-7.6a9.4,9.4,0,0,1-5-3.4c14-1.5,27.9-1.3,41.7-1.1.2.7.3,1.4.5,2.1l-11,4.7c6,16.1,11.8,32.1,17.7,48.1.4,0,.9.1,1.3.1,5.4-15.5,10.7-31.1,16.1-46.8-3.4-2.2-6.7-4.4-9.9-6.5l.6-1.2H587a8.8,8.8,0,0,1,.5,1.5c-2.3,1.3-4.9,2.3-6.9,4-2.3,1.9-5,4-6.1,6.6-10.1,24.5-19.7,49.1-29.9,73.6a94.15,94.15,0,0,1-11,18.9,17.32,17.32,0,0,1-18.4,7.4c-4.7-.9-8.4-3.3-9.5-8.3-.9-4.1.3-7.7,3.8-10.1,4.3-3,8.9-2.7,13.2-.2C525.1,403.34,527,405.44,530.2,408.14Z"/><path class="cls-1" d="M336.8,195.54H6.8a6.69,6.69,0,0,1-2,0c-1.6-.6-3.2-1.3-4.8-1.9a28.64,28.64,0,0,1,4.8-2,17.85,17.85,0,0,1,4-.1H666.7a27.66,27.66,0,0,1,5,.1c.9.2,1.5,1.3,2.3,1.9-.8.6-1.5,1.6-2.3,1.8a22.4,22.4,0,0,1-4.5.1Q502.2,195.59,336.8,195.54Z"/><path class="cls-1" d="M354.3,341.14c1.7,8,2.5,15.1,4.7,21.8,3,8.8,10.1,13.5,19.2,13.3,7.7-.2,15.4-2.2,23-3.5,1.8-.3,3.6-.9,6.1-1.4-.3,1.5-.2,2.3-.5,2.6-14.9,13.3-32.8,19-51,10.2-14.8-7.2-20-20.2-20.4-35.7-.5-18.7,11.3-35.9,28.1-41.3,18.4-6,45.2,1.1,44.7,34H354.3Zm35.2-6.4c-1.5-6-2.2-11.7-4.4-16.6-3.6-8.3-12.9-10.2-19.9-4.5s-8.8,13.6-9.7,22.7C366.8,335.74,377.4,335.24,389.5,334.74Z"/><path class="cls-1" d="M232.2,307.94v9.6c-6.9,0-13.5.3-20-.1-4.5-.2-5.7,1.3-5.6,5.6.3,12.5.1,25,.1,37.5,0,13.2,4.7,17.6,18,16.9,2.6-.1,5.2,0,9.3,0-1.8,1.9-2.5,3.1-3.6,3.7-9.1,4.5-18.6,7.3-28.9,6-7.6-.9-12.1-4.8-12.8-12.4-.8-9.1-.6-18.3-.7-27.4-.1-8.3-.2-16.7,0-25,.1-3.7-.9-5.3-4.7-4.9-2.5.2-5.1,0-9.1,0,11.1-11.3,21.1-21.5,31.1-31.6a5.7,5.7,0,0,1,1.3.1v14.6c0,7.3,0,7.3,7.2,7.3C219.8,307.94,225.8,307.94,232.2,307.94Z"/><path class="cls-1" d="M162.3,112.74v-11.3c-3.9,2.8-7,5.2-10.3,7.2-8.6,5.3-17.8,7.1-27.8,4.8-8.8-2.1-14.5-8-14.8-16.7-.7-20.6-.2-41.2-.2-62.1h10.1v5.9c.1,17,0,34,.4,50.9.3,9.7,5.9,14.3,15.7,13.8,10.3-.5,18.3-5.7,25.4-12.5,1.2-1.1,1.4-3.6,1.4-5.5.1-15.5.1-31,.1-46.5v-6.2h10v78.1C169,112.74,165.9,112.74,162.3,112.74Z"/><path class="cls-1" d="M260.3,34.24c1.3,8.8,1.3,8.8-6.2,8.8-2.8,0-5.7,0-8.5.1a9.35,9.35,0,0,0-1.9.6v68.9H233.2v-5.4c0-19.5-.1-39,.1-58.4.1-4.6-1.2-6.4-5.9-5.8a64.73,64.73,0,0,1-7.7.1v-8.9h13.1c1.2-9.8-2.3-20.4,7.1-27.4,6.3-4.7,13.7-4.4,21.5-3.8v8.2c-5.3,1.2-13-1.4-15.7,5.2-2.2,5.2-1.8,11.5-2.7,17.9C249.5,34.24,254.8,34.24,260.3,34.24Z"/><path class="cls-1" d="M194.6,2.94h9.9v109.7h-9.9Z"/><path class="cls-1" d="M475.4,451.34c6.2,0,11.3-.3,16.4.1,6.5.4,10,3.3,10.9,8.3,1.1,5.8-1,9.5-7.1,12.7-.4.2-.8.6-1.6,1.1,3,5.6,6,11.3,8.9,16.9a15,15,0,0,0-1.1,1.3c-1.5-1-3.5-1.6-4.4-2.9-2-2.8-3.4-6.1-5.1-9.1-3.8-7-3.8-7-12.7-5.6,0,4.8.1,9.7-.1,14.7,0,.9-1.4,1.7-2.1,2.6-.7-.7-2-1.5-2-2.2C475.3,476.64,475.4,464.14,475.4,451.34Zm4.6,18.5c4.7-.3,9-.3,13.2-.9,3.6-.5,5.4-3,5.4-6.7s-2-6.2-5.5-6.7c-4.2-.6-8.5-.6-13.1-.8Z"/><path class="cls-1" d="M346.9,490.64v-40.7c2.7,1.9,5,2.7,6.1,4.3,5.5,7.8,10.6,15.7,15.9,23.6a7.86,7.86,0,0,0,3.7,3.1v-12.7c0-3.8-.2-7.7.1-11.5.1-1.8,1.3-3.5,1.9-5.3.7,1.8,2,3.5,2,5.3.2,9.8.2,19.7,0,29.5,0,1.7-1.1,3.4-1.7,5.1-1.5-1.1-3.4-2-4.4-3.5-5.6-8.1-11-16.3-16.4-24.4a7.43,7.43,0,0,0-3.5-2.8v20.1a62.57,62.57,0,0,1-.1,7.5c-.2,1.3-1.3,2.4-2,3.6A16.67,16.67,0,0,0,346.9,490.64Z"/><path class="cls-1" d="M198.3,480.44v-22.9a17.85,17.85,0,0,1,.1-4c.3-.9,1.3-1.5,2-2.2.6.8,1.8,1.6,1.8,2.4.1,11.6.1,23.3,0,34.9,0,.9-1.2,2.5-1.6,2.4a5.41,5.41,0,0,1-3.2-1.8c-4.1-5.9-8-11.9-12-17.8a75.19,75.19,0,0,0-8.9-11.4c-.1,1.8-.3,3.6-.3,5.4,0,7.5.1,15-.1,22.5,0,1.1-1.3,2.2-2,3.2-.7-1.1-1.9-2.2-1.9-3.3-.1-10.6-.2-21.3,0-31.9,0-1.6,1-3.1,1.6-4.7,1.6.9,3.8,1.3,4.8,2.6,5.3,7.5,10.2,15.2,15.3,22.8,1,1.5,2,2.9,3,4.3C197.4,480.74,197.9,480.64,198.3,480.44Z"/><path class="cls-1" d="M24.5,460.44V483a25.3,25.3,0,0,1-.1,5.5c-.3,1.1-1.5,2.1-2.3,3.1l-1.2-.6V450c2.6,1.8,4.9,2.6,6,4.2,5.5,7.7,10.6,15.7,15.9,23.6.7,1.1,1.6,2.1,3.1,4.2.2-2.4.5-3.7.5-5.1,0-7.5-.1-15,.1-22.5,0-1,1.4-2,2.1-3.1.6,1,1.8,2,1.8,3q.15,16.95,0,33.9c0,1-.9,1.9-1.3,2.9-1.2-.7-2.8-1-3.5-2-5.8-8.3-11.4-16.8-17.1-25.2-.9-1.3-1.9-2.5-2.8-3.8Z"/><path class="cls-1" d="M132,451.54c6.4,0,12.2-.4,17.9.1s8.7,3.7,9.5,8.6c.9,5.1-1.3,9.2-6.3,11.8-.7.4-1.4.7-2.6,1.3,3.1,5.8,6.1,11.5,9.1,17.1a10.59,10.59,0,0,1-1,1.2c-1.5-.9-3.6-1.5-4.5-2.8a73.28,73.28,0,0,1-5.1-9.1c-3.8-7-3.8-7-12.8-5.9,0,4.5.2,9-.1,13.6-.1,1.3-1.3,2.5-2.1,3.8-.7-1.2-2-2.4-2-3.7C131.9,475.64,132,463.74,132,451.54Zm4.6,18.4c4.9-.4,9.6-.2,13.9-1.4,2-.5,4.3-3.9,4.4-6s-2-5.9-3.9-6.4c-4.6-1.3-9.6-1.1-14.5-1.5C136.6,460.34,136.6,464.74,136.6,469.94Z"/><path class="cls-1" d="M623.3,293.74C613,306.84,603.5,319,593.9,331c-.9,1.1-2.9,1.2-5.6,2.2,5.5-13.4,10.4-25.4,15.5-37.3a4.42,4.42,0,0,1,3.4-2.1C612,293.64,617,293.74,623.3,293.74Z"/><path class="cls-1" d="M335.2,471.24c-.5,13.1-7.8,21.1-18.8,20.5-6.1-.3-10.3-3.6-12.9-8.8a26.32,26.32,0,0,1-.5-22.6c2.9-6.8,8.3-10.2,15.2-10a15.78,15.78,0,0,1,14.9,11.2C334.1,464.74,334.5,468,335.2,471.24Zm-4.7.2c.2,0,.3-.1.5-.1-.7-3-1-6.2-2.1-9.1-1.9-4.9-5.6-7.8-11-7.9s-9.2,3-10.9,7.9a30.44,30.44,0,0,0-1.6,11.2c.4,9,5.4,14.5,12.5,14.5s11.9-5.7,12.6-14.6Z"/><path class="cls-1" d="M575.1,491.84a24.81,24.81,0,0,1-3.7-4.3c-1.4-2.5-1.9-7.2-3.7-7.6a30.59,30.59,0,0,0-13.8-.2c-1.7.4-2.5,4.5-3.9,6.9-1,1.8-2.3,3.5-3.4,5.2-.5-.3-1-.6-1.6-.9a16.48,16.48,0,0,1,.4-3.2c3.9-11.1,7.8-22.3,11.8-33.4.5-1.4,2.2-2.4,3.3-3.6,1.2,1.2,2.9,2.1,3.4,3.5,4.4,12,8.6,24,12.8,36.1A11.72,11.72,0,0,1,575.1,491.84Zm-8.2-17.1c-2.1-6.2-3.9-11.5-5.7-16.9-.4,0-.8.1-1.2.1-1.8,5.4-3.6,10.8-5.6,16.7C558.8,474.74,562.4,474.74,566.9,474.74Z"/><path class="cls-1" d="M212.5,490.84c1.4-4.1,2.7-8,4-11.8,3-8.5,5.9-17,9-25.4a5.15,5.15,0,0,1,3.4-2.7c.8-.1,2.4,1.5,2.8,2.6,4.4,12.2,8.7,24.4,13,36.7-3.6,2.1-4.5-.2-5.5-2.6-3.2-8.5-3.3-8.1-11.9-8.7-6-.4-8.4,2.1-9.5,7.3C217.4,488.74,217.2,491.94,212.5,490.84ZM229.1,458h-1.2c-1.8,5.4-3.6,10.7-5.6,16.6h12.5C232.8,468.74,230.9,463.44,229.1,458Z"/><path class="cls-1" d="M386.5,491c4.7-13.1,9-25.7,13.6-38.1a3.92,3.92,0,0,1,2.9-2,3.38,3.38,0,0,1,2.7,1.6c4.6,12.6,9,25.3,13.4,37.9-.5.4-.9.8-1.4,1.2-1.3-1.1-3.1-2-3.7-3.4-3.9-9.1-3.9-8.7-13.1-9.2-5.1-.3-7.1,1.7-8.2,6.3C392,487.84,392,491.74,386.5,491Zm22.6-16.4c-2-5.9-3.8-11.1-5.6-16.4h-1.3c-1.8,5.3-3.7,10.7-5.7,16.4Z"/><path class="cls-1" d="M97.2,491.34v-40.1c7.3,0,14.5-.1,21.8.1.7,0,1.4,1.4,2,2.1-.8.6-1.7,1.6-2.5,1.6-5.5.1-10.9.1-17.2.1,0,3.9-.2,7.3.1,10.6.1.9,1.9,2.1,3,2.3,3,.3,6,0,9,.3.9.1,1.7,1.1,2.5,1.6a14.31,14.31,0,0,1-2.4,1.9c-.7.3-1.6,0-2.5.1-3.1.2-8.4-.3-8.8.9-1.3,3.7-.9,8.1-.7,12.2,0,.8,2.3,2,3.6,2.1,4.5.3,9,0,13.5.2,1.2.1,2.3,1.2,3.4,1.9-1,.7-2.1,2.1-3.1,2.1C111.8,491.44,104.8,491.34,97.2,491.34Z"/><path class="cls-1" d="M519.1,455.14v13c3.9,0,7.5-.2,11.1.1,1.1.1,2.2,1.3,3.3,1.9-1,.6-2.1,1.6-3.1,1.6-3.6.2-7.3.1-11.2.1v15.3c5.6,0,11-.1,16.5.1,1.4.1,2.8,1.3,4.2,2.1-1.4.7-2.9,1.9-4.3,1.9-5.6.2-11.3,0-17,.1-2.8.1-3.8-.9-3.8-3.7.1-11,.1-22,0-32.9,0-2.6.9-3.6,3.5-3.6,5.8.1,11.6-.1,17.5.1,1,0,2,1.1,3,1.7-1,.7-2.1,2-3.1,2.1C530.1,455.24,524.7,455.14,519.1,455.14Z"/><path class="cls-1" d="M433.7,487.14c5.6,0,10.5-.1,15.4.1,1.3.1,2.5,1.3,3.8,2-1.2.7-2.5,1.9-3.8,2-5.5.2-11,0-16.4.1-2.6.1-3.5-1-3.5-3.5.1-11,0-21.9.1-32.9,0-1.2,1.3-2.5,2-3.7.8,1.3,2.2,2.7,2.2,4.1.2,8.6.1,17.3.1,25.9C433.7,482.94,433.7,484.74,433.7,487.14Z"/><path class="cls-1" d="M71.6,455.14c-3.5,0-6.6.1-9.7-.1-1-.1-2-1.1-2.9-1.8.9-.7,1.8-2,2.7-2,8.1-.2,16.3-.1,24.4,0,.9,0,1.7,1.1,2.5,1.7-.9.7-1.7,2-2.6,2-3.1.3-6.2.1-10,.1,0,10.2.1,19.8-.1,29.4-.1,2.3-1.5,6.5-2,6.5-4.3-.5-2.1-4.1-2.2-6.3C71.5,475,71.6,465.44,71.6,455.14Z"/><path class="cls-1" d="M259.8,455.14c-3.7,0-6.9.2-9.9-.1-.9-.1-1.7-1.3-2.6-2.1.8-.6,1.7-1.7,2.5-1.7,8.2-.1,16.3-.1,24.5,0,.9,0,1.7,1.1,2.6,1.7-.9.7-1.7,2-2.6,2.1-3.1.3-6.3.1-10,.1,0,10.3.1,20.1-.1,29.9,0,2.1-1.3,4.2-2,6.3-.8-2-2.1-4.1-2.2-6.1C259.7,475.34,259.8,465.54,259.8,455.14Z"/><path class="cls-1" d="M590.3,487.14c5.9,0,10.9-.1,15.8.1,1.3.1,2.5,1.3,3.7,2.1-1.3.7-2.5,1.9-3.8,1.9-6.3.2-12.6.1-19.5.1-.1-2.5-.3-4.6-.3-6.7,0-9.8-.1-19.6.1-29.5,0-1.3,1.3-2.6,1.9-3.9.7,1.3,1.9,2.5,1.9,3.8.2,8.7.1,17.3.1,26C590.3,482.84,590.3,484.64,590.3,487.14Z"/><path class="cls-1" d="M289.9,471.54c0,5.5.1,11-.1,16.4,0,1.1-1.3,2.2-2,3.3-.8-1-2.1-2-2.2-3.1-.1-11.3-.1-22.6,0-33.8,0-1,1.4-2,2.2-3,.7,1.1,1.9,2.2,1.9,3.3C290.1,460.24,289.9,465.94,289.9,471.54Z"/><path class="cls-1" d="M2.8,471.14c0-5.5-.1-11,.1-16.4.1-1.2,1.5-2.3,2.3-3.4.6,1.1,1.8,2.3,1.8,3.4q.15,16.65,0,33.3c0,1.1-1.3,2.1-2,3.2-.7-1.1-2-2.1-2.1-3.2C2.7,482.34,2.8,476.74,2.8,471.14Z"/></g></g></svg>