<?xml version="1.0" encoding="utf-8"?>
<!-- Generator: Adobe Illustrator 18.0.0, SVG Export Plug-In . SVG Version: 6.00 Build 0)  -->
<!DOCTYPE svg PUBLIC "-//W3C//DTD SVG 1.1//EN" "http://www.w3.org/Graphics/SVG/1.1/DTD/svg11.dtd">
<svg version="1.1" id="Layer_1" xmlns="http://www.w3.org/2000/svg" xmlns:xlink="http://www.w3.org/1999/xlink" x="0px" y="0px"
	 viewBox="0.5 12.8 41.3 18.4" enable-background="new 0.5 12.8 41.3 18.4" xml:space="preserve">
<g>
	<path fill="#ED1B24" d="M16.4,19.6C16.5,19.6,16.5,19.5,16.4,19.6c0.6-0.5,1.2-0.7,1.9-0.8c0.6-0.1,1.3,0,1.9,0.3
		c0.2,0.1,0.3,0.2,0.5,0.3c0.6,0.4,1.3,0.9,1.9,1.3c0.1,0.1,0.2,0.1,0.3,0.2c0,0,0.1,0,0.1,0c0.1-0.1,0.2-0.1,0.3-0.2
		c0,0-0.1,0-0.1-0.1c-0.3-0.2-0.7-0.5-1-0.7c-0.4-0.3-0.8-0.6-1.2-0.8c-0.5-0.4-1-0.7-1.6-1.1c-0.6-0.4-1.2-0.8-1.8-1.3
		c-0.3-0.2-0.7-0.5-1-0.7c0,0,0,0-0.1,0c0.1,0,0.2-0.1,0.3-0.1c0.5-0.2,0.9-0.4,1.4-0.7c0.3-0.2,0.6-0.3,0.9-0.5
		c0.7-0.4,1.4-0.8,2-1.3c0.2-0.1,0.3-0.3,0.5-0.4c0,0,0-0.1,0.1-0.1c1.7,1.2,3.5,2.4,5.2,3.6c0,0-0.1,0.1-0.1,0.1
		c-0.4,0.3-0.9,0.6-1.5,0.7c-0.3,0.1-0.5,0.1-0.8,0.1c-0.5,0-0.9-0.1-1.3-0.3c-0.2-0.1-0.4-0.2-0.6-0.4c-0.6-0.4-1.1-0.8-1.7-1.2
		c-0.1-0.1-0.3-0.2-0.4-0.3c-0.1-0.1-0.1-0.1-0.2,0c-0.1,0-0.1,0.1-0.2,0.1c0,0,0,0-0.1,0.1c0,0,0,0,0.1,0.1
		c0.5,0.4,1.1,0.8,1.6,1.1c0.8,0.5,1.5,1.1,2.3,1.6c0.7,0.5,1.4,0.9,2,1.4c0.2,0.1,0.4,0.3,0.6,0.4c0,0,0,0,0.1,0.1
		c-0.1,0.1-0.3,0.1-0.4,0.2c-0.3,0.1-0.6,0.3-1,0.5c-0.9,0.4-1.7,1-2.6,1.5c-0.4,0.3-0.8,0.6-1.2,1c0,0,0,0,0,0
		C19.9,22,18.2,20.8,16.4,19.6z"/>
	<path fill="#0059A9" d="M7.7,26.9c0,0-0.1,0-0.1,0c-0.8,0-1.6,0-2.4,0c-0.1,0-0.1,0-0.2-0.1c-0.2-0.3-0.5-0.5-0.8-0.6
		c-0.2,0-0.4,0-0.6,0c-0.1,0-0.2,0-0.3,0.1c-0.2,0.1-0.3,0.2-0.3,0.3c0,0.1,0,0.2,0.1,0.2c0.1,0.1,0.2,0.1,0.3,0.1
		c0.2,0,0.4,0.1,0.7,0.1c0.5,0.1,0.9,0.1,1.4,0.2c0.5,0.1,0.9,0.2,1.4,0.4c0.3,0.1,0.5,0.3,0.7,0.5c0.5,0.5,0.5,1.1,0.3,1.6
		c-0.2,0.4-0.5,0.7-0.8,0.9C6.7,30.8,6.4,31,6.1,31c-0.3,0.1-0.7,0.1-1,0.2c-0.3,0-0.5,0-0.8,0c-0.3,0-0.7,0-1,0
		c-0.5,0-1-0.1-1.5-0.3c-0.2-0.1-0.4-0.2-0.6-0.3c-0.3-0.3-0.5-0.6-0.6-1c0-0.1,0-0.2,0-0.3c0,0,0,0,0-0.1c0,0,0.1,0,0.1,0
		c0.9,0,1.8,0,2.6,0c0.1,0,0.1,0,0.1,0.1c0.1,0.2,0.2,0.3,0.4,0.5c0.1,0.1,0.3,0.2,0.5,0.2c0.3,0,0.5,0,0.7-0.1
		c0.1,0,0.1-0.1,0.2-0.1c0.2-0.1,0.2-0.4,0-0.6C5.1,29,5,29,4.9,28.9c-0.2,0-0.3-0.1-0.5-0.1c-0.4,0-0.7-0.1-1.1-0.1
		c-0.4,0-0.9-0.1-1.3-0.2c-0.3-0.1-0.6-0.2-0.9-0.4c-0.3-0.2-0.5-0.5-0.5-0.9c0-0.3,0-0.6,0-0.8c0.1-0.4,0.4-0.7,0.7-0.9
		c0.3-0.2,0.7-0.4,1-0.5c0.5-0.1,1.1-0.2,1.7-0.2c0.3,0,0.6,0,0.9,0C5.5,24.9,6,25,6.5,25.2c0.3,0.1,0.6,0.3,0.8,0.6
		C7.6,26.1,7.7,26.4,7.7,26.9C7.7,26.8,7.7,26.8,7.7,26.9z"/>
	<path fill="#0059A9" d="M35.5,28c0.6,0.5,1.1,1,1.7,1.6c0.6,0.5,1.1,1,1.7,1.5c0,0,0,0-0.1,0c-1,0-1.9,0-2.9,0
		c-0.1,0-0.1,0-0.1-0.1c-0.7-0.7-1.4-1.3-2.1-2c0,0-0.1,0-0.1-0.1c0,0.1,0,0.1,0,0.1c0,0.5,0,1.1,0,1.6c0,0.1,0,0.2,0,0.3
		c0,0,0,0.1,0,0.1c-0.8,0-1.5,0-2.3,0c0-2,0-4,0-6.1c0,0,0.1,0,0.1,0c0.7,0,1.4,0,2.1,0c0,0,0,0,0.1,0c0,0,0,0.1,0,0.1
		c0,0.6,0,1.2,0,1.8c0,0,0,0.1,0,0.1c0,0,0.1,0,0.1-0.1c0.4-0.3,0.8-0.7,1.2-1c0.4-0.3,0.7-0.6,1.1-1c0,0,0.1-0.1,0.2-0.1
		c0.9,0,1.9,0,2.8,0c0,0,0.1,0,0.1,0c0,0,0,0.1-0.1,0.1c-0.3,0.3-0.7,0.6-1,0.9c-0.5,0.4-1,0.9-1.5,1.3C36.1,27.4,35.9,27.7,35.5,28
		C35.6,27.9,35.6,27.9,35.5,28z"/>
	<path fill="#0059A9" d="M23,25C23,25,23,25,23,25c0,0.5,0,0.8,0,1.2c0,0.1,0,0.1-0.1,0.2c-0.9,0.8-1.7,1.6-2.6,2.4
		c-0.2,0.2-0.5,0.5-0.7,0.7c0,0,0,0-0.1,0.1c0,0,0.1,0,0.1,0c0.1,0,0.1,0,0.2,0c1,0,2,0,3,0c0,0,0.1,0,0.1,0c0,0.5,0,1,0,1.5
		c0,0,0,0,0,0c0,0,0,0,0,0c-2.3,0-4.6,0-6.8,0c0,0,0,0-0.1,0c0,0,0-0.1,0-0.1c0-0.4,0-0.7,0-1.1c0-0.1,0-0.1,0.1-0.2
		c0.8-0.8,1.6-1.5,2.4-2.3c0.3-0.3,0.6-0.6,0.9-0.8c0,0,0,0,0.1-0.1c0,0-0.1,0-0.1,0c-0.1,0-0.1,0-0.2,0c-1,0-1.9,0-2.9,0
		c0,0-0.1,0-0.1,0c0-0.5,0-1,0-1.5C18.4,25,20.7,25,23,25z"/>
	<path fill="#0059A9" d="M13.2,25c0.7,0,1.5,0,2.2,0c0,0,0,0.1,0,0.1c0,1.3,0,2.7,0,4c0,0.3,0,0.6-0.2,0.9c-0.1,0.3-0.3,0.5-0.6,0.7
		c-0.3,0.2-0.6,0.3-0.8,0.3c-0.4,0.1-0.8,0.1-1.2,0.2c-0.4,0-0.8,0-1.3,0c-0.5,0-1-0.1-1.4-0.2c-0.3-0.1-0.5-0.2-0.8-0.3
		c-0.3-0.2-0.5-0.4-0.6-0.7c-0.1-0.2-0.2-0.5-0.2-0.8c0-0.2,0-0.4,0-0.6c0-1.2,0-2.4,0-3.6c0,0,0-0.1,0-0.1c0.1,0,2.1,0,2.2,0
		c0,0,0,0.1,0,0.1c0,1.2,0,2.5,0,3.7c0,0.1,0,0.2,0,0.2c0.1,0.2,0.2,0.4,0.4,0.5c0.2,0.1,0.3,0.1,0.5,0.1c0.3,0,0.6,0,0.9,0
		c0.2,0,0.3-0.1,0.5-0.2c0.2-0.2,0.3-0.4,0.3-0.6c0-1.2,0-2.5,0-3.8C13.2,25.1,13.2,25,13.2,25z"/>
	<path fill="#0059A9" d="M28.4,25c0.7,0,1.5,0,2.2,0c0,0,0,0.1,0,0.1c0,1.3,0,2.6,0,3.8c0,0.3,0,0.6-0.1,0.9
		c-0.1,0.4-0.3,0.7-0.6,0.9c-0.2,0.1-0.4,0.2-0.5,0.3c-0.3,0.1-0.6,0.2-0.9,0.2c-0.6,0.1-1.3,0.1-1.9,0.1c-0.5,0-1-0.1-1.4-0.2
		c-0.3-0.1-0.5-0.2-0.8-0.3c-0.3-0.2-0.5-0.5-0.6-0.8c-0.1-0.3-0.1-0.6-0.1-0.9c0-0.8,0-1.5,0-2.3c0-0.5,0-1.1,0-1.6
		c0,0,0-0.1,0-0.1c0.1,0,2.1,0,2.2,0c0,0,0,0.1,0,0.1c0,1.2,0,2.4,0,3.7c0,0.1,0,0.2,0,0.3c0.1,0.3,0.2,0.4,0.5,0.5
		c0.2,0.1,0.4,0.1,0.6,0.1c0.3,0,0.5,0,0.8-0.1c0.1,0,0.2-0.1,0.3-0.2c0.2-0.2,0.4-0.4,0.4-0.7c0,0,0-0.1,0-0.1c0-1.2,0-2.4,0-3.6
		C28.4,25.1,28.4,25,28.4,25z"/>
	<path fill="#0059A9" d="M41.8,25c0,2,0,4,0,6.1c0,0-0.1,0-0.1,0c-0.7,0-1.4,0-2.1,0c0,0-0.1,0-0.1,0c0-0.1,0-6,0-6.1
		C39.5,25,41.7,25,41.8,25z"/>
</g>
</svg>
