<?xml version="1.0" encoding="utf-8"?>
<!-- Generator: Adobe Illustrator 18.0.0, SVG Export Plug-In . SVG Version: 6.00 Build 0)  -->
<!DOCTYPE svg PUBLIC "-//W3C//DTD SVG 1.1//EN" "http://www.w3.org/Graphics/SVG/1.1/DTD/svg11.dtd">
<svg version="1.1" id="Layer_1" xmlns="http://www.w3.org/2000/svg" xmlns:xlink="http://www.w3.org/1999/xlink" x="0px" y="0px"
	 viewBox="4 12.5 35.8 18.8" enable-background="new 4 12.5 35.8 18.8" xml:space="preserve">
<g>
	<path fill="#E31319" d="M17.1,26.3c0,1.6,0,3.3,0,4.9c0,0.1,0,0.2-0.2,0.2c-0.4,0-0.8,0-1.2,0c-0.1,0-0.2,0-0.2-0.2
		c0-2.7,0-5.4,0-8c0-0.1,0-0.2,0.2-0.2c0.7,0,1.3,0,2,0c0.1,0,0.2,0,0.2,0.2c0.2,1.2,0.4,2.5,0.6,3.7c0,0,0,0,0,0.1
		c0-0.3,0.1-0.5,0.1-0.7c0.2-1,0.4-2.1,0.5-3.1c0-0.1,0-0.1,0.1-0.1c0.7,0,1.4,0,2.1,0c0.1,0,0.1,0.1,0.1,0.1c0,1.1,0,2.2,0,3.4
		c0,1.6,0,3.1,0,4.7c0,0.1,0,0.2-0.2,0.2c-0.4,0-0.8,0-1.3,0c-0.1,0-0.1,0-0.1-0.1c0-1.6,0-3.2,0-4.8c0-0.1,0-0.1,0-0.2
		c-0.1,0.1-0.1,0.2-0.1,0.3c-0.3,1.5-0.5,2.9-0.8,4.4c-0.1,0.3-0.1,0.3-0.4,0.3c-0.2,0-0.4,0-0.6,0c-0.1,0-0.1,0-0.1-0.1
		c-0.2-1.2-0.4-2.4-0.6-3.7C17.3,27.2,17.2,26.7,17.1,26.3c0-0.1,0-0.1,0-0.1C17.1,26.2,17.1,26.2,17.1,26.3z"/>
	<path fill="#E31319" d="M28.7,27.2c0-1.3,0-2.7,0-4c0-0.1,0-0.2,0.2-0.2c0.5,0,0.9,0,1.4,0c0.1,0,0.2,0,0.2,0.2c0,1,0,2,0,3
		c0,0.1,0,0.2,0.2,0.2c0.4,0,0.8,0,1.2,0c0.1,0,0.1,0,0.1-0.1c0-1,0-2,0-3c0-0.1,0-0.2,0.2-0.2c0.5,0,0.9,0,1.4,0
		c0.1,0,0.1,0,0.1,0.1c0,2.7,0,5.4,0,8.1c0,0.1,0,0.1-0.1,0.1c-0.5,0-0.9,0-1.4,0c-0.1,0-0.1,0-0.1-0.1c0-1.1,0-2.1,0-3.2
		c0-0.1,0-0.2-0.2-0.2c-0.4,0-0.8,0-1.2,0c-0.1,0-0.1,0-0.1,0.1c0,1.1,0,2.1,0,3.2c0,0.1,0,0.2-0.2,0.2c-0.5,0-0.9,0-1.4,0
		c-0.1,0-0.2,0-0.2-0.2C28.7,29.8,28.7,28.5,28.7,27.2z"/>
	<path fill="#E3141A" d="M37.2,23c0.3,0,0.7,0,1,0c0.1,0,0.1,0,0.1,0.1c0.2,1.4,0.5,2.8,0.7,4.1c0.2,1.3,0.5,2.7,0.7,4
		c0,0.1,0,0.1-0.1,0.1c-0.5,0-1,0-1.5,0c-0.1,0-0.1,0-0.1-0.1c-0.1-0.6-0.2-1.2-0.3-1.8c0-0.1,0-0.1-0.1-0.1c-0.3,0-0.7,0-1,0
		c-0.1,0-0.1,0-0.1,0.1c-0.1,0.6-0.2,1.2-0.2,1.7c0,0.1,0,0.1-0.1,0.1c-0.5,0-1,0-1.4,0c-0.1,0-0.1,0-0.1-0.1
		c0.3-1.5,0.5-2.9,0.8-4.4c0.2-1.2,0.4-2.5,0.7-3.8c0-0.1,0-0.1,0.1-0.1C36.6,23,36.9,23,37.2,23z M37.2,25c0,0,0,0.1-0.1,0.1
		c-0.1,0.9-0.2,1.8-0.4,2.7c0,0.1,0,0.1,0.1,0.1c0.2,0,0.4,0,0.6,0c0.1,0,0.1,0,0.1-0.1c0-0.2-0.1-0.4-0.1-0.6
		C37.4,26.4,37.3,25.7,37.2,25z"/>
	<path fill="#E3141A" d="M12,23c0.3,0,0.7,0,1,0c0.1,0,0.1,0,0.2,0.1c0.3,1.6,0.6,3.1,0.8,4.7c0.2,1.1,0.4,2.3,0.6,3.4
		c0,0.1,0,0.1-0.1,0.1c-0.5,0-1,0-1.5,0c-0.1,0-0.1,0-0.1-0.1c-0.1-0.6-0.2-1.2-0.2-1.7c0-0.1,0-0.1-0.1-0.1c-0.3,0-0.7,0-1,0
		c-0.1,0-0.1,0-0.1,0.1c-0.1,0.6-0.2,1.2-0.3,1.8c0,0.1,0,0.1-0.1,0.1c-0.5,0-1,0-1.4,0c-0.1,0-0.1,0-0.1-0.1
		c0.1-0.6,0.2-1.2,0.3-1.7c0.2-1,0.3-2,0.5-2.9c0.2-1,0.4-2.1,0.6-3.1c0-0.1,0-0.2,0.1-0.3c0-0.1,0.1-0.1,0.2-0.1
		C11.3,23,11.6,23,12,23z M12,24.9c-0.1,0.5-0.1,1-0.2,1.5c-0.1,0.4-0.1,0.8-0.2,1.2c0,0.2,0,0.2,0.1,0.2c0.2,0,0.4,0,0.6,0
		c0.1,0,0.1,0,0.1-0.1c-0.1-0.7-0.2-1.5-0.3-2.2C12,25.3,12,25.2,12,24.9z"/>
	<path fill="#E3141A" d="M6.8,26.7c0.1-0.3,0.2-0.6,0.2-0.9c0.2-0.9,0.5-1.8,0.7-2.7C7.8,23,7.8,23,7.9,23c0.5,0,1,0,1.4,0
		c0.1,0,0.1,0,0.1,0.1c-0.6,1.8-1.2,3.6-1.8,5.4c0,0.1,0,0.2,0,0.3c0,0.8,0,1.6,0,2.4c0,0.1,0,0.2-0.2,0.2c-0.5,0-1,0-1.5,0
		c-0.1,0-0.2,0-0.2-0.2c0-0.8,0-1.6,0-2.4c0-0.3-0.1-0.5-0.2-0.8c-0.5-1.6-1.1-3.2-1.6-4.9C4,23,4,23,4.2,23c0.5,0,0.9,0,1.4,0
		c0.1,0,0.2,0,0.2,0.2c0.3,1.1,0.6,2.2,0.9,3.4C6.7,26.6,6.7,26.6,6.8,26.7C6.7,26.7,6.8,26.7,6.8,26.7z"/>
	<path fill="#E0141A" d="M23.6,12.8c1.7,0.6,2.8,1.9,3.2,3.7c0.3,1.7-0.1,3.2-1.3,4.4c0,0-0.1,0.1-0.1,0.1c0-0.1,0-0.1,0.1-0.1
		c0.2-0.2,0.4-0.4,0.5-0.6c0.2-0.2,0.3-0.5,0.4-0.8c0.1-0.2,0.2-0.4,0.2-0.6c0,0,0,0,0-0.1c0.1-0.5,0.2-1,0.1-1.5
		c0-0.2,0-0.4-0.1-0.6c0-0.1,0-0.3-0.1-0.4c-0.1-0.3-0.1-0.6-0.3-0.8c-0.1-0.2-0.2-0.4-0.3-0.6c-0.3-0.5-0.7-0.9-1.1-1.2
		c0-0.1-0.1-0.2-0.2-0.2l0,0c0,0,0,0,0,0c-0.1-0.1-0.2-0.2-0.3-0.2c-0.2-0.1-0.5-0.2-0.7-0.3C23.6,12.9,23.6,12.9,23.6,12.8z"/>
	<path fill="#E86358" d="M17.4,15.7c0.2-0.5,0.5-1,0.9-1.5c0.5-0.6,1.1-1,1.8-1.3c0.5-0.2,1-0.3,1.5-0.4c0,0.1,0.1,0.1,0.1,0.2
		c-0.1,0-0.1,0-0.2,0c0,0,0,0-0.1,0c0,0,0,0,0,0c0,0,0,0,0,0c-0.1,0-0.1,0-0.2,0c0,0-0.1,0-0.1,0c0,0-0.1,0-0.1,0c0,0,0,0,0,0
		c0,0-0.1,0-0.1,0c0,0,0,0,0,0c0,0-0.1,0-0.1,0c0,0,0,0,0,0c0,0-0.1,0-0.1,0c0,0,0,0,0,0c0,0-0.1,0-0.1,0c0,0,0,0,0,0c0,0,0,0,0,0
		c-0.2,0-0.3,0.1-0.5,0.2c0,0,0,0-0.1,0c0,0-0.1,0-0.1,0.1c-0.6,0.3-1.1,0.7-1.5,1.2c-0.2,0.3-0.4,0.6-0.6,0.9l0,0c0,0,0,0,0,0.1
		c-0.1,0.1-0.1,0.2-0.2,0.4C17.5,15.8,17.4,15.7,17.4,15.7z"/>
	<path fill="#E0141A" d="M18.4,20.9c-0.7-0.7-1.1-1.5-1.3-2.5c-0.1-0.5-0.1-1-0.1-1.5c0,0,0-0.1,0-0.1c0.1,0,0.1,0.1,0.2,0.1
		c0,0.1,0,0.1,0,0.2c0,0.2,0,0.4,0,0.6c0,0.3,0,0.6,0.1,0.9c0.1,0.5,0.3,0.9,0.5,1.3c0,0.1,0.1,0.2,0.2,0.2c0,0,0,0,0,0c0,0,0,0,0,0
		l0,0c0,0,0,0,0,0l0,0c0,0.1,0,0.1,0.1,0.1l0,0c0,0,0,0.1,0.1,0.1v0c0,0,0,0,0,0l0,0C18.3,20.7,18.3,20.7,18.4,20.9L18.4,20.9
		C18.4,20.8,18.4,20.8,18.4,20.9C18.4,20.8,18.4,20.9,18.4,20.9z"/>
	<path fill="#4F191D" d="M26,20.2c-0.1,0.2-0.3,0.4-0.5,0.6c0,0-0.1,0.1-0.1,0.1l0,0c0,0,0,0,0,0l0,0l0,0c0,0,0,0,0,0l0,0
		c0,0,0,0,0,0c0,0,0,0,0,0c-0.1,0-0.1,0-0.1,0.1v0c0,0,0,0,0,0l0,0c0,0,0,0,0,0l0,0c0,0-0.1,0-0.1,0l0,0c0,0,0,0,0,0l0,0
		c0,0,0,0,0,0l0,0c0,0,0,0,0,0l0,0c0,0-0.1,0-0.1,0l0,0c0,0,0,0,0,0l0,0c0,0,0,0,0,0h0c0,0-0.1,0-0.1,0l0,0c0,0,0,0,0,0l0,0
		c0,0-0.1,0-0.1,0.1l0,0c0,0-0.1,0-0.1,0l0,0c0,0,0,0,0,0l0,0c0,0-0.1,0-0.1,0l0,0c0,0,0,0,0,0c-0.9,0.5-1.8,0.7-2.8,0.7
		c-0.7,0-1.3-0.2-2-0.5c-0.1-0.1-0.2-0.1-0.3-0.2c0,0,0,0,0-0.1c0.1,0,0.2,0.1,0.3,0.1c0.8,0.4,1.7,0.6,2.6,0.6
		c0.4,0,0.9-0.1,1.3-0.3c0.8-0.3,1.5-0.8,2.1-1.5C25.8,20.5,25.8,20.3,26,20.2L26,20.2z"/>
	<path fill="#E54437" d="M21.7,12.7c0-0.1-0.1-0.1-0.1-0.2c0.7-0.1,1.3,0,2,0.2c0,0.1,0,0.1,0,0.2c0,0,0,0-0.1,0c0,0,0,0-0.1,0
		c0,0,0,0-0.1,0c-0.1,0-0.1,0-0.2-0.1c0,0,0,0-0.1,0c0,0-0.1,0-0.1,0c0,0,0,0,0,0c0,0-0.1,0-0.1,0l0,0l0,0c0,0-0.1,0-0.1,0
		c-0.2-0.1-0.4-0.1-0.7-0.1c0,0-0.1,0-0.1,0.1c0,0,0,0,0,0C21.9,12.7,21.9,12.7,21.7,12.7C21.8,12.7,21.8,12.7,21.7,12.7z"/>
	<path fill="#E54437" d="M17.2,17c0-0.1-0.1-0.1-0.2-0.1c0-0.4,0.1-0.8,0.3-1.1c0.1,0,0.1,0.1,0.1,0.1c0,0.1-0.1,0.3-0.1,0.4
		c0,0,0,0,0,0.1c0,0,0,0,0,0c0,0,0,0.1,0,0.1c0,0,0,0,0,0c0,0,0,0,0,0.1c0,0,0,0,0,0.1c0,0,0,0.1,0,0.1c0,0,0,0,0,0
		C17.3,16.8,17.3,16.9,17.2,17C17.3,16.9,17.3,16.9,17.2,17C17.3,17,17.3,17,17.2,17z"/>
	<path fill="#E0141A" d="M25.2,21.2c0-0.1,0-0.1,0.1-0.1C25.3,21.2,25.3,21.2,25.2,21.2z"/>
	<path fill="#E0141A" d="M18.9,21.3c0,0-0.1-0.1-0.1-0.1c0,0,0,0,0,0c0,0,0,0,0.1,0C18.8,21.2,18.8,21.2,18.9,21.3
		C18.9,21.2,18.9,21.3,18.9,21.3C18.9,21.3,18.9,21.3,18.9,21.3z"/>
	<path fill="#EB7C7B" d="M17.1,26.3c0,0,0-0.1,0-0.1C17.2,26.2,17.2,26.2,17.1,26.3C17.1,26.3,17.1,26.3,17.1,26.3z"/>
	<path fill="#E0141A" d="M19.1,21.5c0,0-0.1-0.1-0.1-0.1c0,0,0,0,0,0C19,21.3,19,21.4,19.1,21.5C19,21.4,19,21.4,19.1,21.5
		C19.1,21.4,19.1,21.4,19.1,21.5C19.1,21.4,19.1,21.4,19.1,21.5z"/>
	<path fill="#E0141A" d="M19.4,21.7C19.3,21.7,19.3,21.6,19.4,21.7C19.3,21.6,19.3,21.6,19.4,21.7C19.3,21.6,19.3,21.6,19.4,21.7
		L19.4,21.7C19.3,21.6,19.4,21.6,19.4,21.7L19.4,21.7z"/>
	<path fill="#E0141A" d="M24.7,21.6C24.7,21.5,24.7,21.5,24.7,21.6C24.8,21.6,24.7,21.6,24.7,21.6z"/>
	<path fill="#E0141A" d="M19.2,21.5C19.1,21.5,19.1,21.5,19.2,21.5C19.1,21.5,19.1,21.5,19.2,21.5C19.1,21.5,19.1,21.5,19.2,21.5
		L19.2,21.5C19.2,21.5,19.2,21.5,19.2,21.5C19.2,21.5,19.2,21.5,19.2,21.5z"/>
	<path fill="#E0141A" d="M19.4,21.7C19.4,21.7,19.4,21.7,19.4,21.7C19.4,21.7,19.4,21.7,19.4,21.7L19.4,21.7
		C19.4,21.6,19.4,21.7,19.4,21.7L19.4,21.7z"/>
	<path fill="#E0141A" d="M18.7,21.2C18.7,21.1,18.6,21.1,18.7,21.2C18.6,21.1,18.6,21.1,18.7,21.2C18.7,21.1,18.7,21.1,18.7,21.2
		C18.7,21.1,18.7,21.2,18.7,21.2z"/>
	<path fill="#E0141A" d="M25.1,21.3C25.1,21.3,25.1,21.3,25.1,21.3C25.1,21.3,25.1,21.3,25.1,21.3z"/>
	<path fill="#E0141A" d="M18.9,21.4C18.9,21.4,18.9,21.3,18.9,21.4C18.9,21.3,18.9,21.3,18.9,21.4C18.9,21.3,18.9,21.3,18.9,21.4
		C18.9,21.4,18.9,21.4,18.9,21.4z"/>
	<path fill="#E0141A" d="M24.9,21.4C24.9,21.4,25,21.4,24.9,21.4C25,21.4,25,21.4,24.9,21.4z"/>
	<path fill="#E0141A" d="M24.8,21.5C24.8,21.5,24.8,21.5,24.8,21.5C24.9,21.5,24.8,21.5,24.8,21.5z"/>
	<path fill="#E0141A" d="M19.3,21.6C19.2,21.6,19.2,21.6,19.3,21.6C19.2,21.6,19.2,21.6,19.3,21.6C19.2,21.6,19.3,21.6,19.3,21.6
		C19.3,21.6,19.3,21.6,19.3,21.6z"/>
	<path fill="#E0141A" d="M24.6,21.6C24.6,21.6,24.7,21.6,24.6,21.6C24.7,21.6,24.7,21.6,24.6,21.6z"/>
	<path fill="#E0141A" d="M24.5,21.7C24.5,21.7,24.6,21.6,24.5,21.7C24.6,21.7,24.6,21.7,24.5,21.7z"/>
	<path fill="#E0141A" d="M18.4,20.9C18.4,20.9,18.4,20.9,18.4,20.9C18.4,20.9,18.4,20.8,18.4,20.9C18.4,20.8,18.4,20.9,18.4,20.9
		C18.4,20.9,18.4,20.9,18.4,20.9z"/>
	<path fill="#E0141A" d="M18.5,20.9C18.4,20.9,18.4,20.9,18.5,20.9C18.4,20.9,18.4,20.9,18.5,20.9C18.5,20.9,18.5,20.9,18.5,20.9
		C18.5,20.9,18.5,20.9,18.5,20.9z"/>
	<path fill="#E0141A" d="M18.5,21C18.5,20.9,18.5,20.9,18.5,21C18.5,20.9,18.5,20.9,18.5,21C18.5,20.9,18.5,20.9,18.5,21
		C18.5,20.9,18.5,20.9,18.5,21z"/>
	<path fill="#E0141A" d="M18.5,21C18.5,21,18.5,21,18.5,21C18.5,20.9,18.5,20.9,18.5,21C18.5,20.9,18.5,20.9,18.5,21
		C18.5,21,18.5,21,18.5,21z"/>
	<path fill="#E0141A" d="M18.5,21C18.5,21,18.5,21,18.5,21C18.5,21,18.5,21,18.5,21C18.5,21,18.6,21,18.5,21
		C18.6,21,18.6,21,18.5,21z"/>
	<path fill="#E0141A" d="M18.6,21C18.6,21,18.6,21,18.6,21C18.5,21,18.6,21,18.6,21C18.6,21,18.6,21,18.6,21
		C18.6,21,18.6,21,18.6,21z"/>
	<path fill="#E0141A" d="M25.4,21C25.4,21,25.4,21,25.4,21C25.4,21,25.4,21,25.4,21z"/>
	<path fill="#E0141A" d="M18.6,21.1C18.6,21.1,18.6,21.1,18.6,21.1C18.6,21,18.6,21,18.6,21.1C18.6,21,18.6,21,18.6,21.1
		C18.6,21.1,18.6,21.1,18.6,21.1z"/>
	<path fill="#E0141A" d="M25.3,21.1C25.3,21,25.4,21,25.3,21.1C25.4,21.1,25.4,21.1,25.3,21.1z"/>
	<path fill="#E0141A" d="M18.6,21.1C18.6,21.1,18.6,21.1,18.6,21.1C18.6,21.1,18.6,21.1,18.6,21.1C18.6,21.1,18.6,21.1,18.6,21.1
		C18.6,21.1,18.6,21.1,18.6,21.1z"/>
	<path fill="#E0141A" d="M25.3,21.1C25.3,21.1,25.3,21.1,25.3,21.1C25.4,21.1,25.3,21.1,25.3,21.1z"/>
	<path fill="#E0141A" d="M18.7,21.2C18.7,21.2,18.7,21.2,18.7,21.2C18.7,21.2,18.7,21.1,18.7,21.2C18.7,21.1,18.7,21.2,18.7,21.2
		C18.7,21.2,18.7,21.2,18.7,21.2z"/>
	<path fill="#E0141A" d="M25.2,21.2C25.2,21.2,25.2,21.2,25.2,21.2C25.2,21.2,25.2,21.2,25.2,21.2z"/>
	<path fill="#E0141A" d="M25.1,21.3C25.1,21.2,25.1,21.2,25.1,21.3C25.2,21.3,25.2,21.3,25.1,21.3z"/>
	<path fill="#E0141A" d="M25,21.3C25,21.3,25.1,21.3,25,21.3C25.1,21.3,25.1,21.3,25,21.3z"/>
	<path fill="#E0141A" d="M25,21.4C25,21.3,25,21.3,25,21.4C25,21.4,25,21.4,25,21.4z"/>
	<path fill="#E0141A" d="M25,21.4C25,21.4,25,21.4,25,21.4C25,21.4,25,21.4,25,21.4z"/>
	<path fill="#E0141A" d="M24.9,21.4C24.9,21.4,24.9,21.4,24.9,21.4C24.9,21.4,24.9,21.4,24.9,21.4z"/>
	<path fill="#E0141A" d="M19.1,21.5C19.1,21.5,19.1,21.5,19.1,21.5C19.1,21.4,19.1,21.4,19.1,21.5C19.1,21.4,19.1,21.5,19.1,21.5
		C19.1,21.5,19.1,21.5,19.1,21.5z"/>
	<path fill="#E0141A" d="M24.9,21.5C24.9,21.4,24.9,21.4,24.9,21.5C24.9,21.5,24.9,21.5,24.9,21.5z"/>
	<path fill="#E0141A" d="M24.8,21.5C24.8,21.5,24.8,21.5,24.8,21.5C24.8,21.5,24.8,21.5,24.8,21.5z"/>
	<path fill="#E0141A" d="M19.2,21.6C19.2,21.6,19.2,21.5,19.2,21.6C19.2,21.5,19.2,21.5,19.2,21.6C19.2,21.5,19.2,21.5,19.2,21.6
		C19.2,21.6,19.2,21.6,19.2,21.6z"/>
	<path fill="#E0141A" d="M24.6,21.7C24.6,21.6,24.6,21.6,24.6,21.7C24.6,21.6,24.6,21.7,24.6,21.7z"/>
	<path fill="#E0141A" d="M24.5,21.7C24.5,21.7,24.5,21.7,24.5,21.7C24.5,21.7,24.5,21.7,24.5,21.7z"/>
	<path fill="#E0141A" d="M18.9,21.3C18.9,21.3,18.9,21.3,18.9,21.3C18.9,21.3,18.9,21.3,18.9,21.3C18.9,21.3,18.9,21.3,18.9,21.3
		C18.9,21.3,18.9,21.3,18.9,21.3z"/>
	<path fill="#83889A" d="M24.9,13.8c0.5,0.3,0.8,0.8,1.1,1.2c0.1,0.2,0.2,0.4,0.3,0.6c-0.1,0-0.1,0-0.1-0.1c0-0.2-0.2-0.3-0.3-0.4
		c0,0-0.1-0.1-0.1,0c-0.1,0.1-0.2,0.4-0.2,0.6c0.1,0.2,0.1,0.3,0.2,0.5c0,0.1,0.1,0.1,0,0.2c0-0.1-0.1-0.2-0.1-0.3
		c0-0.1,0-0.1-0.1-0.1l0,0c-0.1-0.3-0.3-0.6-0.5-0.8c-0.2-0.2-0.4-0.4-0.6-0.6c0.1,0,0.2,0.1,0.3,0.1c0,0,0.1,0.1,0.1,0
		c0.2-0.1,0.2-0.5,0-0.6C24.9,13.9,24.9,13.8,24.9,13.8z"/>
	<path fill="#9499AB" d="M25.7,16.3c0.1-0.1,0.1-0.1,0-0.2c-0.1-0.2-0.1-0.3-0.2-0.5c0-0.1,0.1-0.5,0.2-0.6c0.1,0,0.1,0,0.1,0
		c0.1,0.1,0.2,0.2,0.3,0.4c0,0.1,0.1,0.1,0.1,0.1c0.1,0.3,0.2,0.5,0.3,0.8c0,0-0.1,0-0.1,0l0,0c0-0.2-0.1-0.4-0.2-0.6
		c0-0.1-0.1-0.1-0.2-0.1c-0.1,0.2-0.3,0.4-0.2,0.6c0,0.3,0.1,0.5,0.1,0.8c0-0.1,0-0.2-0.1-0.4l0,0c0,0,0-0.1,0-0.1l0,0
		c0-0.1,0-0.1,0-0.2c0,0,0,0,0-0.1l0,0C25.8,16.4,25.8,16.3,25.7,16.3C25.8,16.3,25.8,16.3,25.7,16.3C25.8,16.3,25.8,16.3,25.7,16.3
		z"/>
	<path fill="#BBBFCD" d="M26.7,16.8c0.1,0.2,0,0.4,0.1,0.6c0,0,0,0,0,0c-0.1,0-0.1-0.1-0.1-0.2c0-0.1,0-0.1-0.1-0.1
		c-0.1,0-0.1,0-0.1,0.1c0,0-0.1,0.1-0.1,0.2c-0.1,0.2-0.3,0.3-0.3,0.6c0,0.2-0.1,0.4-0.2,0.6c0-0.1,0-0.2,0-0.2
		c0-0.1,0.1-0.3,0.1-0.5c0,0,0.1,0,0.1-0.1c0.1-0.1,0.1-0.3,0.1-0.4c0-0.3,0.1-0.6,0.3-0.9c0.1-0.1,0.1-0.1,0.2-0.1l0,0
		c0,0.1,0,0.2,0,0.2C26.6,16.6,26.5,16.8,26.7,16.8z"/>
	<path fill="#BBBFCD" d="M23.5,13C23.5,13,23.6,13,23.5,13c0.3,0.1,0.5,0.2,0.8,0.3c0,0.1,0,0.1,0.1,0.2c0.2,0.2,0.3,0.3,0.1,0.5
		c0,0,0,0,0,0c0,0.1-0.1,0.1-0.2,0.1C24.1,14,24,14,23.9,14c-0.2-0.1-0.4-0.2-0.6-0.3c0,0,0-0.1,0.1,0c0.1,0,0.2,0.1,0.3,0.1
		c0.1,0.1,0.2,0,0.3-0.1c0-0.1,0.1-0.1,0.1-0.2c0-0.1,0-0.1,0-0.1c-0.1-0.1-0.2-0.1-0.3-0.1c0,0-0.1,0-0.1-0.1
		C23.5,13.1,23.5,13,23.5,13z"/>
	<path fill="#A4A7B7" d="M23.9,14c0.1,0,0.2,0,0.3,0.1c0.1,0.1,0.2,0.1,0.2-0.1c0,0,0,0,0,0c0.2-0.3,0.2-0.4-0.1-0.5
		c-0.1,0-0.1-0.1-0.1-0.2c0.1,0.1,0.3,0.1,0.3,0.2c0,0,0,0,0,0c0,0,0,0,0,0l0,0c0,0.1,0.1,0.2,0.2,0.3c0,0,0.1,0.1,0,0.1
		c0,0.1-0.1,0.2-0.1,0.3c0,0.1-0.1,0.2-0.2,0.1c0,0-0.1-0.1-0.1,0c0,0,0,0-0.1,0l0,0c0,0,0,0,0,0l0,0c0,0,0,0,0,0c0,0,0,0,0,0
		c0,0,0,0,0,0l0,0c0,0,0,0,0,0C24.1,14.1,24,14.1,23.9,14z"/>
	<path fill="#9499AB" d="M24.4,14.3c0,0,0.1,0,0.1,0c0.1,0.1,0.2,0,0.2-0.1c0-0.1,0.1-0.2,0.1-0.3c0-0.1,0-0.1,0-0.1
		c-0.1-0.1-0.2-0.2-0.2-0.3c0.1,0,0.2,0.1,0.2,0.2c0,0.1,0.1,0.2,0.1,0.2c0.1,0.1,0.1,0.5,0,0.6c-0.1,0-0.1,0-0.1,0
		C24.7,14.5,24.6,14.4,24.4,14.3L24.4,14.3C24.5,14.4,24.5,14.4,24.4,14.3z"/>
	<path fill="#4F191D" d="M26.5,18.9c0,0.2-0.1,0.4-0.2,0.6c-0.1,0.3-0.2,0.5-0.4,0.8l0,0c0,0,0-0.1,0-0.1c0,0,0,0,0-0.1
		c0.1,0,0.1,0,0.1-0.1c0,0,0,0,0-0.1c0.1,0,0.1,0,0.1-0.1C26.3,19.5,26.4,19.2,26.5,18.9C26.5,18.9,26.5,18.9,26.5,18.9z"/>
	<path fill="#4F191D" d="M26.7,17.4c0,0.5,0,1-0.1,1.5c0,0,0,0,0,0.1c0,0,0,0,0,0c0-0.1,0.1-0.3,0.1-0.4c0-0.1,0-0.2,0.1-0.3
		c0,0,0,0,0,0c0-0.1,0-0.1,0-0.2l0,0l0,0c0,0,0-0.1,0-0.1C26.7,17.6,26.7,17.5,26.7,17.4C26.7,17.4,26.7,17.4,26.7,17.4z"/>
	<path fill="#A4A7B7" d="M26.7,16.8c-0.1,0-0.1-0.1-0.1-0.2c0-0.1,0-0.1,0-0.2c0,0,0.1,0,0.1,0C26.6,16.5,26.7,16.6,26.7,16.8z"/>
	<path fill="#9499AB" d="M24.6,13.6C24.6,13.6,24.6,13.6,24.6,13.6C24.6,13.6,24.6,13.6,24.6,13.6C24.6,13.6,24.6,13.6,24.6,13.6z"
		/>
	<path fill="#F4F4F7" d="M17.3,16.8C17.3,16.7,17.3,16.7,17.3,16.8c0.1-0.1,0-0.1,0-0.2c0,0,0,0,0-0.1c0,0,0,0,0-0.1c0,0,0,0,0,0
		c0,0,0,0,0-0.1c0,0,0,0,0,0c0,0,0,0,0-0.1c0-0.1,0.1-0.3,0.1-0.4c0.1-0.1,0.1-0.2,0.2-0.4c0,0,0.1,0,0-0.1l0,0
		c0.1,0,0.2-0.1,0.2-0.2c0.2-0.4,0.5-0.7,0.8-1c0.3-0.3,0.6-0.5,0.9-0.7c0.1-0.1,0.2-0.1,0.2-0.2c0,0,0.1,0,0.1-0.1
		c0,0.1,0.1,0,0.1,0c0.1-0.1,0.3-0.1,0.5-0.2c0,0,0,0,0,0c0,0,0,0,0,0c0,0,0.1,0,0.1,0c0,0,0,0,0,0c0,0,0.1,0,0.1,0c0,0,0,0,0,0
		c0,0,0.1,0,0.1,0c0,0,0,0,0,0c0,0,0.1,0,0.1,0c0,0,0,0,0,0c0,0,0.1,0,0.1,0c0,0,0.1,0,0.1,0c0,0,0,0,0,0c0,0.1-0.1,0.1-0.2,0.1
		c-0.1,0-0.2,0-0.3,0.1c-0.3,0.1-0.5,0.3-0.6,0.6c-0.1,0.1-0.1,0.2,0.1,0.2c0.1,0,0.1,0,0.1,0c0.3-0.2,0.6-0.2,1-0.3
		c0.1,0,0.3-0.1,0.3-0.2c0,0,0.1-0.1,0.1-0.1c0,0.1,0,0.2-0.1,0.3c0,0,0,0,0,0.1h0c0,0-0.1,0-0.1,0c0,0,0,0,0,0c0,0,0,0-0.1,0
		c-1.1,0.1-2,0.7-2.7,1.5c-0.4,0.5-0.6,1-0.7,1.5c0,0,0,0.1,0,0.1c-0.1,0.5-0.1,1,0,1.5c-0.1,0.1-0.1,0.2-0.1,0.3c0,0,0,0,0,0.1
		c-0.1,0-0.2,0.1-0.3,0.1c-0.1,0.1-0.2,0-0.3-0.1c0-0.1-0.1-0.1-0.2-0.1c0-0.1,0-0.2-0.1-0.3c0,0,0-0.1,0-0.1c0,0,0-0.1,0-0.1
		c0-0.2,0-0.3,0-0.5c0,0,0,0,0,0c0,0,0,0,0,0c0,0,0,0,0-0.1c0-0.1,0-0.2,0-0.3c0,0,0,0,0,0C17.3,16.9,17.3,16.8,17.3,16.8z"/>
	<path fill="#FEFDFE" d="M21.8,13.2c0,0-0.1,0-0.1,0.1c-0.1,0.1-0.2,0.2-0.3,0.2c-0.3,0.1-0.7,0.1-1,0.3c0,0-0.1,0-0.1,0
		c-0.1,0-0.1,0-0.1-0.2c0.1-0.3,0.4-0.5,0.6-0.6c0.1,0,0.2,0,0.3-0.1c0.1,0,0.2,0,0.2-0.1c0,0,0.1,0,0.1,0c0,0,0,0,0,0c0,0,0,0,0,0
		c0,0,0,0,0.1,0c0,0,0,0,0,0c0.1,0.1,0.2,0.2,0.2,0.3C21.8,13.1,21.8,13.2,21.8,13.2z"/>
	<path fill="#E2E2E9" d="M19.9,13.2c0,0.1-0.1,0.2-0.2,0.2c-0.3,0.2-0.7,0.5-0.9,0.7c-0.3,0.3-0.6,0.6-0.8,1c0,0.1-0.1,0.2-0.2,0.2
		c0.1-0.3,0.3-0.6,0.6-0.9C18.8,13.9,19.3,13.5,19.9,13.2z"/>
	<path fill="#E2E2E9" d="M21.5,12.8C21.5,12.8,21.5,12.8,21.5,12.8c0.1,0,0.1,0,0.2,0c0,0,0.1,0,0.1,0
		C21.7,12.8,21.6,12.8,21.5,12.8z"/>
	<path fill="#E2E2E9" d="M21.4,12.8c0,0-0.1,0-0.1,0c0,0,0,0,0,0C21.3,12.8,21.4,12.8,21.4,12.8z"/>
	<path fill="#E2E2E9" d="M20.1,13.1C20.1,13.2,20.1,13.2,20.1,13.1C20,13.1,20.1,13.1,20.1,13.1z"/>
	<path fill="#E2E2E9" d="M17.7,15.4C17.8,15.4,17.7,15.4,17.7,15.4C17.7,15.4,17.7,15.4,17.7,15.4z"/>
	<path fill="#E2E2E9" d="M21.2,12.8c0,0-0.1,0-0.1,0C21.1,12.8,21.2,12.8,21.2,12.8z"/>
	<path fill="#E2E2E9" d="M21,12.8c0,0-0.1,0-0.1,0C21,12.8,21,12.8,21,12.8z"/>
	<path fill="#E2E2E9" d="M20.9,12.9C20.9,12.9,20.8,12.9,20.9,12.9C20.8,12.9,20.9,12.9,20.9,12.9z"/>
	<path fill="#E2E2E9" d="M20.8,12.9C20.8,12.9,20.7,12.9,20.8,12.9C20.7,12.9,20.7,12.9,20.8,12.9z"/>
	<path fill="#E2E2E9" d="M20.7,12.9C20.6,13,20.6,13,20.7,12.9C20.6,12.9,20.6,12.9,20.7,12.9z"/>
	<path fill="#E2E2E9" d="M20.6,13C20.6,13,20.5,13,20.6,13C20.5,13,20.6,13,20.6,13z"/>
	<path fill="#E2E2E9" d="M21.5,12.8C21.5,12.8,21.5,12.8,21.5,12.8C21.5,12.8,21.5,12.8,21.5,12.8z"/>
	<path fill="#1B0F11" d="M25.9,20.1C26,20.1,26,20.2,25.9,20.1c-0.1,0.2-0.2,0.4-0.3,0.5c-0.6,0.7-1.2,1.2-2.1,1.5
		c-0.4,0.1-0.8,0.2-1.3,0.3c-0.9,0.1-1.8-0.1-2.6-0.6c-0.1,0-0.2-0.1-0.3-0.1l0,0c0-0.1,0-0.1-0.1-0.1l0,0c0-0.1-0.1-0.1-0.2-0.1
		l0,0c0-0.1-0.1-0.1-0.1-0.1c0,0,0,0,0,0c0-0.1-0.1-0.1-0.2-0.1c0,0,0,0,0,0c-0.1-0.2-0.2-0.3-0.4-0.4l0,0c0-0.1-0.1-0.2-0.1-0.2
		l0,0c0,0,0,0,0,0v0c0,0,0-0.1-0.1-0.1l0,0c0-0.1,0-0.1-0.1-0.1l0,0c0,0,0,0,0,0l0,0c0,0,0,0,0,0c0,0,0,0,0,0c0-0.1-0.1-0.1,0-0.2
		c0,0,0.1,0.1,0.1,0.1c0.1,0.1,0.1,0.2,0.2,0.3c0,0,0,0,0,0c0,0,0,0,0,0c0.1,0.2,0.4,0.4,0.6,0.6c0.4,0.3,0.8,0.6,1.2,0.7
		c0.1,0.1,0.3,0.1,0.5,0.2c0.2,0.1,0.3,0.1,0.5,0.1c0.3,0.1,0.5,0.1,0.8,0.1c0.2,0,0.3,0,0.5,0c0.3,0,0.5,0,0.8-0.1
		c0.2,0,0.4-0.1,0.6-0.2C24.6,21.5,25.4,20.9,25.9,20.1z"/>
	<path fill="#4F191D" d="M17.2,17.8C17.2,17.9,17.2,17.9,17.2,17.8c0,0.1,0,0.2,0,0.2c0,0.1,0,0.2,0.1,0.3c0,0.1,0,0.2,0.1,0.3
		c0,0.1,0.1,0.2,0.1,0.4c0,0,0,0,0,0.1c0,0,0,0,0,0c0.1,0.2,0.1,0.4,0.2,0.6c0,0,0,0,0,0.1c-0.1,0,0,0.1,0,0.1
		c0,0.1,0.1,0.1,0.1,0.2l0,0c-0.3-0.4-0.4-0.8-0.5-1.3C17.3,18.4,17.2,18.1,17.2,17.8C17.2,17.8,17.2,17.8,17.2,17.8z"/>
	<path fill="#4F191D" d="M18.4,20.8c0.2,0.1,0.3,0.2,0.4,0.4c0,0,0,0-0.1,0c0,0,0,0,0,0c0,0,0,0-0.1-0.1c0,0,0,0,0,0c0,0,0,0,0,0
		c0,0,0,0,0,0s0,0,0,0c0,0,0,0,0,0s0,0,0,0C18.5,20.9,18.4,20.9,18.4,20.8C18.4,20.9,18.4,20.8,18.4,20.8
		C18.4,20.8,18.4,20.8,18.4,20.8z"/>
	<path fill="#83889A" d="M17.2,17.8C17.2,17.8,17.2,17.8,17.2,17.8c0-0.2,0-0.4,0-0.6c0,0,0,0,0,0.1c0,0,0,0,0,0.1c0,0,0,0,0,0
		C17.2,17.5,17.2,17.7,17.2,17.8z"/>
	<path fill="#4F191D" d="M18,20.1c0,0.1,0,0.1,0,0.2c-0.1-0.1-0.1-0.1-0.2-0.2l0,0C17.9,20,17.9,20.1,18,20.1L18,20.1z"/>
	<path fill="#4F191D" d="M18.3,20.6c0.1,0,0.1,0.1,0.1,0.2C18.3,20.7,18.3,20.7,18.3,20.6z"/>
	<path fill="#E2E2E9" d="M17.3,17.2C17.2,17.2,17.2,17.2,17.3,17.2c0-0.1,0-0.2,0-0.3c0,0,0,0,0,0C17.3,17,17.3,17.1,17.3,17.2z"/>
	<path fill="#4F191D" d="M18.1,20.4c0.1,0,0.1,0.1,0.1,0.1C18.1,20.5,18.1,20.4,18.1,20.4z"/>
	<path fill="#4F191D" d="M18.2,20.5C18.2,20.5,18.2,20.5,18.2,20.5C18.2,20.6,18.2,20.5,18.2,20.5z"/>
	<path fill="#4F191D" d="M18,20.3C18,20.3,18,20.3,18,20.3C18,20.3,18,20.3,18,20.3z"/>
	<path fill="#4F191D" d="M18.1,20.3C18.1,20.3,18.1,20.4,18.1,20.3C18.1,20.4,18.1,20.3,18.1,20.3z"/>
	<path fill="#4F191D" d="M18.2,20.6C18.2,20.6,18.3,20.6,18.2,20.6C18.3,20.6,18.2,20.6,18.2,20.6z"/>
	<path fill="#E2E2E9" d="M23.6,13.1c0,0,0.1,0,0.1,0.1c0,0,0,0.1,0,0.1c0,0.2-0.1,0.3-0.3,0.3c-0.1,0-0.2,0-0.3-0.1
		c-0.1,0-0.1,0-0.1,0.1c-0.2,0-0.4-0.1-0.6-0.1c0-0.1,0.1-0.1,0.1-0.1c0.2,0.1,0.2-0.1,0.3-0.2c0.1-0.1-0.1-0.4-0.2-0.4
		c-0.2,0-0.3,0-0.5,0c0,0-0.1,0-0.1,0.1c0,0,0,0-0.1,0c0-0.1,0.1-0.1,0.1-0.1c0.2,0,0.4,0,0.7,0.1c0,0,0.1,0,0.1,0l0,0l0,0
		c0,0.1,0.1,0,0.1,0c0,0,0,0,0,0c0,0,0.1,0,0.1,0c0,0,0,0,0.1,0C23.3,13.1,23.4,13.1,23.6,13.1z"/>
	<path fill="#F4F4F7" d="M21.5,12.8c0.1,0,0.2,0,0.3,0c0.1,0,0.1,0,0.1,0.1c-0.1,0.1-0.1,0.2-0.1,0.3c0,0,0,0,0,0
		C21.7,13,21.6,12.9,21.5,12.8z"/>
	<path fill="#1B0F11" d="M21.8,13.1c0-0.1,0-0.2,0.1-0.3c0,0,0,0,0,0c0,0,0,0,0.1,0c0.1,0.1,0.1,0.2,0.1,0.3c0,0-0.1,0-0.1-0.1
		c0,0,0-0.1-0.1-0.1C21.9,13,21.9,13,21.8,13.1C21.9,13.1,21.9,13.1,21.8,13.1z"/>
	<path fill="#D1D3DD" d="M23.6,13.1c-0.1-0.1-0.3,0-0.3-0.2c0.1,0,0.1,0,0.2,0.1c0,0,0,0,0.1,0c0,0,0,0,0.1,0
		C23.5,13,23.5,13.1,23.6,13.1z"/>
	<path fill="#D1D3DD" d="M22.9,12.8c0,0-0.1,0-0.1,0C22.8,12.8,22.8,12.8,22.9,12.8z"/>
	<path fill="#D1D3DD" d="M23,12.9c0,0-0.1,0-0.1,0C22.9,12.8,23,12.8,23,12.9z"/>
	<path fill="#D1D3DD" d="M23.1,12.9c0,0-0.1,0-0.1,0C23.1,12.9,23.1,12.9,23.1,12.9z"/>
	<path fill="#BBBFCD" d="M23.5,13C23.4,13,23.4,13,23.5,13C23.4,13,23.4,13,23.5,13z"/>
	<path fill="#E2E2E9" d="M17.3,16.8c0,0.1,0,0.1,0,0.2C17.3,16.9,17.3,16.8,17.3,16.8z"/>
	<path fill="#E2E2E9" d="M17.3,16.6c0,0,0,0.1,0,0.1C17.3,16.7,17.3,16.6,17.3,16.6z"/>
	<path fill="#E2E2E9" d="M17.4,16.4C17.4,16.5,17.4,16.5,17.4,16.4C17.3,16.5,17.3,16.5,17.4,16.4z"/>
	<path fill="#E2E2E9" d="M17.4,16.2C17.4,16.2,17.4,16.3,17.4,16.2C17.4,16.2,17.4,16.2,17.4,16.2z"/>
	<path fill="#E2E2E9" d="M17.4,16.3C17.4,16.3,17.4,16.4,17.4,16.3C17.4,16.4,17.4,16.3,17.4,16.3z"/>
	<path fill="#4F191D" d="M18.8,21.2c0.1,0,0.1,0.1,0.2,0.1c0,0,0,0-0.1,0C18.9,21.3,18.9,21.3,18.8,21.2
		C18.9,21.3,18.9,21.3,18.8,21.2C18.9,21.3,18.9,21.2,18.8,21.2z"/>
	<path fill="#4F191D" d="M19,21.4c0.1,0,0.1,0,0.1,0.1C19.1,21.5,19.1,21.5,19,21.4C19.1,21.5,19.1,21.4,19,21.4
		C19.1,21.4,19.1,21.4,19,21.4z"/>
	<path fill="#4F191D" d="M19.2,21.5c0.1,0,0.1,0,0.2,0.1c0,0,0,0-0.1,0C19.3,21.6,19.2,21.6,19.2,21.5
		C19.2,21.5,19.2,21.5,19.2,21.5C19.2,21.5,19.2,21.5,19.2,21.5z"/>
	<path fill="#4F191D" d="M19.3,21.6C19.4,21.6,19.4,21.6,19.3,21.6C19.4,21.7,19.4,21.6,19.3,21.6C19.4,21.6,19.3,21.6,19.3,21.6z"
		/>
	<path fill="#1B0F11" d="M22.4,13.5c0.2,0,0.4,0.1,0.6,0.1c0.1,0.1,0.2,0.1,0.3,0.1c0.2,0.1,0.4,0.2,0.6,0.3
		c0.1,0.1,0.2,0.1,0.3,0.2c0,0,0,0,0,0l0,0c0,0,0,0,0,0c0,0,0,0,0,0c0,0,0,0,0,0l0,0c0,0,0,0,0,0l0,0c0,0.1,0.1,0.1,0.1,0.1l0,0
		c0.2,0.2,0.4,0.4,0.6,0.6c0.2,0.3,0.4,0.5,0.5,0.8c-0.1,0-0.1-0.2-0.2-0.2v0c0-0.1,0-0.1-0.1-0.1l0,0c0,0,0-0.1-0.1-0.1l0,0
		c0-0.1,0-0.1-0.1-0.1l0,0c0-0.1,0-0.1-0.1-0.1l0,0c0,0,0,0,0,0l0,0c0,0,0,0,0,0l0,0c0,0,0,0,0,0l0,0c0,0,0,0,0,0c0,0,0,0,0,0
		c0,0,0-0.1-0.1-0.1l0,0c0,0,0,0,0,0l0,0c0,0,0,0,0,0l0,0c0,0,0,0,0,0l0,0c0,0,0,0,0,0l0,0c0,0,0,0,0,0l0,0c0,0,0,0,0,0l0,0
		c0-0.1-0.1-0.1-0.2-0.2l0,0c0,0,0,0,0,0c0,0,0,0,0,0c0-0.1,0-0.1-0.1-0.1l0,0c0-0.1-0.1-0.1-0.2-0.1l0,0c-0.1-0.1-0.2-0.2-0.3-0.2
		c0,0,0,0,0,0c-0.2-0.2-0.4-0.2-0.6-0.3c-0.3-0.1-0.6-0.2-1-0.2c-0.1,0-0.2-0.1-0.1-0.2C22.3,13.5,22.4,13.5,22.4,13.5z"/>
	<path fill="#4F191D" d="M25.4,15.6c0.1,0,0.1,0.2,0.2,0.2l0,0c0,0.1,0,0.1,0.1,0.1c0,0.1,0.1,0.2,0.1,0.3c0,0,0,0.1,0,0.1
		c0,0,0,0,0,0c0,0.1,0,0.2,0.1,0.2l0,0c0,0,0,0.1,0,0.1l0,0c0,0.2,0.1,0.4,0,0.7c0,0,0,0,0-0.1c0-0.4-0.1-0.7-0.2-1
		C25.6,16.1,25.5,15.9,25.4,15.6z"/>
	<path fill="#1B0F11" d="M25.6,16c-0.1,0-0.1-0.1-0.1-0.1C25.6,15.9,25.6,15.9,25.6,16z"/>
	<path fill="#A4A7B7" d="M25.9,17.4c0-0.2,0-0.4,0-0.7c0.1,0.1,0.1,0.2,0.1,0.4c0-0.3,0-0.5-0.1-0.8c0-0.2,0.1-0.4,0.2-0.6
		c0.1-0.1,0.1,0,0.2,0.1c0.1,0.2,0.2,0.4,0.2,0.6c-0.1-0.1-0.1,0-0.2,0.1C26.1,16.7,26,17,26,17.3c0,0.1,0,0.3-0.1,0.4l0,0
		C26,17.6,26,17.5,25.9,17.4C25.9,17.4,25.9,17.4,25.9,17.4C25.9,17.4,25.9,17.4,25.9,17.4z"/>
	<path fill="#A4A7B7" d="M25.9,16.6c0-0.1-0.1-0.2-0.1-0.2c0,0,0,0,0,0l0,0c0,0,0,0,0,0.1C25.9,16.5,25.9,16.6,25.9,16.6z"/>
	<path fill="#83889A" d="M25.8,16.4C25.8,16.4,25.8,16.4,25.8,16.4C25.8,16.4,25.8,16.4,25.8,16.4C25.8,16.3,25.8,16.3,25.8,16.4
		C25.8,16.3,25.8,16.4,25.8,16.4z"/>
	<path fill="#A4A7B7" d="M25.9,16.8c0,0,0-0.1,0-0.1C25.9,16.7,25.9,16.7,25.9,16.8z"/>
	<path fill="#83889A" d="M25.8,16.5C25.8,16.4,25.8,16.4,25.8,16.5C25.9,16.4,25.9,16.4,25.8,16.5z"/>
	<path fill="#E0141A" d="M25.4,15.6c0.1,0.2,0.2,0.4,0.3,0.6c0.1,0.3,0.2,0.7,0.2,1c0,0,0,0,0,0.1c0,0,0,0,0,0c0,0,0,0,0,0.1
		c0,0.1,0,0.2,0,0.3c0,0.2,0,0.3-0.1,0.5c-0.1,0.3-0.2,0.6-0.3,0.9c0,0,0,0.1,0,0.1c0,0,0,0.1,0,0.1c0,0-0.1-0.1-0.1-0.1
		c0,0,0,0,0-0.1l0,0c0,0-0.1-0.1-0.1-0.1c0,0,0,0,0,0c0,0,0,0-0.1-0.1c-0.2-0.3-0.2-0.3-0.5-0.2c-0.1,0-0.2-0.1-0.3-0.1
		c-0.1-0.1-0.1-0.2-0.2-0.3c0-0.1,0-0.2-0.1-0.2c0,0,0,0,0-0.1c0,0,0,0,0-0.1c0,0,0,0,0,0c0,0,0-0.1-0.1-0.1l0,0c0,0,0,0,0,0l0,0
		c0,0,0,0,0,0c-0.1-0.1-0.2-0.1-0.3-0.2c0,0,0-0.1,0.1-0.1c0.5-0.3,0.9-0.5,1.4-0.8c0.1-0.1,0.2-0.1,0.1-0.3c0-0.1-0.1-0.2-0.2-0.3
		c0,0-0.1,0-0.1,0c0,0-0.1,0-0.1,0l0,0c0,0,0,0,0,0l0,0c0,0-0.1,0-0.1,0h0c-0.1,0-0.1,0-0.1,0.1l0,0c0,0,0,0,0,0l0,0
		c0,0-0.1,0-0.1,0c-0.1,0-0.1,0.1-0.2,0.1c0,0-0.1,0-0.1,0l0,0c0,0,0,0,0,0l0,0c0,0-0.1,0-0.1,0h0c-0.1,0-0.1,0-0.1,0.1l0,0
		c0,0,0,0,0,0l0,0c0,0-0.1,0-0.1,0c-0.1,0.1-0.1,0.1-0.2,0.1c0,0-0.1,0-0.1,0h0c0,0,0,0-0.1,0c0-0.1,0-0.1,0-0.2
		c0.1-0.2,0.2-0.4,0.2-0.6c0.2-0.1,0.4-0.2,0.6-0.3c0.1-0.1,0.2-0.2,0.1-0.3c-0.2-0.4-0.1-0.3-0.5-0.1c0,0,0,0,0,0c0,0-0.1,0-0.1,0
		c0,0-0.1,0-0.1,0.1c0,0,0,0-0.1,0c0.1-0.4,0-0.8,0-1.2c0.1,0,0.1,0.1,0.2,0.1l0,0c0,0,0.1,0.1,0.2,0.1l0,0c0,0,0,0.1,0.1,0.1
		c0,0,0,0,0,0c0,0,0,0,0,0l0,0c0,0.1,0.1,0.1,0.2,0.2l0,0c0,0,0,0,0,0l0,0c0,0,0,0,0,0l0,0c0,0,0,0,0,0l0,0c0,0,0,0,0,0l0,0
		c0,0,0,0,0,0l0,0c0,0,0,0,0,0l0,0c0,0,0,0.1,0.1,0.1c0,0,0,0,0,0c0,0,0,0,0,0l0,0c0,0,0,0,0,0l0,0c0,0,0,0,0,0l0,0c0,0,0,0,0,0l0,0
		c0,0.1,0,0.1,0.1,0.1l0,0c0,0.1,0,0.1,0.1,0.1l0,0c0,0,0,0.1,0.1,0.1l0,0C25.3,15.6,25.3,15.6,25.4,15.6L25.4,15.6z"/>
	<path fill="#D1D3DD" d="M25.6,19.2c0,0,0-0.1,0-0.1c0.1-0.3,0.2-0.6,0.3-0.9c0.1,0.1,0,0.1,0,0.2C26,18.2,26,18,26,17.8
		c0-0.2,0.2-0.4,0.3-0.6c0-0.1,0.1-0.1,0.1-0.2c0,0,0-0.1,0.1-0.1c0.1,0,0.1,0.1,0.1,0.1c0,0.1,0,0.2,0.1,0.2c0,0.1,0,0.3,0,0.4
		c0,0,0,0.1,0,0.1l0,0l0,0c-0.1,0-0.1-0.1-0.1-0.1c0-0.1,0-0.1,0-0.2c0-0.1-0.1-0.1-0.1,0c-0.2,0.2-0.4,0.5-0.5,0.7
		c-0.1,0.2-0.2,0.5-0.3,0.8c0,0,0,0,0,0.1c-0.1,0.1-0.1,0.1-0.1,0.2C25.6,19.3,25.6,19.3,25.6,19.2z"/>
	<path fill="#A4A7B7" d="M25.9,17.8c0-0.1,0-0.2,0-0.3C26,17.5,25.9,17.6,25.9,17.8L25.9,17.8C26,17.7,26,17.7,25.9,17.8z"/>
	<path fill="#D1D3DD" d="M23.3,13.7c-0.1,0-0.2,0-0.3-0.1c0-0.1,0-0.1,0.1-0.1C23.2,13.6,23.3,13.6,23.3,13.7
		c0.2-0.1,0.3-0.2,0.4-0.4c0,0,0-0.1,0-0.1c0.1,0,0.2,0.1,0.3,0.1c0,0,0.1,0.1,0,0.1c0,0.1,0,0.1-0.1,0.2c-0.1,0.1-0.1,0.2-0.3,0.1
		C23.6,13.8,23.5,13.7,23.3,13.7C23.4,13.7,23.3,13.7,23.3,13.7z"/>
	<path fill="#83889A" d="M24.5,14.4c-0.1,0-0.1,0-0.1-0.1C24.4,14.3,24.4,14.3,24.5,14.4C24.5,14.4,24.5,14.4,24.5,14.4z"/>
	<path fill="#83889A" d="M24.4,14.3C24.3,14.3,24.3,14.3,24.4,14.3C24.3,14.3,24.4,14.3,24.4,14.3z"/>
	<path fill="#83889A" d="M24.3,14.2C24.3,14.2,24.2,14.2,24.3,14.2C24.2,14.2,24.3,14.2,24.3,14.2z"/>
	<path fill="#83889A" d="M24.3,14.3C24.3,14.3,24.3,14.3,24.3,14.3C24.3,14.2,24.3,14.2,24.3,14.3z"/>
	<path fill="#83889A" d="M24.4,14.3C24.4,14.3,24.4,14.3,24.4,14.3C24.4,14.3,24.4,14.3,24.4,14.3z"/>
	<path fill="#F4F4F7" d="M25.7,19.1C25.7,19.1,25.7,19.1,25.7,19.1c0-0.1,0.1-0.1,0.1-0.1c0.1-0.2,0.2-0.3,0.3-0.5
		c0.1-0.1,0.2-0.2,0.2-0.3c0,0,0.1-0.1,0.1-0.1c0.1,0,0,0.1,0,0.1c0,0,0,0.1,0,0.1c0,0.1,0,0.1,0.1,0.1c0,0.1-0.1,0.3-0.1,0.4
		c-0.1,0.3-0.3,0.7-0.4,1c0,0,0,0.1-0.1,0.1c0,0,0,0,0,0.1c0,0,0,0.1-0.1,0.1c0,0,0,0,0,0.1c-0.6,0.8-1.3,1.4-2.2,1.8
		c-0.2,0.1-0.4,0.1-0.6,0.2c0-0.1-0.1-0.1-0.2-0.1c0,0-0.1,0-0.1,0c0-0.1,0-0.1,0.1-0.1c0.1,0,0.1-0.1,0.2-0.1
		c0.4-0.4,0.8-0.6,1.3-0.9c0.3-0.2,0.6-0.4,0.8-0.7c0.1-0.1,0.2-0.3,0.4-0.3c0.1,0,0.1-0.1,0.1-0.1c0.1,0,0.2,0,0.3,0.1
		c0.1,0,0.2,0.1,0.2,0s0-0.1-0.1-0.2c-0.1-0.1-0.1-0.1-0.2-0.2c0.1,0,0.1-0.1,0.1-0.1C25.8,19.2,25.8,19.2,25.7,19.1z"/>
	<path fill="#1B0F11" d="M26,20.1C26,20,26,20,26,20.1C26.1,20,26.1,20,26,20.1z"/>
	<path fill="#1B0F11" d="M26.1,19.9C26.1,19.9,26.1,19.9,26.1,19.9C26.1,19.9,26.1,19.9,26.1,19.9z"/>
	<path fill="#E2E2E9" d="M26.6,18.5c-0.1,0-0.1,0-0.1-0.1c0,0,0-0.1,0-0.1c0,0,0-0.1,0-0.1c0,0-0.1,0-0.1,0.1
		c-0.1,0.1-0.2,0.2-0.2,0.3c-0.1,0.2-0.3,0.3-0.3,0.5c0,0,0,0-0.1,0c0.1-0.3,0.2-0.5,0.3-0.8c0.1-0.3,0.3-0.5,0.5-0.7
		c0-0.1,0.1,0,0.1,0c0,0.1,0,0.1,0,0.2c0,0.1,0,0.1,0.1,0.1c0,0.1,0,0.1,0,0.2c0,0,0,0,0,0C26.7,18.2,26.6,18.4,26.6,18.5z"/>
	<path fill="#BBBFCD" d="M26.7,17.9c0,0,0-0.1,0-0.1C26.7,17.8,26.7,17.9,26.7,17.9z"/>
	<path fill="#D1D3DD" d="M26.7,18.1C26.7,18.1,26.7,18.1,26.7,18.1C26.7,18.1,26.7,18.1,26.7,18.1z"/>
	<path fill="#1B0F11" d="M18.1,16.6c0.1-0.6,0.4-1.1,0.7-1.5c0.7-0.9,1.6-1.4,2.7-1.5c0,0,0,0,0.1,0c0,0,0,0,0,0c0,0,0.1,0,0.1,0
		c0.1,0.1-0.1,0.1-0.1,0.2c0,0,0,0-0.1,0c-0.2,0-0.3,0-0.5,0.1c0,0,0,0-0.1,0c-0.2,0-0.4,0.1-0.5,0.2c0,0-0.1,0-0.1,0
		c-0.2,0-0.3,0.1-0.5,0.2h0c0,0-0.1,0-0.1,0c-0.3,0.2-0.6,0.4-0.8,0.7c0,0.1-0.1,0.1-0.1,0.2c0,0,0,0,0,0c-0.1,0-0.1,0-0.1,0.1
		c0,0,0,0,0,0c-0.1,0-0.1,0-0.1,0.1l0,0c0,0-0.1,0-0.1,0.1c0,0,0,0,0,0c0,0-0.1,0,0,0.1c0,0,0,0,0,0.1c0,0,0,0,0,0
		c-0.1,0.1-0.2,0.2-0.2,0.4C18.3,16.2,18.2,16.4,18.1,16.6C18.2,16.6,18.1,16.6,18.1,16.6z"/>
	<path fill="#D1D3DD" d="M17.5,19.1C17.5,19.1,17.5,19.1,17.5,19.1C17.5,19,17.5,19,17.5,19.1c-0.1-0.2-0.1-0.3-0.1-0.4
		c0.2,0,0.1,0.1,0.2,0.2c0,0.1,0.1,0.2,0.2,0.2c0.1,0,0.2-0.1,0.3-0.2c0,0,0,0,0-0.1c0-0.1,0-0.3-0.1-0.4c0,0,0,0,0-0.1
		c0,0,0.1,0,0.1,0c0,0.1,0.1,0.3,0.1,0.4c0,0.1,0,0.1,0,0.2c0.1,0.2,0,0.3-0.1,0.4c-0.2,0.2-0.3,0.1-0.4-0.1
		C17.7,19.2,17.6,19.1,17.5,19.1z"/>
	<path fill="#E2E2E9" d="M18,18.5c0.1,0.1,0.1,0.2,0.1,0.4c0,0,0,0,0,0.1C18,19,17.9,19,17.8,19c-0.1,0-0.1-0.1-0.2-0.2
		c0-0.1,0-0.2-0.2-0.2c0-0.1-0.1-0.2-0.1-0.3c0.1,0,0.1,0,0.2,0.1c0.1,0.1,0.1,0.2,0.3,0.1C17.8,18.5,17.9,18.5,18,18.5z"/>
	<path fill="#4F191D" d="M18.2,18.8c0-0.1-0.1-0.3-0.1-0.4c0-0.1,0-0.2-0.1-0.3c-0.1-0.5-0.1-1,0-1.5c0,0,0-0.1,0-0.1c0,0,0,0,0.1,0
		c0,0,0,0.1,0,0.1c-0.1,0.4-0.2,0.9-0.1,1.3c0,0.1,0,0.2,0,0.3C18.1,18.4,18.2,18.6,18.2,18.8C18.2,18.8,18.2,18.8,18.2,18.8z"/>
	<path fill="#4F191D" d="M21.6,13.7c0-0.1,0.2-0.1,0.1-0.2h0c0,0,0,0,0,0c0,0,0,0,0,0c0-0.1,0-0.2,0.1-0.3c0,0,0-0.1,0-0.1
		c0,0,0,0,0,0c0,0,0.1,0,0.1,0c-0.1,0.2-0.1,0.5-0.2,0.7C21.7,13.7,21.6,13.7,21.6,13.7z"/>
	<path fill="#E2E2E9" d="M18,18.1c0,0.1,0,0.2,0.1,0.3c0,0-0.1,0-0.1,0C18,18.3,17.9,18.2,18,18.1z"/>
	<path fill="#83889A" d="M17.3,18c0,0,0-0.1,0-0.1C17.3,18,17.3,18,17.3,18z"/>
	<path fill="#1B0F11" d="M21.7,13.5C21.7,13.5,21.7,13.5,21.7,13.5C21.7,13.5,21.7,13.5,21.7,13.5C21.7,13.5,21.7,13.5,21.7,13.5z"
		/>
	<path fill="#4F191D" d="M21.6,13.5C21.6,13.5,21.6,13.5,21.6,13.5C21.6,13.5,21.6,13.5,21.6,13.5z"/>
	<path fill="#E2E2E9" d="M17.2,17.3C17.2,17.3,17.2,17.3,17.2,17.3C17.3,17.3,17.3,17.3,17.2,17.3C17.3,17.3,17.3,17.3,17.2,17.3z"
		/>
	<path fill="#83889A" d="M18.3,20.5C18.3,20.5,18.3,20.5,18.3,20.5C18.3,20.4,18.3,20.4,18.3,20.5C18.3,20.4,18.4,20.5,18.3,20.5
		c0.1,0,0.2,0.1,0.3,0.1c0.1,0,0.1,0.1,0.2,0.1c0.1,0,0.2-0.1,0.3-0.2c0,0,0.1-0.1,0.1-0.1c-0.1-0.1-0.1-0.2-0.3-0.3c0,0,0,0,0-0.1
		c0,0,0,0,0-0.1c0.2,0.2,0.3,0.3,0.5,0.5c0.2,0.2,0.4,0.3,0.6,0.5c0.2,0.1,0.4,0.2,0.6,0.3c0,0,0,0,0.1,0h0c0,0,0.1,0,0.1,0l0,0
		c0,0,0.1,0,0.1,0.1c0,0-0.1,0-0.1,0c0,0,0,0-0.1,0c-0.2-0.1-0.5-0.1-0.7-0.3c0,0,0,0-0.1,0c-0.1,0.1-0.2,0.1-0.3,0.2
		c-0.1,0-0.1,0.1,0,0.2c0.1,0.1,0.3,0.2,0.5,0.3c0,0,0,0,0.1,0c0,0,0,0.1,0,0.1c-0.4-0.2-0.9-0.4-1.2-0.7
		C18.7,20.9,18.5,20.8,18.3,20.5C18.3,20.5,18.3,20.5,18.3,20.5z"/>
	<path fill="#E2E2E9" d="M25.5,19.8c0,0.1,0,0.1-0.1,0.1c-0.2,0-0.3,0.2-0.4,0.3c-0.2,0.3-0.5,0.5-0.8,0.7c-0.4,0.3-0.9,0.5-1.3,0.9
		c0,0-0.1,0.1-0.2,0.1c0,0-0.1,0-0.1,0.1c0,0.1,0.1,0,0.1,0c0.1,0,0.2,0,0.2,0.1c-0.2,0.1-0.5,0.1-0.8,0.1c0-0.1,0-0.1-0.1-0.1
		c-0.1,0-0.1,0-0.2,0c0,0-0.1,0-0.1-0.1c0,0,0-0.1,0.1-0.1c0.2-0.1,0.4-0.2,0.5-0.4c0,0,0.1-0.1,0.1-0.1c0,0,0.1,0,0.1,0
		c0,0,0.1,0,0.1-0.1c0.1,0,0.1,0,0.1,0c0,0,0,0,0,0c0.2-0.1,0.4-0.2,0.7-0.3c0,0,0,0,0-0.1c0,0-0.1,0-0.1,0c0,0,0.1,0,0.1-0.1
		c0.5-0.3,1-0.7,1.3-1.2C25.3,19.6,25.4,19.7,25.5,19.8z"/>
	<path fill="#BBBFCD" d="M22.8,21.5c0,0-0.1,0-0.1,0c0,0-0.1,0-0.1,0c-0.4,0-0.7,0.2-1,0.4c0,0-0.1,0.1-0.1,0.1c0,0,0.1,0.1,0.1,0.1
		c0,0,0.1,0,0.1,0c0.1,0,0.1,0,0.1,0.1c-0.3,0-0.5,0-0.8-0.1c0-0.1-0.1-0.1-0.1-0.1c-0.1,0-0.2-0.1-0.3-0.1c-0.1,0-0.1-0.1,0-0.1
		c0.2-0.1,0.4-0.3,0.6-0.3c0.3,0,0.5,0,0.8,0c0,0,0,0,0,0c-0.1,0-0.1,0-0.2,0c0.1,0,0.2,0,0.3,0c0,0,0,0,0.1,0c0,0,0.1,0,0.1,0
		c0.1,0,0.2,0,0.3,0c0.1,0.1,0.3,0,0.4,0c0,0,0.1-0.1,0.1,0C23,21.4,22.9,21.4,22.8,21.5C22.9,21.4,22.8,21.4,22.8,21.5z"/>
	<path fill="#A4A7B7" d="M18.9,20C18.9,20.1,18.9,20.1,18.9,20c0,0.3,0,0.3-0.2,0.4c-0.1,0.1-0.2,0-0.3,0.1c-0.1,0-0.1,0-0.1-0.1
		c0-0.1-0.1-0.2-0.2-0.3c0,0,0,0,0,0.1c0,0-0.1-0.1-0.1-0.1l0,0c-0.1-0.1-0.1-0.3-0.2-0.4c0,0,0,0,0-0.1c0.1,0,0.1,0,0.2,0
		c0,0.1,0,0.2,0.1,0.2c0.1,0,0.3,0,0.4-0.1c0.1,0,0.1-0.1,0.2,0c0,0,0,0.1,0,0.1c0,0,0,0,0.1,0l0,0c0,0,0,0,0,0l0,0c0,0,0,0,0,0l0,0
		C18.9,19.9,18.9,20,18.9,20C18.8,20,18.8,20,18.9,20z"/>
	<path fill="#A4A7B7" d="M22.1,21.4c-0.1,0-0.2,0-0.3,0C21.9,21.5,21.9,21.5,22.1,21.4C22,21.5,22,21.5,22.1,21.4
		c-0.3,0.1-0.6,0.1-0.9,0.1c-0.3,0-0.4,0.2-0.6,0.3c-0.1,0,0,0.1,0,0.1c0.1,0,0.2,0.1,0.3,0.1c0.1,0,0.1,0,0.1,0.1
		c-0.2,0-0.3-0.1-0.5-0.1c0,0,0-0.1,0-0.1c-0.2,0-0.3-0.2-0.5-0.2c0,0,0,0-0.1,0c0-0.1,0-0.2,0.1-0.2c0.2-0.1,0.3-0.1,0.5-0.1
		c0,0,0,0,0.1,0c0,0.1,0.1,0.1,0.2,0.1c0.1,0,0.3,0.1,0.4,0c0,0,0,0,0.1,0C21.6,21.4,21.9,21.4,22.1,21.4z"/>
	<path fill="#D1D3DD" d="M21.8,22.2C21.8,22.2,21.8,22.1,21.8,22.2c-0.1-0.1-0.2-0.1-0.2-0.1c0,0-0.1,0-0.1-0.1c0-0.1,0-0.1,0.1-0.1
		c0.3-0.2,0.6-0.4,1-0.4c0,0,0.1,0,0.1,0c0,0.1-0.1,0.1-0.1,0.1c-0.2,0.1-0.4,0.2-0.5,0.4c0,0-0.1,0-0.1,0.1c0,0.1,0.1,0.1,0.1,0.1
		c0.1,0,0.1,0,0.2,0c0.1,0,0.1,0,0.1,0.1C22.2,22.2,22,22.2,21.8,22.2z"/>
	<path fill="#9499AB" d="M20.1,21.7c0.2,0,0.3,0.2,0.5,0.2c0,0,0,0.1,0,0.1c-0.2,0-0.3-0.1-0.5-0.2C20.1,21.8,20.1,21.8,20.1,21.7z"
		/>
	<path fill="#9499AB" d="M18.1,20.2C18.1,20.1,18.1,20.1,18.1,20.2c0.1,0,0.2,0.1,0.2,0.2c0,0,0,0,0,0.1
		C18.2,20.4,18.1,20.3,18.1,20.2z"/>
	<path fill="#9499AB" d="M18.3,20.5C18.3,20.5,18.3,20.5,18.3,20.5C18.3,20.5,18.3,20.5,18.3,20.5z"/>
	<path fill="#BBBFCD" d="M18,19.7c-0.1,0-0.1,0-0.2,0c-0.1-0.2-0.2-0.4-0.2-0.6c0.1,0,0.1,0.1,0.2,0.2c0.1,0.2,0.2,0.2,0.4,0.1
		c0.1-0.1,0.2-0.2,0.1-0.4c0-0.1,0-0.1,0-0.2c0,0,0,0,0,0l0,0c0,0,0,0,0,0c0.1,0.1,0.1,0.3,0.1,0.4C18.2,19.3,18.1,19.5,18,19.7z"/>
	<path fill="#1B0F11" d="M17.8,19.7c0.1,0.1,0.1,0.3,0.2,0.4c-0.1,0-0.1-0.1-0.1-0.1c0-0.1-0.1-0.1-0.1-0.2
		C17.8,19.8,17.7,19.8,17.8,19.7z"/>
	<path fill="#BBBFCD" d="M17.5,19C17.5,19,17.5,19,17.5,19C17.5,19,17.5,19,17.5,19z"/>
	<path fill="#F4F4F7" d="M22.4,13.5c-0.1,0-0.1,0-0.2,0l0,0c0,0,0-0.1,0-0.1l0,0c0,0,0-0.1,0-0.1l0,0c0,0,0-0.1,0-0.1l0,0
		c0,0,0-0.1,0-0.1l0,0c0-0.1,0-0.2-0.1-0.3c0,0,0.1-0.1,0.1-0.1c0.2,0,0.3,0,0.5,0s0.3,0.3,0.2,0.4c0,0.1-0.1,0.3-0.3,0.2
		C22.5,13.4,22.5,13.5,22.4,13.5z"/>
	<path fill="#F4F4F7" d="M21.7,13.7c0.1-0.2,0.2-0.4,0.2-0.7c0,0,0-0.1,0.1-0.1c0,0,0,0.1,0.1,0.1c0.1,0.2,0.1,0.5,0.2,0.7
		c0.1,0.2,0.1,0.4,0.2,0.6c-0.2,0.1-0.2,0.3-0.2,0.5c0,0,0,0,0,0.1c0,0,0,0,0,0c0,0,0,0,0,0c0,0,0,0,0,0l0,0c0,0,0,0,0,0l0,0
		c0,0,0,0,0.1,0.1l0,0c0,0,0,0,0,0l0,0c0,0,0,0,0,0l0,0c0,0,0,0,0,0l0,0c0,0,0,0,0,0l0,0c0,0.1-0.1,0.1-0.1,0.1
		c0.1,0.2-0.1,0.2-0.2,0.2c-0.1-0.1-0.3-0.2-0.4-0.1c-0.2,0.1-0.2,0.2-0.2,0.4c0,0.2,0,0.4,0,0.7c0.1,0.2,0,0.3-0.1,0.3
		c-0.1,0-0.2,0-0.2,0.1c0,0,0,0,0,0c0-0.1,0-0.2-0.1-0.3c-0.4-0.2-0.8-0.5-1.2-0.7c0-0.1,0-0.2,0.2-0.2c0,0,0,0,0.1,0
		c0.4,0.2,0.7,0.4,1.1,0.6c0-0.1,0-0.2,0-0.3c0-0.3,0.1-0.6,0.3-0.8c0.1-0.1,0.2-0.2,0.1-0.4c0-0.1,0-0.2-0.1-0.3c0-0.1,0-0.1,0-0.2
		C21.6,14,21.7,13.9,21.7,13.7z"/>
	<path fill="#4F191D" d="M22.3,13.7c-0.1-0.2-0.1-0.5-0.2-0.7c0,0,0.1,0,0.1,0.1l0,0c0,0,0,0.1,0,0.1l0,0c0,0,0,0.1,0,0.1l0,0
		c0,0,0,0.1,0,0.1l0,0c0,0,0,0.1,0,0.1l0,0c0,0.1,0,0.2,0.1,0.2c0.3,0.1,0.7,0.1,1,0.2c0.2,0.1,0.4,0.1,0.6,0.3
		c-0.1,0-0.1,0-0.2-0.1c-0.3-0.2-0.7-0.3-1-0.3C22.6,13.8,22.4,13.7,22.3,13.7z"/>
	<path fill="#E54437" d="M22.7,13.8c0.4,0.1,0.7,0.2,1,0.3c0.1,0,0.1,0.1,0.2,0.1c0,0,0,0,0,0c0,0,0,0,0,0.1c0,0.4,0.1,0.8,0,1.2
		c0,0,0,0,0,0h0c0,0,0,0,0,0h0c0,0-0.1,0-0.1,0c-0.1,0.1-0.2,0.1-0.2,0.2C23.4,15.8,23.2,16,23,16c-0.1,0-0.2,0.1-0.2,0.1
		c-0.1,0,0-0.2,0-0.2c0.1,0,0.1-0.1,0.1-0.1c0.1-0.4,0.2-0.9,0.1-1.3C22.9,14.2,22.8,14,22.7,13.8z"/>
	<path fill="#4F191D" d="M24,14.3C24,14.2,23.9,14.2,24,14.3c0.1,0,0.2,0,0.2,0.1C24.1,14.4,24.1,14.3,24,14.3z"/>
	<path fill="#4F191D" d="M24.7,14.8c-0.1,0-0.1-0.1-0.2-0.2C24.6,14.6,24.7,14.7,24.7,14.8z"/>
	<path fill="#4F191D" d="M24.4,14.5c-0.1,0-0.1-0.1-0.2-0.1C24.3,14.4,24.3,14.4,24.4,14.5z"/>
	<path fill="#4F191D" d="M25.4,15.6c-0.1,0-0.1-0.1-0.1-0.1C25.4,15.5,25.4,15.6,25.4,15.6z"/>
	<path fill="#4F191D" d="M25.1,15.3c0,0-0.1-0.1-0.1-0.1C25.1,15.2,25.1,15.2,25.1,15.3z"/>
	<path fill="#4F191D" d="M25.2,15.4c-0.1,0-0.1-0.1-0.1-0.1C25.2,15.3,25.2,15.3,25.2,15.4z"/>
	<path fill="#4F191D" d="M24.4,14.6C24.4,14.6,24.4,14.5,24.4,14.6C24.4,14.5,24.4,14.5,24.4,14.6z"/>
	<path fill="#4F191D" d="M25.3,15.5C25.2,15.5,25.2,15.4,25.3,15.5C25.3,15.4,25.3,15.5,25.3,15.5z"/>
	<path fill="#4F191D" d="M24.9,15C24.9,15,24.9,15,24.9,15C24.9,15,24.9,15,24.9,15z"/>
	<path fill="#4F191D" d="M24.8,14.9C24.8,14.9,24.8,14.9,24.8,14.9C24.8,14.9,24.8,14.9,24.8,14.9z"/>
	<path fill="#4F191D" d="M24.5,14.6C24.5,14.6,24.5,14.6,24.5,14.6C24.5,14.6,24.5,14.6,24.5,14.6z"/>
	<path fill="#4F191D" d="M24.7,14.8C24.7,14.8,24.7,14.8,24.7,14.8C24.7,14.8,24.7,14.8,24.7,14.8z"/>
	<path fill="#4F191D" d="M24.7,14.8C24.7,14.8,24.7,14.8,24.7,14.8C24.7,14.8,24.7,14.8,24.7,14.8z"/>
	<path fill="#4F191D" d="M24.8,14.9C24.8,14.9,24.8,14.9,24.8,14.9C24.8,14.8,24.8,14.9,24.8,14.9z"/>
	<path fill="#4F191D" d="M24.8,14.9C24.8,14.9,24.8,14.9,24.8,14.9C24.8,14.9,24.8,14.9,24.8,14.9z"/>
	<path fill="#4F191D" d="M24.9,15C24.9,14.9,24.8,14.9,24.9,15C24.8,14.9,24.9,14.9,24.9,15z"/>
	<path fill="#4F191D" d="M25,15.2C25,15.2,25,15.1,25,15.2C25,15.1,25,15.2,25,15.2z"/>
	<path fill="#4F191D" d="M25,15.1C25,15.1,25,15.1,25,15.1C25,15.1,25,15.1,25,15.1z"/>
	<path fill="#4F191D" d="M25,15.1C25,15.1,25,15.1,25,15.1C25,15.1,25,15.1,25,15.1z"/>
	<path fill="#4F191D" d="M25,15.1C24.9,15.1,24.9,15.1,25,15.1C24.9,15.1,25,15.1,25,15.1z"/>
	<path fill="#BBBFCD" d="M26,17.7c-0.1-0.1,0-0.1,0-0.2c0,0,0,0,0-0.1c0,0,0,0,0-0.1C26,17.5,26,17.6,26,17.7z"/>
	<path fill="#1B0F11" d="M25.5,19.8c-0.1,0-0.2-0.1-0.3,0c-0.2,0-0.4-0.1-0.6-0.1c-0.1,0-0.1-0.1-0.2-0.2c-0.1-0.2-0.3-0.4-0.6-0.3
		c-0.3,0.1-0.6,0.1-0.9-0.1c-0.1,0-0.1-0.1-0.2-0.1c-0.1,0,0,0.1,0,0.2c0,0.6,0,1.1,0,1.7c0,0.1,0,0.2-0.2,0.2c0,0-0.1,0-0.1,0
		c-0.1,0-0.2,0-0.2-0.2c0-0.7,0-1.4,0-2c0-0.1,0-0.1-0.1-0.1c-0.2-0.2-0.3-0.2-0.5,0c0,0-0.1,0-0.1,0.1c0-0.1,0-0.1,0-0.2
		c0.1-0.1,0.2-0.2,0.4-0.2c0.1,0.1,0.2,0.1,0.3,0.2c0,0.7,0,1.4,0,2.2c0,0,0,0.1,0,0.1c0.1,0,0.2,0,0.3,0c0,0,0-0.1,0-0.1
		c0-0.6,0-1.2,0-1.7c0-0.1,0-0.1,0-0.2c0.2,0.1,0.3,0.2,0.5,0.3c0.1,0,0.1,0,0.2,0c0.1,0,0.2,0,0.2,0c0.2-0.1,0.3-0.1,0.5,0
		c0,0,0,0,0.1,0c0,0,0,0,0,0c0,0,0,0,0,0c0,0.1,0.1,0.1,0.1,0.2c0,0.1,0.1,0.1,0.2,0.2c0,0,0.1,0,0.1,0c0.1,0,0.1,0,0.2,0
		c0.3,0.1,0.6,0.2,0.9,0.2c0,0,0,0,0.1,0c0,0,0-0.1-0.1-0.1c-0.1-0.1-0.2-0.2-0.3-0.4c0,0,0-0.1,0-0.1c0,0,0.1,0.1,0.1,0.1
		c0,0,0,0.1,0.1,0.1c0.1,0.1,0.1,0.1,0.2,0.2c0,0.1,0.1,0.1,0.1,0.2c0,0.1-0.1,0-0.2,0C25.7,19.8,25.6,19.8,25.5,19.8z"/>
	<path fill="#E54437" d="M24,16.1c0,0.2-0.1,0.4-0.2,0.6c0,0.1-0.1,0.1,0,0.2c0,0,0,0,0,0h0c0,0,0,0,0,0h0c-0.1,0-0.1,0-0.2,0.1
		c0,0,0,0-0.1,0c0,0-0.1,0-0.1,0.1c0,0,0,0,0,0c-0.1,0-0.1,0.1-0.2,0.1c0,0,0,0,0,0c0,0-0.1,0-0.1,0l0,0c0,0,0,0-0.1,0
		c-0.1,0-0.1-0.1-0.2-0.2c0-0.1,0-0.2,0.1-0.3C23.2,16.6,23.6,16.3,24,16.1z"/>
	<path fill="#83889A" d="M24.4,16.5c0.1,0,0.1-0.1,0.2-0.1c0,0,0.1,0,0.1,0l0,0c0,0,0,0,0,0l0,0c0.1,0,0.1,0,0.1-0.1h0
		c0,0,0.1,0,0.1,0l0,0c0,0,0,0,0,0l0,0c0,0,0.1,0,0.1,0c0,0,0.1-0.1,0.1,0c0.1,0.1,0.1,0.2,0.2,0.3c0,0,0,0-0.1,0
		c-0.5,0.3-1.1,0.6-1.6,0.9c0,0-0.1,0,0,0.1c-0.1,0-0.1-0.1,0-0.1c0.1-0.1,0.1-0.1,0.2-0.1c0.1,0,0.1-0.1,0.1-0.2c0-0.1-0.1,0-0.2,0
		c0,0,0,0,0,0c0,0,0.1,0,0.1-0.1h0c0,0,0,0,0,0h0c0,0,0.1,0,0.1,0h0c0,0,0.1,0,0.1,0c0.1-0.1,0.1-0.1,0.2-0.1c0,0,0.1,0,0.1,0l0,0
		c0,0,0,0,0,0l0,0c0.1,0,0.1,0,0.1-0.1h0c0,0,0.1,0,0.1,0l0,0C24.3,16.5,24.4,16.5,24.4,16.5L24.4,16.5
		C24.4,16.5,24.4,16.5,24.4,16.5z"/>
	<path fill="#1B0F11" d="M24,16.1c-0.4,0.2-0.8,0.4-1.2,0.7c-0.1,0.1-0.1,0.2-0.1,0.3c0-0.1,0-0.3,0-0.4c0.2-0.1,0.4-0.3,0.6-0.4
		c0.3-0.1,0.5-0.3,0.7-0.4c0.2-0.1,0.4-0.2,0.6-0.4c0.1,0.2,0,0.2-0.1,0.3C24.3,15.9,24.2,16,24,16.1z"/>
	<path fill="#A4A7B7" d="M24.2,19C24,19,23.9,19,23.7,19c-0.1,0-0.2,0-0.2,0c0,0,0-0.1-0.1-0.1c0,0-0.1-0.1-0.1-0.1s0.1,0,0.1-0.1
		c0.1,0,0.2,0,0.2-0.1c0,0,0,0,0,0c0,0,0,0,0,0c0,0,0,0,0.1,0c0,0,0,0,0.1,0c0,0,0.1,0,0.1,0c0-0.1,0.1-0.2,0.1-0.3
		c0-0.1,0-0.2,0.1-0.1c0.1,0.1,0.1,0,0.1-0.1l0,0c0,0.1,0,0.1,0.1,0.2c0,0.1,0.1,0.2,0.2,0.3c0,0,0.1,0.1,0,0.1
		c-0.1,0-0.2,0-0.3,0.1C24,18.9,24.2,18.9,24.2,19z"/>
	<path fill="#1B0F11" d="M23.5,17.5C23.5,17.4,23.5,17.4,23.5,17.5c0.6-0.4,1.1-0.7,1.7-1c0,0,0,0,0.1,0c0.1,0.1,0,0.2-0.1,0.3
		c-0.5,0.3-0.9,0.5-1.4,0.8c0,0-0.1,0-0.1,0.1C23.6,17.6,23.6,17.6,23.5,17.5C23.5,17.5,23.5,17.5,23.5,17.5z"/>
	<path fill="#F4F4F7" d="M25.5,19.3c0.1,0.1,0.2,0.2,0.3,0.4c0,0,0,0,0,0.1c-0.3-0.1-0.6-0.1-0.9-0.2c0,0,0-0.1,0-0.1
		c-0.2-0.1,0-0.2,0.1-0.3c0,0,0.1-0.1,0.1,0c0.1,0.1,0.2,0,0.2,0l0,0c0,0,0,0,0,0.1C25.4,19.2,25.5,19.3,25.5,19.3z"/>
	<path fill="#D1D3DD" d="M24.7,19.5c0,0-0.1,0-0.1,0c-0.1,0-0.2,0-0.2-0.2c0-0.1-0.1-0.1-0.1-0.2c0,0,0,0,0,0c0-0.2,0.1-0.3,0.3-0.3
		c0,0,0.1,0,0.1-0.1c0.3-0.1,0.3-0.1,0.5,0.2c-0.1,0-0.1,0-0.2,0c0,0-0.1,0-0.1,0C24.6,19,24.5,19.3,24.7,19.5z"/>
	<path fill="#83889A" d="M23.5,17.5C23.6,17.6,23.6,17.6,23.5,17.5c0.2,0.1,0.3,0.2,0.4,0.3c0,0,0,0,0,0l0,0c0,0,0,0,0,0l0,0
		c0,0,0,0.1,0,0.1c-0.1,0-0.1,0-0.1-0.1c0,0-0.1-0.1-0.2,0c-0.1,0,0,0.1,0,0.2c0,0,0.1,0.1,0,0.1c-0.1-0.1-0.1-0.1-0.2-0.2
		c-0.2-0.1-0.3-0.2-0.5-0.3c0-0.1,0.1,0,0.2,0c0.1,0,0.2,0,0.2-0.1C23.4,17.5,23.5,17.5,23.5,17.5z"/>
	<path fill="#E2E2E9" d="M24.7,19.5c-0.2-0.2-0.1-0.5,0.1-0.6c0.1,0,0.1,0,0.1,0c0.1,0,0.1,0,0.2,0c0,0,0,0,0.1,0.1c0,0,0,0,0,0
		c0,0,0.1,0.1,0.1,0.1c-0.1,0-0.2,0-0.2,0c0,0-0.1,0-0.1,0c-0.1,0.1-0.3,0.2-0.1,0.3c0,0,0,0.1,0,0.1C24.9,19.5,24.8,19.5,24.7,19.5
		z"/>
	<path fill="#83889A" d="M24.7,15.5c-0.2,0.1-0.4,0.3-0.6,0.4c0-0.1,0-0.1,0.1-0.1c0.1,0,0.1-0.1,0.2-0.1c0-0.1,0.1-0.1,0.1-0.2
		c0-0.1-0.1,0-0.2,0c0,0,0,0,0,0c0,0,0,0,0,0C24.6,15.2,24.5,15.1,24.7,15.5z"/>
	<path fill="#BBBFCD" d="M24.7,18.7C24.7,18.8,24.6,18.8,24.7,18.7c-0.3,0.1-0.3,0.1-0.3,0.4c0,0,0,0,0,0c0,0,0,0,0,0c0,0,0,0,0,0
		c0,0,0,0-0.1,0c0-0.1-0.1-0.1-0.1-0.2c0.1-0.1,0.1-0.1,0.3-0.1c0.1,0,0.1,0,0-0.1C24.5,18.6,24.6,18.7,24.7,18.7z"/>
	<path fill="#D1D3DD" d="M24.3,16.6c0,0.1-0.1,0.1-0.1,0.1C24.2,16.6,24.2,16.6,24.3,16.6z"/>
	<path fill="#D1D3DD" d="M24.8,16.2c0,0.1-0.1,0.1-0.1,0.1C24.7,16.3,24.8,16.2,24.8,16.2z"/>
	<path fill="#D1D3DD" d="M23.9,15.5C23.9,15.5,24,15.5,23.9,15.5c0.1-0.1,0.1-0.1,0.1-0.1c0,0,0,0,0,0C24,15.5,24,15.5,23.9,15.5z"
		/>
	<path fill="#D1D3DD" d="M24,15.4C24.1,15.4,24.1,15.4,24,15.4l0.1,0C24.1,15.4,24.1,15.4,24,15.4C24.1,15.4,24.1,15.4,24,15.4z"/>
	<path fill="#A4A7B7" d="M24.1,17.9C24.1,17.9,24,17.9,24.1,17.9C24.1,17.9,24.1,17.9,24.1,17.9C24.1,17.9,24.1,17.9,24.1,17.9
		C24.1,17.9,24.1,17.9,24.1,17.9z"/>
	<path fill="#D1D3DD" d="M24.4,16.5C24.4,16.5,24.4,16.5,24.4,16.5C24.4,16.5,24.4,16.5,24.4,16.5z"/>
	<path fill="#D1D3DD" d="M25.4,19.2C25.4,19.2,25.3,19.1,25.4,19.2C25.4,19.1,25.4,19.1,25.4,19.2z"/>
	<path fill="#D1D3DD" d="M24.9,16.2C24.9,16.2,24.9,16.2,24.9,16.2C24.8,16.2,24.9,16.2,24.9,16.2z"/>
	<path fill="#A4A7B7" d="M24.1,18C24.1,18,24.1,18,24.1,18L24.1,18C24.1,18,24.1,18,24.1,18L24.1,18z"/>
	<path fill="#D1D3DD" d="M24.7,16.3C24.7,16.4,24.6,16.4,24.7,16.3C24.6,16.3,24.7,16.3,24.7,16.3z"/>
	<path fill="#D1D3DD" d="M25,16.2C25,16.2,25,16.2,25,16.2C24.9,16.2,25,16.1,25,16.2z"/>
	<path fill="#D1D3DD" d="M24.3,16.5C24.3,16.6,24.3,16.6,24.3,16.5C24.3,16.5,24.3,16.5,24.3,16.5z"/>
	<path fill="#A4A7B7" d="M24.2,18C24.2,18,24.2,18.1,24.2,18L24.2,18C24.2,18.1,24.1,18.1,24.2,18L24.2,18z"/>
	<path fill="#D1D3DD" d="M24.1,16.7C24.1,16.7,24.1,16.7,24.1,16.7C24.1,16.7,24.1,16.6,24.1,16.7z"/>
	<path fill="#D1D3DD" d="M24.2,15.3C24.2,15.4,24.2,15.4,24.2,15.3C24.2,15.4,24.2,15.4,24.2,15.3L24.2,15.3
		C24.2,15.3,24.2,15.3,24.2,15.3z"/>
	<path fill="#D1D3DD" d="M23.9,16.8C23.8,16.8,23.8,16.8,23.9,16.8C23.8,16.8,23.8,16.8,23.9,16.8z"/>
	<path fill="#D1D3DD" d="M23.8,16.8C23.8,16.9,23.8,16.9,23.8,16.8C23.7,16.9,23.7,16.9,23.8,16.8C23.8,16.8,23.8,16.8,23.8,16.8z"
		/>
	<path fill="#D1D3DD" d="M24.4,16.5C24.4,16.5,24.3,16.5,24.4,16.5C24.3,16.5,24.3,16.5,24.4,16.5z"/>
	<path fill="#D1D3DD" d="M24.1,16.6C24.1,16.7,24.1,16.7,24.1,16.6C24.1,16.6,24.1,16.6,24.1,16.6z"/>
	<path fill="#D1D3DD" d="M24.9,16.2C24.9,16.2,24.9,16.2,24.9,16.2C24.9,16.2,24.9,16.2,24.9,16.2z"/>
	<path fill="#A4A7B7" d="M24.1,17.9C24.1,17.9,24.1,18,24.1,17.9L24.1,17.9C24.1,18,24.1,18,24.1,17.9
		C24.1,17.9,24.1,17.9,24.1,17.9z"/>
	<path fill="#D1D3DD" d="M25.3,19C25.2,19,25.2,19,25.3,19C25.2,19,25.2,19,25.3,19z"/>
	<path fill="#D1D3DD" d="M24.7,16.3C24.7,16.3,24.7,16.3,24.7,16.3C24.7,16.3,24.7,16.3,24.7,16.3z"/>
	<path fill="#A4A7B7" d="M24,17.9C24,17.8,24,17.8,24,17.9C24,17.8,24,17.8,24,17.9z"/>
	<path fill="#A4A7B7" d="M24,17.8C24,17.8,24,17.8,24,17.8C24,17.8,24,17.8,24,17.8z"/>
	<path fill="#E2E2E9" d="M25.8,19.4C25.7,19.4,25.7,19.3,25.8,19.4c-0.1-0.2-0.1-0.2,0-0.3c0,0.1,0.1,0.1,0.1,0.2
		C25.8,19.3,25.8,19.4,25.8,19.4z"/>
	<path fill="#EB7C7B" d="M21.7,13.7c0,0.2-0.1,0.3-0.1,0.5c0,0.1,0,0.1,0,0.2c-0.1,0.2,0,0.2,0.1,0.3c0.1,0.2,0,0.3-0.1,0.4
		c-0.3,0.2-0.4,0.5-0.3,0.8c0,0.1,0,0.2,0,0.3c-0.4-0.2-0.8-0.4-1.1-0.6c-0.2-0.1-0.4-0.2-0.6-0.4c0,0-0.1,0-0.1,0
		c-0.1,0.1-0.1,0.2-0.2,0.3c0,0.1,0,0.2,0.1,0.2c0.5,0.3,0.9,0.5,1.4,0.8c0,0.1-0.1,0.1-0.2,0.1c-0.2,0-0.3,0-0.5,0.1
		c0,0-0.1,0-0.1,0c-0.3-0.2-0.6-0.3-0.9-0.5c-0.1,0-0.1-0.1-0.2-0.1c-0.1-0.2-0.1-0.3-0.3-0.5c0,0,0,0,0-0.1c0,0,0.1,0,0-0.1
		c0,0,0,0,0,0c0,0,0.1,0,0.1-0.1l0,0c0,0,0.1,0,0.1-0.1c0,0,0,0,0,0c0,0,0.1,0,0.1-0.1c0,0,0,0,0,0C19,15.1,19,15,19.1,15
		c0.2-0.3,0.5-0.5,0.8-0.7h0c0.2-0.1,0.3-0.1,0.5-0.2c0,0,0.1,0,0.1,0c0.2,0,0.3-0.1,0.5-0.2c0,0,0,0,0.1,0c0.1,0,0.3-0.1,0.5-0.1
		c0,0,0,0,0.1,0C21.6,13.7,21.7,13.7,21.7,13.7z"/>
	<path fill="#E86358" d="M18.6,15.7c0.1,0.1,0.2,0.3,0.3,0.5c0,0.1-0.1,0.1-0.1,0.2c0,0-0.1,0.1-0.1,0.1l0,0l0,0c0,0,0,0,0,0
		c0,0.1,0,0.2,0.1,0.2c0.5,0.3,1,0.6,1.5,0.9c0,0-0.1,0.1-0.1,0.1c-0.1,0-0.1,0-0.2,0c-0.4,0-0.8-0.2-1.2-0.4
		c-0.2-0.1-0.4-0.3-0.6-0.5c0,0-0.1-0.1-0.1-0.1c0,0,0-0.1,0-0.1c0-0.2,0.1-0.4,0.2-0.5C18.4,15.9,18.5,15.8,18.6,15.7
		C18.6,15.7,18.6,15.7,18.6,15.7z"/>
	<path fill="#4F191D" d="M19.9,14.3c-0.3,0.2-0.6,0.4-0.8,0.7C19,15,19,15.1,18.9,15.2c0-0.1,0.1-0.1,0.1-0.2
		c0.2-0.3,0.5-0.5,0.8-0.7C19.8,14.3,19.9,14.3,19.9,14.3z"/>
	<path fill="#4F191D" d="M20.4,14c-0.1,0.1-0.3,0.2-0.5,0.2C20.1,14.1,20.2,14.1,20.4,14z"/>
	<path fill="#4F191D" d="M21,13.8c-0.2,0.1-0.3,0.1-0.5,0.2C20.7,13.9,20.8,13.8,21,13.8z"/>
	<path fill="#4F191D" d="M21.5,13.7c-0.1,0-0.3,0.1-0.5,0.1C21.2,13.7,21.4,13.7,21.5,13.7z"/>
	<path fill="#4F191D" d="M18.6,15.7c0,0.1-0.1,0.3-0.2,0.4C18.4,15.9,18.4,15.8,18.6,15.7z"/>
	<path fill="#4F191D" d="M18.9,15.2C18.9,15.3,18.8,15.3,18.9,15.2C18.8,15.3,18.8,15.2,18.9,15.2z"/>
	<path fill="#4F191D" d="M18.8,15.3C18.8,15.4,18.7,15.4,18.8,15.3C18.7,15.4,18.7,15.3,18.8,15.3z"/>
	<path fill="#4F191D" d="M18.6,15.5C18.6,15.6,18.6,15.6,18.6,15.5C18.6,15.6,18.6,15.5,18.6,15.5z"/>
	<path fill="#4F191D" d="M18.7,15.4C18.7,15.5,18.7,15.5,18.7,15.4C18.6,15.5,18.7,15.4,18.7,15.4z"/>
	<path fill="#E54437" d="M18.2,16.7c0.1,0,0.1,0,0.1,0.1c0.1,0.2,0.3,0.3,0.5,0.5c0.4,0.2,0.8,0.4,1.2,0.4c0.1,0,0.1,0,0.2,0
		c-0.2,0.1-0.3,0.2-0.4,0.3c0,0,0,0,0,0.1l0,0c0,0,0,0,0,0.1v0c0,0.1,0,0.1-0.1,0.2c0,0.1-0.1,0.2-0.2,0.3c0,0-0.1,0-0.1-0.1
		c-0.4-0.1-0.8-0.3-1.1-0.5c-0.1,0-0.1-0.1-0.2-0.1C18,17.5,18.1,17.1,18.2,16.7z"/>
	<path fill="#E0141A" d="M18.1,17.9c0.1,0,0.1,0.1,0.2,0.1c0.4,0.2,0.7,0.4,1.1,0.5c0,0,0.1,0,0.1,0.1c-0.1,0.1-0.3,0.1-0.4,0.1
		c0,0-0.1,0-0.1,0c-0.1,0.1-0.2,0.2-0.3,0.3c-0.1,0.1-0.2,0.2-0.3,0.3c0,0,0-0.1,0-0.1c-0.1-0.1-0.1-0.3-0.1-0.4c0,0,0,0,0,0
		c0,0,0,0,0,0l0,0c0-0.2-0.1-0.4-0.1-0.6C18.1,18.1,18.1,18,18.1,17.9z"/>
	<path fill="#E0141A" d="M21.6,18.7c0,0,0.1,0,0.1-0.1c0.2-0.1,0.3-0.1,0.5,0c0,0,0.1,0.1,0.1,0.1c0,0.7,0,1.4,0,2
		c0,0.1,0,0.2,0.2,0.2c0,0,0.1,0,0.1,0c0.1,0,0.2,0,0.2-0.2c0-0.6,0-1.1,0-1.7c0-0.1,0-0.2,0-0.2c0.1,0,0.1,0,0.2,0.1
		c0.3,0.2,0.6,0.3,0.9,0.1c0.2-0.1,0.5,0,0.6,0.3c0,0.1,0.1,0.1,0.2,0.2c0.2,0,0.4,0.1,0.6,0.1c-0.3,0.5-0.8,0.9-1.3,1.2
		c0,0-0.1,0-0.1,0.1v0c-0.1,0-0.1,0-0.1,0.1l0,0c0,0-0.1,0-0.1,0l0,0c0,0-0.1,0-0.1,0h0c0,0-0.1,0-0.1,0c-0.2,0.1-0.5,0.1-0.7,0.2
		c-0.1,0-0.2,0-0.3,0c0,0-0.1,0-0.1,0c0,0,0,0-0.1,0c-0.2,0-0.4,0-0.7,0c0,0,0,0-0.1,0c-0.2-0.1-0.4-0.1-0.7-0.2l0,0
		c0,0-0.1,0-0.1,0h0c0,0,0,0-0.1,0c-0.2-0.1-0.4-0.1-0.6-0.3c-0.2-0.1-0.4-0.3-0.6-0.5c-0.2-0.2-0.3-0.3-0.5-0.5h0c0,0,0,0,0-0.1
		l0,0c0,0,0,0,0,0l0,0c0,0,0,0,0,0l0,0c0,0,0-0.1,0-0.1c0.2,0,0.4-0.1,0.6-0.1c0.1,0,0.2-0.1,0.2-0.2c0.1-0.2,0.3-0.4,0.6-0.3
		c0.3,0.1,0.6,0.1,0.8-0.1C21,19,21.1,19,21.2,19h0c0,0,0,0,0,0c0,0.6,0,1.2,0,1.8c0,0,0,0,0,0c0,0.1,0,0.2,0.1,0.2
		c0.3,0,0.3,0,0.3-0.2C21.6,20.1,21.6,19.4,21.6,18.7z"/>
	<path fill="#9499AB" d="M20.7,21.3c-0.2,0-0.3,0.1-0.5,0.1c-0.1,0.1-0.2,0.1-0.1,0.2c-0.2-0.1-0.3-0.2-0.5-0.3
		c-0.1-0.1-0.1-0.1,0-0.2c0.1-0.1,0.2-0.1,0.3-0.2c0,0,0,0,0.1,0C20.2,21.2,20.5,21.2,20.7,21.3z"/>
	<path fill="#9499AB" d="M18.4,20.5c0.1,0,0.2,0,0.3-0.1c0.2-0.1,0.2-0.1,0.2-0.3c0.1,0.1,0.2,0.2,0.3,0.3c0.1,0,0,0.1-0.1,0.1
		c-0.1,0.1-0.2,0.1-0.3,0.2c-0.1,0-0.1,0-0.2-0.1C18.5,20.6,18.4,20.5,18.4,20.5z"/>
	<path fill="#9499AB" d="M20.7,21.2c0.2,0.1,0.4,0.1,0.7,0.2c-0.1,0.1-0.3,0-0.4,0C20.9,21.4,20.8,21.4,20.7,21.2
		c0.1,0.1,0.1,0.1,0.1,0.1C20.8,21.3,20.7,21.3,20.7,21.2z"/>
	<path fill="#9499AB" d="M18.9,20C18.8,20,18.8,20,18.9,20C18.9,20,18.9,20,18.9,20L18.9,20C18.9,20,18.9,20,18.9,20z"/>
	<path fill="#9499AB" d="M20.6,21.2C20.7,21.2,20.7,21.2,20.6,21.2C20.7,21.2,20.6,21.2,20.6,21.2z"/>
	<path fill="#9499AB" d="M20.6,21.2C20.6,21.2,20.6,21.2,20.6,21.2C20.6,21.2,20.6,21.2,20.6,21.2z"/>
	<path fill="#D1D3DD" d="M22.5,21.4c0.3,0,0.5-0.1,0.7-0.2c0.1,0,0.1,0,0.1,0h0c0,0,0.1,0,0.1,0c0,0,0,0,0,0c0,0,0.1,0,0.1,0l0,0
		c0.1,0,0.1,0,0.1-0.1v0c0,0,0.1,0,0.1,0c0,0,0,0,0,0.1c-0.2,0.1-0.4,0.2-0.7,0.3c0,0,0,0,0,0c0-0.1-0.1,0-0.1,0
		C22.8,21.4,22.7,21.4,22.5,21.4z"/>
	<path fill="#D1D3DD" d="M22.8,21.5C22.8,21.4,22.9,21.4,22.8,21.5C22.9,21.5,22.9,21.5,22.8,21.5z"/>
	<path fill="#A4A7B7" d="M22.2,21.4c0,0,0.1,0,0.1,0C22.2,21.5,22.2,21.4,22.2,21.4z"/>
	<path fill="#1B0F11" d="M21.2,19c-0.1,0-0.2,0.1-0.3,0.1c-0.3,0.2-0.5,0.2-0.8,0.1c-0.2-0.1-0.5,0-0.6,0.3c0,0.1-0.1,0.1-0.2,0.2
		c-0.2,0-0.4,0.1-0.6,0.1c0,0,0,0,0,0c0,0,0,0,0,0c-0.1-0.1-0.2,0-0.2,0c-0.1,0.1-0.3,0.1-0.4,0.1c-0.1,0-0.1-0.1-0.1-0.2
		c0.2-0.1,0.3-0.3,0.4-0.5c0,0,0,0.1,0,0.1c-0.1,0.1-0.2,0.3-0.4,0.4c0.1,0,0.2-0.1,0.3-0.1c0.3-0.1,0.7-0.2,1-0.2
		c0.1,0,0.1,0,0.1-0.1c0.1-0.3,0.3-0.4,0.6-0.4c0.3,0.1,0.5,0.1,0.8,0c0.1-0.1,0.2-0.1,0.3-0.2c0,0,0.1,0,0.1,0
		C21.2,18.9,21.2,18.9,21.2,19z"/>
	<path fill="#83889A" d="M18.7,19.8C18.7,19.8,18.8,19.8,18.7,19.8C18.8,19.8,18.8,19.8,18.7,19.8C18.8,19.9,18.8,19.8,18.7,19.8
		C18.7,19.8,18.7,19.8,18.7,19.8z"/>
	<path fill="#9499AB" d="M18.7,19.8C18.7,19.8,18.7,19.8,18.7,19.8C18.7,19.8,18.7,19.8,18.7,19.8C18.7,19.8,18.7,19.8,18.7,19.8z"
		/>
	<path fill="#83889A" d="M18.9,20C18.9,20,18.9,20,18.9,20C18.9,20,18.9,19.9,18.9,20C18.9,19.9,18.9,20,18.9,20z"/>
	<path fill="#83889A" d="M18.8,19.9C18.8,19.9,18.8,19.9,18.8,19.9C18.8,19.9,18.8,19.9,18.8,19.9z"/>
	<path fill="#83889A" d="M18.8,19.9C18.8,19.9,18.9,19.9,18.8,19.9C18.8,19.9,18.8,19.9,18.8,19.9z"/>
	<path fill="#4F191D" d="M18.2,18.8C18.2,18.8,18.2,18.8,18.2,18.8C18.2,18.8,18.2,18.8,18.2,18.8C18.2,18.8,18.2,18.8,18.2,18.8z"
		/>
	<path fill="#1B0F11" d="M22.2,13.4c-0.1,0,0-0.1,0-0.1C22.2,13.3,22.2,13.4,22.2,13.4z"/>
	<path fill="#1B0F11" d="M22.2,13.2C22.1,13.2,22.1,13.1,22.2,13.2C22.2,13.1,22.1,13.2,22.2,13.2z"/>
	<path fill="#1B0F11" d="M22.2,13.3C22.1,13.3,22.1,13.2,22.2,13.3C22.2,13.2,22.2,13.2,22.2,13.3z"/>
	<path fill="#1B0F11" d="M22.2,13.5C22.2,13.5,22.2,13.4,22.2,13.5C22.2,13.4,22.2,13.5,22.2,13.5z"/>
	<path fill="#E2E2E9" d="M19.8,18c0.1-0.2,0.2-0.3,0.4-0.3c0,0,0.1,0,0.1-0.1c0.1,0,0.1,0,0.2-0.1c0,0.1,0,0.2,0.1,0.1
		c0.2,0,0.3-0.2,0.3-0.4c0.3-0.1,0.4-0.2,0.4-0.4c0.1,0,0.2,0,0.2-0.1c0.1-0.1,0.2-0.2,0.1-0.3c0,0,0,0,0,0c0.1,0.1,0.2,0.2,0.4,0.2
		c0,0,0,0.1,0,0.1c0.1,0.1,0,0.2,0,0.2c0,0.1-0.1,0.1-0.2,0.1c-0.1,0.1-0.2,0.1-0.2,0.2c0,0,0,0,0,0.1c-0.1,0-0.1,0-0.1,0.1
		c-0.1,0.2-0.2,0.4-0.5,0.3c0,0-0.1,0-0.1,0c0,0-0.1,0-0.1,0c-0.2,0.1-0.4,0.2-0.6,0.4c-0.1,0-0.1,0.1-0.1,0.2
		c-0.1,0-0.1,0.1-0.1,0.1c0,0.1,0,0.1-0.1,0.1c0,0-0.1,0-0.1,0s0-0.1,0-0.1c0-0.1,0-0.3,0-0.4v0C19.8,18.1,19.8,18,19.8,18L19.8,18
		C19.8,18,19.8,18,19.8,18z"/>
	<path fill="#E86358" d="M22.7,13.8c0.1,0.2,0.1,0.4,0.2,0.7c0.1,0.4,0.1,0.9-0.1,1.3c0,0.1,0,0.1-0.1,0.1c0-0.1,0-0.2,0-0.2
		c0,0,0,0,0,0c0-0.2,0-0.3-0.2-0.4l0,0c0,0,0,0,0,0l0,0c0,0,0,0,0,0l0,0c0,0,0,0,0,0l0,0c0,0,0,0,0,0l0,0c0,0,0,0-0.1-0.1l0,0
		c0,0,0,0,0,0c0,0,0,0,0,0c0,0,0,0,0,0c0,0,0,0,0,0c0,0,0,0,0,0c0,0,0,0,0-0.1c0-0.1,0-0.2,0.1-0.2c0.1-0.1,0.1-0.2,0.1-0.3
		c-0.1-0.2-0.1-0.4-0.2-0.6C22.4,13.7,22.6,13.8,22.7,13.8z"/>
	<path fill="#1B0F11" d="M20.7,16.6c-0.5-0.3-0.9-0.5-1.4-0.8c-0.1-0.1-0.1-0.1-0.1-0.2c0.1,0,0.1,0,0.1,0.1
		c0.2,0.1,0.3,0.2,0.5,0.3c0.4,0.2,0.8,0.5,1.2,0.7c0.1,0.1,0.2,0.1,0.1,0.3C21.1,16.8,20.9,16.6,20.7,16.6z"/>
	<path fill="#E86358" d="M20.7,16.6c0.2,0.1,0.3,0.2,0.5,0.3c0,0,0,0,0,0c0,0.2-0.1,0.3-0.4,0.4c-0.3-0.2-0.5-0.3-0.8-0.5
		c0.2-0.1,0.3,0,0.5-0.1C20.6,16.7,20.7,16.7,20.7,16.6z"/>
	<path fill="#E2E2E9" d="M19.9,15.8c-0.2-0.1-0.3-0.2-0.5-0.3c0,0-0.1-0.1-0.1-0.1c0-0.1,0.1-0.2,0.2-0.3c0-0.1,0.1,0,0.1,0
		c0.2,0.1,0.4,0.2,0.6,0.4c0,0,0,0.1-0.1,0C19.9,15.6,19.9,15.7,19.9,15.8z"/>
	<path fill="#E2E2E9" d="M22.5,15.2c0.1,0.1,0.2,0.2,0.2,0.4c0,0,0,0,0,0c0,0,0,0,0,0c-0.2,0.1-0.1,0.2-0.1,0.3c0,0,0,0.1,0,0.1
		c0,0,0,0,0,0.1c0,0,0,0.1-0.1,0.1c-0.1,0,0-0.1-0.1-0.1c0,0,0,0,0,0c0,0.1,0,0.2,0,0.2c0,0.1,0,0.1-0.1,0.1c0,0,0,0,0,0
		c0-0.2,0-0.4,0-0.7c0-0.1,0-0.2-0.1-0.2c0.1,0,0.3,0,0.2-0.2C22.4,15.3,22.5,15.3,22.5,15.2z"/>
	<path fill="#1B0F11" d="M22.3,15.5c0,0.1,0.1,0.1,0.1,0.2c0,0,0,0,0,0c-0.1-0.1-0.2-0.2-0.3-0.2c-0.2,0-0.2,0.1-0.3,0.3
		c0,0,0,0,0-0.1c0-0.2,0.1-0.3,0.2-0.4C22,15.3,22.1,15.4,22.3,15.5z"/>
	<path fill="#4F191D" d="M22.4,14.3c0,0.1,0,0.2-0.1,0.3c-0.1,0.1-0.1,0.1-0.1,0.2C22.2,14.6,22.2,14.5,22.4,14.3z"/>
	<path fill="#1B0F11" d="M21.7,14.7c-0.1-0.1-0.2-0.2-0.1-0.3C21.7,14.4,21.7,14.6,21.7,14.7z"/>
	<path fill="#83889A" d="M21.6,15.8C21.6,15.8,21.6,15.8,21.6,15.8c0,0.3,0,0.5,0,0.7c0,0,0,0,0,0C21.6,16.2,21.6,16,21.6,15.8z"/>
	<path fill="#E2E2E9" d="M22.3,15.1C22.4,15.1,22.4,15.1,22.3,15.1C22.3,15.1,22.3,15.1,22.3,15.1z"/>
	<path fill="#E2E2E9" d="M22.2,14.9C22.3,14.9,22.3,14.9,22.2,14.9C22.2,14.9,22.2,14.9,22.2,14.9z"/>
	<path fill="#E2E2E9" d="M22.3,15C22.3,15,22.3,15,22.3,15C22.3,15,22.3,15,22.3,15z"/>
	<path fill="#E2E2E9" d="M22.5,15.2C22.5,15.2,22.5,15.2,22.5,15.2C22.5,15.2,22.5,15.2,22.5,15.2z"/>
	<path fill="#E2E2E9" d="M22.4,15.2C22.5,15.2,22.5,15.2,22.4,15.2C22.5,15.2,22.5,15.2,22.4,15.2z"/>
	<path fill="#E2E2E9" d="M22.4,15.1C22.4,15.2,22.4,15.2,22.4,15.1C22.4,15.2,22.4,15.1,22.4,15.1z"/>
	<path fill="#E2E2E9" d="M22.4,15.1C22.4,15.1,22.4,15.1,22.4,15.1C22.4,15.1,22.4,15.1,22.4,15.1z"/>
	<path fill="#E2E2E9" d="M22.3,15C22.3,15,22.3,15,22.3,15C22.3,15,22.3,15,22.3,15z"/>
	<path fill="#BBBFCD" d="M22.6,16C22.6,16,22.6,16,22.6,16c0.1-0.2,0-0.3,0.1-0.4c0,0,0,0,0,0c0,0,0,0,0,0c0,0.1,0,0.2,0,0.2
		c0,0.1,0,0.2,0,0.2c0,0,0.1-0.1,0.2-0.1c0.2-0.1,0.4-0.3,0.7-0.3c0,0,0.1,0,0.1,0c0,0,0.1,0,0.1,0c0,0,0,0.1,0,0.1
		c0,0.1-0.1,0.1-0.2,0.1c-0.1,0.1-0.2,0.1-0.3,0.3c-0.2,0.1-0.4,0.3-0.6,0.4c-0.1,0.1-0.1,0.2-0.1,0.3c0,0.2-0.1,0.3-0.3,0.2
		c-0.1,0-0.1,0-0.2,0c0,0-0.1,0-0.1-0.1c0,0,0,0,0,0c0.1,0,0.2,0,0.2-0.1c0.2-0.2,0.4-0.4,0.5-0.6c0,0,0-0.1,0-0.1
		C22.6,16.2,22.7,16.1,22.6,16z"/>
	<path fill="#A4A7B7" d="M23.3,16.2c0.1-0.1,0.2-0.2,0.3-0.3c0.1,0,0.1-0.1,0.2-0.1c0,0,0.1-0.1,0-0.1c0,0-0.1,0-0.1,0
		c0,0-0.1,0-0.1,0c0-0.1,0.1-0.1,0.2-0.2c0,0,0.1,0,0.1,0h0c0,0,0,0,0,0h0c0.1,0,0.1,0,0.1-0.1c0,0,0.1,0,0.1-0.1c0,0,0,0,0.1,0
		c0.1,0,0.1,0,0.2,0c0,0.1,0,0.1-0.1,0.2c-0.1,0.1-0.1,0.1-0.2,0.1c0,0-0.1,0-0.1,0.1C23.8,16,23.6,16.1,23.3,16.2z"/>
	<path fill="#D1D3DD" d="M23.9,15.5C23.9,15.6,23.9,15.6,23.9,15.5C23.8,15.5,23.9,15.5,23.9,15.5z"/>
	<path fill="#D1D3DD" d="M23.9,15.5C23.9,15.5,23.9,15.5,23.9,15.5C23.9,15.5,23.9,15.5,23.9,15.5z"/>
	<path fill="#A4A7B7" d="M22.1,17.1c0.1,0,0.1,0,0.2,0c0.2,0.1,0.3,0,0.3-0.2c0-0.1,0-0.3,0.1-0.3c0,0.1,0,0.3,0,0.4
		c0.1,0.1,0.1,0.1,0.2,0.2c0,0,0,0,0.1,0l0,0c0,0.1,0.1,0,0.1,0c0.1,0.1,0.1,0.1,0,0.2c-0.1,0.1-0.1,0.1-0.2,0.1
		c-0.1,0.1-0.2,0.1-0.2,0.2c-0.1,0-0.1,0-0.1,0.1c-0.1,0.3-0.3,0.4-0.6,0.4c0,0,0,0,0,0c-0.2,0-0.3,0.1-0.4,0.2
		c-0.1,0.1,0,0.1,0,0.2c-0.1,0-0.1,0-0.1,0.1c0,0.2-0.1,0.2-0.2,0.1c0,0,0-0.1,0-0.1c0-0.1-0.1-0.1-0.1,0c-0.1,0.1-0.2,0.1-0.3,0.2
		c-0.3,0.2-0.5,0.2-0.8,0c0,0,0.1,0,0.1,0c0.2,0.1,0.4,0,0.6-0.1c0.1,0,0.1-0.1,0.2-0.2c0.3-0.1,0.5-0.4,0.8-0.6
		c0.1-0.1,0.1-0.2,0-0.2c0,0,0,0,0-0.1c0.1,0,0.1,0.1,0.2,0.1c0.1-0.1,0.2-0.1,0.3-0.2c0.1-0.1,0.1-0.3,0-0.4
		C22.2,17.2,22.2,17.2,22.1,17.1z"/>
	<path fill="#83889A" d="M23.3,19c-0.2,0-0.3-0.2-0.5-0.3c0,0.1,0,0.1,0,0.2c0,0.6,0,1.2,0,1.7c0,0,0,0.1,0,0.1c0-0.1,0-0.3,0-0.4
		c0-0.1,0-0.2,0-0.3c0,0,0,0,0-0.1c0-0.2,0-0.4-0.1-0.5c0,0,0-0.1-0.1-0.1c0,0,0,0.1-0.1,0.1c-0.1,0,0,0.1-0.1,0.2
		c0-0.4,0-0.7,0-1.1c0.2,0.1,0.3,0,0.3-0.2c0-0.1,0-0.3,0.1-0.4c0,0.1,0,0.2,0,0.3c0.1,0.1,0.3,0.2,0.5,0.3c0.1,0.1,0.2,0.1,0.3,0.1
		c0,0.1-0.1,0.1-0.1,0.1c-0.1,0-0.2,0-0.2,0c-0.1,0-0.1,0-0.1,0c0,0.1,0,0.1,0.1,0.1C23.2,18.9,23.2,19,23.3,19z"/>
	<path fill="#83889A" d="M21.6,18.8c0-0.1,0-0.1,0-0.2C21.7,18.6,21.6,18.7,21.6,18.8c0.1,0.7,0.1,1.4,0.1,2.1c0,0,0,0-0.1,0
		c0-0.1,0-0.2,0-0.2c0-0.1,0-0.3,0-0.4c0,0,0-0.1-0.1-0.1s-0.1,0.1-0.1,0.1c0,0.1,0,0.1-0.1,0.1c0-0.3,0-0.7,0-1c0,0,0,0,0,0
		c0,0,0.1,0.1,0.1,0.1c0.1,0,0.1-0.1,0.1-0.1C21.5,19.1,21.6,18.9,21.6,18.8z"/>
	<path fill="#9499AB" d="M22.7,17.9c-0.1,0.1-0.1,0.2-0.1,0.4c0,0.2-0.1,0.3-0.3,0.2c0,0,0,0,0,0c-0.1-0.1-0.2-0.1-0.3-0.2
		c0,0,0,0,0,0C22.3,18.3,22.5,18.2,22.7,17.9C22.6,17.9,22.6,17.8,22.7,17.9C22.7,17.9,22.7,17.9,22.7,17.9
		C22.7,17.9,22.7,17.9,22.7,17.9z"/>
	<path fill="#BBBFCD" d="M22.7,20.4c0,0.1,0,0.3,0,0.4c-0.1,0.1-0.2,0-0.3,0c0-0.1,0-0.2,0-0.3c0,0,0,0,0.1,0
		C22.5,20.3,22.5,20.3,22.7,20.4z"/>
	<path fill="#9499AB" d="M23.3,19c0-0.1-0.1-0.1-0.2-0.2c0,0-0.1-0.1-0.1-0.1c0-0.1,0.1,0,0.1,0c0.1,0,0.2,0,0.2,0
		c0,0,0.1,0,0.1-0.1l0,0h0c0,0,0.1,0,0.1,0c0,0.1-0.1,0.1-0.2,0.1c0,0-0.1,0-0.1,0.1c0,0.1,0,0.1,0.1,0.1c0,0,0.1,0.1,0.1,0.1
		C23.4,19.1,23.3,19.1,23.3,19z"/>
	<path fill="#D1D3DD" d="M22.4,20.5c0,0.1,0,0.2,0,0.3c-0.1,0,0-0.1,0-0.1c0-0.7,0-1.4,0-2.2c0,0,0,0,0,0c0,0.4,0,0.7,0,1.1
		c0,0.2,0,0.4,0,0.5C22.4,20.3,22.4,20.4,22.4,20.5z"/>
	<path fill="#D1D3DD" d="M25.9,19.7C25.9,19.7,25.9,19.7,25.9,19.7C25.9,19.7,25.9,19.7,25.9,19.7C25.9,19.8,25.9,19.8,25.9,19.7z"
		/>
	<path fill="#A4A7B7" d="M24.2,19.1C24.2,19.1,24.3,19.1,24.2,19.1C24.3,19.1,24.2,19.1,24.2,19.1z"/>
	<path fill="#D1D3DD" d="M23.2,17.2c0,0,0.1-0.1,0.2-0.1c0,0,0,0,0,0C23.3,17.2,23.2,17.2,23.2,17.2L23.2,17.2z"/>
	<path fill="#D1D3DD" d="M23.7,16.9c0,0.1-0.1,0.1-0.1,0.1c0,0,0,0,0,0c0,0,0,0,0,0C23.6,16.9,23.6,16.9,23.7,16.9z"/>
	<path fill="#D1D3DD" d="M23.4,17.1c0,0,0.1-0.1,0.1-0.1c0,0,0,0,0,0C23.5,17.1,23.4,17.1,23.4,17.1L23.4,17.1z"/>
	<path fill="#D1D3DD" d="M23.1,17.3C23.1,17.3,23,17.3,23.1,17.3C23,17.2,23.1,17.2,23.1,17.3C23.1,17.2,23.1,17.2,23.1,17.3
		C23.1,17.2,23.1,17.3,23.1,17.3z"/>
	<path fill="#D1D3DD" d="M23.5,17C23.5,17,23.5,17,23.5,17C23.5,17,23.5,17,23.5,17C23.5,17,23.5,17,23.5,17
		C23.5,17,23.5,17,23.5,17z"/>
	<path fill="#D1D3DD" d="M23,17.2C23,17.2,23,17.2,23,17.2C23,17.2,23,17.2,23,17.2z"/>
	<path fill="#D1D3DD" d="M23.7,16.9C23.7,16.9,23.7,16.9,23.7,16.9C23.7,16.9,23.7,16.9,23.7,16.9z"/>
	<path fill="#D1D3DD" d="M23.3,17.1C23.3,17.1,23.4,17.1,23.3,17.1L23.3,17.1C23.4,17.1,23.4,17.1,23.3,17.1
		C23.3,17.1,23.3,17.1,23.3,17.1z"/>
	<path fill="#D1D3DD" d="M23.1,17.2C23.1,17.2,23.1,17.2,23.1,17.2L23.1,17.2C23.2,17.2,23.1,17.2,23.1,17.2
		C23.1,17.2,23.1,17.2,23.1,17.2z"/>
	<path fill="#9499AB" d="M23.1,17.2C23.1,17.2,23.2,17.2,23.1,17.2c0.1,0,0.2-0.1,0.2-0.1c0,0,0,0,0,0c0,0,0.1,0,0.1-0.1
		c0,0,0,0,0.1,0c0,0,0,0,0,0c0,0,0,0,0,0c0.1,0,0.1,0,0.2,0c0,0.1-0.1,0.1-0.1,0.2c-0.1,0.1-0.1,0.1-0.2,0.1c-0.1,0.1-0.1,0.1,0,0.1
		c0,0,0,0,0,0c-0.1,0-0.1,0-0.1,0.1c0,0.1-0.1,0.1-0.2,0.1c-0.1,0-0.1-0.1-0.2,0c-0.1,0-0.1,0-0.1,0c-0.1,0-0.2,0.1-0.2,0.1
		c0,0,0,0,0,0c0-0.1,0.2-0.1,0.2-0.2c0-0.1,0.1-0.1,0.2-0.1C23.2,17.4,23.2,17.3,23.1,17.2C23.1,17.3,23.1,17.2,23.1,17.2z"/>
	<path fill="#9499AB" d="M24.1,17.9C24.1,18,24.1,18,24.1,17.9C24.1,18,24.1,18,24.1,17.9c0.1,0.1,0.1,0.1,0.1,0.1
		c0,0.1,0,0.2-0.1,0.1c-0.1-0.1-0.1,0-0.1,0.1c0,0.1,0,0.2-0.1,0.3c0,0,0,0-0.1,0c0-0.1,0.1-0.1,0-0.2c0-0.1,0-0.2,0-0.3
		c0.1,0,0-0.1,0-0.1c0-0.1-0.1-0.1,0-0.2c0.1,0,0.1,0,0.2,0C24,17.9,24,18,24.1,17.9C24.1,17.9,24.1,17.9,24.1,17.9z"/>
	<path fill="#D1D3DD" d="M23.8,18.4c0.1,0.1,0,0.1,0,0.2c0,0,0,0-0.1,0c0,0,0,0,0,0C23.8,18.5,23.8,18.5,23.8,18.4L23.8,18.4z"/>
	<path fill="#D1D3DD" d="M23.7,18.7C23.6,18.7,23.6,18.7,23.7,18.7C23.6,18.7,23.6,18.7,23.7,18.7L23.7,18.7
		C23.7,18.7,23.7,18.7,23.7,18.7z"/>
	<path fill="#D1D3DD" d="M23.8,18.6C23.7,18.6,23.7,18.6,23.8,18.6L23.8,18.6C23.7,18.6,23.7,18.6,23.8,18.6
		C23.7,18.6,23.8,18.6,23.8,18.6z"/>
	<path fill="#D1D3DD" d="M23.7,18.6C23.7,18.6,23.7,18.7,23.7,18.6L23.7,18.6C23.7,18.6,23.7,18.6,23.7,18.6L23.7,18.6z"/>
	<path fill="#1B0F11" d="M23.8,18.2c0,0.1,0,0.2,0,0.3h0c0-0.1-0.1-0.1-0.1-0.2c-0.2-0.1-0.4-0.2-0.5-0.3c0,0-0.1,0-0.1,0
		c-0.2,0.1-0.3,0.2-0.3,0.4c0-0.1,0-0.2,0-0.3c0,0,0-0.1,0-0.1c0.1,0,0.2-0.1,0.2-0.1c0,0,0.1-0.1,0.1,0c0.2,0.1,0.3,0.2,0.5,0.3
		C23.7,18,23.7,18.1,23.8,18.2z"/>
	<path fill="#F4F4F7" d="M20.1,16.8c0.3,0.2,0.5,0.3,0.8,0.5c0,0.2-0.1,0.4-0.3,0.4c-0.1,0-0.1-0.1-0.1-0.1l0,0c0,0,0.1,0,0,0
		c0,0,0,0-0.1,0c-0.3-0.2-0.7-0.4-1-0.6c-0.2-0.1-0.5-0.3-0.7-0.4c0,0,0,0,0,0c0,0,0,0,0,0c0,0,0-0.1,0.1-0.1c0,0,0.1,0.1,0.1,0
		c0.1,0,0.1-0.1,0.2-0.1C19.4,16.4,19.7,16.5,20.1,16.8C20,16.7,20,16.7,20.1,16.8z"/>
	<path fill="#E2E2E9" d="M19.1,16.2c-0.1,0-0.1,0.1-0.2,0.1c-0.1,0-0.1,0-0.1,0c0-0.1,0.1-0.1,0.1-0.2C19,16.1,19,16.2,19.1,16.2z"
		/>
	<path fill="#1B0F11" d="M18.7,16.5c0.3,0.1,0.5,0.3,0.7,0.4c0.3,0.2,0.7,0.4,1,0.6c0,0,0,0,0,0.1l0,0c-0.1,0-0.1,0-0.2,0.1
		c-0.5-0.3-1-0.6-1.5-0.9C18.7,16.6,18.7,16.6,18.7,16.5z"/>
	<path fill="#E2E2E9" d="M18.7,16.4C18.7,16.4,18.7,16.4,18.7,16.4L18.7,16.4L18.7,16.4z"/>
	<path fill="#D1D3DD" d="M19.8,18.1c0,0.1-0.1,0.3,0,0.4c0,0,0,0.1,0,0.1c0,0,0.1,0,0.1,0c0,0,0.1-0.1,0.1-0.1c0-0.1,0-0.1,0.1-0.1
		c0,0.1,0,0.2,0,0.2c-0.1,0,0,0.1,0,0.1c0,0.1,0,0.2-0.1,0.2c-0.1,0-0.2,0.1-0.3,0.2c-0.3,0.1-0.5,0.2-0.8,0.3c0,0-0.1,0.1-0.2,0
		c-0.1-0.1,0-0.1,0-0.2c0,0,0.1-0.1,0-0.1c0.1-0.1,0.2-0.2,0.3-0.3c0,0,0.1,0,0.1,0c0.2,0,0.3,0,0.4-0.1c0.1-0.1,0.2-0.2,0.2-0.3
		C19.7,18.2,19.7,18.1,19.8,18.1z"/>
	<path fill="#D1D3DD" d="M19.8,18C19.8,18,19.8,18.1,19.8,18C19.8,18,19.8,18,19.8,18z"/>
	<path fill="#D1D3DD" d="M19.8,18C19.8,18,19.8,18,19.8,18C19.8,18,19.8,18,19.8,18z"/>
	<path fill="#BBBFCD" d="M18.7,19c0.1,0,0,0.1,0,0.1c0,0.1-0.1,0.1,0,0.2c0.1,0.1,0.1,0,0.2,0c0.3-0.1,0.6-0.2,0.8-0.3
		c0.1-0.1,0.2-0.1,0.3-0.2c0.1,0,0.1-0.1,0.1-0.2c0,0,0-0.1,0-0.1l0,0l0,0c0.1,0.2,0.3,0.3,0.5,0.2c0.1-0.1,0.2-0.1,0.3-0.2
		c0,0,0.1,0,0.1,0h0c0,0,0,0,0,0l0,0c0,0,0.1,0,0.1,0l0,0c0.1,0,0.1,0,0.1-0.1l0,0c0,0,0,0,0,0c0,0,0-0.1,0-0.1c0,0,0,0.1,0,0.1
		c0-0.1,0.1-0.2,0-0.3c0,0-0.1-0.1-0.1-0.1c0-0.1,0.1,0,0.1,0c0.1,0.1,0.2,0,0.2,0c0.1-0.1,0.1-0.2,0.1-0.2c0-0.1,0-0.1,0.1-0.1
		c0,0.1,0,0.2,0,0.3c0.1,0.1,0.2,0.1,0.2,0.2c0,0,0,0,0,0.1c0.1,0.1,0.1,0.2,0,0.2c-0.3,0.2-0.5,0.4-0.8,0.6c-0.1,0-0.1,0.1-0.2,0.2
		c-0.2,0.1-0.4,0.2-0.6,0.1c0,0-0.1,0-0.1,0c-0.3,0-0.5,0.1-0.6,0.4c0,0.1-0.1,0.1-0.1,0.1c-0.3,0.1-0.7,0.2-1,0.2
		c-0.1,0-0.2,0-0.3,0.1c0.1-0.1,0.3-0.3,0.4-0.4C18.5,19.2,18.6,19.1,18.7,19z"/>
	<path fill="#BBBFCD" d="M21.3,19.3c0,0.3,0,0.7,0,1c0,0.2,0,0.4,0,0.5c0,0,0,0,0,0c0,0,0,0,0,0c0-0.6,0-1.2,0-1.8c0,0,0,0,0,0
		c0,0,0,0,0,0h0c0-0.1,0-0.1,0-0.2c0.1,0,0,0.1,0,0.1C21.3,19,21.3,19.2,21.3,19.3z"/>
	<path fill="#1B0F11" d="M21.2,20.8C21.3,20.8,21.3,20.8,21.2,20.8c0.1,0,0.2,0,0.3,0c0,0,0,0,0.1,0c0,0.2,0,0.2-0.3,0.2
		C21.2,21,21.2,21,21.2,20.8C21.2,20.8,21.2,20.8,21.2,20.8z"/>
	<path fill="#E2E2E9" d="M23.7,21c0,0.1-0.1,0.1-0.1,0.1C23.6,21.1,23.6,21.1,23.7,21z"/>
	<path fill="#E2E2E9" d="M23.4,21.2c0,0.1-0.1,0.1-0.1,0C23.3,21.2,23.4,21.2,23.4,21.2z"/>
	<path fill="#E2E2E9" d="M23.5,21.1C23.5,21.2,23.4,21.2,23.5,21.1C23.4,21.1,23.5,21.1,23.5,21.1z"/>
	<path fill="#E2E2E9" d="M23.5,21.1C23.5,21.1,23.5,21.1,23.5,21.1C23.5,21.1,23.5,21.1,23.5,21.1z"/>
	<path fill="#9499AB" d="M21.2,20.8C21.2,20.8,21.2,20.8,21.2,20.8C21.2,20.8,21.2,20.8,21.2,20.8C21.2,20.8,21.2,20.8,21.2,20.8z"
		/>
	<path fill="#A4A7B7" d="M21.2,19C21.2,19,21.2,19,21.2,19C21.2,19,21.2,19,21.2,19C21.2,19,21.2,19,21.2,19z"/>
	<path fill="#E86358" d="M21.6,16.4c0-0.2,0-0.4,0-0.6c0-0.1,0.1-0.2,0.3-0.3c0.2,0,0.3,0.1,0.3,0.2c0,0.2,0,0.4,0,0.6c0,0,0,0,0,0
		c0,0-0.1,0-0.1,0.1c0,0,0,0,0,0v0c0,0-0.1,0-0.1,0h0c0,0,0,0-0.1,0v0C21.9,16.6,21.8,16.5,21.6,16.4z"/>
	<path fill="#D1D3DD" d="M22.2,16.5c0,0,0.1-0.1,0.1-0.1c0.1,0,0.1,0,0.1-0.1c0-0.1,0-0.2,0-0.2c0,0,0,0,0,0c0.1,0,0,0.1,0.1,0.1
		c0.1,0,0-0.1,0.1-0.1c0,0,0,0,0-0.1c0.1,0,0,0.2,0.1,0.2c0,0,0,0.1,0,0.1c-0.1,0.2-0.3,0.4-0.5,0.6C22.2,17,22.1,17,22,17
		c0,0,0,0,0,0c-0.1,0-0.2,0.2-0.3,0.2c0-0.1,0.1-0.2,0.2-0.2c0.1,0,0.1-0.1,0.2-0.1c0.1-0.1,0.2-0.1,0-0.2c0,0,0-0.1,0-0.1v0
		C22.1,16.6,22.1,16.6,22.2,16.5L22.2,16.5C22.1,16.6,22.1,16.6,22.2,16.5L22.2,16.5C22.2,16.5,22.2,16.5,22.2,16.5z"/>
	<path fill="#1B0F11" d="M21.1,17.8c0,0,0.1,0.1,0.1,0.1c0,0.1,0,0.1,0,0.2c-0.1,0-0.2-0.1-0.2-0.1c-0.1,0-0.1,0-0.2,0
		c-0.2,0.1-0.3,0.2-0.5,0.3c-0.1,0.1-0.2,0.1-0.2,0.2l0,0l0,0c0-0.1,0-0.2,0-0.2c0-0.1,0.1-0.1,0.1-0.2c0.2-0.1,0.4-0.2,0.6-0.4
		c0,0,0.1,0,0.1,0C21,17.8,21.1,17.8,21.1,17.8z"/>
	<path fill="#D1D3DD" d="M21.1,17.8c-0.1,0-0.2-0.1-0.2-0.1c0,0,0-0.1,0.1,0c0.3,0.1,0.4-0.1,0.5-0.3c0,0,0.1-0.1,0.1-0.1
		c0,0,0,0.1,0,0.1c-0.1,0-0.1,0.1-0.1,0.1c0,0.1,0,0.2-0.1,0.2c-0.1,0.1-0.1,0.1-0.2,0C21.2,17.8,21.2,17.8,21.1,17.8z"/>
	<path fill="#1B0F11" d="M21.6,17.4c0,0,0-0.1,0-0.1c0,0,0,0,0-0.1c0.1,0,0.2-0.2,0.3-0.2c0,0,0,0,0,0c0,0,0.1,0.1,0.1,0.1
		c0.1,0.1,0.1,0.1,0.2,0.1c0,0.1,0,0.1,0,0.2c-0.1,0-0.1-0.1-0.2-0.1c-0.2-0.1-0.3,0-0.4,0.1c-0.1,0.1-0.1,0.2-0.1,0.3
		C21.6,17.6,21.6,17.5,21.6,17.4z"/>
	<path fill="#D1D3DD" d="M22.7,15.6C22.7,15.6,22.7,15.6,22.7,15.6C22.7,15.6,22.7,15.6,22.7,15.6C22.7,15.6,22.7,15.6,22.7,15.6z"
		/>
	<path fill="#D1D3DD" d="M22.7,15.7c0,0.1,0.1,0.2-0.1,0.3C22.6,15.8,22.5,15.7,22.7,15.7z"/>
	<path fill="#83889A" d="M22.3,16.4c0-0.2,0-0.4,0-0.6c0,0,0,0,0,0C22.3,16,22.3,16.2,22.3,16.4z"/>
	<path fill="#A4A7B7" d="M22,17.1C22,17.1,22,17.1,22,17.1C22,17.1,22,17,22,17.1C22,17.1,22,17.1,22,17.1z"/>
	<path fill="#E54437" d="M21.6,17.7c0-0.1,0-0.2,0.1-0.3c0.1-0.1,0.2-0.2,0.4-0.1c0.1,0,0.1,0.1,0.2,0.1c0,0.1,0,0.2,0,0.3
		c-0.1,0.1-0.2,0.1-0.3,0.2c-0.1,0-0.1-0.1-0.2-0.1C21.8,17.7,21.7,17.7,21.6,17.7z"/>
	<path fill="#9499AB" d="M21.3,19.3c0-0.1,0-0.2,0-0.3c0.1,0.1,0.2,0.1,0.2-0.1c0,0,0-0.1,0.1-0.1c0,0.2,0,0.3-0.1,0.5
		c0,0,0,0.1-0.1,0.1C21.4,19.4,21.4,19.3,21.3,19.3C21.3,19.3,21.3,19.3,21.3,19.3z"/>
	<path fill="#E2E2E9" d="M22.3,17.7c0-0.1,0-0.2,0-0.3c0-0.1,0-0.1,0-0.2C22.4,17.4,22.4,17.7,22.3,17.7z"/>
	<path fill="#E0141A" d="M22.7,18.3c0-0.2,0.1-0.3,0.3-0.4c0,0,0.1,0,0.1,0c0.2,0.1,0.4,0.2,0.5,0.3c0.1,0,0.1,0.1,0.1,0.2
		c0,0.1,0,0.1-0.1,0.2c0,0,0,0,0,0c0,0,0,0,0,0c0,0-0.1,0-0.1,0h0l0,0c-0.1,0-0.2,0-0.3-0.1C23,18.5,22.9,18.4,22.7,18.3z"/>
	<path fill="#9499AB" d="M22.4,20.2c0-0.2,0-0.4,0-0.5c0.1,0,0-0.1,0.1-0.2c0,0,0-0.1,0.1-0.1s0.1,0,0.1,0.1
		c0.1,0.2,0.1,0.4,0.1,0.5c0,0,0,0,0,0.1c0,0-0.1,0-0.1-0.1c0,0,0-0.1-0.1-0.1c-0.1,0-0.1,0.1-0.1,0.1
		C22.4,20.1,22.5,20.2,22.4,20.2z"/>
	<path fill="#A4A7B7" d="M22.4,20.2c0.1,0,0-0.1,0.1-0.2c0,0,0-0.1,0.1-0.1c0.1,0,0.1,0.1,0.1,0.1c0,0,0,0.1,0.1,0.1
		c0,0.1,0,0.2,0,0.3c-0.2-0.1-0.2-0.1-0.3,0.1c0,0,0,0-0.1,0C22.4,20.4,22.4,20.3,22.4,20.2z"/>
	<path fill="#9499AB" d="M21.6,20.8c-0.1,0-0.2,0-0.3,0c0-0.2,0-0.4,0-0.5c0.1,0,0.1,0,0.1-0.1c0-0.1,0-0.1,0.1-0.1
		c0.1,0,0.1,0.1,0.1,0.1c0.1,0.1,0,0.3,0,0.4C21.6,20.7,21.6,20.7,21.6,20.8z"/>
	<path fill="#E2E2E9" d="M20.5,17.5C20.5,17.5,20.5,17.5,20.5,17.5C20.5,17.4,20.5,17.4,20.5,17.5C20.5,17.5,20.5,17.5,20.5,17.5z"
		/>
	<path fill="#E54437" d="M20.1,18.5c0-0.1,0.1-0.2,0.2-0.2c0.2-0.1,0.3-0.2,0.5-0.3c0.1,0,0.1,0,0.2,0c0.1,0,0.2,0.1,0.2,0.1
		c0,0,0,0.1,0,0.1c0,0,0,0.1,0,0.1c0,0,0,0,0,0l0,0c-0.1,0-0.1,0-0.1,0.1l0,0c0,0,0,0-0.1,0l0,0c0,0,0,0,0,0h0c0,0-0.1,0-0.1,0
		c-0.1,0.1-0.2,0.1-0.3,0.2C20.4,18.8,20.2,18.7,20.1,18.5z"/>
	<path fill="#D1D3DD" d="M21.2,18.2C21.2,18.1,21.2,18.1,21.2,18.2c0-0.1,0-0.2,0-0.2C21.3,18,21.3,18.1,21.2,18.2
		C21.3,18.2,21.2,18.2,21.2,18.2z"/>
	<path fill="#D1D3DD" d="M21.1,18.4c0,0,0.1-0.1,0.1-0.1C21.2,18.4,21.2,18.4,21.1,18.4z"/>
	<path fill="#D1D3DD" d="M20.9,18.5C21,18.5,21,18.4,20.9,18.5C21,18.5,21,18.5,20.9,18.5z"/>
	<path fill="#D1D3DD" d="M21,18.4C21.1,18.4,21.1,18.4,21,18.4C21.1,18.4,21.1,18.4,21,18.4z"/>
	<path fill="#D1D3DD" d="M21,18.5C21,18.4,21,18.4,21,18.5C21,18.4,21,18.4,21,18.5z"/>
	<path fill="#D1D3DD" d="M21.2,18.3C21.2,18.3,21.2,18.3,21.2,18.3C21.2,18.3,21.2,18.3,21.2,18.3z"/>
	<path fill="#E2E2E9" d="M22.1,16.5C22.1,16.6,22.1,16.6,22.1,16.5C22.1,16.5,22.1,16.5,22.1,16.5z"/>
	<path fill="#E2E2E9" d="M22.1,16.6C22.1,16.6,22,16.6,22.1,16.6C22,16.6,22.1,16.6,22.1,16.6z"/>
	<path fill="#E2E2E9" d="M22.2,16.5C22.2,16.5,22.2,16.5,22.2,16.5C22.1,16.5,22.2,16.5,22.2,16.5z"/>
</g>
<path fill="#E3141A" d="M25.1,23c0.3,0,0.7,0,1,0c0.1,0,0.1,0,0.1,0.1c0.2,1.4,0.5,2.8,0.7,4.1c0.2,1.3,0.5,2.7,0.7,4
	c0,0.1,0,0.1-0.1,0.1c-0.5,0-1,0-1.5,0c-0.1,0-0.1,0-0.1-0.1c-0.1-0.6-0.2-1.2-0.3-1.8c0-0.1,0-0.1-0.1-0.1c-0.3,0-0.7,0-1,0
	c-0.1,0-0.1,0-0.1,0.1c-0.1,0.6-0.2,1.2-0.2,1.7c0,0.1,0,0.1-0.1,0.1c-0.5,0-1,0-1.4,0c-0.1,0-0.1,0-0.1-0.1
	c0.3-1.5,0.5-2.9,0.8-4.4c0.2-1.2,0.4-2.5,0.7-3.8c0-0.1,0-0.1,0.1-0.1C24.4,23,24.8,23,25.1,23z M25.1,25c0,0,0,0.1-0.1,0.1
	c-0.1,0.9-0.2,1.8-0.4,2.7c0,0.1,0,0.1,0.1,0.1c0.2,0,0.4,0,0.6,0c0.1,0,0.1,0,0.1-0.1c0-0.2-0.1-0.4-0.1-0.6
	C25.3,26.4,25.2,25.7,25.1,25z"/>
</svg>
