<?xml version="1.0" encoding="utf-8"?>
<!-- Generator: Adobe Illustrator 19.2.1, SVG Export Plug-In . SVG Version: 6.00 Build 0)  -->
<svg version="1.1" id="Layer_1" xmlns="http://www.w3.org/2000/svg" xmlns:xlink="http://www.w3.org/1999/xlink" x="0px" y="0px"
	 viewBox="0 0 133 132" style="enable-background:new 0 0 133 132;" xml:space="preserve">
<style type="text/css">
	.st0{fill:#FFFFFF;}
</style>
<g id="GIT_logo_1_">
	<path class="st0" d="M131.7,73.5v45.7c0,6.4-5.2,11.6-11.6,11.6H76.5c10.1-6,20.1-13.7,29.4-23C116.8,96.9,125.4,85.2,131.7,73.5z
		 M26.7,28.5C39.2,16,52.8,6.4,66.4,0H12.5C6.1,0,1,5.2,1,11.6v51.2C7.2,51,15.9,39.3,26.7,28.5z"/>
	<path class="st0" d="M109.6,79.7v10.8c0,0-22.2,5.7-25-11.4V47.8H74.2V39l10.2-0.2v-10L96.8,24V39h12.4v8.7H96.6v26.7
		C96.6,74.5,96.4,85.4,109.6,79.7z M63.4,84.8c0,0,2.2,18.4-11.2,23.8c-12.6,5.1-27.3-0.4-27.3-0.4l-0.2-6.9c0,0,4.3,3.7,13.4,4.1
		c9.2,0.4,17.3-2.8,18.3-11.8c0,0,0.6-1.6,0.6-14.2c0,0-1.8,9.2-15.1,10.2C32.3,89.3,27.4,83,27.4,83s-8.5-8.3-5.9-25.8
		c0,0,1.4-15.6,14-19.1c13-3.7,18.9,2.6,22,6.7v-6.3h5.9V84.8z M57,56.9c-1.1-11.5-7.8-13.5-7.8-13.5c-4.9-2.6-11.8-0.4-11.8-0.4
		C25.5,47,26.8,65.3,26.8,65.3c0.8,16.9,12.6,19.1,12.6,19.1c14.2,1.2,16.9-11.8,16.9-11.8C57.9,64.1,57,56.9,57,56.9z M64,28.7h9.4
		V16.5H64V28.7z"/>
	<path class="st0" d="M115.5,18.6c0.5-0.1,1.1-0.2,1.8-0.2c1,0,1.6,0.2,2.1,0.6c0.3,0.3,0.6,0.8,0.6,1.3c0,0.9-0.6,1.5-1.3,1.8v0
		c0.5,0.2,0.9,0.7,1,1.4c0.2,1,0.4,1.7,0.5,1.9h-0.9c-0.1-0.2-0.3-0.8-0.5-1.7c-0.2-1-0.6-1.3-1.4-1.4h-0.9v3.1h-0.9V18.6z
		 M116.4,21.8h0.9c1,0,1.6-0.5,1.6-1.3c0-0.9-0.7-1.3-1.6-1.3c-0.4,0-0.7,0-0.9,0.1V21.8z M117.5,28.2c-3.2,0-5.9-2.6-5.9-5.9
		c0-3.2,2.6-5.9,5.9-5.9c3.2,0,5.9,2.6,5.9,5.9C123.3,25.6,120.7,28.2,117.5,28.2z M117.5,16.9c-3,0-5.4,2.4-5.4,5.4
		c0,3,2.4,5.4,5.4,5.4c3,0,5.4-2.4,5.4-5.4C122.9,19.4,120.5,16.9,117.5,16.9z"/>
</g>
</svg>
