<svg id="tankit_logo" data-name="tankit logo" xmlns="http://www.w3.org/2000/svg" width="1763.286" height="333.345" viewBox="0 0 1763.286 333.345">
  <path id="Path_9556" data-name="Path 9556" d="M1067.715,509.244c-5.154,12.628-8.859,26.92-4.649,40.4,5.431,21.9,26.565,38.233,49.143,38.049-7.158-10.433-16.641-19.291-22.105-30.849-4.964-8.928-6.344-19.166-9.174-28.843-2.167-15.9.69-31.669,4.459-47.025-9.706,6.091-12.682,18.53-17.674,28.273M919.515,378.02H919.5c-2.661-17.535-8.5-34.277-22.236-46.373C874.076,310.91,841,310.611,811.681,309.394c-63.726-.57-127.49.076-191.216-.228q-.065,16.775-.3,33.566v.022c-.119,9.634-.282,19.269-.44,28.909,66.262,1.6,132.693-2.842,198.761,1.239,25.658.359,30.855,27.55,31.415,48.063-51.6.88-103.239-1.761-154.642,1.761-28.493,2.119-62.7,13.438-71.216,44.145-6.713,29.588-7.56,61.822,1.276,90.97,11.829,32,49.36,39.548,79.537,41.347,72.183,2.32,144.4.081,216.744,1.125.88-63.344.44-126.682.282-190.02-.32-10.439-.76-21.519-2.363-32.272M714.883,536.213c-32.333.157-31.817-60.627.8-59.665,44.249-3.6,88.851-.679,133.209-1.761.125,21.116.206,42.227.125,63.382-44.646-.88-89.525,2.119-134.133-1.956m335.049-221.336c-.836-2.239-1.8-4.429-2.645-6.657.239-.141.5-.239.744-.386-5.133-13.726-10.531-27.392-16.251-40.869-27.721,8.591-55.107,18.921-81.112,31.87,4.959,13.362,10.227,26.577,15.067,39.983.239-.016.462-.109.7-.13.825,2.228,1.711,4.439,2.515,6.678a84.117,84.117,0,0,0,27.217-7.586c17.869-7.836,36.911-12.9,53.765-22.9M571.061,343.433c-.043-11.607-.087-23.241-.13-34.8-104.108-.076-208.146.076-312.249-.076v.022q-.122,30.737,0,61.469c39.133-.234,78.271-.158,117.41-.082-.081,76.63.456,153.177-.234,229.812,26.223.685,52.586.609,78.885.3-.3-76.706-.152-153.411-.076-230.117,38.829-.152,77.663,0,116.492-.076-.033-8.852-.065-17.633-.1-26.458M1291.563,308c.407,65.561.282,74.027.152,139.565q-.155,76.187-.07,152.39c24.821-.141,49.648-.071,74.469.359.69-48.226.863-96.464.891-144.7.044-68.218-.234-79.368.136-147.613-25.218.217-50.354.217-75.577,0m317.8.418c-32.729.234-65.459-1.31-98.106.386-20.558,12.471-34.153,33.256-51.783,49.264-27.586,29.588-58.572,56.557-84.181,87.742-2.569,3.13-5.149,6.254-7.6,9.477,45.536,48.878,93.68,95.523,139.455,144.173,33.832.69,67.745.386,101.588.538-47.1-48.759-95.668-96.224-143.866-143.913l-1.048-1.032c47.122-50.183,97.558-97.289,145.544-146.635m412.539,151.368V394.843H1904.16V308.634h-77.522V526.095q0,74.222,92.729,74.217h102.539V535.37H1919.612c-9.956,0-15.05-3.88-15.387-11.585-.011-.266-.065-.5-.065-.782V459.784Zm-244.362-86.976q-.562-32.318-.1-64.642c-29.889.163-59.87.163-89.764.245,0,21.551,0,43.1.19,64.724,29.8.245,59.685.245,89.672-.326m-.375,22.035q-44.7,0-89.389.082c0,68.5-.12,39.668.076,105.8.1,32.718.272,65.7.587,99.588,29.8-.321,59.587-.321,89.384-.239.109-30.148.054-59.572-.065-88.742-.282-69.826-.929-44.265-.592-116.488m-534.348-68.294a14.56,14.56,0,0,0-13.264-13.846c-25.87-1.869-52.011-.527-78-.152-12.943-.7-21.524,9.966-30.578,17.448-39.367,2.043-82.589-5-118.3,15.775-23.806,14.873-29.145,44.966-29.5,70.853-.054,6.189-.082,12.411-.114,18.633h-.005c-.424,54.888-.022,109.787-.087,164.736q33.7-.106,67.4,0v-.071h39.915c-25.826-12.02-42.886-41.325-38.628-69.821,2.069-18.068,11.112-34.12,18.678-50.329l.787-.505c10.205-19.03,21.106-37.826,30.6-57.247a301.94,301.94,0,0,0,16.175-39.081l.934.375c4.264,11.89,8.848,23.632,13.839,35.255a470.633,470.633,0,0,0,29.454,57.931c11.677,20.046,24.523,41.754,22.481,65.881-1.711,24.42-17.049,47.917-39.66,57.54H1175.1V600q33.8,0,67.545-.071c.109-64.881-.071-129.806.092-194.747l-.005-.005q.09-29.889.266-59.746c-.293-6.227.174-12.623-.174-18.878m-23.806,19.839a10.031,10.031,0,0,1-8.288,10.08c-18.461,3.331-37.943,1.228-56.6.467-8.294-.38-8.12-6.543-6.865-12.683a10.09,10.09,0,0,1,9.814-8.151c17.375,0,34.75.033,52.125.326a10.013,10.013,0,0,1,9.814,9.754Z" transform="translate(-258.621 -266.966)" fill="#f6f8f9"/>
</svg>
