<svg id="Layer_1" data-name="Layer 1" xmlns="http://www.w3.org/2000/svg" viewBox="0 0 115 65"><defs><style>.cls-1{fill:#fff;}</style></defs><path class="cls-1" d="M85.27,39.16c4.15-5.1,19.55-24,20-24.58l0,0,0,0c3-4,.35-7-3.89-7H89.65v-7h11.82A13.5,13.5,0,0,1,108,1.68,11,11,0,0,1,114,11.6,13,13,0,0,1,112.31,18c-.59,1.05-4,5.43-9.51,12.33l-.81,1h12.5v7.88Z"/><path class="cls-1" d="M71,13.9v7.93H64.66ZM71.71.54,48.07,29.61H71v16.6l8.21-9.84V29.61H85l6.21-7.78h-12V.54Z"/><path class="cls-1" d="M43.87,37.08H42.26l-6.55,8.21H52.54a23.77,23.77,0,1,1-2.27-28.56l5.18-6.5a31.92,31.92,0,1,0,8.73,26.86Z"/></svg>