<?xml version="1.0" encoding="utf-8"?>
<!-- Generator: Adobe Illustrator 25.1.0, SVG Export Plug-In . SVG Version: 6.00 Build 0)  -->
<svg version="1.1" id="Layer_1" xmlns="http://www.w3.org/2000/svg" xmlns:xlink="http://www.w3.org/1999/xlink" x="0px" y="0px"
	 viewBox="0 0 231 231" style="enable-background:new 0 0 231 231;" xml:space="preserve">
<style type="text/css">
	.st0{fill:#FFFFFF;}
	.st1{enable-background:new    ;}
</style>
<g>
	<g>
		<path class="st0" d="M59.2,111.7c0-12,0-24.1,0-36.1c0-2.3-0.1-4.7,0.1-7c0.3-5.3,4.2-9.4,9.5-9.4c15.2-0.1,30.4,0,46.5,0
			C91.1,71.5,79.2,80.2,59.2,111.7z"/>
		<path class="st0" d="M125.8,172c25.7-15.2,34.2-28.4,45.4-48.1c0.9,0.8,0.6,1.6,0.6,2.3c0,11.6,0,23.3,0,34.9
			c0,7-3.8,10.8-10.8,10.8C149.2,172,137.5,172,125.8,172z"/>
		<path class="st0" d="M79.8,147c5.4,2.6,10.9,3.8,16.9,2.7c6.6-1.2,10-4.8,10.5-11.5c0.2-2.7,0.6-5.5,0.2-8.7
			c-2,1.9-3.3,3.7-5.2,4.8c-7.3,4.1-16.8,1.8-21.6-5.3c-5.6-8.2-5.5-22.7,0.1-30.9c5.7-8.3,17.9-9.6,25.3-2.7c0.5,0.4,0.8,1,1.1,1.5
			c0.1-2,0.1-4.5,1.4-4.4c4.2,0.5,4.3,0,4.3,0.4c0.3,2.4,0.3,1.9,0.3,2.5c0,13.2,0,26.4,0,39.6c0,13-6.5,19.6-19.5,19.9
			c-3,0.1-6-0.3-9-1C79.4,152.7,79.4,152.8,79.8,147z M107.8,113.1c-0.1-3.2-0.4-6.2-1.3-9.3c-1.5-4.9-4.6-7.9-9.7-8.4
			c-5.2-0.5-9.9,1.1-12.5,6c-3.9,7.6-4.2,15.5-0.6,23.2c2.4,5.3,7.3,8,12,7.2c5.9-0.9,10.2-5.1,11.2-10.9
			C107.4,118.4,107.5,115.8,107.8,113.1z"/>
	</g>
	<g>
		<path class="st0" d="M141.8,83.6l0,13.2h10.7v7.9l-11.3,0.1l0.1,21.2c0,5.3,0.9,6.9,5.7,8.1c2.3,0.5,4.4-1.2,5.5-1.5l0.2,8.9
			c-1.7,0.6-4.6,0.8-8.1,0.8c-4.1,0-8.1-1.7-10.2-3.9c-2.5-2.3-3.3-6.7-3.3-11.8v-22h-8.9v-7.9h8.9v-9.6L141.8,83.6z"/>
	</g>
	<rect x="113.4" y="78.5" class="st0" width="7.8" height="10.7"/>
	<path class="st0" d="M157.5,79.2c-2.6,0-4.7-2.1-4.7-4.7s2.1-4.7,4.7-4.7s4.7,2.1,4.7,4.7S160,79.2,157.5,79.2z M157.5,70.2
		c-2.3,0-4.3,1.9-4.3,4.3s1.9,4.3,4.3,4.3s4.3-1.9,4.3-4.3C161.7,72.1,159.8,70.2,157.5,70.2z"/>
	<g class="st1">
		<path class="st0" d="M156.2,76.5v-4.8h2.1c0.4,0,0.8,0,1,0.1c0.2,0.1,0.4,0.2,0.5,0.5c0.1,0.2,0.2,0.5,0.2,0.7
			c0,0.3-0.1,0.6-0.3,0.9c-0.2,0.2-0.6,0.4-1,0.4c0.2,0.1,0.3,0.2,0.4,0.2c0.2,0.2,0.4,0.4,0.5,0.6l0.8,1.3h-0.8l-0.6-1
			c-0.2-0.3-0.3-0.5-0.5-0.7c-0.1-0.2-0.2-0.3-0.3-0.3s-0.2-0.1-0.3-0.1c-0.1,0-0.2,0-0.4,0h-0.7v2.1
			C156.8,76.5,156.2,76.5,156.2,76.5z M156.8,73.8h1.4c0.3,0,0.5,0,0.7-0.1c0.2-0.1,0.3-0.2,0.4-0.3s0.1-0.3,0.1-0.4
			c0-0.2-0.1-0.4-0.2-0.6c-0.2-0.1-0.4-0.2-0.8-0.2h-1.5L156.8,73.8L156.8,73.8z"/>
	</g>
</g>
</svg>
