<?xml version="1.0" encoding="iso-8859-1"?>
<!-- Generator: Adobe Illustrator 21.1.0, SVG Export Plug-In . SVG Version: 6.00 Build 0)  -->
<svg version="1.1" id="Layer_1" xmlns="http://www.w3.org/2000/svg" xmlns:xlink="http://www.w3.org/1999/xlink" x="0px" y="0px"
	 viewBox="0 0 231 231" style="enable-background:new 0 0 231 231;" xml:space="preserve">
<g>
	<g id="shape">
		<path style="fill:#248B9F;" d="M57.156,86.759c0,0-7.009,6.855-8.646,14.884l-12.66-2.779c0,0,3.335-7.009,9.511-9.881
			C51.536,86.11,56.693,86.388,57.156,86.759z"/>
		<path style="fill:#248B9F;" d="M33.379,104.885l13.216,7.411c0,0-0.371,7.411,1.235,12.629c1.606,5.218,3.798,10.221,6.114,13.247
			c2.316,3.026,4.138,4.663,4.138,4.663l0.031,0.154c0,0-6.485,0.957-11.549-1.822s-6.824-4.755-9.109-7.905
			s-4.138-7.565-4.817-12.012C31.959,116.804,31.588,113.562,33.379,104.885z"/>
		<path style="fill:#248B9F;" d="M71.02,112.728c-0.031-0.216,6.515-4.57,6.515-4.57s1.853,6.701,0.031,14.328
			c-1.853,7.843-4.014,10.128-4.354,10.653c-0.34,0.525-2.316,3.057-3.551,4.2c-0.556,0.525-4.477,3.829-5.651,3.798l-0.093-0.154
			l1.235-2.285c0,0,2.285-4.478,3.088-7.195c0.803-2.717,2.007-6.423,2.501-9.48C71.267,118.996,71.113,113.407,71.02,112.728z"/>
		<path style="fill:#575194;" d="M63.517,99.821c0.154,2.717-1.359,4.848-3.489,4.972c-2.131,0.124-4.447-2.285-4.601-4.972
			c-0.154-2.687,1.328-4.91,3.428-5.033C61.016,94.695,63.363,97.103,63.517,99.821z"/>
		<path style="fill:#268B9F;" d="M62.035,88.272c0,0,1.945,2.748,2.501,3.798c0.556,1.05,2.285,4.323,2.501,4.971
			c0.216,0.648,1.513,3.953,1.884,5.095c0.371,1.143,0.463,1.39,0.463,1.39l6.793-0.556c0,0-1.173-2.81-1.915-4.014
			c-0.741-1.204-2.81-4.385-5.064-6.392c-2.254-2.007-4.601-3.428-5.713-4.014C62.467,87.994,61.88,87.747,62.035,88.272z"/>
		<path style="fill:#575194;" d="M32.36,102.137l12.413,6.114l8.553,4.23c0,0,0.556,0.093,0.71,0.926
			c0.154,0.834,0.371,4.57,0.432,5.466c0.093,0.865,1.019,7.38,1.235,8.739c0.216,1.359,1.76,8.214,1.945,9.048
			c0.216,0.865,2.069,6.114,2.347,6.732c0.401,0.896,0.679,1.173,0.834,1.05c0.154-0.124,0.247-0.401,0.247-0.401
			s0.679-1.328,1.019-3.026c0.34-1.729,1.328-6.145,1.637-8.121c0.34-1.976,1.328-10.066,1.328-13.865
			c0.031-3.798,0.247-5.836,0.247-5.836s-0.062-0.463,0.278-0.648c0.34-0.185,11.827-6.732,11.827-6.732s0.71-0.803,0-0.865
			s-9.387,1.173-9.387,1.173l-5.002,0.618c0,0-3.582,0.278-6.083-0.278c-2.501-0.556-19.083-4.539-19.083-4.539l-4.755-1.112
			C33.101,100.809,31.279,100.685,32.36,102.137z"/>
	</g>
	<g id="text">
		<g>
			<path style="fill:#575194;" d="M96.804,105.904h3.057l0.031,15.81c-0.371,1.482-1.544,1.204-2.347,1.204h-0.834l-0.031-7.565
				l-7.195,0.031v7.504h-3.057l-0.062-15.47c0.154-1.39,1.575-1.667,1.884-1.667h1.235v6.979h7.318L96.804,105.904L96.804,105.904z"
				/>
			<path style="fill:#575194;" d="M102.27,116.341c0-1.112,0.154-2.1,0.494-2.964c0.34-0.834,0.772-1.544,1.328-2.131
				c0.556-0.556,1.173-0.988,1.884-1.266c0.71-0.278,1.451-0.432,2.192-0.432c1.76,0,3.119,0.556,4.076,1.637
				c0.988,1.081,1.482,2.717,1.482,4.91c0,0.154,0,0.34,0,0.556s-0.031,0.556-0.031,0.741h-8.368
				c0.093,1.019,0.432,1.667,1.05,2.223c0.648,0.556,1.575,0.834,2.779,0.834c0.71,0,1.359-0.062,1.945-0.185
				c0.587-0.124,1.05-0.278,1.39-0.401l0.401,2.439c-0.154,0.093-0.371,0.154-0.679,0.247c-0.278,0.093-0.618,0.185-0.957,0.247
				c-0.37,0.062-0.772,0.124-1.173,0.185c-0.432,0.062-0.865,0.062-1.297,0.062c-1.112,0-2.1-0.154-2.903-0.494
				c-0.834-0.34-1.513-0.803-2.038-1.39c-0.525-0.587-0.926-1.297-1.204-2.1C102.393,118.194,102.27,117.298,102.27,116.341z
				 M110.731,114.735c0-0.401,0-0.494-0.124-0.865c-0.124-0.37-0.278-0.679-0.494-0.957c-0.216-0.278-0.494-0.494-0.803-0.648
				c-0.309-0.154-0.679-0.247-1.143-0.247c-0.463,0-0.865,0.093-1.204,0.247c-0.34,0.185-0.618,0.401-0.865,0.679
				s-0.432,0.587-0.556,0.957c-0.124,0.37-0.124,0.432-0.154,0.803h5.342V114.735z"/>
			<path style="fill:#575194;" d="M120.705,109.455c0.988,0,1.822,0.124,2.501,0.371c0.679,0.247,1.204,0.587,1.606,1.05
				c0.401,0.432,0.679,0.988,0.865,1.637c0.185,0.648,0.247,1.328,0.247,2.1v7.874c-0.463,0.093-1.143,0.216-2.069,0.371
				c-0.926,0.154-1.976,0.216-3.15,0.216c-0.772,0-1.482-0.062-2.131-0.216c-0.648-0.154-1.173-0.401-1.637-0.71
				c-0.463-0.34-0.803-0.772-1.05-1.297c-0.247-0.525-0.371-1.173-0.371-1.976c0-0.741,0.154-1.39,0.432-1.884
				c0.278-0.525,0.679-0.926,1.173-1.266c0.494-0.309,1.05-0.556,1.698-0.71c0.648-0.154,1.328-0.216,2.038-0.216
				c0.34,0,0.679,0.031,1.05,0.062c0.37,0.031,0.741,0.124,1.173,0.216v-0.494c0-0.34-0.031-0.679-0.124-0.988
				c-0.093-0.309-0.216-0.587-0.432-0.834c-0.216-0.247-0.463-0.432-0.803-0.556c-0.34-0.124-0.772-0.185-1.266-0.185
				c-0.679,0-1.266,0.185-1.822,0.278c-0.587,0.093-1.143,0.34-1.513,0.494l-0.278-1.884c-0.093-0.371,0.093-0.772,0.463-0.896
				c0.34-0.124,0.71-0.247,1.112-0.309C119.13,109.517,119.902,109.455,120.705,109.455z M120.952,120.664
				c0.926,0,1.606-0.062,2.1-0.154v-3.335c-0.154-0.062-0.401-0.093-0.71-0.154c-0.309-0.062-0.648-0.062-1.05-0.062
				c-0.34,0-0.648,0.031-0.988,0.062c-0.34,0.062-0.648,0.154-0.926,0.278c-0.278,0.124-0.494,0.309-0.648,0.556
				c-0.154,0.247-0.247,0.556-0.247,0.896c0,0.71,0.216,1.204,0.679,1.482C119.593,120.54,120.211,120.664,120.952,120.664z"/>
			<path style="fill:#575194;" d="M133.18,122.27c-0.062,0.494-0.494,0.896-1.019,0.865c-0.556,0-1.081-0.124-1.451-0.309
				c-0.556-0.247-0.926-0.463-1.266-0.803c-0.34-0.34-0.587-0.957-0.741-1.451c-0.124-0.494-0.216-1.05-0.216-1.698v-14.698
				l2.933-0.494v14.667c0,0.371,0.031,0.648,0.093,0.896c0.062,0.247,0.154,0.463,0.309,0.618c0.154,0.185,0.34,0.309,0.587,0.401
				c0.247,0.093,0.556,0.154,0.957,0.216L133.18,122.27z"/>
			<path style="fill:#575194;" d="M135.063,106.521l3.026-0.556v3.86h4.508v2.47h-4.508v5.218c0,1.019,0.154,1.76,0.494,2.192
				c0.309,0.432,0.865,0.648,1.637,0.648c0.525,0,2.162-0.401,2.409-0.494l0.432,1.42c0.154,0.525-0.062,1.081-0.525,1.328
				c-0.216,0.124-0.432,0.247-0.679,0.309c-0.556,0.154-1.482,0.309-2.254,0.309c-0.896,0-1.544-0.154-2.161-0.401
				c-0.618-0.247-1.143-0.679-1.482-1.143c-0.371-0.463-0.618-1.05-0.772-1.729c-0.154-0.648-0.185-1.575-0.185-2.409
				L135.063,106.521z"/>
			<path style="fill:#575194;" d="M145.006,122.733v-18.527l2.934-0.494v6.33c0.309-0.124,0.71-0.216,1.143-0.309
				s0.865-0.124,1.266-0.124c1.019,0,1.853,0.154,2.532,0.432s1.204,0.679,1.606,1.204c0.401,0.525,0.679,1.143,0.865,1.853
				c0.154,0.71,0.247,1.513,0.247,2.409v7.195h-2.933v-6.732c0-0.679-0.031-1.266-0.124-1.76c-0.093-0.494-0.247-0.865-0.432-1.173
				c-0.216-0.309-0.463-0.525-0.803-0.648c-0.34-0.124-0.772-0.216-1.266-0.216c-0.401,0-0.772,0.031-1.204,0.124
				c-0.401,0.093-0.71,0.154-0.896,0.216v10.19h-2.934L145.006,122.733L145.006,122.733z"/>
			<path style="fill:#575194;" d="M165.973,115.26c-0.371,1.451-0.803,2.439-1.235,3.829c-0.432,1.39-0.865,2.563-1.297,3.798
				h-2.439c-0.34-0.772-0.679-1.637-1.05-2.625c-0.371-0.988-0.741-2.038-1.081-3.15c-0.371-1.112-0.741-2.285-1.081-3.52
				c-0.371-1.235-0.71-2.47-1.05-3.767h3.15c0.154,0.71,0.401,1.42,0.587,2.223c0.185,0.803,0.463,1.667,0.679,2.501
				c0.216,0.834,0.463,1.606,0.71,2.409c0.216,0.803,0.247,0.926,0.463,1.575c0.247-0.772,0.309-0.896,0.556-1.729
				c0.247-0.803,0.587-1.698,0.803-2.501c0.216-0.803,0.432-1.729,0.648-2.501c0.185-0.772,0.34-1.328,0.494-2.007h2.439
				c0.154,0.679,0.309,1.42,0.494,2.192c0.185,0.772,0.463,1.544,0.679,2.347c0.216,0.803,0.525,1.667,0.772,2.47
				c0.247,0.803,0.278,0.988,0.525,1.76c0.216-0.679,0.34-0.803,0.556-1.606c0.216-0.803,0.494-1.606,0.71-2.439
				c0.216-0.834,0.494-1.729,0.71-2.563c0.185-0.803,0.401-1.482,0.556-2.161h3.088c-0.34,1.266-0.71,2.532-1.05,3.767
				c-0.371,1.235-0.741,2.409-1.081,3.52c-0.371,1.112-0.741,2.162-1.081,3.15c-0.37,0.988-0.71,1.853-1.05,2.625l-2.625,0.031
				c-0.432-1.235-0.834-2.532-1.266-3.922C166.621,117.638,166.344,116.711,165.973,115.26z"/>
			<path style="fill:#575194;" d="M180.857,109.578c0.957,0,1.791,0.124,2.439,0.371c0.648,0.247,1.204,0.587,1.606,1.019
				c0.401,0.432,0.679,0.988,0.865,1.606c0.185,0.618,0.247,1.328,0.247,2.069v7.874c-0.463,0.093-1.05,0.185-1.945,0.34
				c-0.926,0.124-1.976,0.247-3.15,0.247c-0.772,0-1.544,0-2.162-0.154c-0.618-0.154-1.266-0.556-1.729-0.865
				c-0.432-0.34-0.741-0.803-1.019-1.328c-0.247-0.525-0.371-1.05-0.371-1.822c0-0.741,0.093-1.42,0.401-1.945
				c0.278-0.494,0.865-1.112,1.359-1.42c0.494-0.309,0.926-0.618,1.544-0.772c0.648-0.124,1.019-0.124,1.698-0.124
				c0.309,0,0.957-0.031,1.328,0c0.371,0.031,0.618,0.093,1.019,0.185c0,0-0.031-1.791-0.401-2.1
				c-0.247-0.185-0.463-0.432-0.803-0.556c-0.34-0.124-0.926-0.124-1.42-0.124c-0.679,0-0.988,0.093-1.575,0.185
				c-0.401,0.062-0.803,0.154-1.143,0.278c-0.185,0.062-0.401-0.062-0.401-0.278l-0.309-2.192c0.371-0.124,0.926-0.247,1.637-0.401
				C179.282,109.64,180.054,109.578,180.857,109.578z M181.104,120.633c0.896,0,1.606-0.062,2.069-0.154v-3.273
				c-0.154-0.062-0.401-0.093-0.71-0.154c-0.309-0.062-0.648-0.062-1.019-0.062c-0.309,0-0.648,0.031-0.988,0.062
				c-0.34,0.062-0.618,0.124-0.895,0.278c-0.278,0.124-0.494,0.309-0.648,0.556c-0.154,0.247-0.247,0.525-0.247,0.896
				c0,0.71,0.216,1.173,0.648,1.451C179.776,120.509,180.363,120.633,181.104,120.633z"/>
			<path style="fill:#575194;" d="M198.983,109.733c-1.297,4.879-2.686,9.387-4.416,13.34c-0.309,0.741-0.71,1.297-1.05,1.822
				c-0.34,0.525-0.71,1.05-1.112,1.39c-0.432,0.34-0.926,0.556-1.451,0.71c-0.525,0.154-1.081,0.247-1.76,0.247
				c-0.216,0-0.463,0-0.741,0c-0.556,0-1.204-0.093-1.575-0.525c-0.216-0.247-0.185-0.741-0.124-1.019l0.309-1.42
				c0.587,0.216,1.328,0.309,1.884,0.309c0.772,0,1.359-0.185,1.791-0.556c0.432-0.371,0.556-0.741,0.896-1.513
				c-0.926-1.791-1.853-3.86-2.717-5.96c-0.865-2.131-1.575-4.416-2.254-6.793l3.366-0.062c0.154,0.679,0.371,1.42,0.587,2.223
				c0.247,0.803,0.494,1.606,0.772,2.439c0.278,0.834,0.556,1.637,0.865,2.47s0.556,1.359,0.865,2.069
				c0.525-1.451,0.865-2.81,1.328-4.447c0.463-1.637,0.772-3.181,1.173-4.724L198.983,109.733L198.983,109.733z"/>
		</g>
		<g>
			<path style="fill:#575194;" d="M93.747,140.859c-0.124-0.278-0.278-0.648-0.494-1.112c-0.216-0.463-0.432-0.926-0.648-1.451
				c-0.247-0.525-0.494-1.05-0.741-1.606c-0.278-0.556-0.525-1.081-0.741-1.575c-0.247-0.494-0.463-0.926-0.648-1.328
				c-0.216-0.401-0.371-0.679-0.494-0.896c-0.124,1.42-0.247,2.995-0.34,4.663c-0.093,1.667-0.154,3.366-0.216,5.064h-1.76
				c0.062-1.081,0.093-2.192,0.154-3.304c0.062-1.112,0.124-2.192,0.216-3.273c0.093-1.081,0.154-2.131,0.247-3.15
				c0.093-1.019,0.185-1.976,0.309-2.903h1.575c0.34,0.525,0.71,1.173,1.081,1.884c0.371,0.741,0.772,1.482,1.143,2.285
				c0.371,0.803,0.772,1.575,1.112,2.378c0.371,0.803,0.679,1.513,0.988,2.161c0.309-0.648,0.618-1.39,0.988-2.161
				c0.371-0.803,0.741-1.575,1.112-2.378c0.371-0.803,0.772-1.544,1.143-2.285c0.371-0.741,0.741-1.359,1.081-1.884h1.575
				c0.432,4.076,0.741,8.276,0.957,12.629h-1.76c-0.062-1.698-0.124-3.397-0.216-5.064c-0.093-1.667-0.185-3.211-0.34-4.663
				c-0.124,0.216-0.278,0.494-0.494,0.896c-0.216,0.401-0.432,0.834-0.648,1.328c-0.247,0.494-0.494,1.019-0.741,1.575
				c-0.278,0.556-0.525,1.081-0.741,1.606c-0.247,0.525-0.463,1.019-0.648,1.451c-0.216,0.463-0.371,0.834-0.494,1.112H93.747
				L93.747,140.859z"/>
			<path style="fill:#575194;" d="M103.073,137.894c0-0.834,0.124-1.575,0.371-2.192c0.247-0.618,0.587-1.143,0.988-1.544
				c0.401-0.401,0.895-0.71,1.42-0.926c0.525-0.216,1.081-0.309,1.637-0.309c1.297,0,2.316,0.401,2.995,1.204
				c0.71,0.803,1.05,2.007,1.05,3.644c0,0.062,0,0.154,0,0.278c0,0.124,0,0.216-0.031,0.309h-6.639
				c0.062,0.988,0.371,1.729,0.865,2.254c0.525,0.525,1.297,0.772,2.378,0.772c0.618,0,1.112-0.062,1.544-0.154
				c0.401-0.093,0.741-0.216,0.957-0.309l0.247,1.42c-0.216,0.124-0.587,0.216-1.112,0.34c-0.525,0.124-1.143,0.185-1.791,0.185
				c-0.834,0-1.575-0.124-2.192-0.371c-0.618-0.247-1.112-0.587-1.513-1.019c-0.401-0.432-0.679-0.957-0.896-1.544
				C103.165,139.284,103.073,138.604,103.073,137.894z M109.743,136.968c0-0.772-0.185-1.39-0.587-1.884
				c-0.401-0.494-0.957-0.741-1.667-0.741c-0.401,0-0.741,0.062-1.05,0.216c-0.309,0.154-0.556,0.34-0.772,0.587
				s-0.371,0.525-0.494,0.834s-0.185,0.648-0.247,0.957h4.817L109.743,136.968L109.743,136.968z"/>
			<path style="fill:#575194;" d="M119.84,128.785l1.729-0.278v13.865c-0.401,0.124-0.895,0.216-1.544,0.34
				c-0.648,0.124-1.328,0.154-2.131,0.154c-0.741,0-1.42-0.124-2.007-0.34c-0.587-0.216-1.112-0.556-1.544-0.988
				c-0.432-0.432-0.741-0.957-0.988-1.544c-0.216-0.618-0.34-1.297-0.34-2.069c0-0.741,0.093-1.39,0.278-2.007
				c0.185-0.618,0.463-1.143,0.834-1.575c0.371-0.432,0.834-0.772,1.359-1.019c0.556-0.247,1.173-0.371,1.853-0.371
				c0.556,0,1.05,0.062,1.482,0.216s0.741,0.278,0.957,0.432v-4.817L119.84,128.785L119.84,128.785z M119.84,135.146
				c-0.216-0.154-0.525-0.34-0.926-0.494c-0.401-0.154-0.834-0.247-1.297-0.247c-0.494,0-0.926,0.093-1.266,0.278
				c-0.34,0.185-0.648,0.432-0.865,0.741c-0.216,0.309-0.371,0.679-0.494,1.112c-0.093,0.432-0.154,0.895-0.154,1.359
				c0,1.112,0.278,1.945,0.834,2.563c0.556,0.587,1.297,0.896,2.223,0.896c0.463,0,0.865-0.031,1.173-0.062
				c0.309-0.031,0.556-0.093,0.741-0.124v-6.021H119.84z"/>
			<path style="fill:#575194;" d="M124.935,131.441c-0.309,0-0.587-0.093-0.803-0.309c-0.216-0.185-0.34-0.463-0.34-0.803
				c0-0.34,0.124-0.618,0.34-0.803c0.216-0.185,0.494-0.309,0.803-0.309c0.309,0,0.587,0.093,0.803,0.309
				c0.216,0.185,0.34,0.463,0.34,0.803c0,0.34-0.124,0.618-0.34,0.803C125.522,131.348,125.275,131.441,124.935,131.441z
				 M125.83,142.619h-1.729v-9.48h1.729V142.619z"/>
			<path style="fill:#575194;" d="M132.562,142.835c-0.772,0-1.482-0.124-2.069-0.37c-0.587-0.247-1.081-0.587-1.482-1.019
				c-0.401-0.432-0.71-0.957-0.896-1.544c-0.185-0.587-0.309-1.266-0.309-2.007c0-0.741,0.124-1.39,0.34-2.007
				c0.216-0.618,0.525-1.143,0.926-1.575c0.401-0.432,0.896-0.803,1.451-1.05c0.587-0.247,1.235-0.371,1.945-0.371
				c0.432,0,0.865,0.031,1.297,0.124c0.432,0.062,0.865,0.185,1.235,0.34l-0.401,1.451c-0.247-0.124-0.556-0.216-0.896-0.278
				c-0.34-0.062-0.71-0.124-1.081-0.124c-0.957,0-1.698,0.309-2.223,0.895c-0.525,0.587-0.772,1.451-0.772,2.594
				c0,0.525,0.062,0.988,0.185,1.39c0.124,0.432,0.309,0.803,0.556,1.081c0.247,0.309,0.587,0.525,0.988,0.71
				c0.401,0.154,0.896,0.247,1.451,0.247c0.463,0,0.865-0.031,1.235-0.124c0.371-0.093,0.679-0.185,0.865-0.278l0.247,1.42
				c-0.093,0.062-0.247,0.124-0.432,0.185c-0.185,0.062-0.401,0.093-0.648,0.154c-0.247,0.031-0.494,0.093-0.741,0.124
				C133.056,142.804,132.809,142.835,132.562,142.835z"/>
			<path style="fill:#575194;" d="M139.695,132.923c0.71,0,1.297,0.093,1.76,0.278c0.463,0.185,0.865,0.432,1.143,0.741
				c0.278,0.309,0.494,0.71,0.618,1.143c0.124,0.432,0.185,0.926,0.185,1.451v5.929c-0.154,0.031-0.37,0.062-0.618,0.093
				c-0.278,0.031-0.556,0.093-0.895,0.124c-0.34,0.031-0.71,0.062-1.081,0.093c-0.401,0.031-0.772,0.031-1.173,0.031
				c-0.556,0-1.05-0.062-1.513-0.154c-0.463-0.124-0.865-0.278-1.204-0.525c-0.34-0.247-0.587-0.556-0.772-0.926
				c-0.185-0.401-0.278-0.865-0.278-1.39c0-0.525,0.124-0.957,0.34-1.359c0.216-0.371,0.525-0.679,0.896-0.896
				c0.37-0.216,0.803-0.401,1.297-0.525c0.494-0.124,1.019-0.154,1.575-0.154c0.185,0,0.34,0,0.556,0.031
				c0.185,0.031,0.371,0.031,0.525,0.062c0.154,0.031,0.309,0.062,0.432,0.093c0.124,0.031,0.216,0.031,0.247,0.062v-0.463
				c0-0.278-0.031-0.556-0.093-0.834c-0.062-0.278-0.185-0.525-0.34-0.741c-0.154-0.216-0.371-0.371-0.648-0.525
				c-0.278-0.124-0.648-0.185-1.081-0.185c-0.587,0-1.081,0.031-1.513,0.124c-0.432,0.093-0.741,0.154-0.957,0.247l-0.216-1.39
				c0.216-0.093,0.587-0.185,1.112-0.278C138.522,132.984,139.077,132.923,139.695,132.923z M139.849,141.384
				c0.401,0,0.772,0,1.081-0.031c0.309-0.031,0.587-0.062,0.803-0.093v-2.81c-0.124-0.062-0.34-0.124-0.618-0.154
				c-0.278-0.031-0.618-0.062-1.019-0.062c-0.247,0-0.525,0.031-0.834,0.062c-0.278,0.031-0.556,0.124-0.803,0.216
				c-0.247,0.124-0.432,0.278-0.618,0.463c-0.154,0.185-0.247,0.463-0.247,0.803c0,0.618,0.185,1.019,0.587,1.266
				C138.614,141.26,139.139,141.384,139.849,141.384z"/>
			<path style="fill:#575194;" d="M148.743,142.804c-1.081-0.031-1.822-0.247-2.285-0.679c-0.463-0.432-0.679-1.081-0.679-1.976
				v-11.363l1.729-0.278v11.394c0,0.278,0.031,0.525,0.062,0.679c0.062,0.185,0.124,0.34,0.247,0.432
				c0.124,0.124,0.247,0.185,0.432,0.247c0.185,0.062,0.401,0.093,0.679,0.124L148.743,142.804z"/>
		</g>
	</g>
</g>
</svg>
