<?xml version="1.0" encoding="utf-8"?>
<!-- Generator: Adobe Illustrator 18.0.0, SVG Export Plug-In . SVG Version: 6.00 Build 0)  -->
<!DOCTYPE svg PUBLIC "-//W3C//DTD SVG 1.1//EN" "http://www.w3.org/Graphics/SVG/1.1/DTD/svg11.dtd">
<svg version="1.1" id="Layer_1" xmlns="http://www.w3.org/2000/svg" xmlns:xlink="http://www.w3.org/1999/xlink" x="0px" y="0px"
	 viewBox="0 0 150 150" enable-background="new 0 0 150 150" xml:space="preserve">
<g>
	<rect x="147.3" y="53.4" fill="#424242" width="1.3" height="21.6"/>
	<rect x="125.7" y="53.4" fill="#424242" width="1.3" height="21.6"/>
	<rect x="104.1" y="53.4" fill="#424242" width="1.3" height="21.6"/>
	<g>
		<polygon fill="#424242" points="63.6,53.4 63.6,75 83.8,75 83.8,73.7 64.9,73.7 64.9,54.7 83.8,54.7 83.8,53.4 		"/>
	</g>
	<polygon fill="#424242" points="1.4,53.4 1.4,54.7 20.4,54.7 20.4,73.7 1.4,73.7 1.4,75 21.7,75 21.7,53.4 	"/>
	<rect x="42" y="53.4" fill="#424242" width="1.3" height="21.6"/>
	<rect x="43.3" y="78.2" fill="#424242" width="3.2" height="1.3"/>
	<rect x="38.7" y="78.2" fill="#424242" width="3.2" height="1.3"/>
	<path fill="#424242" d="M5.2,91.4c-2-0.5-2.4-0.9-2.4-1.8c0-0.8,0.8-1.4,1.9-1.4c1,0,1.8,0.3,2.6,1l0.6-0.8c-1-0.8-1.9-1.1-3.2-1.1
		c-1.7,0-3,1-3,2.5c0,1.4,0.8,2.1,3,2.6C6.6,92.8,7,93.3,7,94.1c0,0.9-0.8,1.5-1.9,1.5S3,95.2,2,94.4l-0.6,0.8
		c1.1,1,2.3,1.4,3.6,1.4c1.8,0,3-1,3-2.6C8.1,92.7,7.2,91.9,5.2,91.4"/>
	<path fill="#424242" d="M144.2,95.4h-2v-6.9h2c1.9,0,3.4,1.6,3.4,3.4C147.6,93.9,146.1,95.4,144.2,95.4 M144.2,87.5h-2h-1v9l0,0h3
		c2.5,0,4.5-2,4.5-4.5C148.6,89.5,146.6,87.5,144.2,87.5"/>
	<path fill="#424242" d="M40.6,93.2l1.9-4.4l1.9,4.4H40.6z M42,87.5l-4,9h1.1l1-2.3h4.9l1,2.3h1.1l-4-9C43.2,87.5,42,87.5,42,87.5z"
		/>
	<polygon fill="#424242" points="74.4,96.4 80.5,96.4 80.5,95.4 75.3,95.4 75.3,92.5 80.2,92.5 80.2,91.4 75.3,91.4 75.3,88.5 
		80.5,88.5 80.5,87.5 74.4,87.5 	"/>
	<polygon fill="#424242" points="107.8,96.4 113.9,96.4 113.9,95.4 108.7,95.4 108.7,92.5 113.6,92.5 113.6,91.4 108.7,91.4 
		108.7,88.5 113.9,88.5 113.9,87.5 107.8,87.5 	"/>
</g>
</svg>
