<svg id="Layer_1" data-name="Layer 1" xmlns="http://www.w3.org/2000/svg" viewBox="0 0 328 119"><defs><style>.cls-1{fill:#f3364b;}.cls-2{fill:#f44558;}.cls-3{fill:#fff;}.cls-4{fill:#fe6912;}.cls-5{fill:#7c54c5;}</style></defs><path class="cls-1" d="M25.53,20.3c.32-.16.26-.5.32-.76a14.47,14.47,0,1,1,9.69,16.9,14.06,14.06,0,0,1-9.7-10.74c-.07-.29,0-.65-.31-.85v-.7a11.08,11.08,0,0,0,0-3.15Z"/><path class="cls-2" d="M25.53,21a5.81,5.81,0,0,1,0,3.15Z"/><path class="cls-3" d="M90.68,58.84c-.43,1.33-.88,2.66-1.31,4-1.08,3.37-2.18,6.73-3.24,10.11a.74.74,0,0,1-.87.61c-1.31,0-2.62,0-3.93,0a.94.94,0,0,1-1.09-.79c-1.37-4.38-2.79-8.74-4.19-13.1a3.29,3.29,0,0,0-.48-1c0,4.64,0,9.29,0,13.94,0,.76-.16,1-.94,1-1.74-.07-3.49,0-5.24,0-.5,0-.7-.07-.7-.65q0-13.23,0-26.48c0-.52.17-.61.64-.6,2.42,0,4.83,0,7.25,0,.62,0,.84.2,1,.76Q80.28,55,83,63.4c.08.25.18.49.33.9C84.2,61.54,85,59,85.87,56.35q1.59-4.93,3.16-9.87a.79.79,0,0,1,.9-.67q3.63.06,7.25,0c.59,0,.72.17.72.73q0,13.11,0,26.22c0,.58-.12.81-.76.8-1.83,0-3.67,0-5.5,0-.67,0-.82-.19-.82-.83,0-4.52,0-9,0-13.55v-.31Z"/><path class="cls-3" d="M204.52,92.67c.23-.25.43-.49.65-.72a7.39,7.39,0,0,1,7.66-2.13c2.49.63,4,2.74,4.16,5.7.21,4.16,0,8.32.08,12.48,0,.82.28,1.89-.12,2.37s-1.54.13-2.35.14c-1.28,0-2.56,0-3.84,0-.64,0-.75-.2-.75-.79,0-4,0-8,0-12.06,0-1.67-.46-2.3-1.75-2.38a2.49,2.49,0,0,0-2.83,2.22c-.11,1.45-.07,2.91-.08,4.37,0,2.65,0,5.3,0,7.95,0,.51-.09.7-.65.69-1.92,0-3.85,0-5.77,0-.58,0-.65-.21-.65-.71,0-4.08,0-8.15,0-12.23,0-1.55-.41-2.13-1.57-2.27a2.62,2.62,0,0,0-3,1.94,6.37,6.37,0,0,0-.1,1.31c0,3.72,0,7.45,0,11.18,0,.6-.12.79-.75.78-1.86-.05-3.72,0-5.59,0-.52,0-.68-.11-.68-.66q0-9.53,0-19.05c0-.54.17-.69.7-.68,1.8,0,3.61,0,5.41,0,.58,0,.78.17.73.74s0,.91,0,1.47C196.8,88.19,202.84,89,204.52,92.67Z"/><path class="cls-4" d="M55.06,59.68,43.83,65.29Q35.42,69.51,27,73.72c-.54.27-.85.46-.85-.43q0-13.68,0-27.34c0-.2,0-.39,0-.69Z"/><path class="cls-5" d="M40,99c4.31,0,8.63,0,12.94,0,.65,0,.9.11.89.84,0,3.29,0,6.59,0,9.88,0,.72-.24.84-.89.84q-12.93,0-25.87,0c-.69,0-1-.13-.94-.89q.06-4.91,0-9.79c0-.77.24-.9.94-.89C31.41,99,35.72,99,40,99Z"/><path class="cls-5" d="M40,82.87c4.28,0,8.56,0,12.83,0,.73,0,1,.13,1,.94,0,3.23,0,6.46,0,9.69,0,.63-.12.86-.81.86q-13,0-26,0c-.63,0-.87-.13-.86-.81,0-3.29,0-6.58,0-9.87,0-.7.26-.79.86-.79C31.36,82.88,35.7,82.87,40,82.87Z"/><path class="cls-3" d="M265.28,18.44l1-1c2.77-2.66,8-2.58,10.24.17a6.49,6.49,0,0,1,1.47,4.2c.06,4.69,0,9.38.06,14.08,0,.53-.2.61-.66.6-1.9,0-3.79,0-5.69,0-.61,0-.7-.22-.69-.75,0-3.9,0-7.81,0-11.71,0-1.8-.56-2.6-1.89-2.74a3.16,3.16,0,0,0-3.54,2.42,7.08,7.08,0,0,0-.08,1.13c0,3.58,0,7.17,0,10.75,0,.74-.22.92-.93.9-1.84,0-3.67,0-5.51,0-.49,0-.64-.13-.64-.63,0-6.36,0-12.71,0-19.06,0-.57.2-.67.71-.67,1.84,0,3.68,0,5.51,0,.5,0,.66.15.63.64S265.28,17.84,265.28,18.44Z"/><path class="cls-3" d="M87.66,18.64a7.33,7.33,0,0,1,6.23-3.06c3.84,0,6.32,2.25,6.44,6.1.14,4.77,0,9.55.09,14.33,0,.53-.27.53-.65.53-1.9,0-3.79,0-5.68,0-.62,0-.71-.22-.71-.76,0-3.64,0-7.28,0-10.92,0-.29,0-.58,0-.88,0-1.8-.59-2.51-2-2.63A3.12,3.12,0,0,0,88,23.78a10.5,10.5,0,0,0-.09,1.48c0,3.5,0,7,0,10.49,0,.58-.12.81-.76.8-1.86,0-3.73,0-5.59,0-.52,0-.7-.12-.7-.67q0-9.48,0-19c0-.6.2-.73.75-.72,1.81,0,3.61,0,5.42,0,.54,0,.73.15.68.68S87.66,17.84,87.66,18.64Z"/><path class="cls-3" d="M87.69,92.54a7.49,7.49,0,0,1,7.48-2.89c3.17.48,5.08,2.64,5.17,6,.11,4.28,0,8.56,0,12.85,0,2,0,2-2,2-1.43,0-2.85,0-4.28,0-.6,0-.78-.13-.78-.75,0-3.7,0-7.4,0-11.1,0-.23,0-.47,0-.7-.05-1.82-.63-2.57-2.07-2.66A3.16,3.16,0,0,0,88,97.73a7.11,7.11,0,0,0-.09,1.3c0,3.59,0,7.17,0,10.75,0,.63-.17.77-.77.75-1.89,0-3.79,0-5.68,0-.5,0-.63-.14-.63-.63q0-9.53,0-19.05c0-.62.22-.71.75-.71,1.81,0,3.61,0,5.42,0,.58,0,.78.17.73.74S87.69,91.79,87.69,92.54Z"/><path class="cls-3" d="M251.08,92.6a7.3,7.3,0,0,1,5.36-3c4.37-.41,7.23,2,7.36,6.4.14,4.68,0,9.37.06,14.06,0,.37-.09.5-.48.5-2,0-4,0-6,0-.58,0-.5-.3-.5-.65q0-5.64,0-11.27a10.85,10.85,0,0,0-.06-1.4,2,2,0,0,0-2.27-1.9,3.14,3.14,0,0,0-3.23,3.36c0,3.67,0,7.34,0,11,0,.66-.13.88-.83.86-1.87-.06-3.73,0-5.59,0-.51,0-.63-.14-.62-.63q0-9.56,0-19.13c0-.49.11-.64.62-.63,1.86,0,3.73,0,5.59,0,.5,0,.66.13.62.63S251.08,91.85,251.08,92.6Z"/><path class="cls-3" d="M167.85,18.6a7.21,7.21,0,0,1,5.48-3c4.33-.3,6.93,1.84,7.17,6.4s.08,9.37.11,14.06c0,.41-.18.48-.53.48-2,0-4,0-5.94,0-.61,0-.55-.32-.55-.71v-11c0-.26,0-.53,0-.79-.07-1.78-.59-2.5-1.89-2.66a3.21,3.21,0,0,0-3.51,2.12,4.57,4.57,0,0,0-.15,1.38c0,3.61,0,7.22,0,10.83,0,.72-.21.86-.87.85-1.78,0-3.56,0-5.33,0-.61,0-.85-.08-.84-.78q0-9.43,0-18.87c0-.59.17-.72.73-.71,1.77,0,3.55.05,5.33,0,.69,0,.85.22.78.84C167.81,17.46,167.85,17.92,167.85,18.6Z"/><path class="cls-3" d="M151.07,104c.56,0,1.11,0,1.66,0,.86,0,1.69-.14,2,1,.16.53.79.74,1.33.88a5.9,5.9,0,0,0,2.77,0,1.37,1.37,0,0,0,1.21-1.39,1.32,1.32,0,0,0-1-1.41c-1.42-.44-2.91-.5-4.36-.84a15.92,15.92,0,0,1-3.22-1,5.18,5.18,0,0,1-3.32-4.63,5.68,5.68,0,0,1,2.67-5.59c2.51-1.53,5.28-1.64,8.1-1.44a10.74,10.74,0,0,1,4.26,1.16,6.72,6.72,0,0,1,3.41,4.42c.11.41.05.58-.41.62-1.79.16-3.59.35-5.38.55-.41,0-.59-.09-.76-.48-.66-1.57-3.46-2.17-4.8-1.06a1.25,1.25,0,0,0,.47,2.24,32.63,32.63,0,0,0,4.18.87A18.88,18.88,0,0,1,163.44,99a5.27,5.27,0,0,1,3.46,5.41c-.07,2.64-1.08,4.76-3.62,5.73A15.46,15.46,0,0,1,151.7,110a6.23,6.23,0,0,1-4-5.33c-.07-.53,0-.72.62-.69C149.26,104.06,150.17,104,151.07,104Z"/><path class="cls-3" d="M286.51,104c.58,0,1.16,0,1.74,0,.84,0,1.64-.13,1.95,1,.15.55.79.75,1.34.89a6.12,6.12,0,0,0,2.76,0,1.37,1.37,0,0,0,1.21-1.3,1.34,1.34,0,0,0-1-1.51c-1.43-.44-2.92-.51-4.37-.84a14.8,14.8,0,0,1-3.3-1.07,5.23,5.23,0,0,1-3.24-4.86,5.68,5.68,0,0,1,3.12-5.6,13.12,13.12,0,0,1,6.87-1.22,12.21,12.21,0,0,1,4.34.87A6.69,6.69,0,0,1,302,95.12c.13.47.08.66-.47.71-1.71.14-3.41.34-5.12.5-.31,0-.7.21-.85-.32a2.36,2.36,0,0,0-2.37-1.69,4.54,4.54,0,0,0-2,.21,1.33,1.33,0,0,0-1,1.38,1.22,1.22,0,0,0,1,1.17c1.36.43,2.79.56,4.18.86a17.74,17.74,0,0,1,3.18.91c3.06,1.24,4.28,3.45,3.75,6.72a5.76,5.76,0,0,1-4.3,4.88,16.46,16.46,0,0,1-10.13-.13,6.45,6.45,0,0,1-4.66-5.74c-.06-.52.11-.57.53-.56C284.64,104,285.57,104,286.51,104Z"/><path class="cls-3" d="M113.42,102.81c1.07-3.92,2.17-7.82,3.2-11.74a1,1,0,0,1,1.24-.94c1.83.06,3.67.05,5.5,0,.65,0,.87.06.61.79q-3.48,9.48-6.88,19a.76.76,0,0,1-.86.62q-3-.06-6.11,0a.71.71,0,0,1-.8-.57q-3.43-9.54-6.89-19.08c-.21-.56-.19-.75.49-.74q3,.06,6.11,0a.81.81,0,0,1,1,.72c1,3.81,2.09,7.62,3.13,11.43C113.17,102.47,113.14,102.7,113.42,102.81Z"/><path class="cls-3" d="M208.5,26.54c0-1.4,0-2.79,0-4.19,0-.51-.09-.74-.66-.69s-1.4,0-2.09,0c-.38,0-.51-.12-.51-.5,0-1.51,0-3,0-4.54,0-.43.2-.46.53-.45.67,0,1.35,0,2,0s.73-.19.72-.74c0-1.31,0-2.63,0-3.93,0-.51.08-.73.65-.72,1.92,0,3.85,0,5.77,0,.5,0,.64.15.63.64,0,1.34,0,2.68,0,4,0,.6.18.74.74.72,1,0,2,0,3.06,0,.48,0,.66.11.65.62,0,1.43,0,2.86,0,4.28,0,.46-.13.61-.59.6-1.08,0-2.16,0-3.23,0-.51,0-.63.15-.62.64,0,2.21,0,4.42,0,6.64,0,1.84.79,2.47,2.65,2.36.53,0,1.18-.44,1.55,0s.26,1,.35,1.5c.17,1,.32,2,.51,2.92.07.35,0,.49-.36.6a14.28,14.28,0,0,1-7,.36c-2.89-.6-4.44-2.53-4.64-5.73-.09-1.45,0-2.91,0-4.37Z"/><path class="cls-3" d="M106.15,26.42c0-1.56,0-2.84,0-4.12,0-.48-.09-.68-.61-.64-.7,0-1.4,0-2.1,0-.42,0-.55-.14-.55-.56,0-1.45,0-2.91,0-4.36,0-.49.19-.62.62-.57h.17c.81-.06,1.88.35,2.34-.17s.09-1.5.12-2.29c0-1-.41-2.22.18-2.75s1.77-.14,2.7-.15,2.16.07,3.23,0c.82-.07.95.24.92,1-.06,1.22,0,2.45,0,3.67,0,.64.19.79.78.76,1,0,2,0,3,0,.51,0,.73.1.72.67,0,1.39,0,2.79,0,4.19,0,.49-.14.66-.64.64-1,0-2.1,0-3.14,0-.55,0-.69.15-.68.68,0,2.13,0,4.25,0,6.38s.87,2.82,3,2.55c1.32-.17,1.31-.17,1.53,1.18.18,1.09.36,2.18.57,3.27.06.31,0,.45-.32.55a13.78,13.78,0,0,1-7.82.14c-2.48-.75-3.43-2.68-3.8-5A36.9,36.9,0,0,1,106.15,26.42Z"/><path class="cls-3" d="M269.62,100.59c0-1.65,0-3,0-4.39,0-.45-.11-.6-.58-.58-.72,0-1.45,0-2.18,0-.42,0-.56-.13-.55-.55,0-1.45,0-2.91,0-4.37,0-.48.18-.59.61-.57s1.11,0,1.66,0c.76.08,1.08-.12,1-1-.08-1.24,0-2.5,0-3.75,0-.49.12-.64.62-.63,1.95,0,3.9,0,5.85,0,.47,0,.58.14.57.58,0,1.37,0,2.74,0,4.11,0,.56.17.68.69.66,1,0,2.1,0,3.14,0,.46,0,.6.12.59.59,0,1.45,0,2.91,0,4.36,0,.42-.12.56-.54.55-1,0-2,0-3.06,0-.62,0-.85.09-.83.78.06,2.07,0,4.14,0,6.2s.74,2.81,2.89,2.66c1.43-.1,1.42-.1,1.66,1.36.16,1,.34,1.95.52,2.92.07.38,0,.63-.44.75a15.12,15.12,0,0,1-6.82.32,5.47,5.47,0,0,1-4.63-5A42.25,42.25,0,0,1,269.62,100.59Z"/><path class="cls-3" d="M171.91,100.3c0-1.49,0-2.72,0-3.94,0-.64-.19-.79-.78-.74s-1.22,0-1.83,0-.69-.07-.68-.61c0-1.43,0-2.86,0-4.28,0-.45.12-.63.59-.61.69,0,1.4,0,2.09,0,.46,0,.61-.13.6-.59,0-1.34,0-2.68,0-4,0-.52.07-.76.69-.75,1.89,0,3.79,0,5.68,0,.58,0,.65.2.64.7,0,1.34,0,2.68,0,4,0,.5.14.66.64.64,1,0,2.09,0,3.14,0,.46,0,.68.09.67.62,0,1.43,0,2.85,0,4.28,0,.45-.13.61-.6.6-1,0-2.1,0-3.14,0-.6,0-.72.19-.71.74,0,2,0,4,0,6,0,2.43.92,3.28,3.3,2.81.9-.18,1.08.12,1.19.86.17,1.21.37,2.41.61,3.61.07.38,0,.51-.38.6a14.46,14.46,0,0,1-7.33.25c-2.51-.64-3.89-2.42-4.25-5.25C171.82,103.52,172,101.77,171.91,100.3Z"/><path class="cls-3" d="M68.72,96.69c0-4.35,0-8.69,0-13,0-.65.14-.83.8-.81,2,.05,3.91,0,5.86,0,.57,0,.81.09.8.74q0,13.13,0,26.23c0,.59-.17.72-.73.71-2,0-4,0-6,0-.61,0-.7-.21-.69-.74C68.73,105.43,68.72,101.06,68.72,96.69Z"/><path class="cls-3" d="M76.16,23.36c0,4.31,0,8.62,0,12.94,0,.71-.21.86-.87.84q-3-.06-5.94,0c-.56,0-.67-.16-.67-.68q0-13.15,0-26.3c0-.58.16-.72.72-.71q3,0,6,0c.58,0,.73.15.73.72C76.15,14.57,76.16,19,76.16,23.36Z"/><path class="cls-3" d="M311.73,22.75c0,4.31,0,8.62,0,12.93,0,.7-.18.89-.87.87-1.81,0-3.61,0-5.42,0-.58,0-.8-.1-.8-.75q0-13.11,0-26.22c0-.57.16-.75.74-.73,1.86,0,3.73,0,5.59,0,.65,0,.75.23.75.81C311.72,14,311.73,18.38,311.73,22.75Z"/><path class="cls-3" d="M150.68,18.68c1.95-2.63,4.45-3,7.19-2.75.34,0,.45.17.4.5-.23,1.73-.45,3.47-.66,5.2,0,.34-.16.43-.51.35a8.52,8.52,0,0,0-2.52-.14c-2.4.19-3.67,1.48-3.69,3.88q-.06,5,0,10c0,.69-.17.89-.87.87-1.8,0-3.61,0-5.41,0-.63,0-.77-.19-.77-.79q0-9.39,0-18.79c0-.57.09-.81.75-.8,1.8,0,3.61,0,5.42,0,.54,0,.72.17.68.7S150.68,17.91,150.68,18.68Z"/><path class="cls-3" d="M230.25,26.42c0,3.12,0,6.24,0,9.35,0,.62-.16.79-.77.78-1.87,0-3.73,0-5.6,0-.48,0-.65-.11-.65-.62q0-9.57,0-19.14c0-.45.11-.6.58-.6,1.92,0,3.84,0,5.77,0,.56,0,.66.2.66.71C230.24,20.07,230.25,23.24,230.25,26.42Z"/><path class="cls-3" d="M150.37,63.31c0-3.14,0-6.29,0-9.43,0-.55.11-.74.7-.72,1.89,0,3.79,0,5.68,0,.54,0,.67.13.67.67q0,9.51,0,19c0,.52-.11.7-.67.69-1.89,0-3.78,0-5.67,0-.59,0-.71-.18-.71-.73C150.39,69.66,150.37,66.48,150.37,63.31Z"/><path class="cls-3" d="M153.91,50.93c-1,0-2,0-3,0-.38,0-.5-.09-.5-.48,0-1.39,0-2.79,0-4.18,0-.34.09-.45.44-.45,2.06,0,4.12,0,6.18,0,.41,0,.47.18.47.52,0,1.34,0,2.67,0,4,0,.46-.14.6-.59.59C155.88,50.91,154.9,50.93,153.91,50.93Z"/><path class="cls-3" d="M226.68,13.92c-.93,0-1.86,0-2.79,0-.52,0-.73-.1-.71-.67,0-1.25,0-2.5,0-3.75,0-.57.21-.68.72-.67,1.92,0,3.84,0,5.76,0,.5,0,.64.12.63.62q-.06,1.92,0,3.84c0,.51-.15.64-.64.63C228.66,13.89,227.67,13.92,226.68,13.92Z"/><path class="cls-3" d="M145.47,45.82c-1.87,0-3.73,0-5.6,0-.68,0-.8.19-.79.82,0,2.68,0,5.35,0,8.25a8.21,8.21,0,0,0-1.91-1.53,7.83,7.83,0,0,0-10.73,4A16,16,0,0,0,126,68.83c1.58,4.93,6.07,6,9.75,5a7.28,7.28,0,0,0,3.55-2.53c0,.67,0,1.13,0,1.58s.14.74.71.72c1.81,0,3.62,0,5.42,0,.52,0,.71-.11.71-.67q0-13.2,0-26.4C146.16,45.91,146,45.81,145.47,45.82ZM138.82,66a3,3,0,0,1-3,2.45,3.07,3.07,0,0,1-3.16-2.34,9.38,9.38,0,0,1-.35-2.84,9,9,0,0,1,.39-2.92,3.11,3.11,0,0,1,3.17-2.22,2.79,2.79,0,0,1,2.94,2.43A11.76,11.76,0,0,1,138.82,66Z"/><path class="cls-3" d="M254.25,21.89a9.39,9.39,0,0,0-2.32-3.73c-3.15-3.16-9.64-3.2-13-1.4a8.79,8.79,0,0,0-4.44,5.35,14.07,14.07,0,0,0,.11,8.91c1.37,3.95,4.82,6.07,9.69,6.06.32,0,.64,0,1,0a9.35,9.35,0,0,0,9.3-7.36A14.29,14.29,0,0,0,254.25,21.89Zm-7,7.76a3,3,0,0,1-3,1.87,2.87,2.87,0,0,1-2.89-2,9.74,9.74,0,0,1,0-6.33,2.93,2.93,0,0,1,3.09-2.07,3,3,0,0,1,2.94,2.17,7.87,7.87,0,0,1,.39,2.85A8.2,8.2,0,0,1,247.27,29.65Z"/><path class="cls-3" d="M203.12,23.22c-.09-3.72-1.71-6.14-4.68-7a14.56,14.56,0,0,0-9.27.2,6.59,6.59,0,0,0-4.29,4.91c-.08.33-.3.74.39.77,1.48.07,3,.2,4.44.33.76.07,1.46.18,1.71-.84.11-.42.56-.67,1-.84,2.25-.94,4,.26,4,2.67,0,.42-.06.62-.55.62-.85,0-1.69.08-2.53.15a16.22,16.22,0,0,0-6.75,1.54,5.83,5.83,0,0,0-2.95,6.21A5.61,5.61,0,0,0,188,36.75a8.43,8.43,0,0,0,8.59-2.41,12.2,12.2,0,0,1,0,1.38c-.08.65.15.85.82.83,1.71,0,3.43,0,5.15,0,.42,0,.63-.07.62-.56C203.15,31.72,203.22,27.47,203.12,23.22Zm-6.86,6.41c-.53,2.48-3.33,3.08-5.07,2.34a1.54,1.54,0,0,1-.84-1.75,1.94,1.94,0,0,1,1.43-1.79A10.73,10.73,0,0,1,195,28C196.52,28,196.6,28.1,196.26,29.63Z"/><path class="cls-3" d="M300.54,22.71c-.1-3.71-2.17-6.06-5.8-6.83a15.23,15.23,0,0,0-7,.13,6.85,6.85,0,0,0-5.42,5.4c-.1.44-.09.62.43.65,1.62.09,3.24.22,4.87.37.56.05,1,.05,1.16-.65a1.66,1.66,0,0,1,1.09-1.05c2.23-.91,4,.27,4,2.65,0,.44-.1.61-.56.62-1,0-1.92.07-2.88.15a16.53,16.53,0,0,0-6.32,1.46c-4,2.07-3.8,7.59-1.37,9.67,2.17,1.86,4.64,2.08,7.29,1.53a8.47,8.47,0,0,0,4-2.47c0,.69,0,1.15,0,1.61s.14.6.59.59c1.78,0,3.56,0,5.33,0,.42,0,.63,0,.63-.56C300.58,31.56,300.65,27.13,300.54,22.71Zm-6.8,6.81a3.71,3.71,0,0,1-5.2,2.42,1.64,1.64,0,0,1-.74-1.65A1.92,1.92,0,0,1,289,28.54a9.05,9.05,0,0,1,3.21-.54C294,28,294,28,293.74,29.52Z"/><path class="cls-3" d="M180.07,59.38A6.51,6.51,0,0,0,174.66,53a14.46,14.46,0,0,0-8.09.26,6.66,6.66,0,0,0-4.7,5.16c-.11.45,0,.62.44.65,1.74.13,3.48.28,5.21.42.31,0,.52,0,.68-.35a2.74,2.74,0,0,1,3.46-1.54c1.21.28,1.77,1.18,1.78,2.73,0,.52-.14.72-.68.73-1.23,0-2.45.09-3.66.21a13.1,13.1,0,0,0-5.68,1.54,5.75,5.75,0,0,0-2.81,5.78,5.28,5.28,0,0,0,3.69,4.92,8.25,8.25,0,0,0,9.33-2.16c0,.67,0,1.17,0,1.65s.11.6.58.59c1.8,0,3.61,0,5.42,0,.39,0,.58-.09.57-.53C180.13,68.47,180.35,63.92,180.07,59.38Zm-6.79,7.21a3.7,3.7,0,0,1-5.17,2.33,1.61,1.61,0,0,1-.77-1.63,2,2,0,0,1,1.37-1.83,7.6,7.6,0,0,1,2.91-.43l.26,0C173.5,64.87,173.58,65,173.28,66.59Z"/><path class="cls-3" d="M127.46,28c2,0,4.08,0,6.12,0s4,0,6,0c.55,0,.69-.15.66-.68-.05-.87,0-1.75-.05-2.62-.2-3-1.14-5.65-3.7-7.46a10.46,10.46,0,0,0-6.91-1.64c-4.16.23-7.19,2.15-8.66,6.14a14.11,14.11,0,0,0-.1,9.59,7.9,7.9,0,0,0,5.86,5.34,15.53,15.53,0,0,0,6.75.2A7.88,7.88,0,0,0,140,30.66c.11-.48.07-.68-.5-.67-1.78,0-3.55,0-5.33,0a.78.78,0,0,0-.83.57,2.51,2.51,0,0,1-2.1,1.49c-2.63.38-4.11-.83-4.31-3.5C126.88,28.07,127,28,127.46,28Zm-.52-4.55a3.24,3.24,0,0,1,3.42-2.92,2.91,2.91,0,0,1,3.36,2.66c.11.56.08.91-.68.85s-1.8,0-2.7,0-1.91,0-2.87,0C127,24,126.88,23.9,126.94,23.43Z"/><path class="cls-3" d="M132.32,102c2,0,4,0,6,0s4.08,0,6.12,0c.49,0,.65-.13.64-.63a28,28,0,0,0-.17-3.66c-.47-3.36-2-6-5.24-7.37a11.65,11.65,0,0,0-5.39-.76,9.2,9.2,0,0,0-8.7,6.51,14.66,14.66,0,0,0,0,9,7.82,7.82,0,0,0,5.14,5.31,13.91,13.91,0,0,0,9,0,7.46,7.46,0,0,0,5.08-5.83c.1-.41.11-.64-.43-.63-1.84,0-3.67,0-5.51,0-.28,0-.49,0-.61.35-.51,1.51-2.25,2-3.8,1.71a2.92,2.92,0,0,1-2.58-2.68c-.05-.23-.06-.46-.12-.69C131.59,102.12,131.75,102,132.32,102Zm-.55-4.65A3.64,3.64,0,0,1,137.29,95a3.22,3.22,0,0,1,1.29,2.72c0,.42-.3.26-.48.26-1,0-2,0-3,0s-1.91,0-2.87,0C131.71,98,131.66,97.83,131.77,97.32Z"/><path class="cls-3" d="M228,102c2,0,4,0,6,0s4.08,0,6.12,0c.48,0,.65-.12.64-.63a28.45,28.45,0,0,0-.17-3.57c-.44-3.39-2-6.07-5.24-7.46a11.94,11.94,0,0,0-5.4-.76,9.23,9.23,0,0,0-8.84,7,14.74,14.74,0,0,0,.07,8.35,7.85,7.85,0,0,0,5.17,5.48,13.9,13.9,0,0,0,8.92,0,7.43,7.43,0,0,0,5.14-5.77c.08-.34.29-.75-.41-.74-1.83,0-3.67,0-5.51,0-.27,0-.48,0-.6.36-.56,1.58-2.41,2-3.9,1.68s-2.15-1.06-2.5-2.75c0-.2-.06-.4-.11-.6C227.21,102.11,227.4,102,228,102Zm-.6-4.49A3.68,3.68,0,0,1,233,95a3.22,3.22,0,0,1,1.18,2.61c0,.39-.26.31-.47.31h-3c-1,0-2,0-3,0C227.42,98,227.3,97.89,227.36,97.48Z"/><path class="cls-3" d="M109.59,65c3.94,0,7.87,0,11.8,0,.54,0,.8-.09.75-.71-.07-1.07,0-2.15-.12-3.22a9.42,9.42,0,0,0-2.54-5.88c-2.06-2.07-4.64-2.65-7.43-2.61-5,.08-8.46,2.71-9.65,7.46a14.91,14.91,0,0,0,.12,7.76A7.67,7.67,0,0,0,106.8,73a12.94,12.94,0,0,0,11.14-.11c2.41-1.15,3.56-3.28,4-5.92-2.08,0-4.09,0-6.09,0-.38,0-.49.19-.61.47a2.55,2.55,0,0,1-1.81,1.5c-2.5.68-4.08-.38-4.62-3C108.66,65.16,108.83,65,109.59,65Zm-.8-4.55A3.68,3.68,0,0,1,114.34,58a3.11,3.11,0,0,1,1.27,2.63c0,.41-.21.39-.49.39h-3c-1,0-1.92,0-2.87,0C108.76,61.05,108.72,60.83,108.79,60.41Z"/></svg>