<?xml version="1.0" encoding="utf-8"?>
<!-- Generator: Adobe Illustrator 25.2.1, SVG Export Plug-In . SVG Version: 6.00 Build 0)  -->
<svg version="1.1" id="Layer_1" xmlns="http://www.w3.org/2000/svg" xmlns:xlink="http://www.w3.org/1999/xlink" x="0px" y="0px"
	 viewBox="0 0 210 47" style="enable-background:new 0 0 210 47;" xml:space="preserve">
<style type="text/css">
	.st0{fill:#FFFFFF;}
</style>
<path class="st0" d="M132.1,13c-0.4-2.1-1.3-4.1-2.5-6s-2.9-3.1-4.6-4c-2.1-1-4.5-1.5-6.8-1.5h-8.4H97.6v44h12.1v-13l6.9-0.2
	c3.7-0.1,7.4-1.2,10.5-3.3c1.1-0.8,2.1-2,2.8-3.3C132.2,22,133,17.3,132.1,13z M122.6,18.9L122.6,18.9c-1.8,2.1-3.7,3.5-7.3,5.3
	c-3.6,1.8-5.4,5.2-5.4,5.2l-0.4-14.7c0,0,0-0.9,0-1.1c0-0.6,0.1-1.2,0.2-1.8l0,0l0,0c0.1-0.5,0.3-1,0.5-1.5v-0.1l0,0
	c1.3-2.5,3.8-4,6.8-4c4.2,0,7.6,3.2,7.6,7.4C124.8,15.7,124,17.5,122.6,18.9z"/>
<path class="st0" d="M159.1,12.6c-8.8-0.4-18.6-0.2-18.6-0.2v8.8h13.3c0,0,2.9,0.2,3.4,2.6c0.1,0.4,0.1,1,0.2,1.7
	c-0.5-0.1-1.1-0.3-1.9-0.5c-5.3-1.2-9.2,0.1-10.8,0.7c-2.4,0.8-4.1,2.9-4.1,2.9l0,0c-1.9,1.8-3.1,4.3-3.1,7.2c0,4.9,3.5,9,8.2,9.8
	l0,0h11.9H168v-8.4v-15C168,22.2,167.8,13,159.1,12.6z M157.4,36.2c0,1-0.3,2-1,2.8c-0.6,0.7-1.6,1.3-3.1,1.2
	c-1.4-0.1-2.7-0.8-3.4-1.8c-0.1-0.1-0.1-0.2-0.2-0.3c-0.1-0.1-0.1-0.3-0.2-0.4l0,0c-0.2-0.4-0.3-0.9-0.3-1.4c0-1.3,0.5-2.5,1.4-3.4
	c0.4-0.2,0.9-0.7,0.9-0.7c0.6-0.4,2-1.1,2.8-1.6c0.5-0.3,1-0.6,1.5-0.9s1.1-0.8,1.6-1.2C157.4,31.4,157.4,34.6,157.4,36.2z"/>
<path class="st0" d="M80.4,38.2c-1.5,0-2.7,0-3.6,0c-2.7-0.1-5.4-1.3-7-3.4c-1.2-1.5-1.9-3.4-1.9-5.4c0-5,4.3-9.1,9.5-9.1
	c2.8,0,5.5,1,7.2,2.8c1.3,1.3,2.2,2.9,2.7,4.7h0.1V12.6H74.1l0,0c-8.6,0.2-15.5,7.5-15.5,16.5c0,8.1,5.5,14.8,12.8,16.2
	c0.4,0.1,0.9,0.1,1.4,0.1h4.4h11.1V38C88.3,38,86.2,38.2,80.4,38.2z"/>
<path class="st0" d="M48.7,1.4c-3.8,0-6.8,3.2-6.8,7.2l0.2,13l0,0c0-1,0.6-2.6,3-4.2c3.4-2.3,5.8-2.9,8.1-4.9
	c0.1-0.1,0.4-0.4,0.5-0.6c2.7-3.5,1.5-8.7-2.7-10.2C50.2,1.5,49.4,1.4,48.7,1.4z"/>
<path class="st0" d="M54.9,13.2c-0.1,0.4-0.9,2.1-2.2,3.2c-1.8,1.5-3.1,2.1-3.1,2.1l-2.1,1.1c0,0-2.9,1.8-3,1.8s-2,1.7-2.5,3.6
	c-0.1,0.6-0.1,1.1-0.1,1.4l0,0v13.7l0,0c0.3,3.1,3.1,5.5,6.5,5.5s6.2-2.4,6.5-5.5l0,0V24.5C55,24.5,54.9,12.8,54.9,13.2z"/>
<path class="st0" d="M36.1,13.5c-0.4-2-1.3-4.1-2.4-5.9c-1.1-1.9-2.9-3.1-4.6-3.9c-2.1-1-4.4-1.4-6.7-1.4h-8.3H2.2v43.2h11.9V32.8
	l6.8-0.2c3.7-0.1,7.3-1.2,10.4-3.2c1.1-0.7,2.1-1.9,2.8-3.2C36.2,22.4,37,17.8,36.1,13.5z M26.8,19.4L26.8,19.4
	c-1.8,2-3.7,3.4-7.2,5.2s-5.3,5.2-5.3,5.2l-0.4-14.5c0,0,0-0.9,0-1.1c0-0.6,0.1-1.2,0.2-1.8l0,0l0,0c0.1-0.5,0.3-1,0.5-1.4v-0.1l0,0
	C15.8,8.4,18.4,7,21.3,7c4.1,0,7.5,3.1,7.5,7.3C28.9,16.2,28.1,18,26.8,19.4z"/>
<polygon class="st0" points="207.8,45.6 196.1,28.2 203.9,16.7 203.9,16.7 206.7,12.6 194.6,12.6 190.3,19.4 186,12.6 173.9,12.6 
	176.7,16.7 176.7,16.7 184.5,28.2 172.3,45.6 184.7,45.5 190.3,36.7 195.4,45.5 "/>
</svg>
