<svg xmlns="http://www.w3.org/2000/svg" viewBox="0 0 64.1 36.7"><defs><style>.cls-1{fill:#231f20;}</style></defs><title>Asset 1</title><g id="Layer_2" data-name="Layer 2"><g id="Layer_1-2" data-name="Layer 1"><path class="cls-1" d="M31.5,0a6.7,6.7,0,0,0-6.7,6.7,6,6,0,0,0,.9,3.2.67.67,0,0,0,.7.4.6.6,0,0,0,.4-.1.8.8,0,0,0,.3-1.1,5,5,0,1,1,8.8-4.8,4.65,4.65,0,0,1,.6,2.3,5.85,5.85,0,0,1-.2,1.3.89.89,0,0,0,.6,1,.8.8,0,0,0,1-.6,5.08,5.08,0,0,0,.3-1.7A6.68,6.68,0,0,0,31.5,0Z"/><path class="cls-1" d="M46.5,15.1a3.29,3.29,0,0,0-1.9.6,3.38,3.38,0,0,0-3.2-2.2,3.29,3.29,0,0,0-1.9.6,3.34,3.34,0,0,0-4.9-1.7V6.9a3.37,3.37,0,0,0-3.4-3.4,3.29,3.29,0,0,0-3.3,3.4V21.1l-2.7-2.4a4.4,4.4,0,0,0-5.7.4,2.42,2.42,0,0,0,0,3.5h0L31.4,34.5a7.49,7.49,0,0,0,5.3,2.2h3.9a9.18,9.18,0,0,0,9.2-9.2V18.3A3.13,3.13,0,0,0,46.5,15.1Zm1.7,12.5a7.49,7.49,0,0,1-7.5,7.5H36.8a5.89,5.89,0,0,1-4.2-1.7L20.7,21.5a.91.91,0,0,1,0-1.2,2.63,2.63,0,0,1,3.5-.3l4.3,3.2a.83.83,0,0,0,1.2-.2.76.76,0,0,0,.2-.5V6.7a1.67,1.67,0,0,1,1.8-1.5,1.61,1.61,0,0,1,1.5,1.5V19.3a.81.81,0,1,0,1.6.2V15.1a1.66,1.66,0,0,1,3.3-.3v4.5a.79.79,0,0,0,.8.8.86.86,0,0,0,.8-.8V16.8a1.67,1.67,0,0,1,1.8-1.5A1.61,1.61,0,0,1,43,16.8v2.5a.81.81,0,0,0,1.6.2v-1a1.66,1.66,0,1,1,3.3-.3v.3Z"/><polygon class="cls-1" points="5.6 8.1 5.6 5.5 22 5.5 22 4.2 5.6 4.2 5.6 1.6 0 4.8 5.6 8.1"/><polygon class="cls-1" points="58.5 1.6 58.5 4.2 42.1 4.2 42.1 5.5 58.5 5.5 58.5 8.1 64.1 4.8 58.5 1.6"/></g></g></svg>