<svg width="38" height="38" viewBox="0 0 38 38" fill="none" xmlns="http://www.w3.org/2000/svg">
<path d="M8.82181 21.9989H13.5718C13.6939 22.3189 13.8229 22.6323 13.9586 22.9389C14.0689 23.1803 14.3136 23.3344 14.583 23.3323H15.6753C15.8847 24.3449 16.5599 25.2051 17.5038 25.6608C18.4474 26.1165 19.5532 26.1165 20.4968 25.6608C21.4407 25.2051 22.116 24.3449 22.3253 23.3323H23.3973C23.6663 23.3344 23.9114 23.1803 24.0217 22.9389C24.1574 22.6323 24.2864 22.3189 24.4085 21.9989H29.1585C29.482 22.0067 29.7659 21.7891 29.8371 21.4789C29.8371 21.4123 31.1942 15.0851 25.596 11.5247C24.6187 5.18442 19.6991 0.403984 19.4889 0.190636C19.225 -0.0635453 18.8027 -0.0635453 18.5389 0.190636C18.3081 0.41059 13.3885 5.19098 12.4318 11.5247C6.78605 15.0848 8.14318 21.4119 8.14318 21.4789C8.21437 21.7891 8.49821 22.0067 8.82175 21.9989H8.82181ZM25.786 13.6646V13.2979C27.1431 16.6649 25.9623 19.3451 25.786 20.6651H24.8426C25.483 18.3852 25.8005 16.0297 25.786 13.6647V13.6646ZM22.3931 16.6648C22.3931 17.1952 22.1787 17.7042 21.797 18.0792C21.4153 18.4541 20.8972 18.6649 20.3575 18.6649H17.6432C17.1034 18.6649 16.5853 18.4542 16.2037 18.0792C15.8221 17.7042 15.6075 17.1952 15.6075 16.6648V13.998C15.6075 13.4676 15.822 12.9586 16.2037 12.5836C16.5854 12.2087 17.1035 11.9979 17.6432 11.9979H20.3575C20.8973 11.9979 21.4153 12.2086 21.797 12.5836C22.1786 12.9587 22.3931 13.4677 22.3931 13.998V16.6648ZM12.2146 13.2979V13.6646C12.2001 16.0296 12.5176 18.3851 13.158 20.6651H12.2146C12.0586 19.3382 10.8575 17.9982 12.2146 13.2979V13.2979Z" fill="white"/>
<path d="M1.45912 35.3331L0.000244141 38H37.9999L36.5411 35.3331H1.45912Z" fill="white"/>
<path d="M29.959 24.6658H23.2887C22.7713 25.7331 21.8613 26.5677 20.7419 27.001C19.6226 27.4347 18.3776 27.4347 17.2582 27.001C16.1389 26.5677 15.2289 25.733 14.7115 24.6658H8.0412L0 33.9997H37.9997L29.959 24.6658ZM16.9646 29.3328C16.9646 29.7009 16.6608 29.9995 16.2861 29.9995C15.9113 29.9995 15.6075 29.7009 15.6075 29.3328V27.3326C15.6075 26.9644 15.9113 26.6659 16.2861 26.6659C16.6608 26.6659 16.9646 26.9644 16.9646 27.3326V29.3328ZM19.6789 31.3329C19.6789 31.7011 19.375 31.9996 19.0003 31.9996C18.6256 31.9996 18.3218 31.7011 18.3218 31.3329V28.666C18.3218 28.2979 18.6256 27.9993 19.0003 27.9993C19.375 27.9993 19.6789 28.2979 19.6789 28.666V31.3329ZM22.3931 29.3328C22.3931 29.7009 22.0893 29.9995 21.7146 29.9995C21.3399 29.9995 21.036 29.7009 21.036 29.3328V27.3326C21.036 26.9644 21.3399 26.6659 21.7146 26.6659C22.0893 26.6659 22.3931 26.9644 22.3931 27.3326V29.3328Z" fill="white"/>
</svg>
