<?xml version="1.0" encoding="utf-8"?>
<!-- Generator: Adobe Illustrator 23.0.2, SVG Export Plug-In . SVG Version: 6.00 Build 0)  -->
<svg version="1.1" id="Layer_1" xmlns="http://www.w3.org/2000/svg" xmlns:xlink="http://www.w3.org/1999/xlink" x="0px" y="0px"
	 viewBox="0 0 64.2 49.5" style="enable-background:new 0 0 64.2 49.5;" xml:space="preserve">
<style type="text/css">
	.st0{fill:url(#SVGID_1_);}
</style>
<linearGradient id="SVGID_1_" gradientUnits="userSpaceOnUse" x1="-7.697391e-03" y1="27.2559" x2="64.2023" y2="27.2559" gradientTransform="matrix(1 0 0 -1 0 52)">
	<stop  offset="0" style="stop-color:#9B9AA0"/>
	<stop  offset="1" style="stop-color:#FFFFFF"/>
</linearGradient>
<path class="st0" d="M63.7,31.3l-2-0.6c0-0.3,0-0.7,0-1c0-0.3,0-0.7,0-1l2-0.6c0.4-0.1,0.6-0.5,0.4-0.9l-0.9-2.8
	c-0.1-0.4-0.5-0.6-0.9-0.4l-2,0.6c-0.3-0.6-0.7-1.1-1.2-1.6l1.2-1.7c0.2-0.3,0.2-0.7-0.1-1c0,0,0,0,0,0l-2.3-1.7
	c-0.3-0.2-0.7-0.2-1,0.1c0,0,0,0,0,0l-1.2,1.7c-0.6-0.3-1.3-0.5-2-0.6v-2.1c0-0.4-0.3-0.7-0.7-0.7h-2.8c-0.4,0-0.7,0.3-0.7,0.7v2.1
	c-0.7,0.1-1.3,0.3-1.9,0.6l-1.2-1.7c-0.2-0.3-0.7-0.4-1-0.2c0,0,0,0,0,0L43,20.2c-0.3,0.2-0.4,0.7-0.2,1c0,0,0,0,0,0l1.2,1.7
	c-0.5,0.5-0.9,1.1-1.2,1.6l-2-0.6c-0.4-0.1-0.8,0.1-0.9,0.4l-0.9,2.8c-0.1,0.4,0.1,0.8,0.4,0.9c0,0,0,0,0,0l2,0.6c0,0.3,0,0.7,0,1
	s0,0.7,0,1l-2,0.6c-0.4,0.1-0.6,0.5-0.5,0.8c0,0,0,0,0,0L40,35c0.1,0.4,0.5,0.6,0.9,0.4l2-0.6c0.3,0.6,0.8,1.1,1.2,1.7l-1.2,1.7
	c-0.2,0.3-0.2,0.7,0.1,1c0,0,0,0,0,0l2.4,1.7c0.3,0.2,0.8,0.2,1-0.1c0,0,0,0,0,0l1.2-1.7c0.6,0.3,1.3,0.5,1.9,0.6v2.1
	c0,0.4,0.3,0.7,0.7,0.7h2.9c0.4,0,0.7-0.3,0.7-0.7v-2.1c0.7-0.1,1.4-0.4,2-0.6l1.2,1.7c0.2,0.3,0.7,0.4,1,0.2c0,0,0,0,0,0l2.4-1.7
	c0.3-0.2,0.4-0.7,0.2-1c0,0,0,0,0,0l-1.2-1.7c0.5-0.5,0.9-1.1,1.2-1.7l2,0.6c0.4,0.1,0.8-0.1,0.9-0.4l0.9-2.8
	C64.4,31.8,64.1,31.4,63.7,31.3C63.8,31.3,63.7,31.3,63.7,31.3z M51.6,34.3c-2.6,0-4.7-2.1-4.7-4.7s2.1-4.7,4.7-4.7
	c2.6,0,4.7,2.1,4.7,4.7c0,0,0,0,0,0C56.3,32.2,54.2,34.3,51.6,34.3C51.6,34.3,51.6,34.3,51.6,34.3L51.6,34.3z M40.8,36.3l-1.5,0.4
	c-0.3-0.6-0.8-1.2-1.3-1.8l0.8-1.3c0.2-0.3,0.1-0.7-0.2-0.8l-2-1.1c-0.3-0.2-0.7-0.1-0.8,0.2l-0.8,1.3c-0.7-0.2-1.4-0.3-2.2-0.3
	l-0.4-1.5c-0.1-0.3-0.4-0.5-0.7-0.4c0,0,0,0,0,0l-2.2,0.6c-0.3,0.1-0.5,0.4-0.4,0.7c0,0,0,0,0,0l0.4,1.5c-0.6,0.3-1.2,0.8-1.7,1.3
	l-1.3-0.8c-0.3-0.2-0.7-0.1-0.8,0.2l-1.2,2c-0.2,0.3-0.1,0.7,0.2,0.8c0,0,0,0,0,0l1.3,0.8c-0.2,0.7-0.3,1.4-0.3,2.2l-1.5,0.4
	c-0.3,0.1-0.5,0.4-0.4,0.7c0,0,0,0,0,0l0.6,2.2c0.1,0.3,0.4,0.5,0.8,0.4c0,0,0,0,0,0l1.5-0.4c0.4,0.6,0.8,1.2,1.3,1.7L27,46.8
	c-0.2,0.3-0.1,0.7,0.2,0.8c0,0,0,0,0,0l2,1.2c0.3,0.2,0.7,0.1,0.8-0.2l0.8-1.3c0.7,0.2,1.4,0.3,2.2,0.3l0.4,1.5
	c0.1,0.3,0.4,0.5,0.8,0.4l2.2-0.6c0.3-0.1,0.5-0.4,0.4-0.7c0,0,0,0,0,0l-0.4-1.5c0.6-0.3,1.2-0.8,1.7-1.3l1.3,0.8
	c0.3,0.2,0.7,0.1,0.8-0.2l1.2-2c0.2-0.3,0.1-0.7-0.2-0.8l-1.3-0.8c0.2-0.7,0.3-1.4,0.3-2.2l1.5-0.4c0.3-0.1,0.5-0.4,0.4-0.8
	c0,0,0,0,0,0l-0.6-2.2C41.4,36.4,41.1,36.2,40.8,36.3C40.8,36.3,40.8,36.3,40.8,36.3L40.8,36.3z M34.1,44.7c-2.5,0.6-5-0.8-5.7-3.3
	c-0.6-2.5,0.8-5,3.3-5.7c2.5-0.6,5,0.8,5.6,3.2C38,41.5,36.5,44,34.1,44.7C34.1,44.7,34.1,44.7,34.1,44.7L34.1,44.7z M20.2,23.7
	h18.4l-0.1,0.2L38,25.3H20.2c-0.1,0-0.1-0.1-0.1-0.1v-1.4C20.1,23.7,20.1,23.7,20.2,23.7L20.2,23.7L20.2,23.7z M20.1,28.4
	c0-0.1,0.1-0.1,0.1-0.1h17.5c0.3,0.6,0.7,1,1.3,1.2l0.6,0.2l-0.6,0.2L38.8,30h-5.7c-0.4-0.3-0.9-0.5-1.4-0.5c-0.2,0-0.4,0-0.6,0.1
	L29.5,30h-9.3c-0.1,0-0.1-0.1-0.1-0.1V28.4z M24.1,33.8l-0.4,0.7H4.5c-0.1,0-0.1-0.1-0.1-0.1l0,0V33c0-0.1,0.1-0.1,0.1-0.1
	c0,0,0,0,0,0h20.8C24.8,33,24.4,33.4,24.1,33.8L24.1,33.8z M7.9,3.4c0,0.6-0.5,1.2-1.2,1.2C6.1,4.6,5.6,4,5.6,3.4
	c0-0.6,0.5-1.2,1.2-1.2c0,0,0,0,0,0C7.4,2.2,7.9,2.8,7.9,3.4C7.9,3.4,7.9,3.4,7.9,3.4z M20.2,19.1h21.7c-0.4,0.3-0.7,0.8-0.8,1.4
	c0,0.1,0,0.2,0,0.3h-21c-0.1,0-0.1-0.1-0.1-0.1v-1.4C20.1,19.1,20.1,19.1,20.2,19.1z M4.5,3.4C4.5,4,4,4.6,3.3,4.6S2.2,4,2.2,3.4
	s0.5-1.2,1.2-1.2S4.5,2.8,4.5,3.4C4.5,3.4,4.5,3.4,4.5,3.4z M24.1,39.1c0-0.1,0-0.1,0-0.2l-0.4-0.2c-0.3-0.2-0.5-0.4-0.7-0.6H1V8.3
	h48.3v7.2c0.3-0.1,0.6-0.2,0.9-0.2h0.1V8c0,0,0-0.1,0-0.1l0,0V4.4c0-0.3-0.2-0.5-0.5-0.5l0,0H28.3l-7.7-3.8c-0.1,0-0.2,0-0.2,0H0.5
	C0.3,0,0,0.3,0,0.5v7.3l0,0C0,7.9,0,7.9,0,8v30.5c0,0.4,0.3,0.6,0.6,0.6h23.3L24.1,39.1z M1,1h19.3L28,4.9c0.1,0,0.2,0,0.2,0h21v2.4
	H1V1z M11.3,3.4c0,0.6-0.5,1.2-1.2,1.2C9.5,4.6,9,4,9,3.4s0.5-1.2,1.2-1.2l0,0C10.8,2.2,11.3,2.8,11.3,3.4z M46.4,10.6v5.5
	c0,0.1-0.1,0.2-0.2,0.2l0,0H4.6c-0.1,0-0.2-0.1-0.2-0.2c0,0,0,0,0,0v-5.5c0-0.1,0.1-0.2,0.2-0.2h41.6C46.3,10.4,46.4,10.5,46.4,10.6
	C46.4,10.6,46.4,10.6,46.4,10.6z M4.4,19.1h12.4c0.1,0,0.1,0.1,0.1,0.1v10.6c0,0.1-0.1,0.1-0.1,0.1H4.5c-0.1,0-0.1-0.1-0.1-0.1V19.2
	C4.3,19.1,4.4,19.1,4.4,19.1L4.4,19.1z"/>
</svg>
