<?xml version="1.0" encoding="utf-8"?>
<!-- Generator: Adobe Illustrator 23.0.2, SVG Export Plug-In . SVG Version: 6.00 Build 0)  -->
<svg version="1.1" id="Layer_1" xmlns="http://www.w3.org/2000/svg" xmlns:xlink="http://www.w3.org/1999/xlink" x="0px" y="0px"
	 viewBox="0 0 64.4 63.3" style="enable-background:new 0 0 64.4 63.3;" xml:space="preserve">
<style type="text/css">
	.st0{fill:url(#SVGID_1_);}
</style>
<title>Core Technologies</title>
<linearGradient id="SVGID_1_" gradientUnits="userSpaceOnUse" x1="2.487620e-03" y1="31.6455" x2="64.3503" y2="31.6455">
	<stop  offset="0" style="stop-color:#9B9AA0"/>
	<stop  offset="1" style="stop-color:#FFFFFF"/>
</linearGradient>
<path class="st0" d="M1.8,36.3L6,37c0.7,3.2,1.9,6.3,3.7,9l-2.5,3.5c-0.5,0.7-0.5,1.7,0,2.4c0.6,0.8,1.3,1.5,2,2.2
	c0.7,0.7,1.4,1.4,2.2,2c0.7,0.5,1.6,0.5,2.3,0l3.5-2.5c2.7,1.8,5.8,3.1,9,3.7l0.7,4.2c0.1,0.9,0.8,1.5,1.7,1.6
	c0.6,0.1,1.2,0.1,1.8,0.1c0.6,0,1.1-0.4,1.1-1c0,0,0,0,0-0.1v-8.7c0-0.6-0.5-1.1-1.1-1.1c-11.4-0.6-20.3-10.3-19.7-21.7
	c0.5-10.7,9-19.2,19.7-19.7c0.6,0,1.1-0.5,1.1-1.1V1.1c0-0.3-0.1-0.6-0.3-0.8C31.1,0.1,30.8,0,30.5,0c-0.6,0-1.2,0.1-1.8,0.1
	c-0.9,0.1-1.5,0.8-1.7,1.6L26.3,6c-3.2,0.7-6.3,1.9-9,3.8l-3.5-2.5c-0.7-0.5-1.6-0.5-2.4,0c-0.8,0.6-1.5,1.3-2.2,2
	c-0.7,0.7-1.4,1.4-2,2.2c-0.5,0.7-0.5,1.7,0,2.4l2.5,3.5C8,20,6.7,23.1,6,26.3L1.8,27c-0.9,0.1-1.5,0.8-1.6,1.7
	c-0.2,2-0.2,3.9,0,5.9C0.3,35.4,0.9,36.1,1.8,36.3z M30.6,15.3c-9,0.5-15.9,8.2-15.4,17.2c0.5,8.3,7.1,15,15.4,15.4
	c0.3,0,0.5-0.1,0.7-0.3c0.2-0.2,0.3-0.5,0.3-0.7V16.3c0-0.3-0.1-0.5-0.3-0.7C31.1,15.4,30.9,15.3,30.6,15.3z M39.3,16.4h-5.4v2.2
	h5.5c1.8,0,3.3-1.5,3.3-3.3V8.5c1.7-0.6,2.6-2.5,2-4.2s-2.5-2.6-4.2-2s-2.6,2.5-2,4.2c0.3,0.9,1.1,1.7,2,2v6.8
	C40.4,15.9,39.9,16.4,39.3,16.4z M33.8,22.9h10.9c0.6,0,1.1-0.5,1.1-1.1s-0.5-1.1-1.1-1.1H33.8V22.9z M33.8,46.9h5.5
	c0.6,0,1.1,0.5,1.1,1.1c0,0,0,0,0,0v6.8c-1.7,0.6-2.6,2.5-2,4.2s2.5,2.6,4.2,2s2.6-2.5,2-4.2c-0.3-0.9-1.1-1.7-2-2V48
	c0-1.8-1.5-3.3-3.3-3.3h-5.4V46.9L33.8,46.9z M50.2,36H33.8v2.2h16.4c0.6,0,1.1,0.5,1.1,1.1l0,0v5.7c-1.7,0.6-2.6,2.5-2,4.2
	s2.5,2.6,4.2,2s2.6-2.5,2-4.2c-0.3-0.9-1.1-1.7-2-2v-5.7C53.5,37.5,52,36,50.2,36z M61.1,28.4c-1.4,0-2.6,0.9-3.1,2.2H33.8v2.2H58
	c0.6,1.7,2.5,2.6,4.2,2c1.7-0.6,2.6-2.5,2-4.2C63.7,29.2,62.5,28.4,61.1,28.4L61.1,28.4z M45.8,41.5c0-0.6-0.5-1.1-1.1-1.1l0,0H33.8
	v2.2h10.9C45.3,42.6,45.8,42.1,45.8,41.5L45.8,41.5z M53.5,24v-5.6c1.7-0.6,2.6-2.5,2-4.2s-2.5-2.6-4.2-2c-1.7,0.6-2.6,2.5-2,4.2
	c0.3,0.9,1.1,1.7,2,2V24c0,0.6-0.5,1.1-1.1,1.1c0,0,0,0,0,0H33.8v2.2h16.4C52,27.3,53.5,25.8,53.5,24z"/>
</svg>
