<?xml version="1.0" encoding="utf-8"?>
<!-- Generator: Adobe Illustrator 25.1.0, SVG Export Plug-In . SVG Version: 6.00 Build 0)  -->
<svg version="1.1" id="Layer_1" xmlns="http://www.w3.org/2000/svg" xmlns:xlink="http://www.w3.org/1999/xlink" x="0px" y="0px"
	 viewBox="0 0 48.8 58.7" style="enable-background:new 0 0 48.8 58.7;" xml:space="preserve">
<style type="text/css">
	.st0{fill:url(#SVGID_1_);}
</style>
<linearGradient id="SVGID_1_" gradientUnits="userSpaceOnUse" x1="0" y1="30.655" x2="48.76" y2="30.655" gradientTransform="matrix(1 0 0 -1 0 60)">
	<stop  offset="0" style="stop-color:#9B9AA0"/>
	<stop  offset="1" style="stop-color:#FFFFFF"/>
</linearGradient>
<path class="st0" d="M47,6.8c1.1,1,1.7,2.4,1.8,3.9c-0.1,1.5-0.7,2.9-1.8,3.9c-1.5,1.5-3.2,2.7-5.1,3.5c-4.6,2.2-10.9,3.3-17.5,3.3
	s-12.8-1.2-17.5-3.3c-1.9-0.8-3.7-2-5.1-3.5c-1.1-1-1.7-2.4-1.7-3.9c0.1-1.5,0.7-2.9,1.8-3.9C3.2,5.3,5,4.2,6.9,3.3
	C12.4,1,18.4-0.1,24.4,0c6-0.1,12,1,17.5,3.3C43.8,4.2,45.5,5.4,47,6.8z M42.7,44.7c-4.9,2.3-11.4,3.5-18.3,3.5S11,46.9,6.1,44.7
	c-2.3-1-4.4-2.5-6.1-4.4v7.7c0.1,1.5,0.7,2.9,1.8,3.9c1.5,1.5,3.2,2.7,5.1,3.5c5.5,2.3,11.5,3.5,17.5,3.3c6,0.1,12-1,17.5-3.3
	c1.9-0.8,3.6-2,5.1-3.5c1.1-1,1.7-2.4,1.8-3.9v-7.7C47.1,42.1,45,43.6,42.7,44.7z M6.9,43c4.7,2.2,10.9,3.3,17.5,3.3
	s12.9-1.2,17.5-3.3c1.9-0.8,3.6-2,5.1-3.5c1.1-1,1.7-2.4,1.8-3.9v-7.2c-1.7,1.9-3.8,3.4-6.1,4.4c-4.9,2.3-11.4,3.5-18.3,3.5
	S11,35,6.1,32.8c-2.3-1-4.4-2.5-6.1-4.4v7.2c0.1,1.5,0.7,2.9,1.8,3.9C3.2,41,5,42.2,6.9,43z M6.9,31.1c5.5,2.3,11.5,3.5,17.5,3.3
	c6,0.1,12-1,17.5-3.3c1.9-0.8,3.6-2,5.1-3.5c1.1-1,1.7-2.4,1.8-3.9v-8.3c-1.7,1.9-3.8,3.4-6.1,4.4c-4.9,2.3-11.4,3.5-18.3,3.5
	S11,22.1,6.1,19.9c-2.4-1-4.4-2.5-6.1-4.4v8.3c0.1,1.5,0.7,2.9,1.8,3.9C3.2,29.1,5,30.3,6.9,31.1L6.9,31.1z"/>
</svg>
