<?xml version="1.0" encoding="utf-8"?>
<!-- Generator: Adobe Illustrator 25.1.0, SVG Export Plug-In . SVG Version: 6.00 Build 0)  -->
<svg version="1.1" id="Layer_1" xmlns="http://www.w3.org/2000/svg" xmlns:xlink="http://www.w3.org/1999/xlink" x="0px" y="0px"
	 viewBox="0 0 47.8 59.3" style="enable-background:new 0 0 47.8 59.3;" xml:space="preserve">
<style type="text/css">
	.st0{fill:url(#SVGID_1_);}
</style>
<linearGradient id="SVGID_1_" gradientUnits="userSpaceOnUse" x1="-9.992198e-03" y1="32.3518" x2="47.75" y2="32.3518" gradientTransform="matrix(1 0 0 -1 0 62)">
	<stop  offset="0" style="stop-color:#9B9AA0"/>
	<stop  offset="1" style="stop-color:#FFFFFF"/>
</linearGradient>
<path class="st0" d="M39.1,33.7c-1.1-2-6-6.6-7.5-8.1C33.4,7.7,23.9,0,23.9,0s-9.5,7.7-7.7,25.6c-1.6,1.5-6.4,6.1-7.5,8.1
	C7.3,36,10,44.9,12.1,49c0,0,0.4,0.9,0.8,0.6c0.4-0.4,0.8-0.8,1.1-1.2c0.1-0.2,0-0.6-0.2-1c-0.3-0.8-0.6-1.7-0.8-2.6
	c-0.1-0.8,0.2-1.6,0.8-2.2c0.6-0.6,3.2-3.2,5-5c0.3,0.8,0.6,1.7,0.9,2.6c0.2,0.6,0.8,1.1,1.5,1.2c1.1,0.2,2.7,0.2,2.7,0.2
	s1.6,0,2.7-0.2c0.7-0.1,1.2-0.5,1.4-1.2c0.3-0.9,0.6-1.7,0.9-2.6c1.7,1.8,4.4,4.5,4.9,5c0.6,0.5,0.9,1.3,0.8,2.2
	c-0.2,0.9-0.5,1.7-0.8,2.6c-0.1,0.3-0.3,0.8-0.2,1c0.3,0.4,0.7,0.8,1.1,1.2c0.4,0.3,0.8-0.6,0.8-0.6C37.7,44.9,40.5,36,39.1,33.7z
	 M23.9,21.2c-2.4,0-4.3-1.9-4.3-4.3c0-2.4,1.9-4.3,4.3-4.3c2.4,0,4.3,1.9,4.3,4.3c0,0,0,0,0,0C28.1,19.3,26.2,21.2,23.9,21.2z
	 M23.9,19.2c-1.3,0-2.3-1-2.3-2.3s1-2.3,2.3-2.3c1.3,0,2.3,1,2.3,2.3c0,0,0,0,0,0C26.1,18.3,25.1,19.3,23.9,19.2L23.9,19.2z
	 M47.8,35.4c0,13.2-10.7,23.9-23.9,23.9C10.7,59.3,0,48.6,0,35.4c0-9.6,5.7-18.2,14.5-22c-0.2,0.8-0.3,1.7-0.4,2.6
	C3.4,21.5-0.9,34.6,4.5,45.2S23,60.2,33.7,54.7s14.9-18.5,9.5-29.1c-2.1-4.1-5.4-7.4-9.5-9.5c-0.1-0.9-0.2-1.8-0.4-2.6
	C42,17.2,47.7,25.9,47.8,35.4z"/>
</svg>
