<?xml version="1.0" encoding="utf-8"?>
<!-- Generator: Adobe Illustrator 25.1.0, SVG Export Plug-In . SVG Version: 6.00 Build 0)  -->
<svg version="1.1" id="Layer_1" xmlns="http://www.w3.org/2000/svg" xmlns:xlink="http://www.w3.org/1999/xlink" x="0px" y="0px"
	 viewBox="0 0 63.9 55.3" style="enable-background:new 0 0 63.9 55.3;" xml:space="preserve">
<style type="text/css">
	.st0{fill:url(#Layer_2_1_);}
</style>
<linearGradient id="Layer_2_1_" gradientUnits="userSpaceOnUse" x1="-3.572571e-04" y1="27.6725" x2="63.89" y2="27.6725">
	<stop  offset="0" style="stop-color:#9B9AA0"/>
	<stop  offset="1" style="stop-color:#FFFFFF"/>
</linearGradient>
<path id="Layer_2_2_" class="st0" d="M38.7,3.8v12.6h2.5V0H10.5v3h27.4C38.4,3,38.7,3.4,38.7,3.8C38.7,3.8,38.7,3.8,38.7,3.8z
	 M23.3,13.1l2.2,2.9c0.2,0.2,0.5,0.4,0.8,0.4h10.9V4.6H6.3v7.4h14.9C22,12.1,22.8,12.4,23.3,13.1z M31.5,42.6l2.7-1.6
	c0.3-0.2,0.6-0.6,0.5-1c0-0.3,0-0.6,0-0.8c0-0.3,0-0.6,0-0.8c0-0.4-0.2-0.8-0.5-1l-2.7-1.5c-0.3-0.2-0.5-0.5-0.4-0.9
	c0.8-3.2,2.5-6.2,4.9-8.5c0.3-0.3,0.7-0.3,1-0.1l2.7,1.5c0.4,0.2,0.8,0.2,1.2,0c0.5-0.3,0.9-0.6,1.5-0.8c0.4-0.2,0.6-0.6,0.6-1v-3.1
	c0-0.4,0.2-0.7,0.6-0.8c2-0.6,4-0.8,6.1-0.6v-2.8c0-0.3-0.2-0.6-0.5-0.6c0,0,0,0,0,0H26.2c-0.8,0-1.6-0.4-2-1L22,14
	c-0.2-0.2-0.5-0.4-0.8-0.4H0.6c-0.3,0-0.6,0.3-0.6,0.6c0,0,0,0,0,0v31.9c0,0.3,0.3,0.6,0.6,0.6c0,0,0,0,0,0h31.7
	c-0.5-1-0.8-2.1-1.1-3.2C31.1,43.1,31.2,42.7,31.5,42.6z M60.4,39.9c0-0.2,0-0.5,0-0.7s0-0.5,0-0.7c-0.1-1,0.4-2,1.3-2.5l2.2-1.2
	c-0.7-2.5-2.1-4.8-3.9-6.7l-2.2,1.2c-0.9,0.5-2,0.5-2.8-0.1c-0.4-0.3-0.8-0.5-1.3-0.7c-0.9-0.5-1.5-1.4-1.5-2.4v-2.5
	c-2.6-0.6-5.2-0.6-7.8,0V26c0,1-0.6,1.9-1.5,2.4c-0.4,0.2-0.9,0.5-1.3,0.7c-0.8,0.6-1.9,0.6-2.8,0.1L36.7,28
	c-1.8,1.9-3.2,4.2-3.9,6.7l2.2,1.2c0.9,0.5,1.4,1.5,1.3,2.5c0,0.2,0,0.5,0,0.7s0,0.5,0,0.7c0.1,1-0.4,2-1.3,2.5l-2.2,1.2
	c0.7,2.5,2.1,4.8,3.9,6.7l2.2-1.2c0.9-0.5,2-0.5,2.8,0.1c0.4,0.3,0.8,0.6,1.3,0.8c0.9,0.4,1.5,1.4,1.5,2.4v2.5
	c2.6,0.6,5.2,0.6,7.8,0v-2.5c0-1,0.6-1.9,1.5-2.3c0.4-0.2,0.9-0.5,1.3-0.8c0.8-0.6,1.9-0.6,2.8-0.1l2.2,1.2c1.8-1.9,3.2-4.2,3.9-6.7
	l-2.2-1.2C60.8,41.9,60.3,40.9,60.4,39.9z M48.4,44.2c-2.8,0-5.1-2.2-5.1-5s2.2-5.1,5-5.1c2.8,0,5.1,2.2,5.1,5c0,0,0,0,0,0.1
	C53.4,41.9,51.2,44.2,48.4,44.2L48.4,44.2z"/>
</svg>
