<?xml version="1.0" encoding="utf-8"?>
<!-- Generator: Adobe Illustrator 23.0.2, SVG Export Plug-In . SVG Version: 6.00 Build 0)  -->
<svg version="1.1" id="Layer_1" xmlns="http://www.w3.org/2000/svg" xmlns:xlink="http://www.w3.org/1999/xlink" x="0px" y="0px"
	 viewBox="0 0 69 64" style="enable-background:new 0 0 69 64;" xml:space="preserve">
<style type="text/css">
	.st0{opacity:0.8;fill:url(#SVGID_1_);enable-background:new    ;}
</style>
<linearGradient id="SVGID_1_" gradientUnits="userSpaceOnUse" x1="34.525" y1="904.24" x2="34.525" y2="989.34" gradientTransform="matrix(1 0 0 1 0 -914)">
	<stop  offset="0" style="stop-color:#FFFFFF"/>
	<stop  offset="1" style="stop-color:#000000"/>
</linearGradient>
<path class="st0" d="M40.7,59.6c-0.1,0-0.3,0.1-0.4,0.1C40.4,59.6,40.5,59.6,40.7,59.6z M40.8,59.6L40.8,59.6z M12,52.3h31.8v3.4
	c0,1.2-0.5,2.3-1.4,3l-0.1,0.1c-0.1,0-0.1,0.1-0.2,0.1c-0.3,0.3-0.6,0.4-1,0.5c-0.1,0.1-0.2,0.1-0.3,0.1c-2.4,0.5-7.5-0.2-24.9,0.1
	c-0.6,0-1.1-0.1-1.6-0.3c-1.4-0.6-2.3-2-2.3-3.5v-1.9C12.1,53.3,12.1,52.8,12,52.3z M26,55.9c0.1,1.1,1,1.8,2,1.8
	c0.9-0.1,1.7-0.8,1.8-1.8v-0.3c-0.2-1-1-1.7-2-1.7c-0.9,0-1.7,0.7-1.8,1.7C26.1,55.7,26.1,55.9,26,55.9L26,55.9z M41.2,59.5
	l-0.2,0.1h-0.1L41.2,59.5z M44,8.3c0-2.1-1.6-3.8-3.6-4H15.7c-1.9,0.2-3.4,1.7-3.6,3.6v1.5h31.8L44,8.3z M35.7,46.3v-3l-2.1,2.1
	c-0.8,0.7-2,0.7-2.7,0l0,0l-4.6-4.6c-0.7-0.8-0.7-2,0-2.7l0,0l1.9-1.9c0-0.1-0.1-0.2-0.1-0.3h-2.8c-1.1,0-2-0.9-2-2v-6.2
	c0-1.1,0.9-2,2-2h2.3c0.1-0.2,0.2-0.3,0.2-0.5l-1.6-1.5c-0.7-0.8-0.7-2,0-2.7l0,0l4.6-4.6c0.8-0.7,2-0.7,2.8,0l1.4,1.4
	c0.3-0.1,0.5-0.3,0.8-0.4v-2c0-1.1,0.9-2,2-2H44v-2.6h-32v40.2h31.8v-2.7h-6.2C36.6,48.2,35.7,47.3,35.7,46.3L35.7,46.3z M57,27.6
	V34c0,0.4-0.3,0.7-0.7,0.7h-3.6c-0.2,0.6-0.4,1.2-0.8,1.8l2.6,2.6c0.3,0.3,0.3,0.7,0,1l-4.6,4.5c-0.3,0.3-0.7,0.3-1,0l-2.7-2.8
	c-0.5,0.2-1,0.4-1.7,0.6v3.9c0,0.4-0.3,0.7-0.7,0.7h-6.4c-0.4,0-0.7-0.3-0.7-0.6c0,0,0,0,0,0v-3.9c-0.6-0.1-1.1-0.3-1.6-0.6
	l-2.7,2.8c-0.3,0.3-0.7,0.3-1,0L27,40c-0.3-0.3-0.3-0.7,0-1c0,0,0,0,0,0l2.6-2.6l-0.8-1.8h-3.5c-0.3,0-0.6-0.2-0.7-0.6v-6.4
	c0-0.4,0.3-0.7,0.6-0.7c0,0,0,0,0,0h3.2c0.2-0.7,0.4-1.5,0.8-2.2L27,22.5c-0.3-0.3-0.3-0.7,0-1l4.6-4.6c0.3-0.3,0.7-0.3,0.9,0
	l2.1,2.1c0.8-0.4,1.6-0.7,2.3-1v-2.9c0-0.4,0.3-0.7,0.6-0.7c0,0,0,0,0,0h6.4c0.4,0,0.7,0.3,0.7,0.6c0,0,0,0,0,0v2.9
	c0.8,0.2,1.5,0.6,2.3,1l2.1-2.1c0.3-0.3,0.7-0.3,1,0c0,0,0,0,0,0l0,0l4.6,4.6c0.3,0.3,0.3,0.7,0,1l-2.3,2.3c0.3,0.7,0.6,1.4,0.7,2.2
	h3.1C56.6,27,57,27.3,57,27.6L57,27.6z M48.7,30.8c0-4.3-3.5-7.8-7.8-7.8s-7.8,3.5-7.8,7.8c0,4.3,3.5,7.8,7.8,7.8l0,0
	C45.2,38.6,48.6,35.1,48.7,30.8C48.6,30.9,48.6,30.9,48.7,30.8L48.7,30.8L48.7,30.8z"/>
</svg>
